%TF.GenerationSoftware,KiCad,Pcbnew,(6.0.0)*%
%TF.CreationDate,2022-05-25T15:20:13+02:00*%
%TF.ProjectId,driver-board,64726976-6572-42d6-926f-6172642e6b69,rev?*%
%TF.SameCoordinates,Original*%
%TF.FileFunction,Copper,L2,Bot*%
%TF.FilePolarity,Positive*%
%FSLAX46Y46*%
G04 Gerber Fmt 4.6, Leading zero omitted, Abs format (unit mm)*
G04 Created by KiCad (PCBNEW (6.0.0)) date 2022-05-25 15:20:13*
%MOMM*%
%LPD*%
G01*
G04 APERTURE LIST*
G04 Aperture macros list*
%AMRoundRect*
0 Rectangle with rounded corners*
0 $1 Rounding radius*
0 $2 $3 $4 $5 $6 $7 $8 $9 X,Y pos of 4 corners*
0 Add a 4 corners polygon primitive as box body*
4,1,4,$2,$3,$4,$5,$6,$7,$8,$9,$2,$3,0*
0 Add four circle primitives for the rounded corners*
1,1,$1+$1,$2,$3*
1,1,$1+$1,$4,$5*
1,1,$1+$1,$6,$7*
1,1,$1+$1,$8,$9*
0 Add four rect primitives between the rounded corners*
20,1,$1+$1,$2,$3,$4,$5,0*
20,1,$1+$1,$4,$5,$6,$7,0*
20,1,$1+$1,$6,$7,$8,$9,0*
20,1,$1+$1,$8,$9,$2,$3,0*%
G04 Aperture macros list end*
%ADD10C,0.100000*%
%ADD11C,0.150000*%
%ADD12C,0.300000*%
%ADD13C,0.400000*%
%TA.AperFunction,SMDPad,CuDef*%
%ADD14RoundRect,0.250000X-0.450000X0.350000X-0.450000X-0.350000X0.450000X-0.350000X0.450000X0.350000X0*%
%TD*%
%TA.AperFunction,ComponentPad*%
%ADD15R,1.700000X1.700000*%
%TD*%
%TA.AperFunction,ComponentPad*%
%ADD16O,1.700000X1.700000*%
%TD*%
%TA.AperFunction,ConnectorPad*%
%ADD17R,1.600000X4.900000*%
%TD*%
%TA.AperFunction,ComponentPad*%
%ADD18R,2.000000X2.000000*%
%TD*%
%TA.AperFunction,ComponentPad*%
%ADD19C,2.000000*%
%TD*%
%TA.AperFunction,ViaPad*%
%ADD20C,0.800000*%
%TD*%
%TA.AperFunction,Conductor*%
%ADD21C,1.000000*%
%TD*%
%TA.AperFunction,Conductor*%
%ADD22C,0.550000*%
%TD*%
%TA.AperFunction,Conductor*%
%ADD23C,0.400000*%
%TD*%
G04 APERTURE END LIST*
D10*
D11*
X177002200Y-166007200D02*
X177002200Y-198007200D01*
X285002200Y-198007200D01*
X285002200Y-166007200D01*
X177002200Y-166007200D01*
D10*
D11*
X10000000Y-10000000D02*
X10000000Y-200007200D01*
X287002200Y-200007200D01*
X287002200Y-10000000D01*
X10000000Y-10000000D01*
D10*
D11*
X12000000Y-12000000D02*
X12000000Y-198007200D01*
X285002200Y-198007200D01*
X285002200Y-12000000D01*
X12000000Y-12000000D01*
D10*
D11*
X60000000Y-12000000D02*
X60000000Y-10000000D01*
D10*
D11*
X110000000Y-12000000D02*
X110000000Y-10000000D01*
D10*
D11*
X160000000Y-12000000D02*
X160000000Y-10000000D01*
D10*
D11*
X210000000Y-12000000D02*
X210000000Y-10000000D01*
D10*
D11*
X260000000Y-12000000D02*
X260000000Y-10000000D01*
D10*
D11*
X36065476Y-11588095D02*
X35322619Y-11588095D01*
X35694047Y-11588095D02*
X35694047Y-10288095D01*
X35570238Y-10473809D01*
X35446428Y-10597619D01*
X35322619Y-10659523D01*
D10*
D11*
X85322619Y-10411904D02*
X85384523Y-10350000D01*
X85508333Y-10288095D01*
X85817857Y-10288095D01*
X85941666Y-10350000D01*
X86003571Y-10411904D01*
X86065476Y-10535714D01*
X86065476Y-10659523D01*
X86003571Y-10845238D01*
X85260714Y-11588095D01*
X86065476Y-11588095D01*
D10*
D11*
X135260714Y-10288095D02*
X136065476Y-10288095D01*
X135632142Y-10783333D01*
X135817857Y-10783333D01*
X135941666Y-10845238D01*
X136003571Y-10907142D01*
X136065476Y-11030952D01*
X136065476Y-11340476D01*
X136003571Y-11464285D01*
X135941666Y-11526190D01*
X135817857Y-11588095D01*
X135446428Y-11588095D01*
X135322619Y-11526190D01*
X135260714Y-11464285D01*
D10*
D11*
X185941666Y-10721428D02*
X185941666Y-11588095D01*
X185632142Y-10226190D02*
X185322619Y-11154761D01*
X186127380Y-11154761D01*
D10*
D11*
X236003571Y-10288095D02*
X235384523Y-10288095D01*
X235322619Y-10907142D01*
X235384523Y-10845238D01*
X235508333Y-10783333D01*
X235817857Y-10783333D01*
X235941666Y-10845238D01*
X236003571Y-10907142D01*
X236065476Y-11030952D01*
X236065476Y-11340476D01*
X236003571Y-11464285D01*
X235941666Y-11526190D01*
X235817857Y-11588095D01*
X235508333Y-11588095D01*
X235384523Y-11526190D01*
X235322619Y-11464285D01*
D10*
D11*
X285941666Y-10288095D02*
X285694047Y-10288095D01*
X285570238Y-10350000D01*
X285508333Y-10411904D01*
X285384523Y-10597619D01*
X285322619Y-10845238D01*
X285322619Y-11340476D01*
X285384523Y-11464285D01*
X285446428Y-11526190D01*
X285570238Y-11588095D01*
X285817857Y-11588095D01*
X285941666Y-11526190D01*
X286003571Y-11464285D01*
X286065476Y-11340476D01*
X286065476Y-11030952D01*
X286003571Y-10907142D01*
X285941666Y-10845238D01*
X285817857Y-10783333D01*
X285570238Y-10783333D01*
X285446428Y-10845238D01*
X285384523Y-10907142D01*
X285322619Y-11030952D01*
D10*
D11*
X60000000Y-198007200D02*
X60000000Y-200007200D01*
D10*
D11*
X110000000Y-198007200D02*
X110000000Y-200007200D01*
D10*
D11*
X160000000Y-198007200D02*
X160000000Y-200007200D01*
D10*
D11*
X210000000Y-198007200D02*
X210000000Y-200007200D01*
D10*
D11*
X260000000Y-198007200D02*
X260000000Y-200007200D01*
D10*
D11*
X36065476Y-199595295D02*
X35322619Y-199595295D01*
X35694047Y-199595295D02*
X35694047Y-198295295D01*
X35570238Y-198481009D01*
X35446428Y-198604819D01*
X35322619Y-198666723D01*
D10*
D11*
X85322619Y-198419104D02*
X85384523Y-198357200D01*
X85508333Y-198295295D01*
X85817857Y-198295295D01*
X85941666Y-198357200D01*
X86003571Y-198419104D01*
X86065476Y-198542914D01*
X86065476Y-198666723D01*
X86003571Y-198852438D01*
X85260714Y-199595295D01*
X86065476Y-199595295D01*
D10*
D11*
X135260714Y-198295295D02*
X136065476Y-198295295D01*
X135632142Y-198790533D01*
X135817857Y-198790533D01*
X135941666Y-198852438D01*
X136003571Y-198914342D01*
X136065476Y-199038152D01*
X136065476Y-199347676D01*
X136003571Y-199471485D01*
X135941666Y-199533390D01*
X135817857Y-199595295D01*
X135446428Y-199595295D01*
X135322619Y-199533390D01*
X135260714Y-199471485D01*
D10*
D11*
X185941666Y-198728628D02*
X185941666Y-199595295D01*
X185632142Y-198233390D02*
X185322619Y-199161961D01*
X186127380Y-199161961D01*
D10*
D11*
X236003571Y-198295295D02*
X235384523Y-198295295D01*
X235322619Y-198914342D01*
X235384523Y-198852438D01*
X235508333Y-198790533D01*
X235817857Y-198790533D01*
X235941666Y-198852438D01*
X236003571Y-198914342D01*
X236065476Y-199038152D01*
X236065476Y-199347676D01*
X236003571Y-199471485D01*
X235941666Y-199533390D01*
X235817857Y-199595295D01*
X235508333Y-199595295D01*
X235384523Y-199533390D01*
X235322619Y-199471485D01*
D10*
D11*
X285941666Y-198295295D02*
X285694047Y-198295295D01*
X285570238Y-198357200D01*
X285508333Y-198419104D01*
X285384523Y-198604819D01*
X285322619Y-198852438D01*
X285322619Y-199347676D01*
X285384523Y-199471485D01*
X285446428Y-199533390D01*
X285570238Y-199595295D01*
X285817857Y-199595295D01*
X285941666Y-199533390D01*
X286003571Y-199471485D01*
X286065476Y-199347676D01*
X286065476Y-199038152D01*
X286003571Y-198914342D01*
X285941666Y-198852438D01*
X285817857Y-198790533D01*
X285570238Y-198790533D01*
X285446428Y-198852438D01*
X285384523Y-198914342D01*
X285322619Y-199038152D01*
D10*
D11*
X10000000Y-60000000D02*
X12000000Y-60000000D01*
D10*
D11*
X10000000Y-110000000D02*
X12000000Y-110000000D01*
D10*
D11*
X10000000Y-160000000D02*
X12000000Y-160000000D01*
D10*
D11*
X10690476Y-35216666D02*
X11309523Y-35216666D01*
X10566666Y-35588095D02*
X11000000Y-34288095D01*
X11433333Y-35588095D01*
D10*
D11*
X11092857Y-84907142D02*
X11278571Y-84969047D01*
X11340476Y-85030952D01*
X11402380Y-85154761D01*
X11402380Y-85340476D01*
X11340476Y-85464285D01*
X11278571Y-85526190D01*
X11154761Y-85588095D01*
X10659523Y-85588095D01*
X10659523Y-84288095D01*
X11092857Y-84288095D01*
X11216666Y-84350000D01*
X11278571Y-84411904D01*
X11340476Y-84535714D01*
X11340476Y-84659523D01*
X11278571Y-84783333D01*
X11216666Y-84845238D01*
X11092857Y-84907142D01*
X10659523Y-84907142D01*
D10*
D11*
X11402380Y-135464285D02*
X11340476Y-135526190D01*
X11154761Y-135588095D01*
X11030952Y-135588095D01*
X10845238Y-135526190D01*
X10721428Y-135402380D01*
X10659523Y-135278571D01*
X10597619Y-135030952D01*
X10597619Y-134845238D01*
X10659523Y-134597619D01*
X10721428Y-134473809D01*
X10845238Y-134350000D01*
X11030952Y-134288095D01*
X11154761Y-134288095D01*
X11340476Y-134350000D01*
X11402380Y-134411904D01*
D10*
D11*
X10659523Y-185588095D02*
X10659523Y-184288095D01*
X10969047Y-184288095D01*
X11154761Y-184350000D01*
X11278571Y-184473809D01*
X11340476Y-184597619D01*
X11402380Y-184845238D01*
X11402380Y-185030952D01*
X11340476Y-185278571D01*
X11278571Y-185402380D01*
X11154761Y-185526190D01*
X10969047Y-185588095D01*
X10659523Y-185588095D01*
D10*
D11*
X287002200Y-60000000D02*
X285002200Y-60000000D01*
D10*
D11*
X287002200Y-110000000D02*
X285002200Y-110000000D01*
D10*
D11*
X287002200Y-160000000D02*
X285002200Y-160000000D01*
D10*
D11*
X285692676Y-35216666D02*
X286311723Y-35216666D01*
X285568866Y-35588095D02*
X286002200Y-34288095D01*
X286435533Y-35588095D01*
D10*
D11*
X286095057Y-84907142D02*
X286280771Y-84969047D01*
X286342676Y-85030952D01*
X286404580Y-85154761D01*
X286404580Y-85340476D01*
X286342676Y-85464285D01*
X286280771Y-85526190D01*
X286156961Y-85588095D01*
X285661723Y-85588095D01*
X285661723Y-84288095D01*
X286095057Y-84288095D01*
X286218866Y-84350000D01*
X286280771Y-84411904D01*
X286342676Y-84535714D01*
X286342676Y-84659523D01*
X286280771Y-84783333D01*
X286218866Y-84845238D01*
X286095057Y-84907142D01*
X285661723Y-84907142D01*
D10*
D11*
X286404580Y-135464285D02*
X286342676Y-135526190D01*
X286156961Y-135588095D01*
X286033152Y-135588095D01*
X285847438Y-135526190D01*
X285723628Y-135402380D01*
X285661723Y-135278571D01*
X285599819Y-135030952D01*
X285599819Y-134845238D01*
X285661723Y-134597619D01*
X285723628Y-134473809D01*
X285847438Y-134350000D01*
X286033152Y-134288095D01*
X286156961Y-134288095D01*
X286342676Y-134350000D01*
X286404580Y-134411904D01*
D10*
D11*
X285661723Y-185588095D02*
X285661723Y-184288095D01*
X285971247Y-184288095D01*
X286156961Y-184350000D01*
X286280771Y-184473809D01*
X286342676Y-184597619D01*
X286404580Y-184845238D01*
X286404580Y-185030952D01*
X286342676Y-185278571D01*
X286280771Y-185402380D01*
X286156961Y-185526190D01*
X285971247Y-185588095D01*
X285661723Y-185588095D01*
D10*
D11*
X200434342Y-193785771D02*
X200434342Y-192285771D01*
X200791485Y-192285771D01*
X201005771Y-192357200D01*
X201148628Y-192500057D01*
X201220057Y-192642914D01*
X201291485Y-192928628D01*
X201291485Y-193142914D01*
X201220057Y-193428628D01*
X201148628Y-193571485D01*
X201005771Y-193714342D01*
X200791485Y-193785771D01*
X200434342Y-193785771D01*
X202577200Y-193785771D02*
X202577200Y-193000057D01*
X202505771Y-192857200D01*
X202362914Y-192785771D01*
X202077200Y-192785771D01*
X201934342Y-192857200D01*
X202577200Y-193714342D02*
X202434342Y-193785771D01*
X202077200Y-193785771D01*
X201934342Y-193714342D01*
X201862914Y-193571485D01*
X201862914Y-193428628D01*
X201934342Y-193285771D01*
X202077200Y-193214342D01*
X202434342Y-193214342D01*
X202577200Y-193142914D01*
X203077200Y-192785771D02*
X203648628Y-192785771D01*
X203291485Y-192285771D02*
X203291485Y-193571485D01*
X203362914Y-193714342D01*
X203505771Y-193785771D01*
X203648628Y-193785771D01*
X204720057Y-193714342D02*
X204577200Y-193785771D01*
X204291485Y-193785771D01*
X204148628Y-193714342D01*
X204077200Y-193571485D01*
X204077200Y-193000057D01*
X204148628Y-192857200D01*
X204291485Y-192785771D01*
X204577200Y-192785771D01*
X204720057Y-192857200D01*
X204791485Y-193000057D01*
X204791485Y-193142914D01*
X204077200Y-193285771D01*
X205434342Y-193642914D02*
X205505771Y-193714342D01*
X205434342Y-193785771D01*
X205362914Y-193714342D01*
X205434342Y-193642914D01*
X205434342Y-193785771D01*
X205434342Y-192857200D02*
X205505771Y-192928628D01*
X205434342Y-193000057D01*
X205362914Y-192928628D01*
X205434342Y-192857200D01*
X205434342Y-193000057D01*
D10*
D11*
X177002200Y-194507200D02*
X285002200Y-194507200D01*
D10*
D11*
X178434342Y-196585771D02*
X178434342Y-195085771D01*
X179291485Y-196585771D02*
X178648628Y-195728628D01*
X179291485Y-195085771D02*
X178434342Y-195942914D01*
X179934342Y-196585771D02*
X179934342Y-195585771D01*
X179934342Y-195085771D02*
X179862914Y-195157200D01*
X179934342Y-195228628D01*
X180005771Y-195157200D01*
X179934342Y-195085771D01*
X179934342Y-195228628D01*
X181505771Y-196442914D02*
X181434342Y-196514342D01*
X181220057Y-196585771D01*
X181077200Y-196585771D01*
X180862914Y-196514342D01*
X180720057Y-196371485D01*
X180648628Y-196228628D01*
X180577200Y-195942914D01*
X180577200Y-195728628D01*
X180648628Y-195442914D01*
X180720057Y-195300057D01*
X180862914Y-195157200D01*
X181077200Y-195085771D01*
X181220057Y-195085771D01*
X181434342Y-195157200D01*
X181505771Y-195228628D01*
X182791485Y-196585771D02*
X182791485Y-195800057D01*
X182720057Y-195657200D01*
X182577200Y-195585771D01*
X182291485Y-195585771D01*
X182148628Y-195657200D01*
X182791485Y-196514342D02*
X182648628Y-196585771D01*
X182291485Y-196585771D01*
X182148628Y-196514342D01*
X182077200Y-196371485D01*
X182077200Y-196228628D01*
X182148628Y-196085771D01*
X182291485Y-196014342D01*
X182648628Y-196014342D01*
X182791485Y-195942914D01*
X184148628Y-196585771D02*
X184148628Y-195085771D01*
X184148628Y-196514342D02*
X184005771Y-196585771D01*
X183720057Y-196585771D01*
X183577200Y-196514342D01*
X183505771Y-196442914D01*
X183434342Y-196300057D01*
X183434342Y-195871485D01*
X183505771Y-195728628D01*
X183577200Y-195657200D01*
X183720057Y-195585771D01*
X184005771Y-195585771D01*
X184148628Y-195657200D01*
X186005771Y-195800057D02*
X186505771Y-195800057D01*
X186720057Y-196585771D02*
X186005771Y-196585771D01*
X186005771Y-195085771D01*
X186720057Y-195085771D01*
X187362914Y-196442914D02*
X187434342Y-196514342D01*
X187362914Y-196585771D01*
X187291485Y-196514342D01*
X187362914Y-196442914D01*
X187362914Y-196585771D01*
X188077200Y-196585771D02*
X188077200Y-195085771D01*
X188434342Y-195085771D01*
X188648628Y-195157200D01*
X188791485Y-195300057D01*
X188862914Y-195442914D01*
X188934342Y-195728628D01*
X188934342Y-195942914D01*
X188862914Y-196228628D01*
X188791485Y-196371485D01*
X188648628Y-196514342D01*
X188434342Y-196585771D01*
X188077200Y-196585771D01*
X189577200Y-196442914D02*
X189648628Y-196514342D01*
X189577200Y-196585771D01*
X189505771Y-196514342D01*
X189577200Y-196442914D01*
X189577200Y-196585771D01*
X190220057Y-196157200D02*
X190934342Y-196157200D01*
X190077200Y-196585771D02*
X190577200Y-195085771D01*
X191077200Y-196585771D01*
X191577200Y-196442914D02*
X191648628Y-196514342D01*
X191577200Y-196585771D01*
X191505771Y-196514342D01*
X191577200Y-196442914D01*
X191577200Y-196585771D01*
X194577200Y-196585771D02*
X194577200Y-195085771D01*
X194720057Y-196014342D02*
X195148628Y-196585771D01*
X195148628Y-195585771D02*
X194577200Y-196157200D01*
X195791485Y-196585771D02*
X195791485Y-195585771D01*
X195791485Y-195085771D02*
X195720057Y-195157200D01*
X195791485Y-195228628D01*
X195862914Y-195157200D01*
X195791485Y-195085771D01*
X195791485Y-195228628D01*
X197148628Y-196514342D02*
X197005771Y-196585771D01*
X196720057Y-196585771D01*
X196577200Y-196514342D01*
X196505771Y-196442914D01*
X196434342Y-196300057D01*
X196434342Y-195871485D01*
X196505771Y-195728628D01*
X196577200Y-195657200D01*
X196720057Y-195585771D01*
X197005771Y-195585771D01*
X197148628Y-195657200D01*
X198434342Y-196585771D02*
X198434342Y-195800057D01*
X198362914Y-195657200D01*
X198220057Y-195585771D01*
X197934342Y-195585771D01*
X197791485Y-195657200D01*
X198434342Y-196514342D02*
X198291485Y-196585771D01*
X197934342Y-196585771D01*
X197791485Y-196514342D01*
X197720057Y-196371485D01*
X197720057Y-196228628D01*
X197791485Y-196085771D01*
X197934342Y-196014342D01*
X198291485Y-196014342D01*
X198434342Y-195942914D01*
X199791485Y-196585771D02*
X199791485Y-195085771D01*
X199791485Y-196514342D02*
X199648628Y-196585771D01*
X199362914Y-196585771D01*
X199220057Y-196514342D01*
X199148628Y-196442914D01*
X199077200Y-196300057D01*
X199077200Y-195871485D01*
X199148628Y-195728628D01*
X199220057Y-195657200D01*
X199362914Y-195585771D01*
X199648628Y-195585771D01*
X199791485Y-195657200D01*
X202077200Y-197157200D02*
X202005771Y-197085771D01*
X201862914Y-196871485D01*
X201791485Y-196728628D01*
X201720057Y-196514342D01*
X201648628Y-196157200D01*
X201648628Y-195871485D01*
X201720057Y-195514342D01*
X201791485Y-195300057D01*
X201862914Y-195157200D01*
X202005771Y-194942914D01*
X202077200Y-194871485D01*
X203291485Y-195085771D02*
X203005771Y-195085771D01*
X202862914Y-195157200D01*
X202791485Y-195228628D01*
X202648628Y-195442914D01*
X202577200Y-195728628D01*
X202577200Y-196300057D01*
X202648628Y-196442914D01*
X202720057Y-196514342D01*
X202862914Y-196585771D01*
X203148628Y-196585771D01*
X203291485Y-196514342D01*
X203362914Y-196442914D01*
X203434342Y-196300057D01*
X203434342Y-195942914D01*
X203362914Y-195800057D01*
X203291485Y-195728628D01*
X203148628Y-195657200D01*
X202862914Y-195657200D01*
X202720057Y-195728628D01*
X202648628Y-195800057D01*
X202577200Y-195942914D01*
X204077200Y-196442914D02*
X204148628Y-196514342D01*
X204077200Y-196585771D01*
X204005771Y-196514342D01*
X204077200Y-196442914D01*
X204077200Y-196585771D01*
X205077200Y-195085771D02*
X205220057Y-195085771D01*
X205362914Y-195157200D01*
X205434342Y-195228628D01*
X205505771Y-195371485D01*
X205577200Y-195657200D01*
X205577200Y-196014342D01*
X205505771Y-196300057D01*
X205434342Y-196442914D01*
X205362914Y-196514342D01*
X205220057Y-196585771D01*
X205077200Y-196585771D01*
X204934342Y-196514342D01*
X204862914Y-196442914D01*
X204791485Y-196300057D01*
X204720057Y-196014342D01*
X204720057Y-195657200D01*
X204791485Y-195371485D01*
X204862914Y-195228628D01*
X204934342Y-195157200D01*
X205077200Y-195085771D01*
X206220057Y-196442914D02*
X206291485Y-196514342D01*
X206220057Y-196585771D01*
X206148628Y-196514342D01*
X206220057Y-196442914D01*
X206220057Y-196585771D01*
X207220057Y-195085771D02*
X207362914Y-195085771D01*
X207505771Y-195157200D01*
X207577200Y-195228628D01*
X207648628Y-195371485D01*
X207720057Y-195657200D01*
X207720057Y-196014342D01*
X207648628Y-196300057D01*
X207577200Y-196442914D01*
X207505771Y-196514342D01*
X207362914Y-196585771D01*
X207220057Y-196585771D01*
X207077200Y-196514342D01*
X207005771Y-196442914D01*
X206934342Y-196300057D01*
X206862914Y-196014342D01*
X206862914Y-195657200D01*
X206934342Y-195371485D01*
X207005771Y-195228628D01*
X207077200Y-195157200D01*
X207220057Y-195085771D01*
X208220057Y-197157200D02*
X208291485Y-197085771D01*
X208434342Y-196871485D01*
X208505771Y-196728628D01*
X208577200Y-196514342D01*
X208648628Y-196157200D01*
X208648628Y-195871485D01*
X208577200Y-195514342D01*
X208505771Y-195300057D01*
X208434342Y-195157200D01*
X208291485Y-194942914D01*
X208220057Y-194871485D01*
D10*
D11*
X177002200Y-191507200D02*
X285002200Y-191507200D01*
D10*
D12*
X264411485Y-193785771D02*
X263911485Y-193071485D01*
X263554342Y-193785771D02*
X263554342Y-192285771D01*
X264125771Y-192285771D01*
X264268628Y-192357200D01*
X264340057Y-192428628D01*
X264411485Y-192571485D01*
X264411485Y-192785771D01*
X264340057Y-192928628D01*
X264268628Y-193000057D01*
X264125771Y-193071485D01*
X263554342Y-193071485D01*
X265625771Y-193714342D02*
X265482914Y-193785771D01*
X265197200Y-193785771D01*
X265054342Y-193714342D01*
X264982914Y-193571485D01*
X264982914Y-193000057D01*
X265054342Y-192857200D01*
X265197200Y-192785771D01*
X265482914Y-192785771D01*
X265625771Y-192857200D01*
X265697200Y-193000057D01*
X265697200Y-193142914D01*
X264982914Y-193285771D01*
X266197200Y-192785771D02*
X266554342Y-193785771D01*
X266911485Y-192785771D01*
X267482914Y-193642914D02*
X267554342Y-193714342D01*
X267482914Y-193785771D01*
X267411485Y-193714342D01*
X267482914Y-193642914D01*
X267482914Y-193785771D01*
X267482914Y-192857200D02*
X267554342Y-192928628D01*
X267482914Y-193000057D01*
X267411485Y-192928628D01*
X267482914Y-192857200D01*
X267482914Y-193000057D01*
D10*
D11*
X178362914Y-193714342D02*
X178577200Y-193785771D01*
X178934342Y-193785771D01*
X179077200Y-193714342D01*
X179148628Y-193642914D01*
X179220057Y-193500057D01*
X179220057Y-193357200D01*
X179148628Y-193214342D01*
X179077200Y-193142914D01*
X178934342Y-193071485D01*
X178648628Y-193000057D01*
X178505771Y-192928628D01*
X178434342Y-192857200D01*
X178362914Y-192714342D01*
X178362914Y-192571485D01*
X178434342Y-192428628D01*
X178505771Y-192357200D01*
X178648628Y-192285771D01*
X179005771Y-192285771D01*
X179220057Y-192357200D01*
X179862914Y-193785771D02*
X179862914Y-192785771D01*
X179862914Y-192285771D02*
X179791485Y-192357200D01*
X179862914Y-192428628D01*
X179934342Y-192357200D01*
X179862914Y-192285771D01*
X179862914Y-192428628D01*
X180434342Y-192785771D02*
X181220057Y-192785771D01*
X180434342Y-193785771D01*
X181220057Y-193785771D01*
X182362914Y-193714342D02*
X182220057Y-193785771D01*
X181934342Y-193785771D01*
X181791485Y-193714342D01*
X181720057Y-193571485D01*
X181720057Y-193000057D01*
X181791485Y-192857200D01*
X181934342Y-192785771D01*
X182220057Y-192785771D01*
X182362914Y-192857200D01*
X182434342Y-193000057D01*
X182434342Y-193142914D01*
X181720057Y-193285771D01*
X183077200Y-193642914D02*
X183148628Y-193714342D01*
X183077200Y-193785771D01*
X183005771Y-193714342D01*
X183077200Y-193642914D01*
X183077200Y-193785771D01*
X183077200Y-192857200D02*
X183148628Y-192928628D01*
X183077200Y-193000057D01*
X183005771Y-192928628D01*
X183077200Y-192857200D01*
X183077200Y-193000057D01*
X184862914Y-193357200D02*
X185577200Y-193357200D01*
X184720057Y-193785771D02*
X185220057Y-192285771D01*
X185720057Y-193785771D01*
X186862914Y-192785771D02*
X186862914Y-193785771D01*
X186505771Y-192214342D02*
X186148628Y-193285771D01*
X187077200Y-193285771D01*
D10*
D11*
X263434342Y-196585771D02*
X263434342Y-195085771D01*
X264791485Y-196585771D02*
X264791485Y-195085771D01*
X264791485Y-196514342D02*
X264648628Y-196585771D01*
X264362914Y-196585771D01*
X264220057Y-196514342D01*
X264148628Y-196442914D01*
X264077200Y-196300057D01*
X264077200Y-195871485D01*
X264148628Y-195728628D01*
X264220057Y-195657200D01*
X264362914Y-195585771D01*
X264648628Y-195585771D01*
X264791485Y-195657200D01*
X265505771Y-196442914D02*
X265577200Y-196514342D01*
X265505771Y-196585771D01*
X265434342Y-196514342D01*
X265505771Y-196442914D01*
X265505771Y-196585771D01*
X265505771Y-195657200D02*
X265577200Y-195728628D01*
X265505771Y-195800057D01*
X265434342Y-195728628D01*
X265505771Y-195657200D01*
X265505771Y-195800057D01*
X268148628Y-196585771D02*
X267291485Y-196585771D01*
X267720057Y-196585771D02*
X267720057Y-195085771D01*
X267577200Y-195300057D01*
X267434342Y-195442914D01*
X267291485Y-195514342D01*
X269862914Y-195014342D02*
X268577200Y-196942914D01*
X271148628Y-196585771D02*
X270291485Y-196585771D01*
X270720057Y-196585771D02*
X270720057Y-195085771D01*
X270577200Y-195300057D01*
X270434342Y-195442914D01*
X270291485Y-195514342D01*
D10*
D11*
X177002200Y-187507200D02*
X285002200Y-187507200D01*
D10*
D13*
X178714580Y-188211961D02*
X179857438Y-188211961D01*
X179036009Y-190211961D02*
X179286009Y-188211961D01*
X180274104Y-190211961D02*
X180440771Y-188878628D01*
X180524104Y-188211961D02*
X180416961Y-188307200D01*
X180500295Y-188402438D01*
X180607438Y-188307200D01*
X180524104Y-188211961D01*
X180500295Y-188402438D01*
X181107438Y-188878628D02*
X181869342Y-188878628D01*
X181476485Y-188211961D02*
X181262200Y-189926247D01*
X181333628Y-190116723D01*
X181512200Y-190211961D01*
X181702676Y-190211961D01*
X182655057Y-190211961D02*
X182476485Y-190116723D01*
X182405057Y-189926247D01*
X182619342Y-188211961D01*
X184190771Y-190116723D02*
X183988390Y-190211961D01*
X183607438Y-190211961D01*
X183428866Y-190116723D01*
X183357438Y-189926247D01*
X183452676Y-189164342D01*
X183571723Y-188973866D01*
X183774104Y-188878628D01*
X184155057Y-188878628D01*
X184333628Y-188973866D01*
X184405057Y-189164342D01*
X184381247Y-189354819D01*
X183405057Y-189545295D01*
X185155057Y-190021485D02*
X185238390Y-190116723D01*
X185131247Y-190211961D01*
X185047914Y-190116723D01*
X185155057Y-190021485D01*
X185131247Y-190211961D01*
X185286009Y-188973866D02*
X185369342Y-189069104D01*
X185262200Y-189164342D01*
X185178866Y-189069104D01*
X185286009Y-188973866D01*
X185262200Y-189164342D01*
D10*
D11*
X178934342Y-185600057D02*
X178434342Y-185600057D01*
X178434342Y-186385771D02*
X178434342Y-184885771D01*
X179148628Y-184885771D01*
X179720057Y-186385771D02*
X179720057Y-185385771D01*
X179720057Y-184885771D02*
X179648628Y-184957200D01*
X179720057Y-185028628D01*
X179791485Y-184957200D01*
X179720057Y-184885771D01*
X179720057Y-185028628D01*
X180648628Y-186385771D02*
X180505771Y-186314342D01*
X180434342Y-186171485D01*
X180434342Y-184885771D01*
X181791485Y-186314342D02*
X181648628Y-186385771D01*
X181362914Y-186385771D01*
X181220057Y-186314342D01*
X181148628Y-186171485D01*
X181148628Y-185600057D01*
X181220057Y-185457200D01*
X181362914Y-185385771D01*
X181648628Y-185385771D01*
X181791485Y-185457200D01*
X181862914Y-185600057D01*
X181862914Y-185742914D01*
X181148628Y-185885771D01*
X182505771Y-186242914D02*
X182577200Y-186314342D01*
X182505771Y-186385771D01*
X182434342Y-186314342D01*
X182505771Y-186242914D01*
X182505771Y-186385771D01*
X182505771Y-185457200D02*
X182577200Y-185528628D01*
X182505771Y-185600057D01*
X182434342Y-185528628D01*
X182505771Y-185457200D01*
X182505771Y-185600057D01*
X185005771Y-186385771D02*
X185005771Y-184885771D01*
X185005771Y-186314342D02*
X184862914Y-186385771D01*
X184577200Y-186385771D01*
X184434342Y-186314342D01*
X184362914Y-186242914D01*
X184291485Y-186100057D01*
X184291485Y-185671485D01*
X184362914Y-185528628D01*
X184434342Y-185457200D01*
X184577200Y-185385771D01*
X184862914Y-185385771D01*
X185005771Y-185457200D01*
X185720057Y-186385771D02*
X185720057Y-185385771D01*
X185720057Y-185671485D02*
X185791485Y-185528628D01*
X185862914Y-185457200D01*
X186005771Y-185385771D01*
X186148628Y-185385771D01*
X186648628Y-186385771D02*
X186648628Y-185385771D01*
X186648628Y-184885771D02*
X186577200Y-184957200D01*
X186648628Y-185028628D01*
X186720057Y-184957200D01*
X186648628Y-184885771D01*
X186648628Y-185028628D01*
X187220057Y-185385771D02*
X187577200Y-186385771D01*
X187934342Y-185385771D01*
X189077200Y-186314342D02*
X188934342Y-186385771D01*
X188648628Y-186385771D01*
X188505771Y-186314342D01*
X188434342Y-186171485D01*
X188434342Y-185600057D01*
X188505771Y-185457200D01*
X188648628Y-185385771D01*
X188934342Y-185385771D01*
X189077200Y-185457200D01*
X189148628Y-185600057D01*
X189148628Y-185742914D01*
X188434342Y-185885771D01*
X189791485Y-186385771D02*
X189791485Y-185385771D01*
X189791485Y-185671485D02*
X189862914Y-185528628D01*
X189934342Y-185457200D01*
X190077200Y-185385771D01*
X190220057Y-185385771D01*
X190720057Y-185814342D02*
X191862914Y-185814342D01*
X192577200Y-186385771D02*
X192577200Y-184885771D01*
X192577200Y-185457200D02*
X192720057Y-185385771D01*
X193005771Y-185385771D01*
X193148628Y-185457200D01*
X193220057Y-185528628D01*
X193291485Y-185671485D01*
X193291485Y-186100057D01*
X193220057Y-186242914D01*
X193148628Y-186314342D01*
X193005771Y-186385771D01*
X192720057Y-186385771D01*
X192577200Y-186314342D01*
X194148628Y-186385771D02*
X194005771Y-186314342D01*
X193934342Y-186242914D01*
X193862914Y-186100057D01*
X193862914Y-185671485D01*
X193934342Y-185528628D01*
X194005771Y-185457200D01*
X194148628Y-185385771D01*
X194362914Y-185385771D01*
X194505771Y-185457200D01*
X194577200Y-185528628D01*
X194648628Y-185671485D01*
X194648628Y-186100057D01*
X194577200Y-186242914D01*
X194505771Y-186314342D01*
X194362914Y-186385771D01*
X194148628Y-186385771D01*
X195934342Y-186385771D02*
X195934342Y-185600057D01*
X195862914Y-185457200D01*
X195720057Y-185385771D01*
X195434342Y-185385771D01*
X195291485Y-185457200D01*
X195934342Y-186314342D02*
X195791485Y-186385771D01*
X195434342Y-186385771D01*
X195291485Y-186314342D01*
X195220057Y-186171485D01*
X195220057Y-186028628D01*
X195291485Y-185885771D01*
X195434342Y-185814342D01*
X195791485Y-185814342D01*
X195934342Y-185742914D01*
X196648628Y-186385771D02*
X196648628Y-185385771D01*
X196648628Y-185671485D02*
X196720057Y-185528628D01*
X196791485Y-185457200D01*
X196934342Y-185385771D01*
X197077200Y-185385771D01*
X198220057Y-186385771D02*
X198220057Y-184885771D01*
X198220057Y-186314342D02*
X198077200Y-186385771D01*
X197791485Y-186385771D01*
X197648628Y-186314342D01*
X197577200Y-186242914D01*
X197505771Y-186100057D01*
X197505771Y-185671485D01*
X197577200Y-185528628D01*
X197648628Y-185457200D01*
X197791485Y-185385771D01*
X198077200Y-185385771D01*
X198220057Y-185457200D01*
X198934342Y-186242914D02*
X199005771Y-186314342D01*
X198934342Y-186385771D01*
X198862914Y-186314342D01*
X198934342Y-186242914D01*
X198934342Y-186385771D01*
X199648628Y-186385771D02*
X199648628Y-184885771D01*
X199791485Y-185814342D02*
X200220057Y-186385771D01*
X200220057Y-185385771D02*
X199648628Y-185957200D01*
X200862914Y-186385771D02*
X200862914Y-185385771D01*
X200862914Y-184885771D02*
X200791485Y-184957200D01*
X200862914Y-185028628D01*
X200934342Y-184957200D01*
X200862914Y-184885771D01*
X200862914Y-185028628D01*
X202220057Y-186314342D02*
X202077200Y-186385771D01*
X201791485Y-186385771D01*
X201648628Y-186314342D01*
X201577200Y-186242914D01*
X201505771Y-186100057D01*
X201505771Y-185671485D01*
X201577200Y-185528628D01*
X201648628Y-185457200D01*
X201791485Y-185385771D01*
X202077200Y-185385771D01*
X202220057Y-185457200D01*
X203505771Y-186385771D02*
X203505771Y-185600057D01*
X203434342Y-185457200D01*
X203291485Y-185385771D01*
X203005771Y-185385771D01*
X202862914Y-185457200D01*
X203505771Y-186314342D02*
X203362914Y-186385771D01*
X203005771Y-186385771D01*
X202862914Y-186314342D01*
X202791485Y-186171485D01*
X202791485Y-186028628D01*
X202862914Y-185885771D01*
X203005771Y-185814342D01*
X203362914Y-185814342D01*
X203505771Y-185742914D01*
X204862914Y-186385771D02*
X204862914Y-184885771D01*
X204862914Y-186314342D02*
X204720057Y-186385771D01*
X204434342Y-186385771D01*
X204291485Y-186314342D01*
X204220057Y-186242914D01*
X204148628Y-186100057D01*
X204148628Y-185671485D01*
X204220057Y-185528628D01*
X204291485Y-185457200D01*
X204434342Y-185385771D01*
X204720057Y-185385771D01*
X204862914Y-185457200D01*
X205220057Y-186528628D02*
X206362914Y-186528628D01*
X206720057Y-185385771D02*
X206720057Y-186885771D01*
X206720057Y-185457200D02*
X206862914Y-185385771D01*
X207148628Y-185385771D01*
X207291485Y-185457200D01*
X207362914Y-185528628D01*
X207434342Y-185671485D01*
X207434342Y-186100057D01*
X207362914Y-186242914D01*
X207291485Y-186314342D01*
X207148628Y-186385771D01*
X206862914Y-186385771D01*
X206720057Y-186314342D01*
X208720057Y-186314342D02*
X208577200Y-186385771D01*
X208291485Y-186385771D01*
X208148628Y-186314342D01*
X208077200Y-186242914D01*
X208005771Y-186100057D01*
X208005771Y-185671485D01*
X208077200Y-185528628D01*
X208148628Y-185457200D01*
X208291485Y-185385771D01*
X208577200Y-185385771D01*
X208720057Y-185457200D01*
X209362914Y-186385771D02*
X209362914Y-184885771D01*
X209362914Y-185457200D02*
X209505771Y-185385771D01*
X209791485Y-185385771D01*
X209934342Y-185457200D01*
X210005771Y-185528628D01*
X210077200Y-185671485D01*
X210077200Y-186100057D01*
X210005771Y-186242914D01*
X209934342Y-186314342D01*
X209791485Y-186385771D01*
X209505771Y-186385771D01*
X209362914Y-186314342D01*
D10*
D11*
X177002200Y-181507200D02*
X285002200Y-181507200D01*
D10*
D11*
X178362914Y-183614342D02*
X178577200Y-183685771D01*
X178934342Y-183685771D01*
X179077200Y-183614342D01*
X179148628Y-183542914D01*
X179220057Y-183400057D01*
X179220057Y-183257200D01*
X179148628Y-183114342D01*
X179077200Y-183042914D01*
X178934342Y-182971485D01*
X178648628Y-182900057D01*
X178505771Y-182828628D01*
X178434342Y-182757200D01*
X178362914Y-182614342D01*
X178362914Y-182471485D01*
X178434342Y-182328628D01*
X178505771Y-182257200D01*
X178648628Y-182185771D01*
X179005771Y-182185771D01*
X179220057Y-182257200D01*
X179862914Y-183685771D02*
X179862914Y-182185771D01*
X180505771Y-183685771D02*
X180505771Y-182900057D01*
X180434342Y-182757200D01*
X180291485Y-182685771D01*
X180077200Y-182685771D01*
X179934342Y-182757200D01*
X179862914Y-182828628D01*
X181791485Y-183614342D02*
X181648628Y-183685771D01*
X181362914Y-183685771D01*
X181220057Y-183614342D01*
X181148628Y-183471485D01*
X181148628Y-182900057D01*
X181220057Y-182757200D01*
X181362914Y-182685771D01*
X181648628Y-182685771D01*
X181791485Y-182757200D01*
X181862914Y-182900057D01*
X181862914Y-183042914D01*
X181148628Y-183185771D01*
X183077200Y-183614342D02*
X182934342Y-183685771D01*
X182648628Y-183685771D01*
X182505771Y-183614342D01*
X182434342Y-183471485D01*
X182434342Y-182900057D01*
X182505771Y-182757200D01*
X182648628Y-182685771D01*
X182934342Y-182685771D01*
X183077200Y-182757200D01*
X183148628Y-182900057D01*
X183148628Y-183042914D01*
X182434342Y-183185771D01*
X183577200Y-182685771D02*
X184148628Y-182685771D01*
X183791485Y-182185771D02*
X183791485Y-183471485D01*
X183862914Y-183614342D01*
X184005771Y-183685771D01*
X184148628Y-183685771D01*
X184648628Y-183542914D02*
X184720057Y-183614342D01*
X184648628Y-183685771D01*
X184577200Y-183614342D01*
X184648628Y-183542914D01*
X184648628Y-183685771D01*
X184648628Y-182757200D02*
X184720057Y-182828628D01*
X184648628Y-182900057D01*
X184577200Y-182828628D01*
X184648628Y-182757200D01*
X184648628Y-182900057D01*
D10*
D12*
D10*
D11*
D10*
D11*
D10*
D11*
D10*
D11*
D10*
D11*
X197002200Y-191507200D02*
X197002200Y-194507200D01*
D10*
D11*
X261002200Y-191507200D02*
X261002200Y-198007200D01*
D14*
%TO.P,R6,1*%
%TO.N,GND*%
X201800000Y-102500000D03*
%TO.P,R6,2*%
X201800000Y-104500000D03*
%TD*%
%TO.P,R5,1*%
%TO.N,GND*%
X209400000Y-102500000D03*
%TO.P,R5,2*%
X209400000Y-104500000D03*
%TD*%
%TO.P,R4,1*%
%TO.N,GND*%
X205600000Y-102500000D03*
%TO.P,R4,2*%
X205600000Y-104500000D03*
%TD*%
D15*
%TO.P,J1,1,Pin_1*%
%TO.N,5V*%
X151250000Y-105343750D03*
D16*
%TO.P,J1,2,Pin_2*%
%TO.N,3V3*%
X151250000Y-102803750D03*
%TO.P,J1,3,Pin_3*%
%TO.N,SDA0*%
X151250000Y-100263750D03*
%TO.P,J1,4,Pin_4*%
%TO.N,SCL0*%
X151250000Y-97723750D03*
%TO.P,J1,5,Pin_5*%
%TO.N,GND*%
X151250000Y-95183750D03*
%TD*%
D17*
%TO.P,J4,2,Ext*%
%TO.N,GND*%
X226950000Y-111900000D03*
X218450000Y-111900000D03*
%TD*%
%TO.P,J3,2,Ext*%
%TO.N,GND*%
X210250000Y-73950000D03*
X218750000Y-73950000D03*
%TD*%
D18*
%TO.P,C15,1*%
%TO.N,GND*%
X193400000Y-81917677D03*
D19*
%TO.P,C15,2*%
%TO.N,SiPM Bias*%
X193400000Y-78417677D03*
%TD*%
D15*
%TO.P,J2,1,Pin_1*%
%TO.N,DAC_OUT_I_SRC*%
X157050000Y-92618750D03*
D16*
%TO.P,J2,2,Pin_2*%
%TO.N,GND*%
X157050000Y-95158750D03*
%TO.P,J2,3,Pin_3*%
%TO.N,SCL0*%
X157050000Y-97698750D03*
%TO.P,J2,4,Pin_4*%
%TO.N,SDA0*%
X157050000Y-100238750D03*
%TO.P,J2,5,Pin_5*%
%TO.N,3V3*%
X157050000Y-102778750D03*
%TO.P,J2,6,Pin_6*%
%TO.N,GND*%
X157050000Y-105318750D03*
%TD*%
D17*
%TO.P,J5,2,Ext*%
%TO.N,GND*%
X209850000Y-111900000D03*
X201350000Y-111900000D03*
%TD*%
D20*
%TO.N,GND*%
X164800000Y-103400000D03*
X168400000Y-98700000D03*
X168400000Y-101800000D03*
%TO.N,+3.3VA*%
X187400000Y-108700000D03*
X190300000Y-104800000D03*
%TO.N,DC_LD1*%
X212800000Y-103500000D03*
X198700000Y-103500000D03*
%TO.N,-33V*%
X171962500Y-74200000D03*
X170656250Y-95343750D03*
%TO.N,DAC_OUT_I_SRC*%
X177277681Y-96843750D03*
X182785851Y-96835580D03*
%TO.N,5V*%
X172150000Y-110843750D03*
X172150000Y-106143750D03*
%TD*%
D21*
%TO.N,-33V*%
X170600000Y-75562500D02*
X171962500Y-74200000D01*
X170600000Y-77300000D02*
X170600000Y-75562500D01*
X170600000Y-95287500D02*
X170600000Y-76800000D01*
X170656250Y-95343750D02*
X170600000Y-95287500D01*
D22*
%TO.N,+3.3VA*%
X190300000Y-105800000D02*
X190300000Y-104800000D01*
X187400000Y-108700000D02*
X190300000Y-105800000D01*
D23*
%TO.N,DC_LD1*%
X198700000Y-103500000D02*
X212800000Y-103500000D01*
D21*
%TO.N,DAC_OUT_I_SRC*%
X177277681Y-96843750D02*
X182777681Y-96843750D01*
X182777681Y-96843750D02*
X182785851Y-96835580D01*
%TO.N,5V*%
X172150000Y-106143750D02*
X172150000Y-110843750D01*
%TD*%
%TA.AperFunction,Conductor*%
%TO.N,GND*%
G36*
X237692121Y-70670002D02*
G01*
X237738614Y-70723658D01*
X237750000Y-70776000D01*
X237750000Y-115024000D01*
X237729998Y-115092121D01*
X237676342Y-115138614D01*
X237624000Y-115150000D01*
X148376000Y-115150000D01*
X148307879Y-115129998D01*
X148261386Y-115076342D01*
X148250000Y-115024000D01*
X148250000Y-114394669D01*
X200042001Y-114394669D01*
X200042371Y-114401490D01*
X200047895Y-114452352D01*
X200051521Y-114467604D01*
X200096676Y-114588054D01*
X200105214Y-114603649D01*
X200181715Y-114705724D01*
X200194276Y-114718285D01*
X200296351Y-114794786D01*
X200311946Y-114803324D01*
X200432394Y-114848478D01*
X200447649Y-114852105D01*
X200498514Y-114857631D01*
X200505328Y-114858000D01*
X201077885Y-114858000D01*
X201093124Y-114853525D01*
X201094329Y-114852135D01*
X201096000Y-114844452D01*
X201096000Y-114839884D01*
X201604000Y-114839884D01*
X201608475Y-114855123D01*
X201609865Y-114856328D01*
X201617548Y-114857999D01*
X202194669Y-114857999D01*
X202201490Y-114857629D01*
X202252352Y-114852105D01*
X202267604Y-114848479D01*
X202388054Y-114803324D01*
X202403649Y-114794786D01*
X202505724Y-114718285D01*
X202518285Y-114705724D01*
X202594786Y-114603649D01*
X202603324Y-114588054D01*
X202648478Y-114467606D01*
X202652105Y-114452351D01*
X202657631Y-114401486D01*
X202658000Y-114394672D01*
X202658000Y-114394669D01*
X208542001Y-114394669D01*
X208542371Y-114401490D01*
X208547895Y-114452352D01*
X208551521Y-114467604D01*
X208596676Y-114588054D01*
X208605214Y-114603649D01*
X208681715Y-114705724D01*
X208694276Y-114718285D01*
X208796351Y-114794786D01*
X208811946Y-114803324D01*
X208932394Y-114848478D01*
X208947649Y-114852105D01*
X208998514Y-114857631D01*
X209005328Y-114858000D01*
X209577885Y-114858000D01*
X209593124Y-114853525D01*
X209594329Y-114852135D01*
X209596000Y-114844452D01*
X209596000Y-114839884D01*
X210104000Y-114839884D01*
X210108475Y-114855123D01*
X210109865Y-114856328D01*
X210117548Y-114857999D01*
X210694669Y-114857999D01*
X210701490Y-114857629D01*
X210752352Y-114852105D01*
X210767604Y-114848479D01*
X210888054Y-114803324D01*
X210903649Y-114794786D01*
X211005724Y-114718285D01*
X211018285Y-114705724D01*
X211094786Y-114603649D01*
X211103324Y-114588054D01*
X211148478Y-114467606D01*
X211152105Y-114452351D01*
X211157631Y-114401486D01*
X211158000Y-114394672D01*
X211158000Y-114394669D01*
X217142001Y-114394669D01*
X217142371Y-114401490D01*
X217147895Y-114452352D01*
X217151521Y-114467604D01*
X217196676Y-114588054D01*
X217205214Y-114603649D01*
X217281715Y-114705724D01*
X217294276Y-114718285D01*
X217396351Y-114794786D01*
X217411946Y-114803324D01*
X217532394Y-114848478D01*
X217547649Y-114852105D01*
X217598514Y-114857631D01*
X217605328Y-114858000D01*
X218177885Y-114858000D01*
X218193124Y-114853525D01*
X218194329Y-114852135D01*
X218196000Y-114844452D01*
X218196000Y-114839884D01*
X218704000Y-114839884D01*
X218708475Y-114855123D01*
X218709865Y-114856328D01*
X218717548Y-114857999D01*
X219294669Y-114857999D01*
X219301490Y-114857629D01*
X219352352Y-114852105D01*
X219367604Y-114848479D01*
X219488054Y-114803324D01*
X219503649Y-114794786D01*
X219605724Y-114718285D01*
X219618285Y-114705724D01*
X219694786Y-114603649D01*
X219703324Y-114588054D01*
X219748478Y-114467606D01*
X219752105Y-114452351D01*
X219757631Y-114401486D01*
X219758000Y-114394672D01*
X219758000Y-114394669D01*
X225642001Y-114394669D01*
X225642371Y-114401490D01*
X225647895Y-114452352D01*
X225651521Y-114467604D01*
X225696676Y-114588054D01*
X225705214Y-114603649D01*
X225781715Y-114705724D01*
X225794276Y-114718285D01*
X225896351Y-114794786D01*
X225911946Y-114803324D01*
X226032394Y-114848478D01*
X226047649Y-114852105D01*
X226098514Y-114857631D01*
X226105328Y-114858000D01*
X226677885Y-114858000D01*
X226693124Y-114853525D01*
X226694329Y-114852135D01*
X226696000Y-114844452D01*
X226696000Y-114839884D01*
X227204000Y-114839884D01*
X227208475Y-114855123D01*
X227209865Y-114856328D01*
X227217548Y-114857999D01*
X227794669Y-114857999D01*
X227801490Y-114857629D01*
X227852352Y-114852105D01*
X227867604Y-114848479D01*
X227988054Y-114803324D01*
X228003649Y-114794786D01*
X228105724Y-114718285D01*
X228118285Y-114705724D01*
X228194786Y-114603649D01*
X228203324Y-114588054D01*
X228248478Y-114467606D01*
X228252105Y-114452351D01*
X228257631Y-114401486D01*
X228258000Y-114394672D01*
X228258000Y-112172115D01*
X228253525Y-112156876D01*
X228252135Y-112155671D01*
X228244452Y-112154000D01*
X227222115Y-112154000D01*
X227206876Y-112158475D01*
X227205671Y-112159865D01*
X227204000Y-112167548D01*
X227204000Y-114839884D01*
X226696000Y-114839884D01*
X226696000Y-112172115D01*
X226691525Y-112156876D01*
X226690135Y-112155671D01*
X226682452Y-112154000D01*
X225660116Y-112154000D01*
X225644877Y-112158475D01*
X225643672Y-112159865D01*
X225642001Y-112167548D01*
X225642001Y-114394669D01*
X219758000Y-114394669D01*
X219758000Y-112172115D01*
X219753525Y-112156876D01*
X219752135Y-112155671D01*
X219744452Y-112154000D01*
X218722115Y-112154000D01*
X218706876Y-112158475D01*
X218705671Y-112159865D01*
X218704000Y-112167548D01*
X218704000Y-114839884D01*
X218196000Y-114839884D01*
X218196000Y-112172115D01*
X218191525Y-112156876D01*
X218190135Y-112155671D01*
X218182452Y-112154000D01*
X217160116Y-112154000D01*
X217144877Y-112158475D01*
X217143672Y-112159865D01*
X217142001Y-112167548D01*
X217142001Y-114394669D01*
X211158000Y-114394669D01*
X211158000Y-112172115D01*
X211153525Y-112156876D01*
X211152135Y-112155671D01*
X211144452Y-112154000D01*
X210122115Y-112154000D01*
X210106876Y-112158475D01*
X210105671Y-112159865D01*
X210104000Y-112167548D01*
X210104000Y-114839884D01*
X209596000Y-114839884D01*
X209596000Y-112172115D01*
X209591525Y-112156876D01*
X209590135Y-112155671D01*
X209582452Y-112154000D01*
X208560116Y-112154000D01*
X208544877Y-112158475D01*
X208543672Y-112159865D01*
X208542001Y-112167548D01*
X208542001Y-114394669D01*
X202658000Y-114394669D01*
X202658000Y-112172115D01*
X202653525Y-112156876D01*
X202652135Y-112155671D01*
X202644452Y-112154000D01*
X201622115Y-112154000D01*
X201606876Y-112158475D01*
X201605671Y-112159865D01*
X201604000Y-112167548D01*
X201604000Y-114839884D01*
X201096000Y-114839884D01*
X201096000Y-112172115D01*
X201091525Y-112156876D01*
X201090135Y-112155671D01*
X201082452Y-112154000D01*
X200060116Y-112154000D01*
X200044877Y-112158475D01*
X200043672Y-112159865D01*
X200042001Y-112167548D01*
X200042001Y-114394669D01*
X148250000Y-114394669D01*
X148250000Y-111627885D01*
X200042000Y-111627885D01*
X200046475Y-111643124D01*
X200047865Y-111644329D01*
X200055548Y-111646000D01*
X201077885Y-111646000D01*
X201093124Y-111641525D01*
X201094329Y-111640135D01*
X201096000Y-111632452D01*
X201096000Y-111627885D01*
X201604000Y-111627885D01*
X201608475Y-111643124D01*
X201609865Y-111644329D01*
X201617548Y-111646000D01*
X202639884Y-111646000D01*
X202655123Y-111641525D01*
X202656328Y-111640135D01*
X202657999Y-111632452D01*
X202657999Y-111627885D01*
X208542000Y-111627885D01*
X208546475Y-111643124D01*
X208547865Y-111644329D01*
X208555548Y-111646000D01*
X209577885Y-111646000D01*
X209593124Y-111641525D01*
X209594329Y-111640135D01*
X209596000Y-111632452D01*
X209596000Y-111627885D01*
X210104000Y-111627885D01*
X210108475Y-111643124D01*
X210109865Y-111644329D01*
X210117548Y-111646000D01*
X211139884Y-111646000D01*
X211155123Y-111641525D01*
X211156328Y-111640135D01*
X211157999Y-111632452D01*
X211157999Y-111627885D01*
X217142000Y-111627885D01*
X217146475Y-111643124D01*
X217147865Y-111644329D01*
X217155548Y-111646000D01*
X218177885Y-111646000D01*
X218193124Y-111641525D01*
X218194329Y-111640135D01*
X218196000Y-111632452D01*
X218196000Y-111627885D01*
X218704000Y-111627885D01*
X218708475Y-111643124D01*
X218709865Y-111644329D01*
X218717548Y-111646000D01*
X219739884Y-111646000D01*
X219755123Y-111641525D01*
X219756328Y-111640135D01*
X219757999Y-111632452D01*
X219757999Y-111627885D01*
X225642000Y-111627885D01*
X225646475Y-111643124D01*
X225647865Y-111644329D01*
X225655548Y-111646000D01*
X226677885Y-111646000D01*
X226693124Y-111641525D01*
X226694329Y-111640135D01*
X226696000Y-111632452D01*
X226696000Y-111627885D01*
X227204000Y-111627885D01*
X227208475Y-111643124D01*
X227209865Y-111644329D01*
X227217548Y-111646000D01*
X228239884Y-111646000D01*
X228255123Y-111641525D01*
X228256328Y-111640135D01*
X228257999Y-111632452D01*
X228257999Y-109405331D01*
X228257629Y-109398510D01*
X228252105Y-109347648D01*
X228248479Y-109332396D01*
X228203324Y-109211946D01*
X228194786Y-109196351D01*
X228118285Y-109094276D01*
X228105724Y-109081715D01*
X228003649Y-109005214D01*
X227988054Y-108996676D01*
X227867606Y-108951522D01*
X227852351Y-108947895D01*
X227801486Y-108942369D01*
X227794672Y-108942000D01*
X227222115Y-108942000D01*
X227206876Y-108946475D01*
X227205671Y-108947865D01*
X227204000Y-108955548D01*
X227204000Y-111627885D01*
X226696000Y-111627885D01*
X226696000Y-108960116D01*
X226691525Y-108944877D01*
X226690135Y-108943672D01*
X226682452Y-108942001D01*
X226105331Y-108942001D01*
X226098510Y-108942371D01*
X226047648Y-108947895D01*
X226032396Y-108951521D01*
X225911946Y-108996676D01*
X225896351Y-109005214D01*
X225794276Y-109081715D01*
X225781715Y-109094276D01*
X225705214Y-109196351D01*
X225696676Y-109211946D01*
X225651522Y-109332394D01*
X225647895Y-109347649D01*
X225642369Y-109398514D01*
X225642000Y-109405328D01*
X225642000Y-111627885D01*
X219757999Y-111627885D01*
X219757999Y-109405331D01*
X219757629Y-109398510D01*
X219752105Y-109347648D01*
X219748479Y-109332396D01*
X219703324Y-109211946D01*
X219694786Y-109196351D01*
X219618285Y-109094276D01*
X219605724Y-109081715D01*
X219503649Y-109005214D01*
X219488054Y-108996676D01*
X219367606Y-108951522D01*
X219352351Y-108947895D01*
X219301486Y-108942369D01*
X219294672Y-108942000D01*
X218722115Y-108942000D01*
X218706876Y-108946475D01*
X218705671Y-108947865D01*
X218704000Y-108955548D01*
X218704000Y-111627885D01*
X218196000Y-111627885D01*
X218196000Y-108960116D01*
X218191525Y-108944877D01*
X218190135Y-108943672D01*
X218182452Y-108942001D01*
X217605331Y-108942001D01*
X217598510Y-108942371D01*
X217547648Y-108947895D01*
X217532396Y-108951521D01*
X217411946Y-108996676D01*
X217396351Y-109005214D01*
X217294276Y-109081715D01*
X217281715Y-109094276D01*
X217205214Y-109196351D01*
X217196676Y-109211946D01*
X217151522Y-109332394D01*
X217147895Y-109347649D01*
X217142369Y-109398514D01*
X217142000Y-109405328D01*
X217142000Y-111627885D01*
X211157999Y-111627885D01*
X211157999Y-109405331D01*
X211157629Y-109398510D01*
X211152105Y-109347648D01*
X211148479Y-109332396D01*
X211103324Y-109211946D01*
X211094786Y-109196351D01*
X211018285Y-109094276D01*
X211005724Y-109081715D01*
X210903649Y-109005214D01*
X210888054Y-108996676D01*
X210767606Y-108951522D01*
X210752351Y-108947895D01*
X210701486Y-108942369D01*
X210694672Y-108942000D01*
X210122115Y-108942000D01*
X210106876Y-108946475D01*
X210105671Y-108947865D01*
X210104000Y-108955548D01*
X210104000Y-111627885D01*
X209596000Y-111627885D01*
X209596000Y-108960116D01*
X209591525Y-108944877D01*
X209590135Y-108943672D01*
X209582452Y-108942001D01*
X209005331Y-108942001D01*
X208998510Y-108942371D01*
X208947648Y-108947895D01*
X208932396Y-108951521D01*
X208811946Y-108996676D01*
X208796351Y-109005214D01*
X208694276Y-109081715D01*
X208681715Y-109094276D01*
X208605214Y-109196351D01*
X208596676Y-109211946D01*
X208551522Y-109332394D01*
X208547895Y-109347649D01*
X208542369Y-109398514D01*
X208542000Y-109405328D01*
X208542000Y-111627885D01*
X202657999Y-111627885D01*
X202657999Y-109405331D01*
X202657629Y-109398510D01*
X202652105Y-109347648D01*
X202648479Y-109332396D01*
X202603324Y-109211946D01*
X202594786Y-109196351D01*
X202518285Y-109094276D01*
X202505724Y-109081715D01*
X202403649Y-109005214D01*
X202388054Y-108996676D01*
X202267606Y-108951522D01*
X202252351Y-108947895D01*
X202201486Y-108942369D01*
X202194672Y-108942000D01*
X201622115Y-108942000D01*
X201606876Y-108946475D01*
X201605671Y-108947865D01*
X201604000Y-108955548D01*
X201604000Y-111627885D01*
X201096000Y-111627885D01*
X201096000Y-108960116D01*
X201091525Y-108944877D01*
X201090135Y-108943672D01*
X201082452Y-108942001D01*
X200505331Y-108942001D01*
X200498510Y-108942371D01*
X200447648Y-108947895D01*
X200432396Y-108951521D01*
X200311946Y-108996676D01*
X200296351Y-109005214D01*
X200194276Y-109081715D01*
X200181715Y-109094276D01*
X200105214Y-109196351D01*
X200096676Y-109211946D01*
X200051522Y-109332394D01*
X200047895Y-109347649D01*
X200042369Y-109398514D01*
X200042000Y-109405328D01*
X200042000Y-111627885D01*
X148250000Y-111627885D01*
X148250000Y-110886266D01*
X171449500Y-110886266D01*
X171464724Y-111012070D01*
X171524655Y-111170673D01*
X171620688Y-111310401D01*
X171626358Y-111315453D01*
X171626359Y-111315454D01*
X171741608Y-111418138D01*
X171741612Y-111418140D01*
X171747279Y-111423190D01*
X171897119Y-111502526D01*
X172061559Y-111543831D01*
X172069157Y-111543871D01*
X172069159Y-111543871D01*
X172146332Y-111544275D01*
X172231105Y-111544719D01*
X172238492Y-111542945D01*
X172238496Y-111542945D01*
X172388583Y-111506911D01*
X172395968Y-111505138D01*
X172402712Y-111501657D01*
X172402715Y-111501656D01*
X172539883Y-111430858D01*
X172539884Y-111430858D01*
X172546631Y-111427375D01*
X172674396Y-111315919D01*
X172771887Y-111177203D01*
X172833476Y-111019237D01*
X172850500Y-110889924D01*
X172850500Y-108700000D01*
X186794318Y-108700000D01*
X186814956Y-108856762D01*
X186875464Y-109002841D01*
X186971718Y-109128282D01*
X187097159Y-109224536D01*
X187243238Y-109285044D01*
X187400000Y-109305682D01*
X187408188Y-109304604D01*
X187548574Y-109286122D01*
X187556762Y-109285044D01*
X187702841Y-109224536D01*
X187828282Y-109128282D01*
X187924536Y-109002841D01*
X187985044Y-108856762D01*
X187989975Y-108819305D01*
X188018697Y-108754378D01*
X188025802Y-108746656D01*
X190588586Y-106183872D01*
X190597312Y-106176900D01*
X190596923Y-106176442D01*
X190603757Y-106170626D01*
X190611350Y-106165835D01*
X190644506Y-106128293D01*
X190649852Y-106122606D01*
X190660373Y-106112085D01*
X190666048Y-106104513D01*
X190672424Y-106096682D01*
X190695570Y-106070474D01*
X190701513Y-106063745D01*
X190705329Y-106055618D01*
X190708834Y-106050281D01*
X190712930Y-106043463D01*
X190715987Y-106037880D01*
X190721372Y-106030695D01*
X190736798Y-105989546D01*
X190740725Y-105980226D01*
X190742977Y-105975430D01*
X190759399Y-105940452D01*
X190760780Y-105931582D01*
X190762639Y-105925502D01*
X190764665Y-105917781D01*
X190766031Y-105911568D01*
X190769184Y-105903157D01*
X190772441Y-105859324D01*
X190773595Y-105849277D01*
X190774751Y-105841855D01*
X190774751Y-105841853D01*
X190775500Y-105837044D01*
X190775500Y-105822838D01*
X190775846Y-105813501D01*
X190778612Y-105776274D01*
X190779277Y-105767326D01*
X190777404Y-105758550D01*
X190776793Y-105749593D01*
X190776899Y-105749586D01*
X190775500Y-105736333D01*
X190775500Y-105209518D01*
X190795502Y-105141397D01*
X190801537Y-105132814D01*
X190819509Y-105109392D01*
X190824536Y-105102841D01*
X190885044Y-104956762D01*
X190892899Y-104897095D01*
X200592001Y-104897095D01*
X200592338Y-104903614D01*
X200602257Y-104999206D01*
X200605149Y-105012600D01*
X200656588Y-105166784D01*
X200662761Y-105179962D01*
X200748063Y-105317807D01*
X200757099Y-105329208D01*
X200871829Y-105443739D01*
X200883240Y-105452751D01*
X201021243Y-105537816D01*
X201034424Y-105543963D01*
X201188710Y-105595138D01*
X201202086Y-105598005D01*
X201296438Y-105607672D01*
X201302854Y-105608000D01*
X201527885Y-105608000D01*
X201543124Y-105603525D01*
X201544329Y-105602135D01*
X201546000Y-105594452D01*
X201546000Y-105589884D01*
X202054000Y-105589884D01*
X202058475Y-105605123D01*
X202059865Y-105606328D01*
X202067548Y-105607999D01*
X202297095Y-105607999D01*
X202303614Y-105607662D01*
X202399206Y-105597743D01*
X202412600Y-105594851D01*
X202566784Y-105543412D01*
X202579962Y-105537239D01*
X202717807Y-105451937D01*
X202729208Y-105442901D01*
X202843739Y-105328171D01*
X202852751Y-105316760D01*
X202937816Y-105178757D01*
X202943963Y-105165576D01*
X202995138Y-105011290D01*
X202998005Y-104997914D01*
X203007672Y-104903562D01*
X203008000Y-104897146D01*
X203008000Y-104897095D01*
X204392001Y-104897095D01*
X204392338Y-104903614D01*
X204402257Y-104999206D01*
X204405149Y-105012600D01*
X204456588Y-105166784D01*
X204462761Y-105179962D01*
X204548063Y-105317807D01*
X204557099Y-105329208D01*
X204671829Y-105443739D01*
X204683240Y-105452751D01*
X204821243Y-105537816D01*
X204834424Y-105543963D01*
X204988710Y-105595138D01*
X205002086Y-105598005D01*
X205096438Y-105607672D01*
X205102854Y-105608000D01*
X205327885Y-105608000D01*
X205343124Y-105603525D01*
X205344329Y-105602135D01*
X205346000Y-105594452D01*
X205346000Y-105589884D01*
X205854000Y-105589884D01*
X205858475Y-105605123D01*
X205859865Y-105606328D01*
X205867548Y-105607999D01*
X206097095Y-105607999D01*
X206103614Y-105607662D01*
X206199206Y-105597743D01*
X206212600Y-105594851D01*
X206366784Y-105543412D01*
X206379962Y-105537239D01*
X206517807Y-105451937D01*
X206529208Y-105442901D01*
X206643739Y-105328171D01*
X206652751Y-105316760D01*
X206737816Y-105178757D01*
X206743963Y-105165576D01*
X206795138Y-105011290D01*
X206798005Y-104997914D01*
X206807672Y-104903562D01*
X206808000Y-104897146D01*
X206808000Y-104897095D01*
X208192001Y-104897095D01*
X208192338Y-104903614D01*
X208202257Y-104999206D01*
X208205149Y-105012600D01*
X208256588Y-105166784D01*
X208262761Y-105179962D01*
X208348063Y-105317807D01*
X208357099Y-105329208D01*
X208471829Y-105443739D01*
X208483240Y-105452751D01*
X208621243Y-105537816D01*
X208634424Y-105543963D01*
X208788710Y-105595138D01*
X208802086Y-105598005D01*
X208896438Y-105607672D01*
X208902854Y-105608000D01*
X209127885Y-105608000D01*
X209143124Y-105603525D01*
X209144329Y-105602135D01*
X209146000Y-105594452D01*
X209146000Y-105589884D01*
X209654000Y-105589884D01*
X209658475Y-105605123D01*
X209659865Y-105606328D01*
X209667548Y-105607999D01*
X209897095Y-105607999D01*
X209903614Y-105607662D01*
X209999206Y-105597743D01*
X210012600Y-105594851D01*
X210166784Y-105543412D01*
X210179962Y-105537239D01*
X210317807Y-105451937D01*
X210329208Y-105442901D01*
X210443739Y-105328171D01*
X210452751Y-105316760D01*
X210537816Y-105178757D01*
X210543963Y-105165576D01*
X210595138Y-105011290D01*
X210598005Y-104997914D01*
X210607672Y-104903562D01*
X210608000Y-104897146D01*
X210608000Y-104772115D01*
X210603525Y-104756876D01*
X210602135Y-104755671D01*
X210594452Y-104754000D01*
X209672115Y-104754000D01*
X209656876Y-104758475D01*
X209655671Y-104759865D01*
X209654000Y-104767548D01*
X209654000Y-105589884D01*
X209146000Y-105589884D01*
X209146000Y-104772115D01*
X209141525Y-104756876D01*
X209140135Y-104755671D01*
X209132452Y-104754000D01*
X208210116Y-104754000D01*
X208194877Y-104758475D01*
X208193672Y-104759865D01*
X208192001Y-104767548D01*
X208192001Y-104897095D01*
X206808000Y-104897095D01*
X206808000Y-104772115D01*
X206803525Y-104756876D01*
X206802135Y-104755671D01*
X206794452Y-104754000D01*
X205872115Y-104754000D01*
X205856876Y-104758475D01*
X205855671Y-104759865D01*
X205854000Y-104767548D01*
X205854000Y-105589884D01*
X205346000Y-105589884D01*
X205346000Y-104772115D01*
X205341525Y-104756876D01*
X205340135Y-104755671D01*
X205332452Y-104754000D01*
X204410116Y-104754000D01*
X204394877Y-104758475D01*
X204393672Y-104759865D01*
X204392001Y-104767548D01*
X204392001Y-104897095D01*
X203008000Y-104897095D01*
X203008000Y-104772115D01*
X203003525Y-104756876D01*
X203002135Y-104755671D01*
X202994452Y-104754000D01*
X202072115Y-104754000D01*
X202056876Y-104758475D01*
X202055671Y-104759865D01*
X202054000Y-104767548D01*
X202054000Y-105589884D01*
X201546000Y-105589884D01*
X201546000Y-104772115D01*
X201541525Y-104756876D01*
X201540135Y-104755671D01*
X201532452Y-104754000D01*
X200610116Y-104754000D01*
X200594877Y-104758475D01*
X200593672Y-104759865D01*
X200592001Y-104767548D01*
X200592001Y-104897095D01*
X190892899Y-104897095D01*
X190905682Y-104800000D01*
X190885044Y-104643238D01*
X190824536Y-104497159D01*
X190728282Y-104371718D01*
X190712374Y-104359511D01*
X190650164Y-104311776D01*
X190602841Y-104275464D01*
X190456762Y-104214956D01*
X190300000Y-104194318D01*
X190143238Y-104214956D01*
X189997159Y-104275464D01*
X189949836Y-104311776D01*
X189887627Y-104359511D01*
X189871718Y-104371718D01*
X189775464Y-104497159D01*
X189714956Y-104643238D01*
X189694318Y-104800000D01*
X189714956Y-104956762D01*
X189775464Y-105102841D01*
X189780491Y-105109392D01*
X189798463Y-105132814D01*
X189824063Y-105199035D01*
X189824500Y-105209518D01*
X189824500Y-105550852D01*
X189804498Y-105618973D01*
X189787595Y-105639947D01*
X187353344Y-108074198D01*
X187291032Y-108108224D01*
X187280698Y-108110024D01*
X187243238Y-108114956D01*
X187097159Y-108175464D01*
X186971718Y-108271718D01*
X186875464Y-108397159D01*
X186814956Y-108543238D01*
X186794318Y-108700000D01*
X172850500Y-108700000D01*
X172850500Y-106101234D01*
X172835276Y-105975430D01*
X172775345Y-105816827D01*
X172679312Y-105677099D01*
X172637614Y-105639947D01*
X172558392Y-105569362D01*
X172558388Y-105569360D01*
X172552721Y-105564310D01*
X172527304Y-105550852D01*
X172485080Y-105528496D01*
X172402881Y-105484974D01*
X172238441Y-105443669D01*
X172230843Y-105443629D01*
X172230841Y-105443629D01*
X172153668Y-105443225D01*
X172068895Y-105442781D01*
X172061508Y-105444555D01*
X172061504Y-105444555D01*
X171918162Y-105478970D01*
X171904032Y-105482362D01*
X171897288Y-105485843D01*
X171897285Y-105485844D01*
X171796592Y-105537816D01*
X171753369Y-105560125D01*
X171747647Y-105565117D01*
X171747645Y-105565118D01*
X171694293Y-105611660D01*
X171625604Y-105671581D01*
X171621237Y-105677795D01*
X171552025Y-105776274D01*
X171528113Y-105810297D01*
X171466524Y-105968263D01*
X171465532Y-105975796D01*
X171465532Y-105975797D01*
X171463722Y-105989546D01*
X171449500Y-106097576D01*
X171449500Y-110886266D01*
X148250000Y-110886266D01*
X148250000Y-106213498D01*
X150199500Y-106213498D01*
X150211133Y-106271981D01*
X150255448Y-106338302D01*
X150321769Y-106382617D01*
X150333938Y-106385038D01*
X150333939Y-106385038D01*
X150374184Y-106393043D01*
X150380252Y-106394250D01*
X152119748Y-106394250D01*
X152125816Y-106393043D01*
X152166061Y-106385038D01*
X152166062Y-106385038D01*
X152178231Y-106382617D01*
X152244552Y-106338302D01*
X152288867Y-106271981D01*
X152300500Y-106213498D01*
X152300500Y-105586716D01*
X155718257Y-105586716D01*
X155748565Y-105721196D01*
X155751645Y-105731025D01*
X155831770Y-105928353D01*
X155836413Y-105937544D01*
X155947694Y-106119138D01*
X155953777Y-106127449D01*
X156093213Y-106288417D01*
X156100580Y-106295633D01*
X156264434Y-106431666D01*
X156272881Y-106437581D01*
X156456756Y-106545029D01*
X156466042Y-106549479D01*
X156665001Y-106625453D01*
X156674899Y-106628329D01*
X156778250Y-106649356D01*
X156792299Y-106648160D01*
X156796000Y-106637815D01*
X156796000Y-106637267D01*
X157304000Y-106637267D01*
X157308064Y-106651109D01*
X157321478Y-106653143D01*
X157328184Y-106652284D01*
X157338262Y-106650142D01*
X157542255Y-106588941D01*
X157551842Y-106585183D01*
X157743095Y-106491489D01*
X157751945Y-106486214D01*
X157925328Y-106362542D01*
X157933200Y-106355889D01*
X158084052Y-106205562D01*
X158090730Y-106197715D01*
X158215003Y-106024770D01*
X158220313Y-106015933D01*
X158314670Y-105825017D01*
X158318469Y-105815422D01*
X158380377Y-105611660D01*
X158382555Y-105601587D01*
X158383986Y-105590712D01*
X158381775Y-105576528D01*
X158368617Y-105572750D01*
X157322115Y-105572750D01*
X157306876Y-105577225D01*
X157305671Y-105578615D01*
X157304000Y-105586298D01*
X157304000Y-106637267D01*
X156796000Y-106637267D01*
X156796000Y-105590865D01*
X156791525Y-105575626D01*
X156790135Y-105574421D01*
X156782452Y-105572750D01*
X155733225Y-105572750D01*
X155719694Y-105576723D01*
X155718257Y-105586716D01*
X152300500Y-105586716D01*
X152300500Y-105052933D01*
X155714389Y-105052933D01*
X155715912Y-105061357D01*
X155728292Y-105064750D01*
X158368344Y-105064750D01*
X158381875Y-105060777D01*
X158383180Y-105051697D01*
X158341214Y-104884625D01*
X158337894Y-104874874D01*
X158252972Y-104679564D01*
X158248105Y-104670489D01*
X158132426Y-104491676D01*
X158126136Y-104483507D01*
X157982806Y-104325990D01*
X157975273Y-104318965D01*
X157808139Y-104186972D01*
X157799552Y-104181267D01*
X157613117Y-104078349D01*
X157603705Y-104074119D01*
X157412031Y-104006243D01*
X157354495Y-103964649D01*
X157328579Y-103898551D01*
X157342513Y-103828935D01*
X157391872Y-103777904D01*
X157420206Y-103766112D01*
X157425790Y-103764553D01*
X157425799Y-103764550D01*
X157431725Y-103762895D01*
X157437214Y-103760122D01*
X157437220Y-103760120D01*
X157610116Y-103672783D01*
X157615610Y-103670008D01*
X157622800Y-103664391D01*
X157696780Y-103606591D01*
X157777951Y-103543174D01*
X157815218Y-103500000D01*
X198094318Y-103500000D01*
X198114956Y-103656762D01*
X198118116Y-103664391D01*
X198120443Y-103670008D01*
X198175464Y-103802841D01*
X198271718Y-103928282D01*
X198397159Y-104024536D01*
X198543238Y-104085044D01*
X198700000Y-104105682D01*
X198708188Y-104104604D01*
X198721094Y-104102905D01*
X198856762Y-104085044D01*
X199002841Y-104024536D01*
X199128282Y-103928282D01*
X199130072Y-103930614D01*
X199179948Y-103903379D01*
X199206731Y-103900500D01*
X200472834Y-103900500D01*
X200540955Y-103920502D01*
X200587448Y-103974158D01*
X200598178Y-104039343D01*
X200592328Y-104096440D01*
X200592000Y-104102855D01*
X200592000Y-104227885D01*
X200596475Y-104243124D01*
X200597865Y-104244329D01*
X200605548Y-104246000D01*
X201527885Y-104246000D01*
X201543124Y-104241525D01*
X201544329Y-104240135D01*
X201546000Y-104232452D01*
X201546000Y-104026500D01*
X201566002Y-103958379D01*
X201619658Y-103911886D01*
X201672000Y-103900500D01*
X201928000Y-103900500D01*
X201996121Y-103920502D01*
X202042614Y-103974158D01*
X202054000Y-104026500D01*
X202054000Y-104227885D01*
X202058475Y-104243124D01*
X202059865Y-104244329D01*
X202067548Y-104246000D01*
X202989884Y-104246000D01*
X203005123Y-104241525D01*
X203006328Y-104240135D01*
X203007999Y-104232452D01*
X203007999Y-104102905D01*
X203007662Y-104096386D01*
X203001760Y-104039503D01*
X203014625Y-103969682D01*
X203063196Y-103917900D01*
X203127087Y-103900500D01*
X204272834Y-103900500D01*
X204340955Y-103920502D01*
X204387448Y-103974158D01*
X204398178Y-104039343D01*
X204392328Y-104096440D01*
X204392000Y-104102855D01*
X204392000Y-104227885D01*
X204396475Y-104243124D01*
X204397865Y-104244329D01*
X204405548Y-104246000D01*
X205327885Y-104246000D01*
X205343124Y-104241525D01*
X205344329Y-104240135D01*
X205346000Y-104232452D01*
X205346000Y-104026500D01*
X205366002Y-103958379D01*
X205419658Y-103911886D01*
X205472000Y-103900500D01*
X205728000Y-103900500D01*
X205796121Y-103920502D01*
X205842614Y-103974158D01*
X205854000Y-104026500D01*
X205854000Y-104227885D01*
X205858475Y-104243124D01*
X205859865Y-104244329D01*
X205867548Y-104246000D01*
X206789884Y-104246000D01*
X206805123Y-104241525D01*
X206806328Y-104240135D01*
X206807999Y-104232452D01*
X206807999Y-104102905D01*
X206807662Y-104096386D01*
X206801760Y-104039503D01*
X206814625Y-103969682D01*
X206863196Y-103917900D01*
X206927087Y-103900500D01*
X208072834Y-103900500D01*
X208140955Y-103920502D01*
X208187448Y-103974158D01*
X208198178Y-104039343D01*
X208192328Y-104096440D01*
X208192000Y-104102855D01*
X208192000Y-104227885D01*
X208196475Y-104243124D01*
X208197865Y-104244329D01*
X208205548Y-104246000D01*
X209127885Y-104246000D01*
X209143124Y-104241525D01*
X209144329Y-104240135D01*
X209146000Y-104232452D01*
X209146000Y-104026500D01*
X209166002Y-103958379D01*
X209219658Y-103911886D01*
X209272000Y-103900500D01*
X209528000Y-103900500D01*
X209596121Y-103920502D01*
X209642614Y-103974158D01*
X209654000Y-104026500D01*
X209654000Y-104227885D01*
X209658475Y-104243124D01*
X209659865Y-104244329D01*
X209667548Y-104246000D01*
X210589884Y-104246000D01*
X210605123Y-104241525D01*
X210606328Y-104240135D01*
X210607999Y-104232452D01*
X210607999Y-104102905D01*
X210607662Y-104096386D01*
X210601760Y-104039503D01*
X210614625Y-103969682D01*
X210663196Y-103917900D01*
X210727087Y-103900500D01*
X212293269Y-103900500D01*
X212361390Y-103920502D01*
X212371460Y-103928618D01*
X212371718Y-103928282D01*
X212497159Y-104024536D01*
X212643238Y-104085044D01*
X212800000Y-104105682D01*
X212808188Y-104104604D01*
X212821094Y-104102905D01*
X212956762Y-104085044D01*
X213102841Y-104024536D01*
X213228282Y-103928282D01*
X213324536Y-103802841D01*
X213379557Y-103670008D01*
X213381884Y-103664391D01*
X213385044Y-103656762D01*
X213405682Y-103500000D01*
X213385044Y-103343238D01*
X213324536Y-103197159D01*
X213228282Y-103071718D01*
X213102841Y-102975464D01*
X212956762Y-102914956D01*
X212800000Y-102894318D01*
X212643238Y-102914956D01*
X212497159Y-102975464D01*
X212371718Y-103071718D01*
X212369928Y-103069386D01*
X212320052Y-103096621D01*
X212293269Y-103099500D01*
X210727166Y-103099500D01*
X210659045Y-103079498D01*
X210612552Y-103025842D01*
X210601822Y-102960657D01*
X210607672Y-102903560D01*
X210608000Y-102897146D01*
X210608000Y-102772115D01*
X210603525Y-102756876D01*
X210602135Y-102755671D01*
X210594452Y-102754000D01*
X209672115Y-102754000D01*
X209656876Y-102758475D01*
X209655671Y-102759865D01*
X209654000Y-102767548D01*
X209654000Y-102973500D01*
X209633998Y-103041621D01*
X209580342Y-103088114D01*
X209528000Y-103099500D01*
X209272000Y-103099500D01*
X209203879Y-103079498D01*
X209157386Y-103025842D01*
X209146000Y-102973500D01*
X209146000Y-102772115D01*
X209141525Y-102756876D01*
X209140135Y-102755671D01*
X209132452Y-102754000D01*
X208210116Y-102754000D01*
X208194877Y-102758475D01*
X208193672Y-102759865D01*
X208192001Y-102767548D01*
X208192001Y-102897095D01*
X208192338Y-102903614D01*
X208198240Y-102960497D01*
X208185375Y-103030318D01*
X208136804Y-103082100D01*
X208072913Y-103099500D01*
X206927166Y-103099500D01*
X206859045Y-103079498D01*
X206812552Y-103025842D01*
X206801822Y-102960657D01*
X206807672Y-102903560D01*
X206808000Y-102897146D01*
X206808000Y-102772115D01*
X206803525Y-102756876D01*
X206802135Y-102755671D01*
X206794452Y-102754000D01*
X205872115Y-102754000D01*
X205856876Y-102758475D01*
X205855671Y-102759865D01*
X205854000Y-102767548D01*
X205854000Y-102973500D01*
X205833998Y-103041621D01*
X205780342Y-103088114D01*
X205728000Y-103099500D01*
X205472000Y-103099500D01*
X205403879Y-103079498D01*
X205357386Y-103025842D01*
X205346000Y-102973500D01*
X205346000Y-102772115D01*
X205341525Y-102756876D01*
X205340135Y-102755671D01*
X205332452Y-102754000D01*
X204410116Y-102754000D01*
X204394877Y-102758475D01*
X204393672Y-102759865D01*
X204392001Y-102767548D01*
X204392001Y-102897095D01*
X204392338Y-102903614D01*
X204398240Y-102960497D01*
X204385375Y-103030318D01*
X204336804Y-103082100D01*
X204272913Y-103099500D01*
X203127166Y-103099500D01*
X203059045Y-103079498D01*
X203012552Y-103025842D01*
X203001822Y-102960657D01*
X203007672Y-102903560D01*
X203008000Y-102897146D01*
X203008000Y-102772115D01*
X203003525Y-102756876D01*
X203002135Y-102755671D01*
X202994452Y-102754000D01*
X202072115Y-102754000D01*
X202056876Y-102758475D01*
X202055671Y-102759865D01*
X202054000Y-102767548D01*
X202054000Y-102973500D01*
X202033998Y-103041621D01*
X201980342Y-103088114D01*
X201928000Y-103099500D01*
X201672000Y-103099500D01*
X201603879Y-103079498D01*
X201557386Y-103025842D01*
X201546000Y-102973500D01*
X201546000Y-102772115D01*
X201541525Y-102756876D01*
X201540135Y-102755671D01*
X201532452Y-102754000D01*
X200610116Y-102754000D01*
X200594877Y-102758475D01*
X200593672Y-102759865D01*
X200592001Y-102767548D01*
X200592001Y-102897095D01*
X200592338Y-102903614D01*
X200598240Y-102960497D01*
X200585375Y-103030318D01*
X200536804Y-103082100D01*
X200472913Y-103099500D01*
X199206731Y-103099500D01*
X199138610Y-103079498D01*
X199128540Y-103071382D01*
X199128282Y-103071718D01*
X199058881Y-103018465D01*
X199002841Y-102975464D01*
X198856762Y-102914956D01*
X198700000Y-102894318D01*
X198543238Y-102914956D01*
X198397159Y-102975464D01*
X198271718Y-103071718D01*
X198175464Y-103197159D01*
X198114956Y-103343238D01*
X198094318Y-103500000D01*
X157815218Y-103500000D01*
X157908540Y-103391884D01*
X157908540Y-103391883D01*
X157912564Y-103387222D01*
X157919185Y-103375568D01*
X158011276Y-103213457D01*
X158014323Y-103208094D01*
X158079351Y-103012613D01*
X158105171Y-102808224D01*
X158105583Y-102778750D01*
X158085480Y-102573720D01*
X158025935Y-102376499D01*
X157946916Y-102227885D01*
X200592000Y-102227885D01*
X200596475Y-102243124D01*
X200597865Y-102244329D01*
X200605548Y-102246000D01*
X201527885Y-102246000D01*
X201543124Y-102241525D01*
X201544329Y-102240135D01*
X201546000Y-102232452D01*
X201546000Y-102227885D01*
X202054000Y-102227885D01*
X202058475Y-102243124D01*
X202059865Y-102244329D01*
X202067548Y-102246000D01*
X202989884Y-102246000D01*
X203005123Y-102241525D01*
X203006328Y-102240135D01*
X203007999Y-102232452D01*
X203007999Y-102227885D01*
X204392000Y-102227885D01*
X204396475Y-102243124D01*
X204397865Y-102244329D01*
X204405548Y-102246000D01*
X205327885Y-102246000D01*
X205343124Y-102241525D01*
X205344329Y-102240135D01*
X205346000Y-102232452D01*
X205346000Y-102227885D01*
X205854000Y-102227885D01*
X205858475Y-102243124D01*
X205859865Y-102244329D01*
X205867548Y-102246000D01*
X206789884Y-102246000D01*
X206805123Y-102241525D01*
X206806328Y-102240135D01*
X206807999Y-102232452D01*
X206807999Y-102227885D01*
X208192000Y-102227885D01*
X208196475Y-102243124D01*
X208197865Y-102244329D01*
X208205548Y-102246000D01*
X209127885Y-102246000D01*
X209143124Y-102241525D01*
X209144329Y-102240135D01*
X209146000Y-102232452D01*
X209146000Y-102227885D01*
X209654000Y-102227885D01*
X209658475Y-102243124D01*
X209659865Y-102244329D01*
X209667548Y-102246000D01*
X210589884Y-102246000D01*
X210605123Y-102241525D01*
X210606328Y-102240135D01*
X210607999Y-102232452D01*
X210607999Y-102102905D01*
X210607662Y-102096386D01*
X210597743Y-102000794D01*
X210594851Y-101987400D01*
X210543412Y-101833216D01*
X210537239Y-101820038D01*
X210451937Y-101682193D01*
X210442901Y-101670792D01*
X210328171Y-101556261D01*
X210316760Y-101547249D01*
X210178757Y-101462184D01*
X210165576Y-101456037D01*
X210011290Y-101404862D01*
X209997914Y-101401995D01*
X209903562Y-101392328D01*
X209897145Y-101392000D01*
X209672115Y-101392000D01*
X209656876Y-101396475D01*
X209655671Y-101397865D01*
X209654000Y-101405548D01*
X209654000Y-102227885D01*
X209146000Y-102227885D01*
X209146000Y-101410116D01*
X209141525Y-101394877D01*
X209140135Y-101393672D01*
X209132452Y-101392001D01*
X208902905Y-101392001D01*
X208896386Y-101392338D01*
X208800794Y-101402257D01*
X208787400Y-101405149D01*
X208633216Y-101456588D01*
X208620038Y-101462761D01*
X208482193Y-101548063D01*
X208470792Y-101557099D01*
X208356261Y-101671829D01*
X208347249Y-101683240D01*
X208262184Y-101821243D01*
X208256037Y-101834424D01*
X208204862Y-101988710D01*
X208201995Y-102002086D01*
X208192328Y-102096438D01*
X208192000Y-102102855D01*
X208192000Y-102227885D01*
X206807999Y-102227885D01*
X206807999Y-102102905D01*
X206807662Y-102096386D01*
X206797743Y-102000794D01*
X206794851Y-101987400D01*
X206743412Y-101833216D01*
X206737239Y-101820038D01*
X206651937Y-101682193D01*
X206642901Y-101670792D01*
X206528171Y-101556261D01*
X206516760Y-101547249D01*
X206378757Y-101462184D01*
X206365576Y-101456037D01*
X206211290Y-101404862D01*
X206197914Y-101401995D01*
X206103562Y-101392328D01*
X206097145Y-101392000D01*
X205872115Y-101392000D01*
X205856876Y-101396475D01*
X205855671Y-101397865D01*
X205854000Y-101405548D01*
X205854000Y-102227885D01*
X205346000Y-102227885D01*
X205346000Y-101410116D01*
X205341525Y-101394877D01*
X205340135Y-101393672D01*
X205332452Y-101392001D01*
X205102905Y-101392001D01*
X205096386Y-101392338D01*
X205000794Y-101402257D01*
X204987400Y-101405149D01*
X204833216Y-101456588D01*
X204820038Y-101462761D01*
X204682193Y-101548063D01*
X204670792Y-101557099D01*
X204556261Y-101671829D01*
X204547249Y-101683240D01*
X204462184Y-101821243D01*
X204456037Y-101834424D01*
X204404862Y-101988710D01*
X204401995Y-102002086D01*
X204392328Y-102096438D01*
X204392000Y-102102855D01*
X204392000Y-102227885D01*
X203007999Y-102227885D01*
X203007999Y-102102905D01*
X203007662Y-102096386D01*
X202997743Y-102000794D01*
X202994851Y-101987400D01*
X202943412Y-101833216D01*
X202937239Y-101820038D01*
X202851937Y-101682193D01*
X202842901Y-101670792D01*
X202728171Y-101556261D01*
X202716760Y-101547249D01*
X202578757Y-101462184D01*
X202565576Y-101456037D01*
X202411290Y-101404862D01*
X202397914Y-101401995D01*
X202303562Y-101392328D01*
X202297145Y-101392000D01*
X202072115Y-101392000D01*
X202056876Y-101396475D01*
X202055671Y-101397865D01*
X202054000Y-101405548D01*
X202054000Y-102227885D01*
X201546000Y-102227885D01*
X201546000Y-101410116D01*
X201541525Y-101394877D01*
X201540135Y-101393672D01*
X201532452Y-101392001D01*
X201302905Y-101392001D01*
X201296386Y-101392338D01*
X201200794Y-101402257D01*
X201187400Y-101405149D01*
X201033216Y-101456588D01*
X201020038Y-101462761D01*
X200882193Y-101548063D01*
X200870792Y-101557099D01*
X200756261Y-101671829D01*
X200747249Y-101683240D01*
X200662184Y-101821243D01*
X200656037Y-101834424D01*
X200604862Y-101988710D01*
X200601995Y-102002086D01*
X200592328Y-102096438D01*
X200592000Y-102102855D01*
X200592000Y-102227885D01*
X157946916Y-102227885D01*
X157929218Y-102194599D01*
X157819401Y-102059950D01*
X157802906Y-102039725D01*
X157802903Y-102039722D01*
X157799011Y-102034950D01*
X157781786Y-102020700D01*
X157645025Y-101907561D01*
X157645021Y-101907559D01*
X157640275Y-101903632D01*
X157459055Y-101805647D01*
X157262254Y-101744727D01*
X157256129Y-101744083D01*
X157256128Y-101744083D01*
X157063498Y-101723837D01*
X157063496Y-101723837D01*
X157057369Y-101723193D01*
X156970529Y-101731096D01*
X156858342Y-101741305D01*
X156858339Y-101741306D01*
X156852203Y-101741864D01*
X156654572Y-101800030D01*
X156649107Y-101802887D01*
X156590403Y-101833577D01*
X156472002Y-101895476D01*
X156467201Y-101899336D01*
X156467198Y-101899338D01*
X156430764Y-101928632D01*
X156311447Y-102024565D01*
X156179024Y-102182380D01*
X156176056Y-102187778D01*
X156176053Y-102187783D01*
X156082743Y-102357515D01*
X156079776Y-102362912D01*
X156017484Y-102559282D01*
X156016798Y-102565399D01*
X156016797Y-102565403D01*
X156013993Y-102590403D01*
X155994520Y-102764012D01*
X155995463Y-102775244D01*
X156011020Y-102960497D01*
X156011759Y-102969303D01*
X156013458Y-102975228D01*
X156033025Y-103043465D01*
X156068544Y-103167336D01*
X156071359Y-103172813D01*
X156071360Y-103172816D01*
X156092247Y-103213457D01*
X156162712Y-103350568D01*
X156290677Y-103512020D01*
X156295370Y-103516014D01*
X156295371Y-103516015D01*
X156314376Y-103532189D01*
X156447564Y-103645541D01*
X156452942Y-103648547D01*
X156452944Y-103648548D01*
X156529295Y-103691219D01*
X156627398Y-103746047D01*
X156692437Y-103767179D01*
X156751042Y-103807252D01*
X156778680Y-103872648D01*
X156766574Y-103942605D01*
X156718568Y-103994912D01*
X156692646Y-104006777D01*
X156526868Y-104060962D01*
X156517359Y-104064959D01*
X156328463Y-104163292D01*
X156319738Y-104168786D01*
X156149433Y-104296655D01*
X156141726Y-104303498D01*
X155994590Y-104457467D01*
X155988104Y-104465477D01*
X155868098Y-104641399D01*
X155863000Y-104650373D01*
X155773338Y-104843533D01*
X155769775Y-104853220D01*
X155714389Y-105052933D01*
X152300500Y-105052933D01*
X152300500Y-104474002D01*
X152288867Y-104415519D01*
X152244552Y-104349198D01*
X152178231Y-104304883D01*
X152166062Y-104302462D01*
X152166061Y-104302462D01*
X152125816Y-104294457D01*
X152119748Y-104293250D01*
X150380252Y-104293250D01*
X150374184Y-104294457D01*
X150333939Y-104302462D01*
X150333938Y-104302462D01*
X150321769Y-104304883D01*
X150255448Y-104349198D01*
X150211133Y-104415519D01*
X150199500Y-104474002D01*
X150199500Y-106213498D01*
X148250000Y-106213498D01*
X148250000Y-102789012D01*
X150194520Y-102789012D01*
X150195036Y-102795156D01*
X150209912Y-102972304D01*
X150211759Y-102994303D01*
X150213458Y-103000228D01*
X150262947Y-103172816D01*
X150268544Y-103192336D01*
X150271359Y-103197813D01*
X150271360Y-103197816D01*
X150347049Y-103345091D01*
X150362712Y-103375568D01*
X150490677Y-103537020D01*
X150495370Y-103541014D01*
X150495371Y-103541015D01*
X150642486Y-103666219D01*
X150647564Y-103670541D01*
X150827398Y-103771047D01*
X150901767Y-103795211D01*
X151017471Y-103832806D01*
X151017475Y-103832807D01*
X151023329Y-103834709D01*
X151227894Y-103859101D01*
X151234029Y-103858629D01*
X151234031Y-103858629D01*
X151290039Y-103854319D01*
X151433300Y-103843296D01*
X151439230Y-103841640D01*
X151439232Y-103841640D01*
X151625797Y-103789550D01*
X151625796Y-103789550D01*
X151631725Y-103787895D01*
X151637214Y-103785122D01*
X151637220Y-103785120D01*
X151810116Y-103697783D01*
X151815610Y-103695008D01*
X151852459Y-103666219D01*
X151973101Y-103571963D01*
X151977951Y-103568174D01*
X151999531Y-103543174D01*
X152108540Y-103416884D01*
X152108540Y-103416883D01*
X152112564Y-103412222D01*
X152133387Y-103375568D01*
X152211276Y-103238457D01*
X152214323Y-103233094D01*
X152279351Y-103037613D01*
X152305171Y-102833224D01*
X152305390Y-102817556D01*
X152305534Y-102807272D01*
X152305534Y-102807268D01*
X152305583Y-102803750D01*
X152285480Y-102598720D01*
X152225935Y-102401499D01*
X152129218Y-102219599D01*
X152055859Y-102129652D01*
X152002906Y-102064725D01*
X152002903Y-102064722D01*
X151999011Y-102059950D01*
X151981786Y-102045700D01*
X151845025Y-101932561D01*
X151845021Y-101932559D01*
X151840275Y-101928632D01*
X151659055Y-101830647D01*
X151462254Y-101769727D01*
X151456129Y-101769083D01*
X151456128Y-101769083D01*
X151263498Y-101748837D01*
X151263496Y-101748837D01*
X151257369Y-101748193D01*
X151170529Y-101756096D01*
X151058342Y-101766305D01*
X151058339Y-101766306D01*
X151052203Y-101766864D01*
X150854572Y-101825030D01*
X150672002Y-101920476D01*
X150667201Y-101924336D01*
X150667198Y-101924338D01*
X150516254Y-102045700D01*
X150511447Y-102049565D01*
X150379024Y-102207380D01*
X150376056Y-102212778D01*
X150376053Y-102212783D01*
X150296487Y-102357515D01*
X150279776Y-102387912D01*
X150217484Y-102584282D01*
X150216798Y-102590399D01*
X150216797Y-102590403D01*
X150198447Y-102754000D01*
X150194520Y-102789012D01*
X148250000Y-102789012D01*
X148250000Y-100249012D01*
X150194520Y-100249012D01*
X150195036Y-100255156D01*
X150209660Y-100429303D01*
X150211759Y-100454303D01*
X150213458Y-100460228D01*
X150262947Y-100632816D01*
X150268544Y-100652336D01*
X150271359Y-100657813D01*
X150271360Y-100657816D01*
X150292247Y-100698457D01*
X150362712Y-100835568D01*
X150490677Y-100997020D01*
X150495370Y-101001014D01*
X150495371Y-101001015D01*
X150642486Y-101126219D01*
X150647564Y-101130541D01*
X150827398Y-101231047D01*
X150922238Y-101261863D01*
X151017471Y-101292806D01*
X151017475Y-101292807D01*
X151023329Y-101294709D01*
X151227894Y-101319101D01*
X151234029Y-101318629D01*
X151234031Y-101318629D01*
X151290039Y-101314319D01*
X151433300Y-101303296D01*
X151439230Y-101301640D01*
X151439232Y-101301640D01*
X151625797Y-101249550D01*
X151625796Y-101249550D01*
X151631725Y-101247895D01*
X151637214Y-101245122D01*
X151637220Y-101245120D01*
X151810116Y-101157783D01*
X151815610Y-101155008D01*
X151852459Y-101126219D01*
X151973101Y-101031963D01*
X151977951Y-101028174D01*
X151999531Y-101003174D01*
X152108540Y-100876884D01*
X152108540Y-100876883D01*
X152112564Y-100872222D01*
X152133387Y-100835568D01*
X152211276Y-100698457D01*
X152214323Y-100693094D01*
X152279351Y-100497613D01*
X152305171Y-100293224D01*
X152305390Y-100277556D01*
X152305534Y-100267272D01*
X152305534Y-100267268D01*
X152305583Y-100263750D01*
X152301687Y-100224012D01*
X155994520Y-100224012D01*
X156011759Y-100429303D01*
X156013458Y-100435228D01*
X156033025Y-100503465D01*
X156068544Y-100627336D01*
X156071359Y-100632813D01*
X156071360Y-100632816D01*
X156092247Y-100673457D01*
X156162712Y-100810568D01*
X156290677Y-100972020D01*
X156295370Y-100976014D01*
X156295371Y-100976015D01*
X156314376Y-100992189D01*
X156447564Y-101105541D01*
X156452942Y-101108547D01*
X156452944Y-101108548D01*
X156529295Y-101151219D01*
X156627398Y-101206047D01*
X156704340Y-101231047D01*
X156817471Y-101267806D01*
X156817475Y-101267807D01*
X156823329Y-101269709D01*
X157027894Y-101294101D01*
X157034029Y-101293629D01*
X157034031Y-101293629D01*
X157090039Y-101289319D01*
X157233300Y-101278296D01*
X157239230Y-101276640D01*
X157239232Y-101276640D01*
X157395708Y-101232951D01*
X157431725Y-101222895D01*
X157437214Y-101220122D01*
X157437220Y-101220120D01*
X157610116Y-101132783D01*
X157615610Y-101130008D01*
X157777951Y-101003174D01*
X157912564Y-100847222D01*
X157919185Y-100835568D01*
X158011276Y-100673457D01*
X158014323Y-100668094D01*
X158079351Y-100472613D01*
X158105171Y-100268224D01*
X158105583Y-100238750D01*
X158085480Y-100033720D01*
X158025935Y-99836499D01*
X157929218Y-99654599D01*
X157819401Y-99519950D01*
X157802906Y-99499725D01*
X157802903Y-99499722D01*
X157799011Y-99494950D01*
X157781786Y-99480700D01*
X157645025Y-99367561D01*
X157645021Y-99367559D01*
X157640275Y-99363632D01*
X157459055Y-99265647D01*
X157262254Y-99204727D01*
X157256129Y-99204083D01*
X157256128Y-99204083D01*
X157063498Y-99183837D01*
X157063496Y-99183837D01*
X157057369Y-99183193D01*
X156970529Y-99191096D01*
X156858342Y-99201305D01*
X156858339Y-99201306D01*
X156852203Y-99201864D01*
X156654572Y-99260030D01*
X156649107Y-99262887D01*
X156590403Y-99293577D01*
X156472002Y-99355476D01*
X156467201Y-99359336D01*
X156467198Y-99359338D01*
X156430764Y-99388632D01*
X156311447Y-99484565D01*
X156179024Y-99642380D01*
X156176056Y-99647778D01*
X156176053Y-99647783D01*
X156082743Y-99817515D01*
X156079776Y-99822912D01*
X156017484Y-100019282D01*
X156016798Y-100025399D01*
X156016797Y-100025403D01*
X156013993Y-100050403D01*
X155994520Y-100224012D01*
X152301687Y-100224012D01*
X152285480Y-100058720D01*
X152225935Y-99861499D01*
X152129218Y-99679599D01*
X152055859Y-99589652D01*
X152002906Y-99524725D01*
X152002903Y-99524722D01*
X151999011Y-99519950D01*
X151981786Y-99505700D01*
X151845025Y-99392561D01*
X151845021Y-99392559D01*
X151840275Y-99388632D01*
X151659055Y-99290647D01*
X151462254Y-99229727D01*
X151456129Y-99229083D01*
X151456128Y-99229083D01*
X151263498Y-99208837D01*
X151263496Y-99208837D01*
X151257369Y-99208193D01*
X151170529Y-99216096D01*
X151058342Y-99226305D01*
X151058339Y-99226306D01*
X151052203Y-99226864D01*
X150854572Y-99285030D01*
X150672002Y-99380476D01*
X150667201Y-99384336D01*
X150667198Y-99384338D01*
X150516254Y-99505700D01*
X150511447Y-99509565D01*
X150379024Y-99667380D01*
X150376056Y-99672778D01*
X150376053Y-99672783D01*
X150369315Y-99685040D01*
X150279776Y-99847912D01*
X150217484Y-100044282D01*
X150216798Y-100050399D01*
X150216797Y-100050403D01*
X150198011Y-100217887D01*
X150194520Y-100249012D01*
X148250000Y-100249012D01*
X148250000Y-95451716D01*
X149918257Y-95451716D01*
X149948565Y-95586196D01*
X149951645Y-95596025D01*
X150031770Y-95793353D01*
X150036413Y-95802544D01*
X150147694Y-95984138D01*
X150153777Y-95992449D01*
X150293213Y-96153417D01*
X150300580Y-96160633D01*
X150464434Y-96296666D01*
X150472881Y-96302581D01*
X150656756Y-96410029D01*
X150666042Y-96414479D01*
X150865001Y-96490453D01*
X150879866Y-96494772D01*
X150879289Y-96496758D01*
X150934260Y-96525832D01*
X150969110Y-96587686D01*
X150964988Y-96658563D01*
X150923201Y-96715959D01*
X150881930Y-96736978D01*
X150860489Y-96743288D01*
X150860484Y-96743290D01*
X150854572Y-96745030D01*
X150672002Y-96840476D01*
X150667201Y-96844336D01*
X150667198Y-96844338D01*
X150516254Y-96965700D01*
X150511447Y-96969565D01*
X150379024Y-97127380D01*
X150376056Y-97132778D01*
X150376053Y-97132783D01*
X150313553Y-97246471D01*
X150279776Y-97307912D01*
X150217484Y-97504282D01*
X150216798Y-97510399D01*
X150216797Y-97510403D01*
X150212590Y-97547912D01*
X150194520Y-97709012D01*
X150195036Y-97715156D01*
X150209660Y-97889303D01*
X150211759Y-97914303D01*
X150213458Y-97920228D01*
X150262947Y-98092816D01*
X150268544Y-98112336D01*
X150271359Y-98117813D01*
X150271360Y-98117816D01*
X150292247Y-98158457D01*
X150362712Y-98295568D01*
X150490677Y-98457020D01*
X150495370Y-98461014D01*
X150495371Y-98461015D01*
X150642486Y-98586219D01*
X150647564Y-98590541D01*
X150827398Y-98691047D01*
X150922238Y-98721863D01*
X151017471Y-98752806D01*
X151017475Y-98752807D01*
X151023329Y-98754709D01*
X151227894Y-98779101D01*
X151234029Y-98778629D01*
X151234031Y-98778629D01*
X151290039Y-98774319D01*
X151433300Y-98763296D01*
X151439230Y-98761640D01*
X151439232Y-98761640D01*
X151625797Y-98709550D01*
X151625796Y-98709550D01*
X151631725Y-98707895D01*
X151637214Y-98705122D01*
X151637220Y-98705120D01*
X151810116Y-98617783D01*
X151815610Y-98615008D01*
X151852459Y-98586219D01*
X151973101Y-98491963D01*
X151977951Y-98488174D01*
X151999531Y-98463174D01*
X152108540Y-98336884D01*
X152108540Y-98336883D01*
X152112564Y-98332222D01*
X152133387Y-98295568D01*
X152211276Y-98158457D01*
X152214323Y-98153094D01*
X152279351Y-97957613D01*
X152305171Y-97753224D01*
X152305390Y-97737556D01*
X152305534Y-97727272D01*
X152305534Y-97727268D01*
X152305583Y-97723750D01*
X152285480Y-97518720D01*
X152225935Y-97321499D01*
X152129218Y-97139599D01*
X152047273Y-97039125D01*
X152002906Y-96984725D01*
X152002903Y-96984722D01*
X151999011Y-96979950D01*
X151981786Y-96965700D01*
X151845025Y-96852561D01*
X151845021Y-96852559D01*
X151840275Y-96848632D01*
X151659055Y-96750647D01*
X151608183Y-96734900D01*
X151549025Y-96695649D01*
X151520477Y-96630645D01*
X151531605Y-96560526D01*
X151578876Y-96507554D01*
X151609235Y-96493849D01*
X151742255Y-96453941D01*
X151751842Y-96450183D01*
X151943095Y-96356489D01*
X151951945Y-96351214D01*
X152125328Y-96227542D01*
X152133200Y-96220889D01*
X152284052Y-96070562D01*
X152290730Y-96062715D01*
X152415003Y-95889770D01*
X152420313Y-95880933D01*
X152514670Y-95690017D01*
X152518469Y-95680422D01*
X152580377Y-95476660D01*
X152582555Y-95466587D01*
X152583986Y-95455712D01*
X152581775Y-95441528D01*
X152568617Y-95437750D01*
X149933225Y-95437750D01*
X149919694Y-95441723D01*
X149918257Y-95451716D01*
X148250000Y-95451716D01*
X148250000Y-95426716D01*
X155718257Y-95426716D01*
X155748565Y-95561196D01*
X155751645Y-95571025D01*
X155831770Y-95768353D01*
X155836413Y-95777544D01*
X155947694Y-95959138D01*
X155953777Y-95967449D01*
X156093213Y-96128417D01*
X156100580Y-96135633D01*
X156264434Y-96271666D01*
X156272881Y-96277581D01*
X156456756Y-96385029D01*
X156466042Y-96389479D01*
X156665001Y-96465453D01*
X156679866Y-96469772D01*
X156679289Y-96471758D01*
X156734260Y-96500832D01*
X156769110Y-96562686D01*
X156764988Y-96633563D01*
X156723201Y-96690959D01*
X156681930Y-96711978D01*
X156660489Y-96718288D01*
X156660484Y-96718290D01*
X156654572Y-96720030D01*
X156649107Y-96722887D01*
X156590403Y-96753577D01*
X156472002Y-96815476D01*
X156467201Y-96819336D01*
X156467198Y-96819338D01*
X156430764Y-96848632D01*
X156311447Y-96944565D01*
X156179024Y-97102380D01*
X156176056Y-97107778D01*
X156176053Y-97107783D01*
X156096694Y-97252138D01*
X156079776Y-97282912D01*
X156017484Y-97479282D01*
X156016798Y-97485399D01*
X156016797Y-97485403D01*
X156010164Y-97544542D01*
X155994520Y-97684012D01*
X156011759Y-97889303D01*
X156013458Y-97895228D01*
X156033025Y-97963465D01*
X156068544Y-98087336D01*
X156071359Y-98092813D01*
X156071360Y-98092816D01*
X156092247Y-98133457D01*
X156162712Y-98270568D01*
X156290677Y-98432020D01*
X156295370Y-98436014D01*
X156295371Y-98436015D01*
X156314376Y-98452189D01*
X156447564Y-98565541D01*
X156452942Y-98568547D01*
X156452944Y-98568548D01*
X156529295Y-98611219D01*
X156627398Y-98666047D01*
X156704340Y-98691047D01*
X156817471Y-98727806D01*
X156817475Y-98727807D01*
X156823329Y-98729709D01*
X157027894Y-98754101D01*
X157034029Y-98753629D01*
X157034031Y-98753629D01*
X157090039Y-98749319D01*
X157233300Y-98738296D01*
X157239230Y-98736640D01*
X157239232Y-98736640D01*
X157395708Y-98692951D01*
X157431725Y-98682895D01*
X157437214Y-98680122D01*
X157437220Y-98680120D01*
X157610116Y-98592783D01*
X157615610Y-98590008D01*
X157777951Y-98463174D01*
X157912564Y-98307222D01*
X157919185Y-98295568D01*
X158011276Y-98133457D01*
X158014323Y-98128094D01*
X158079351Y-97932613D01*
X158105171Y-97728224D01*
X158105583Y-97698750D01*
X158085480Y-97493720D01*
X158025935Y-97296499D01*
X157929218Y-97114599D01*
X157819401Y-96979950D01*
X157802906Y-96959725D01*
X157802903Y-96959722D01*
X157799011Y-96954950D01*
X157771567Y-96932246D01*
X157762633Y-96924855D01*
X176576712Y-96924855D01*
X176578486Y-96932242D01*
X176578486Y-96932246D01*
X176586518Y-96965700D01*
X176616293Y-97089718D01*
X176619774Y-97096462D01*
X176619775Y-97096465D01*
X176644847Y-97145040D01*
X176694056Y-97240381D01*
X176699048Y-97246103D01*
X176699049Y-97246105D01*
X176748259Y-97302515D01*
X176805512Y-97368146D01*
X176811726Y-97372513D01*
X176938011Y-97461268D01*
X176938013Y-97461269D01*
X176944228Y-97465637D01*
X177102194Y-97527226D01*
X177109727Y-97528218D01*
X177109728Y-97528218D01*
X177180781Y-97537572D01*
X177231507Y-97544250D01*
X182749040Y-97544250D01*
X182757610Y-97544542D01*
X182807035Y-97547912D01*
X182807039Y-97547912D01*
X182814611Y-97548428D01*
X182822087Y-97547123D01*
X182822090Y-97547123D01*
X182876813Y-97537572D01*
X182883339Y-97536609D01*
X182923777Y-97531715D01*
X182946001Y-97529026D01*
X182953108Y-97526341D01*
X182956401Y-97525532D01*
X182970872Y-97521573D01*
X182974148Y-97520584D01*
X182981635Y-97519277D01*
X182988595Y-97516222D01*
X183039441Y-97493903D01*
X183045547Y-97491411D01*
X183097499Y-97471780D01*
X183097501Y-97471779D01*
X183104604Y-97469095D01*
X183110859Y-97464796D01*
X183113884Y-97463215D01*
X183126980Y-97455925D01*
X183129924Y-97454184D01*
X183136883Y-97451129D01*
X183186954Y-97412708D01*
X183192290Y-97408831D01*
X183238067Y-97377369D01*
X183238073Y-97377364D01*
X183244332Y-97373062D01*
X183285293Y-97327089D01*
X183290273Y-97321815D01*
X183311243Y-97300845D01*
X183327646Y-97279925D01*
X183332697Y-97273884D01*
X183357121Y-97246471D01*
X183360674Y-97239761D01*
X183365012Y-97233520D01*
X183365138Y-97233608D01*
X183370804Y-97224884D01*
X183374717Y-97219893D01*
X183389434Y-97201123D01*
X183459206Y-97046596D01*
X183472607Y-96974293D01*
X183488719Y-96887355D01*
X183490103Y-96879888D01*
X183488528Y-96852561D01*
X183486225Y-96812619D01*
X183480344Y-96710621D01*
X183430490Y-96548569D01*
X183343420Y-96403085D01*
X183338083Y-96397692D01*
X183338080Y-96397688D01*
X183267350Y-96326214D01*
X183224161Y-96282570D01*
X183115071Y-96215721D01*
X183086078Y-96197954D01*
X183086075Y-96197953D01*
X183079597Y-96193983D01*
X183072356Y-96191672D01*
X182925312Y-96144743D01*
X182925309Y-96144742D01*
X182918076Y-96142434D01*
X182910500Y-96141917D01*
X182910497Y-96141917D01*
X182756497Y-96131418D01*
X182756493Y-96131418D01*
X182748921Y-96130902D01*
X182741444Y-96132207D01*
X182741443Y-96132207D01*
X182688921Y-96141374D01*
X182667257Y-96143250D01*
X177235165Y-96143250D01*
X177109361Y-96158474D01*
X176950758Y-96218405D01*
X176811030Y-96314438D01*
X176805978Y-96320108D01*
X176805977Y-96320109D01*
X176703293Y-96435358D01*
X176703291Y-96435362D01*
X176698241Y-96441029D01*
X176618905Y-96590869D01*
X176577600Y-96755309D01*
X176577560Y-96762907D01*
X176577560Y-96762909D01*
X176577242Y-96823632D01*
X176576712Y-96924855D01*
X157762633Y-96924855D01*
X157645025Y-96827561D01*
X157645021Y-96827559D01*
X157640275Y-96823632D01*
X157459055Y-96725647D01*
X157408183Y-96709900D01*
X157349025Y-96670649D01*
X157320477Y-96605645D01*
X157331605Y-96535526D01*
X157378876Y-96482554D01*
X157409235Y-96468849D01*
X157542255Y-96428941D01*
X157551842Y-96425183D01*
X157743095Y-96331489D01*
X157751945Y-96326214D01*
X157925328Y-96202542D01*
X157933200Y-96195889D01*
X158084052Y-96045562D01*
X158090730Y-96037715D01*
X158215003Y-95864770D01*
X158220313Y-95855933D01*
X158314670Y-95665017D01*
X158318469Y-95655422D01*
X158380377Y-95451660D01*
X158382555Y-95441587D01*
X158383986Y-95430712D01*
X158381775Y-95416528D01*
X158368617Y-95412750D01*
X155733225Y-95412750D01*
X155719694Y-95416723D01*
X155718257Y-95426716D01*
X148250000Y-95426716D01*
X148250000Y-95324430D01*
X169895322Y-95324430D01*
X169896627Y-95331906D01*
X169896627Y-95331909D01*
X169906178Y-95386632D01*
X169907141Y-95393158D01*
X169914724Y-95455820D01*
X169917409Y-95462927D01*
X169918218Y-95466220D01*
X169922177Y-95480691D01*
X169923166Y-95483967D01*
X169924473Y-95491454D01*
X169927528Y-95498413D01*
X169927528Y-95498414D01*
X169949847Y-95549260D01*
X169952339Y-95555366D01*
X169974655Y-95614423D01*
X169978954Y-95620678D01*
X169980535Y-95623703D01*
X169987825Y-95636799D01*
X169989566Y-95639743D01*
X169992621Y-95646702D01*
X169997246Y-95652730D01*
X169997247Y-95652731D01*
X170031042Y-95696773D01*
X170034919Y-95702109D01*
X170066385Y-95747891D01*
X170066388Y-95747894D01*
X170070688Y-95754151D01*
X170108007Y-95787401D01*
X170116654Y-95795105D01*
X170121930Y-95800086D01*
X170190985Y-95869142D01*
X170290707Y-95947334D01*
X170297625Y-95950458D01*
X170297629Y-95950460D01*
X170390625Y-95992449D01*
X170445234Y-96017106D01*
X170452702Y-96018490D01*
X170452705Y-96018491D01*
X170547227Y-96036009D01*
X170611942Y-96048003D01*
X170619522Y-96047566D01*
X170619523Y-96047566D01*
X170654650Y-96045540D01*
X170781210Y-96038243D01*
X170943261Y-95988389D01*
X171088745Y-95901320D01*
X171152934Y-95837799D01*
X171203863Y-95787401D01*
X171203864Y-95787400D01*
X171209260Y-95782060D01*
X171258254Y-95702109D01*
X171293881Y-95643971D01*
X171293882Y-95643969D01*
X171297848Y-95637497D01*
X171349396Y-95475975D01*
X171350770Y-95455820D01*
X171360412Y-95314396D01*
X171360412Y-95314392D01*
X171360928Y-95306820D01*
X171331778Y-95139797D01*
X171311126Y-95092750D01*
X171300500Y-95042105D01*
X171300500Y-82962346D01*
X191892001Y-82962346D01*
X191892371Y-82969167D01*
X191897895Y-83020029D01*
X191901521Y-83035281D01*
X191946676Y-83155731D01*
X191955214Y-83171326D01*
X192031715Y-83273401D01*
X192044276Y-83285962D01*
X192146351Y-83362463D01*
X192161946Y-83371001D01*
X192282394Y-83416155D01*
X192297649Y-83419782D01*
X192348514Y-83425308D01*
X192355328Y-83425677D01*
X193127885Y-83425677D01*
X193143124Y-83421202D01*
X193144329Y-83419812D01*
X193146000Y-83412129D01*
X193146000Y-83407561D01*
X193654000Y-83407561D01*
X193658475Y-83422800D01*
X193659865Y-83424005D01*
X193667548Y-83425676D01*
X194444669Y-83425676D01*
X194451490Y-83425306D01*
X194502352Y-83419782D01*
X194517604Y-83416156D01*
X194638054Y-83371001D01*
X194653649Y-83362463D01*
X194755724Y-83285962D01*
X194768285Y-83273401D01*
X194844786Y-83171326D01*
X194853324Y-83155731D01*
X194898478Y-83035283D01*
X194902105Y-83020028D01*
X194907631Y-82969163D01*
X194908000Y-82962349D01*
X194908000Y-82189792D01*
X194903525Y-82174553D01*
X194902135Y-82173348D01*
X194894452Y-82171677D01*
X193672115Y-82171677D01*
X193656876Y-82176152D01*
X193655671Y-82177542D01*
X193654000Y-82185225D01*
X193654000Y-83407561D01*
X193146000Y-83407561D01*
X193146000Y-82189792D01*
X193141525Y-82174553D01*
X193140135Y-82173348D01*
X193132452Y-82171677D01*
X191910116Y-82171677D01*
X191894877Y-82176152D01*
X191893672Y-82177542D01*
X191892001Y-82185225D01*
X191892001Y-82962346D01*
X171300500Y-82962346D01*
X171300500Y-81645562D01*
X191892000Y-81645562D01*
X191896475Y-81660801D01*
X191897865Y-81662006D01*
X191905548Y-81663677D01*
X193127885Y-81663677D01*
X193143124Y-81659202D01*
X193144329Y-81657812D01*
X193146000Y-81650129D01*
X193146000Y-81645562D01*
X193654000Y-81645562D01*
X193658475Y-81660801D01*
X193659865Y-81662006D01*
X193667548Y-81663677D01*
X194889884Y-81663677D01*
X194905123Y-81659202D01*
X194906328Y-81657812D01*
X194907999Y-81650129D01*
X194907999Y-80873008D01*
X194907629Y-80866187D01*
X194902105Y-80815325D01*
X194898479Y-80800073D01*
X194853324Y-80679623D01*
X194844786Y-80664028D01*
X194768285Y-80561953D01*
X194755724Y-80549392D01*
X194653649Y-80472891D01*
X194638054Y-80464353D01*
X194517606Y-80419199D01*
X194502351Y-80415572D01*
X194451486Y-80410046D01*
X194444672Y-80409677D01*
X193672115Y-80409677D01*
X193656876Y-80414152D01*
X193655671Y-80415542D01*
X193654000Y-80423225D01*
X193654000Y-81645562D01*
X193146000Y-81645562D01*
X193146000Y-80427793D01*
X193141525Y-80412554D01*
X193140135Y-80411349D01*
X193132452Y-80409678D01*
X192355331Y-80409678D01*
X192348510Y-80410048D01*
X192297648Y-80415572D01*
X192282396Y-80419198D01*
X192161946Y-80464353D01*
X192146351Y-80472891D01*
X192044276Y-80549392D01*
X192031715Y-80561953D01*
X191955214Y-80664028D01*
X191946676Y-80679623D01*
X191901522Y-80800071D01*
X191897895Y-80815326D01*
X191892369Y-80866191D01*
X191892000Y-80873005D01*
X191892000Y-81645562D01*
X171300500Y-81645562D01*
X171300500Y-78386117D01*
X192194770Y-78386117D01*
X192209200Y-78606281D01*
X192210621Y-78611877D01*
X192210622Y-78611882D01*
X192262090Y-78814534D01*
X192263511Y-78820129D01*
X192265928Y-78825371D01*
X192265928Y-78825372D01*
X192304046Y-78908056D01*
X192355883Y-79020498D01*
X192483222Y-79200679D01*
X192641264Y-79354638D01*
X192646060Y-79357843D01*
X192646063Y-79357845D01*
X192730261Y-79414104D01*
X192824717Y-79477217D01*
X192830020Y-79479495D01*
X192830023Y-79479497D01*
X193022129Y-79562032D01*
X193027436Y-79564312D01*
X193107088Y-79582335D01*
X193236995Y-79611731D01*
X193237001Y-79611732D01*
X193242632Y-79613006D01*
X193248403Y-79613233D01*
X193248405Y-79613233D01*
X193316211Y-79615897D01*
X193463098Y-79621668D01*
X193572275Y-79605838D01*
X193675738Y-79590837D01*
X193675743Y-79590836D01*
X193681452Y-79590008D01*
X193686916Y-79588153D01*
X193686921Y-79588152D01*
X193884907Y-79520945D01*
X193884912Y-79520943D01*
X193890379Y-79519087D01*
X194082884Y-79411279D01*
X194252518Y-79270195D01*
X194393602Y-79100561D01*
X194501410Y-78908056D01*
X194503266Y-78902589D01*
X194503268Y-78902584D01*
X194570475Y-78704598D01*
X194570476Y-78704593D01*
X194572331Y-78699129D01*
X194573159Y-78693420D01*
X194573160Y-78693415D01*
X194603458Y-78484449D01*
X194603991Y-78480775D01*
X194605643Y-78417677D01*
X194585454Y-78197966D01*
X194525565Y-77985613D01*
X194427980Y-77787730D01*
X194295967Y-77610944D01*
X194133949Y-77461176D01*
X193947350Y-77343441D01*
X193742421Y-77261683D01*
X193736761Y-77260557D01*
X193736757Y-77260556D01*
X193531691Y-77219766D01*
X193531688Y-77219766D01*
X193526024Y-77218639D01*
X193520249Y-77218563D01*
X193520245Y-77218563D01*
X193409504Y-77217114D01*
X193305406Y-77215751D01*
X193299709Y-77216730D01*
X193299708Y-77216730D01*
X193093654Y-77252136D01*
X193093653Y-77252136D01*
X193087957Y-77253115D01*
X192880957Y-77329481D01*
X192691341Y-77442291D01*
X192525457Y-77587767D01*
X192388863Y-77761037D01*
X192286131Y-77956297D01*
X192220703Y-78167010D01*
X192194770Y-78386117D01*
X171300500Y-78386117D01*
X171300500Y-76444669D01*
X208942001Y-76444669D01*
X208942371Y-76451490D01*
X208947895Y-76502352D01*
X208951521Y-76517604D01*
X208996676Y-76638054D01*
X209005214Y-76653649D01*
X209081715Y-76755724D01*
X209094276Y-76768285D01*
X209196351Y-76844786D01*
X209211946Y-76853324D01*
X209332394Y-76898478D01*
X209347649Y-76902105D01*
X209398514Y-76907631D01*
X209405328Y-76908000D01*
X209977885Y-76908000D01*
X209993124Y-76903525D01*
X209994329Y-76902135D01*
X209996000Y-76894452D01*
X209996000Y-76889884D01*
X210504000Y-76889884D01*
X210508475Y-76905123D01*
X210509865Y-76906328D01*
X210517548Y-76907999D01*
X211094669Y-76907999D01*
X211101490Y-76907629D01*
X211152352Y-76902105D01*
X211167604Y-76898479D01*
X211288054Y-76853324D01*
X211303649Y-76844786D01*
X211405724Y-76768285D01*
X211418285Y-76755724D01*
X211494786Y-76653649D01*
X211503324Y-76638054D01*
X211548478Y-76517606D01*
X211552105Y-76502351D01*
X211557631Y-76451486D01*
X211558000Y-76444672D01*
X211558000Y-76444669D01*
X217442001Y-76444669D01*
X217442371Y-76451490D01*
X217447895Y-76502352D01*
X217451521Y-76517604D01*
X217496676Y-76638054D01*
X217505214Y-76653649D01*
X217581715Y-76755724D01*
X217594276Y-76768285D01*
X217696351Y-76844786D01*
X217711946Y-76853324D01*
X217832394Y-76898478D01*
X217847649Y-76902105D01*
X217898514Y-76907631D01*
X217905328Y-76908000D01*
X218477885Y-76908000D01*
X218493124Y-76903525D01*
X218494329Y-76902135D01*
X218496000Y-76894452D01*
X218496000Y-76889884D01*
X219004000Y-76889884D01*
X219008475Y-76905123D01*
X219009865Y-76906328D01*
X219017548Y-76907999D01*
X219594669Y-76907999D01*
X219601490Y-76907629D01*
X219652352Y-76902105D01*
X219667604Y-76898479D01*
X219788054Y-76853324D01*
X219803649Y-76844786D01*
X219905724Y-76768285D01*
X219918285Y-76755724D01*
X219994786Y-76653649D01*
X220003324Y-76638054D01*
X220048478Y-76517606D01*
X220052105Y-76502351D01*
X220057631Y-76451486D01*
X220058000Y-76444672D01*
X220058000Y-74222115D01*
X220053525Y-74206876D01*
X220052135Y-74205671D01*
X220044452Y-74204000D01*
X219022115Y-74204000D01*
X219006876Y-74208475D01*
X219005671Y-74209865D01*
X219004000Y-74217548D01*
X219004000Y-76889884D01*
X218496000Y-76889884D01*
X218496000Y-74222115D01*
X218491525Y-74206876D01*
X218490135Y-74205671D01*
X218482452Y-74204000D01*
X217460116Y-74204000D01*
X217444877Y-74208475D01*
X217443672Y-74209865D01*
X217442001Y-74217548D01*
X217442001Y-76444669D01*
X211558000Y-76444669D01*
X211558000Y-74222115D01*
X211553525Y-74206876D01*
X211552135Y-74205671D01*
X211544452Y-74204000D01*
X210522115Y-74204000D01*
X210506876Y-74208475D01*
X210505671Y-74209865D01*
X210504000Y-74217548D01*
X210504000Y-76889884D01*
X209996000Y-76889884D01*
X209996000Y-74222115D01*
X209991525Y-74206876D01*
X209990135Y-74205671D01*
X209982452Y-74204000D01*
X208960116Y-74204000D01*
X208944877Y-74208475D01*
X208943672Y-74209865D01*
X208942001Y-74217548D01*
X208942001Y-76444669D01*
X171300500Y-76444669D01*
X171300500Y-75904846D01*
X171320502Y-75836725D01*
X171337405Y-75815751D01*
X172485205Y-74667952D01*
X172487892Y-74665265D01*
X172566084Y-74565543D01*
X172635855Y-74411016D01*
X172666752Y-74244308D01*
X172665473Y-74222115D01*
X172657430Y-74082626D01*
X172656993Y-74075041D01*
X172607139Y-73912989D01*
X172520069Y-73767505D01*
X172514732Y-73762112D01*
X172514729Y-73762108D01*
X172449309Y-73696000D01*
X172431383Y-73677885D01*
X208942000Y-73677885D01*
X208946475Y-73693124D01*
X208947865Y-73694329D01*
X208955548Y-73696000D01*
X209977885Y-73696000D01*
X209993124Y-73691525D01*
X209994329Y-73690135D01*
X209996000Y-73682452D01*
X209996000Y-73677885D01*
X210504000Y-73677885D01*
X210508475Y-73693124D01*
X210509865Y-73694329D01*
X210517548Y-73696000D01*
X211539884Y-73696000D01*
X211555123Y-73691525D01*
X211556328Y-73690135D01*
X211557999Y-73682452D01*
X211557999Y-73677885D01*
X217442000Y-73677885D01*
X217446475Y-73693124D01*
X217447865Y-73694329D01*
X217455548Y-73696000D01*
X218477885Y-73696000D01*
X218493124Y-73691525D01*
X218494329Y-73690135D01*
X218496000Y-73682452D01*
X218496000Y-73677885D01*
X219004000Y-73677885D01*
X219008475Y-73693124D01*
X219009865Y-73694329D01*
X219017548Y-73696000D01*
X220039884Y-73696000D01*
X220055123Y-73691525D01*
X220056328Y-73690135D01*
X220057999Y-73682452D01*
X220057999Y-71455331D01*
X220057629Y-71448510D01*
X220052105Y-71397648D01*
X220048479Y-71382396D01*
X220003324Y-71261946D01*
X219994786Y-71246351D01*
X219918285Y-71144276D01*
X219905724Y-71131715D01*
X219803649Y-71055214D01*
X219788054Y-71046676D01*
X219667606Y-71001522D01*
X219652351Y-70997895D01*
X219601486Y-70992369D01*
X219594672Y-70992000D01*
X219022115Y-70992000D01*
X219006876Y-70996475D01*
X219005671Y-70997865D01*
X219004000Y-71005548D01*
X219004000Y-73677885D01*
X218496000Y-73677885D01*
X218496000Y-71010116D01*
X218491525Y-70994877D01*
X218490135Y-70993672D01*
X218482452Y-70992001D01*
X217905331Y-70992001D01*
X217898510Y-70992371D01*
X217847648Y-70997895D01*
X217832396Y-71001521D01*
X217711946Y-71046676D01*
X217696351Y-71055214D01*
X217594276Y-71131715D01*
X217581715Y-71144276D01*
X217505214Y-71246351D01*
X217496676Y-71261946D01*
X217451522Y-71382394D01*
X217447895Y-71397649D01*
X217442369Y-71448514D01*
X217442000Y-71455328D01*
X217442000Y-73677885D01*
X211557999Y-73677885D01*
X211557999Y-71455331D01*
X211557629Y-71448510D01*
X211552105Y-71397648D01*
X211548479Y-71382396D01*
X211503324Y-71261946D01*
X211494786Y-71246351D01*
X211418285Y-71144276D01*
X211405724Y-71131715D01*
X211303649Y-71055214D01*
X211288054Y-71046676D01*
X211167606Y-71001522D01*
X211152351Y-70997895D01*
X211101486Y-70992369D01*
X211094672Y-70992000D01*
X210522115Y-70992000D01*
X210506876Y-70996475D01*
X210505671Y-70997865D01*
X210504000Y-71005548D01*
X210504000Y-73677885D01*
X209996000Y-73677885D01*
X209996000Y-71010116D01*
X209991525Y-70994877D01*
X209990135Y-70993672D01*
X209982452Y-70992001D01*
X209405331Y-70992001D01*
X209398510Y-70992371D01*
X209347648Y-70997895D01*
X209332396Y-71001521D01*
X209211946Y-71046676D01*
X209196351Y-71055214D01*
X209094276Y-71131715D01*
X209081715Y-71144276D01*
X209005214Y-71246351D01*
X208996676Y-71261946D01*
X208951522Y-71382394D01*
X208947895Y-71397649D01*
X208942369Y-71448514D01*
X208942000Y-71455328D01*
X208942000Y-73677885D01*
X172431383Y-73677885D01*
X172400810Y-73646990D01*
X172256246Y-73558402D01*
X172149933Y-73524473D01*
X172101964Y-73509164D01*
X172101962Y-73509164D01*
X172094725Y-73506854D01*
X172087145Y-73506337D01*
X172087144Y-73506337D01*
X171933146Y-73495838D01*
X171933142Y-73495838D01*
X171925570Y-73495322D01*
X171918093Y-73496627D01*
X171918092Y-73496627D01*
X171766023Y-73523168D01*
X171758546Y-73524473D01*
X171751597Y-73527524D01*
X171751595Y-73527524D01*
X171686512Y-73556093D01*
X171603298Y-73592621D01*
X171597274Y-73597243D01*
X171597273Y-73597244D01*
X171503093Y-73669512D01*
X171499822Y-73672022D01*
X171496901Y-73674943D01*
X170124926Y-75046917D01*
X170118661Y-75052770D01*
X170075604Y-75090331D01*
X170039317Y-75141963D01*
X170035384Y-75147258D01*
X170001105Y-75190976D01*
X170001103Y-75190980D01*
X169996416Y-75196957D01*
X169993290Y-75203880D01*
X169991505Y-75206828D01*
X169984113Y-75219788D01*
X169982480Y-75222834D01*
X169978113Y-75229047D01*
X169975354Y-75236124D01*
X169955180Y-75287866D01*
X169952625Y-75293945D01*
X169926645Y-75351484D01*
X169925260Y-75358955D01*
X169924236Y-75362223D01*
X169920123Y-75376664D01*
X169919283Y-75379937D01*
X169916524Y-75387013D01*
X169915533Y-75394543D01*
X169908284Y-75449606D01*
X169907252Y-75456123D01*
X169895748Y-75518192D01*
X169896185Y-75525772D01*
X169896185Y-75525773D01*
X169899291Y-75579644D01*
X169899500Y-75586896D01*
X169899500Y-95258859D01*
X169899208Y-95267429D01*
X169896523Y-95306820D01*
X169895322Y-95324430D01*
X148250000Y-95324430D01*
X148250000Y-94917933D01*
X149914389Y-94917933D01*
X149915912Y-94926357D01*
X149928292Y-94929750D01*
X150977885Y-94929750D01*
X150993124Y-94925275D01*
X150994329Y-94923885D01*
X150996000Y-94916202D01*
X150996000Y-94911635D01*
X151504000Y-94911635D01*
X151508475Y-94926874D01*
X151509865Y-94928079D01*
X151517548Y-94929750D01*
X152568344Y-94929750D01*
X152581875Y-94925777D01*
X152583180Y-94916697D01*
X152577211Y-94892933D01*
X155714389Y-94892933D01*
X155715912Y-94901357D01*
X155728292Y-94904750D01*
X158368344Y-94904750D01*
X158381875Y-94900777D01*
X158383180Y-94891697D01*
X158341214Y-94724625D01*
X158337894Y-94714874D01*
X158252972Y-94519564D01*
X158248105Y-94510489D01*
X158132426Y-94331676D01*
X158126136Y-94323507D01*
X157982806Y-94165990D01*
X157975273Y-94158965D01*
X157808139Y-94026972D01*
X157799552Y-94021267D01*
X157613117Y-93918349D01*
X157603705Y-93914119D01*
X157603435Y-93914023D01*
X157603341Y-93913955D01*
X157598989Y-93911999D01*
X157599393Y-93911101D01*
X157545899Y-93872429D01*
X157519983Y-93806331D01*
X157533917Y-93736715D01*
X157583276Y-93685684D01*
X157645495Y-93669250D01*
X157919748Y-93669250D01*
X157925816Y-93668043D01*
X157966061Y-93660038D01*
X157966062Y-93660038D01*
X157978231Y-93657617D01*
X158044552Y-93613302D01*
X158088867Y-93546981D01*
X158100500Y-93488498D01*
X158100500Y-91749002D01*
X158088867Y-91690519D01*
X158044552Y-91624198D01*
X157978231Y-91579883D01*
X157966062Y-91577462D01*
X157966061Y-91577462D01*
X157925816Y-91569457D01*
X157919748Y-91568250D01*
X156180252Y-91568250D01*
X156174184Y-91569457D01*
X156133939Y-91577462D01*
X156133938Y-91577462D01*
X156121769Y-91579883D01*
X156055448Y-91624198D01*
X156011133Y-91690519D01*
X155999500Y-91749002D01*
X155999500Y-93488498D01*
X156011133Y-93546981D01*
X156055448Y-93613302D01*
X156121769Y-93657617D01*
X156133938Y-93660038D01*
X156133939Y-93660038D01*
X156174184Y-93668043D01*
X156180252Y-93669250D01*
X156455233Y-93669250D01*
X156523354Y-93689252D01*
X156569847Y-93742908D01*
X156579951Y-93813182D01*
X156550457Y-93877762D01*
X156513413Y-93907013D01*
X156328463Y-94003292D01*
X156319738Y-94008786D01*
X156149433Y-94136655D01*
X156141726Y-94143498D01*
X155994590Y-94297467D01*
X155988104Y-94305477D01*
X155868098Y-94481399D01*
X155863000Y-94490373D01*
X155773338Y-94683533D01*
X155769775Y-94693220D01*
X155714389Y-94892933D01*
X152577211Y-94892933D01*
X152541214Y-94749625D01*
X152537894Y-94739874D01*
X152452972Y-94544564D01*
X152448105Y-94535489D01*
X152332426Y-94356676D01*
X152326136Y-94348507D01*
X152182806Y-94190990D01*
X152175273Y-94183965D01*
X152008139Y-94051972D01*
X151999552Y-94046267D01*
X151813117Y-93943349D01*
X151803705Y-93939119D01*
X151602959Y-93868030D01*
X151592988Y-93865396D01*
X151521837Y-93852722D01*
X151508540Y-93854182D01*
X151504000Y-93868739D01*
X151504000Y-94911635D01*
X150996000Y-94911635D01*
X150996000Y-93866852D01*
X150992082Y-93853508D01*
X150977806Y-93851521D01*
X150939324Y-93857410D01*
X150929288Y-93859801D01*
X150726868Y-93925962D01*
X150717359Y-93929959D01*
X150528463Y-94028292D01*
X150519738Y-94033786D01*
X150349433Y-94161655D01*
X150341726Y-94168498D01*
X150194590Y-94322467D01*
X150188104Y-94330477D01*
X150068098Y-94506399D01*
X150063000Y-94515373D01*
X149973338Y-94708533D01*
X149969775Y-94718220D01*
X149914389Y-94917933D01*
X148250000Y-94917933D01*
X148250000Y-70776000D01*
X148270002Y-70707879D01*
X148323658Y-70661386D01*
X148376000Y-70650000D01*
X237624000Y-70650000D01*
X237692121Y-70670002D01*
G37*
%TD.AperFunction*%
%TD*%
M02*
