%TF.GenerationSoftware,KiCad,Pcbnew,(6.0.0)*%
%TF.CreationDate,2022-06-07T13:13:07+02:00*%
%TF.ProjectId,driver-board,64726976-6572-42d6-926f-6172642e6b69,rev?*%
%TF.SameCoordinates,Original*%
%TF.FileFunction,Copper,L2,Bot*%
%TF.FilePolarity,Positive*%
%FSLAX46Y46*%
G04 Gerber Fmt 4.6, Leading zero omitted, Abs format (unit mm)*
G04 Created by KiCad (PCBNEW (6.0.0)) date 2022-06-07 13:13:07*
%MOMM*%
%LPD*%
G01*
G04 APERTURE LIST*
G04 Aperture macros list*
%AMRoundRect*
0 Rectangle with rounded corners*
0 $1 Rounding radius*
0 $2 $3 $4 $5 $6 $7 $8 $9 X,Y pos of 4 corners*
0 Add a 4 corners polygon primitive as box body*
4,1,4,$2,$3,$4,$5,$6,$7,$8,$9,$2,$3,0*
0 Add four circle primitives for the rounded corners*
1,1,$1+$1,$2,$3*
1,1,$1+$1,$4,$5*
1,1,$1+$1,$6,$7*
1,1,$1+$1,$8,$9*
0 Add four rect primitives between the rounded corners*
20,1,$1+$1,$2,$3,$4,$5,0*
20,1,$1+$1,$4,$5,$6,$7,0*
20,1,$1+$1,$6,$7,$8,$9,0*
20,1,$1+$1,$8,$9,$2,$3,0*%
G04 Aperture macros list end*
%ADD10C,0.100000*%
%ADD11C,0.150000*%
%ADD12C,0.300000*%
%ADD13C,0.400000*%
%TA.AperFunction,ConnectorPad*%
%ADD14R,1.600000X4.900000*%
%TD*%
%TA.AperFunction,ComponentPad*%
%ADD15R,1.700000X1.700000*%
%TD*%
%TA.AperFunction,ComponentPad*%
%ADD16O,1.700000X1.700000*%
%TD*%
%TA.AperFunction,ComponentPad*%
%ADD17R,2.000000X2.000000*%
%TD*%
%TA.AperFunction,ComponentPad*%
%ADD18C,2.000000*%
%TD*%
%TA.AperFunction,SMDPad,CuDef*%
%ADD19RoundRect,0.250000X-0.450000X0.350000X-0.450000X-0.350000X0.450000X-0.350000X0.450000X0.350000X0*%
%TD*%
%TA.AperFunction,ViaPad*%
%ADD20C,0.800000*%
%TD*%
%TA.AperFunction,Conductor*%
%ADD21C,1.000000*%
%TD*%
%TA.AperFunction,Conductor*%
%ADD22C,0.550000*%
%TD*%
%TA.AperFunction,Conductor*%
%ADD23C,0.400000*%
%TD*%
G04 APERTURE END LIST*
D10*
D11*
X177002200Y-166007200D02*
X177002200Y-198007200D01*
X285002200Y-198007200D01*
X285002200Y-166007200D01*
X177002200Y-166007200D01*
D10*
D11*
X10000000Y-10000000D02*
X10000000Y-200007200D01*
X287002200Y-200007200D01*
X287002200Y-10000000D01*
X10000000Y-10000000D01*
D10*
D11*
X12000000Y-12000000D02*
X12000000Y-198007200D01*
X285002200Y-198007200D01*
X285002200Y-12000000D01*
X12000000Y-12000000D01*
D10*
D11*
X60000000Y-12000000D02*
X60000000Y-10000000D01*
D10*
D11*
X110000000Y-12000000D02*
X110000000Y-10000000D01*
D10*
D11*
X160000000Y-12000000D02*
X160000000Y-10000000D01*
D10*
D11*
X210000000Y-12000000D02*
X210000000Y-10000000D01*
D10*
D11*
X260000000Y-12000000D02*
X260000000Y-10000000D01*
D10*
D11*
X36065476Y-11588095D02*
X35322619Y-11588095D01*
X35694047Y-11588095D02*
X35694047Y-10288095D01*
X35570238Y-10473809D01*
X35446428Y-10597619D01*
X35322619Y-10659523D01*
D10*
D11*
X85322619Y-10411904D02*
X85384523Y-10350000D01*
X85508333Y-10288095D01*
X85817857Y-10288095D01*
X85941666Y-10350000D01*
X86003571Y-10411904D01*
X86065476Y-10535714D01*
X86065476Y-10659523D01*
X86003571Y-10845238D01*
X85260714Y-11588095D01*
X86065476Y-11588095D01*
D10*
D11*
X135260714Y-10288095D02*
X136065476Y-10288095D01*
X135632142Y-10783333D01*
X135817857Y-10783333D01*
X135941666Y-10845238D01*
X136003571Y-10907142D01*
X136065476Y-11030952D01*
X136065476Y-11340476D01*
X136003571Y-11464285D01*
X135941666Y-11526190D01*
X135817857Y-11588095D01*
X135446428Y-11588095D01*
X135322619Y-11526190D01*
X135260714Y-11464285D01*
D10*
D11*
X185941666Y-10721428D02*
X185941666Y-11588095D01*
X185632142Y-10226190D02*
X185322619Y-11154761D01*
X186127380Y-11154761D01*
D10*
D11*
X236003571Y-10288095D02*
X235384523Y-10288095D01*
X235322619Y-10907142D01*
X235384523Y-10845238D01*
X235508333Y-10783333D01*
X235817857Y-10783333D01*
X235941666Y-10845238D01*
X236003571Y-10907142D01*
X236065476Y-11030952D01*
X236065476Y-11340476D01*
X236003571Y-11464285D01*
X235941666Y-11526190D01*
X235817857Y-11588095D01*
X235508333Y-11588095D01*
X235384523Y-11526190D01*
X235322619Y-11464285D01*
D10*
D11*
X285941666Y-10288095D02*
X285694047Y-10288095D01*
X285570238Y-10350000D01*
X285508333Y-10411904D01*
X285384523Y-10597619D01*
X285322619Y-10845238D01*
X285322619Y-11340476D01*
X285384523Y-11464285D01*
X285446428Y-11526190D01*
X285570238Y-11588095D01*
X285817857Y-11588095D01*
X285941666Y-11526190D01*
X286003571Y-11464285D01*
X286065476Y-11340476D01*
X286065476Y-11030952D01*
X286003571Y-10907142D01*
X285941666Y-10845238D01*
X285817857Y-10783333D01*
X285570238Y-10783333D01*
X285446428Y-10845238D01*
X285384523Y-10907142D01*
X285322619Y-11030952D01*
D10*
D11*
X60000000Y-198007200D02*
X60000000Y-200007200D01*
D10*
D11*
X110000000Y-198007200D02*
X110000000Y-200007200D01*
D10*
D11*
X160000000Y-198007200D02*
X160000000Y-200007200D01*
D10*
D11*
X210000000Y-198007200D02*
X210000000Y-200007200D01*
D10*
D11*
X260000000Y-198007200D02*
X260000000Y-200007200D01*
D10*
D11*
X36065476Y-199595295D02*
X35322619Y-199595295D01*
X35694047Y-199595295D02*
X35694047Y-198295295D01*
X35570238Y-198481009D01*
X35446428Y-198604819D01*
X35322619Y-198666723D01*
D10*
D11*
X85322619Y-198419104D02*
X85384523Y-198357200D01*
X85508333Y-198295295D01*
X85817857Y-198295295D01*
X85941666Y-198357200D01*
X86003571Y-198419104D01*
X86065476Y-198542914D01*
X86065476Y-198666723D01*
X86003571Y-198852438D01*
X85260714Y-199595295D01*
X86065476Y-199595295D01*
D10*
D11*
X135260714Y-198295295D02*
X136065476Y-198295295D01*
X135632142Y-198790533D01*
X135817857Y-198790533D01*
X135941666Y-198852438D01*
X136003571Y-198914342D01*
X136065476Y-199038152D01*
X136065476Y-199347676D01*
X136003571Y-199471485D01*
X135941666Y-199533390D01*
X135817857Y-199595295D01*
X135446428Y-199595295D01*
X135322619Y-199533390D01*
X135260714Y-199471485D01*
D10*
D11*
X185941666Y-198728628D02*
X185941666Y-199595295D01*
X185632142Y-198233390D02*
X185322619Y-199161961D01*
X186127380Y-199161961D01*
D10*
D11*
X236003571Y-198295295D02*
X235384523Y-198295295D01*
X235322619Y-198914342D01*
X235384523Y-198852438D01*
X235508333Y-198790533D01*
X235817857Y-198790533D01*
X235941666Y-198852438D01*
X236003571Y-198914342D01*
X236065476Y-199038152D01*
X236065476Y-199347676D01*
X236003571Y-199471485D01*
X235941666Y-199533390D01*
X235817857Y-199595295D01*
X235508333Y-199595295D01*
X235384523Y-199533390D01*
X235322619Y-199471485D01*
D10*
D11*
X285941666Y-198295295D02*
X285694047Y-198295295D01*
X285570238Y-198357200D01*
X285508333Y-198419104D01*
X285384523Y-198604819D01*
X285322619Y-198852438D01*
X285322619Y-199347676D01*
X285384523Y-199471485D01*
X285446428Y-199533390D01*
X285570238Y-199595295D01*
X285817857Y-199595295D01*
X285941666Y-199533390D01*
X286003571Y-199471485D01*
X286065476Y-199347676D01*
X286065476Y-199038152D01*
X286003571Y-198914342D01*
X285941666Y-198852438D01*
X285817857Y-198790533D01*
X285570238Y-198790533D01*
X285446428Y-198852438D01*
X285384523Y-198914342D01*
X285322619Y-199038152D01*
D10*
D11*
X10000000Y-60000000D02*
X12000000Y-60000000D01*
D10*
D11*
X10000000Y-110000000D02*
X12000000Y-110000000D01*
D10*
D11*
X10000000Y-160000000D02*
X12000000Y-160000000D01*
D10*
D11*
X10690476Y-35216666D02*
X11309523Y-35216666D01*
X10566666Y-35588095D02*
X11000000Y-34288095D01*
X11433333Y-35588095D01*
D10*
D11*
X11092857Y-84907142D02*
X11278571Y-84969047D01*
X11340476Y-85030952D01*
X11402380Y-85154761D01*
X11402380Y-85340476D01*
X11340476Y-85464285D01*
X11278571Y-85526190D01*
X11154761Y-85588095D01*
X10659523Y-85588095D01*
X10659523Y-84288095D01*
X11092857Y-84288095D01*
X11216666Y-84350000D01*
X11278571Y-84411904D01*
X11340476Y-84535714D01*
X11340476Y-84659523D01*
X11278571Y-84783333D01*
X11216666Y-84845238D01*
X11092857Y-84907142D01*
X10659523Y-84907142D01*
D10*
D11*
X11402380Y-135464285D02*
X11340476Y-135526190D01*
X11154761Y-135588095D01*
X11030952Y-135588095D01*
X10845238Y-135526190D01*
X10721428Y-135402380D01*
X10659523Y-135278571D01*
X10597619Y-135030952D01*
X10597619Y-134845238D01*
X10659523Y-134597619D01*
X10721428Y-134473809D01*
X10845238Y-134350000D01*
X11030952Y-134288095D01*
X11154761Y-134288095D01*
X11340476Y-134350000D01*
X11402380Y-134411904D01*
D10*
D11*
X10659523Y-185588095D02*
X10659523Y-184288095D01*
X10969047Y-184288095D01*
X11154761Y-184350000D01*
X11278571Y-184473809D01*
X11340476Y-184597619D01*
X11402380Y-184845238D01*
X11402380Y-185030952D01*
X11340476Y-185278571D01*
X11278571Y-185402380D01*
X11154761Y-185526190D01*
X10969047Y-185588095D01*
X10659523Y-185588095D01*
D10*
D11*
X287002200Y-60000000D02*
X285002200Y-60000000D01*
D10*
D11*
X287002200Y-110000000D02*
X285002200Y-110000000D01*
D10*
D11*
X287002200Y-160000000D02*
X285002200Y-160000000D01*
D10*
D11*
X285692676Y-35216666D02*
X286311723Y-35216666D01*
X285568866Y-35588095D02*
X286002200Y-34288095D01*
X286435533Y-35588095D01*
D10*
D11*
X286095057Y-84907142D02*
X286280771Y-84969047D01*
X286342676Y-85030952D01*
X286404580Y-85154761D01*
X286404580Y-85340476D01*
X286342676Y-85464285D01*
X286280771Y-85526190D01*
X286156961Y-85588095D01*
X285661723Y-85588095D01*
X285661723Y-84288095D01*
X286095057Y-84288095D01*
X286218866Y-84350000D01*
X286280771Y-84411904D01*
X286342676Y-84535714D01*
X286342676Y-84659523D01*
X286280771Y-84783333D01*
X286218866Y-84845238D01*
X286095057Y-84907142D01*
X285661723Y-84907142D01*
D10*
D11*
X286404580Y-135464285D02*
X286342676Y-135526190D01*
X286156961Y-135588095D01*
X286033152Y-135588095D01*
X285847438Y-135526190D01*
X285723628Y-135402380D01*
X285661723Y-135278571D01*
X285599819Y-135030952D01*
X285599819Y-134845238D01*
X285661723Y-134597619D01*
X285723628Y-134473809D01*
X285847438Y-134350000D01*
X286033152Y-134288095D01*
X286156961Y-134288095D01*
X286342676Y-134350000D01*
X286404580Y-134411904D01*
D10*
D11*
X285661723Y-185588095D02*
X285661723Y-184288095D01*
X285971247Y-184288095D01*
X286156961Y-184350000D01*
X286280771Y-184473809D01*
X286342676Y-184597619D01*
X286404580Y-184845238D01*
X286404580Y-185030952D01*
X286342676Y-185278571D01*
X286280771Y-185402380D01*
X286156961Y-185526190D01*
X285971247Y-185588095D01*
X285661723Y-185588095D01*
D10*
D11*
X200434342Y-193785771D02*
X200434342Y-192285771D01*
X200791485Y-192285771D01*
X201005771Y-192357200D01*
X201148628Y-192500057D01*
X201220057Y-192642914D01*
X201291485Y-192928628D01*
X201291485Y-193142914D01*
X201220057Y-193428628D01*
X201148628Y-193571485D01*
X201005771Y-193714342D01*
X200791485Y-193785771D01*
X200434342Y-193785771D01*
X202577200Y-193785771D02*
X202577200Y-193000057D01*
X202505771Y-192857200D01*
X202362914Y-192785771D01*
X202077200Y-192785771D01*
X201934342Y-192857200D01*
X202577200Y-193714342D02*
X202434342Y-193785771D01*
X202077200Y-193785771D01*
X201934342Y-193714342D01*
X201862914Y-193571485D01*
X201862914Y-193428628D01*
X201934342Y-193285771D01*
X202077200Y-193214342D01*
X202434342Y-193214342D01*
X202577200Y-193142914D01*
X203077200Y-192785771D02*
X203648628Y-192785771D01*
X203291485Y-192285771D02*
X203291485Y-193571485D01*
X203362914Y-193714342D01*
X203505771Y-193785771D01*
X203648628Y-193785771D01*
X204720057Y-193714342D02*
X204577200Y-193785771D01*
X204291485Y-193785771D01*
X204148628Y-193714342D01*
X204077200Y-193571485D01*
X204077200Y-193000057D01*
X204148628Y-192857200D01*
X204291485Y-192785771D01*
X204577200Y-192785771D01*
X204720057Y-192857200D01*
X204791485Y-193000057D01*
X204791485Y-193142914D01*
X204077200Y-193285771D01*
X205434342Y-193642914D02*
X205505771Y-193714342D01*
X205434342Y-193785771D01*
X205362914Y-193714342D01*
X205434342Y-193642914D01*
X205434342Y-193785771D01*
X205434342Y-192857200D02*
X205505771Y-192928628D01*
X205434342Y-193000057D01*
X205362914Y-192928628D01*
X205434342Y-192857200D01*
X205434342Y-193000057D01*
D10*
D11*
X177002200Y-194507200D02*
X285002200Y-194507200D01*
D10*
D11*
X178434342Y-196585771D02*
X178434342Y-195085771D01*
X179291485Y-196585771D02*
X178648628Y-195728628D01*
X179291485Y-195085771D02*
X178434342Y-195942914D01*
X179934342Y-196585771D02*
X179934342Y-195585771D01*
X179934342Y-195085771D02*
X179862914Y-195157200D01*
X179934342Y-195228628D01*
X180005771Y-195157200D01*
X179934342Y-195085771D01*
X179934342Y-195228628D01*
X181505771Y-196442914D02*
X181434342Y-196514342D01*
X181220057Y-196585771D01*
X181077200Y-196585771D01*
X180862914Y-196514342D01*
X180720057Y-196371485D01*
X180648628Y-196228628D01*
X180577200Y-195942914D01*
X180577200Y-195728628D01*
X180648628Y-195442914D01*
X180720057Y-195300057D01*
X180862914Y-195157200D01*
X181077200Y-195085771D01*
X181220057Y-195085771D01*
X181434342Y-195157200D01*
X181505771Y-195228628D01*
X182791485Y-196585771D02*
X182791485Y-195800057D01*
X182720057Y-195657200D01*
X182577200Y-195585771D01*
X182291485Y-195585771D01*
X182148628Y-195657200D01*
X182791485Y-196514342D02*
X182648628Y-196585771D01*
X182291485Y-196585771D01*
X182148628Y-196514342D01*
X182077200Y-196371485D01*
X182077200Y-196228628D01*
X182148628Y-196085771D01*
X182291485Y-196014342D01*
X182648628Y-196014342D01*
X182791485Y-195942914D01*
X184148628Y-196585771D02*
X184148628Y-195085771D01*
X184148628Y-196514342D02*
X184005771Y-196585771D01*
X183720057Y-196585771D01*
X183577200Y-196514342D01*
X183505771Y-196442914D01*
X183434342Y-196300057D01*
X183434342Y-195871485D01*
X183505771Y-195728628D01*
X183577200Y-195657200D01*
X183720057Y-195585771D01*
X184005771Y-195585771D01*
X184148628Y-195657200D01*
X186005771Y-195800057D02*
X186505771Y-195800057D01*
X186720057Y-196585771D02*
X186005771Y-196585771D01*
X186005771Y-195085771D01*
X186720057Y-195085771D01*
X187362914Y-196442914D02*
X187434342Y-196514342D01*
X187362914Y-196585771D01*
X187291485Y-196514342D01*
X187362914Y-196442914D01*
X187362914Y-196585771D01*
X188077200Y-196585771D02*
X188077200Y-195085771D01*
X188434342Y-195085771D01*
X188648628Y-195157200D01*
X188791485Y-195300057D01*
X188862914Y-195442914D01*
X188934342Y-195728628D01*
X188934342Y-195942914D01*
X188862914Y-196228628D01*
X188791485Y-196371485D01*
X188648628Y-196514342D01*
X188434342Y-196585771D01*
X188077200Y-196585771D01*
X189577200Y-196442914D02*
X189648628Y-196514342D01*
X189577200Y-196585771D01*
X189505771Y-196514342D01*
X189577200Y-196442914D01*
X189577200Y-196585771D01*
X190220057Y-196157200D02*
X190934342Y-196157200D01*
X190077200Y-196585771D02*
X190577200Y-195085771D01*
X191077200Y-196585771D01*
X191577200Y-196442914D02*
X191648628Y-196514342D01*
X191577200Y-196585771D01*
X191505771Y-196514342D01*
X191577200Y-196442914D01*
X191577200Y-196585771D01*
X194577200Y-196585771D02*
X194577200Y-195085771D01*
X194720057Y-196014342D02*
X195148628Y-196585771D01*
X195148628Y-195585771D02*
X194577200Y-196157200D01*
X195791485Y-196585771D02*
X195791485Y-195585771D01*
X195791485Y-195085771D02*
X195720057Y-195157200D01*
X195791485Y-195228628D01*
X195862914Y-195157200D01*
X195791485Y-195085771D01*
X195791485Y-195228628D01*
X197148628Y-196514342D02*
X197005771Y-196585771D01*
X196720057Y-196585771D01*
X196577200Y-196514342D01*
X196505771Y-196442914D01*
X196434342Y-196300057D01*
X196434342Y-195871485D01*
X196505771Y-195728628D01*
X196577200Y-195657200D01*
X196720057Y-195585771D01*
X197005771Y-195585771D01*
X197148628Y-195657200D01*
X198434342Y-196585771D02*
X198434342Y-195800057D01*
X198362914Y-195657200D01*
X198220057Y-195585771D01*
X197934342Y-195585771D01*
X197791485Y-195657200D01*
X198434342Y-196514342D02*
X198291485Y-196585771D01*
X197934342Y-196585771D01*
X197791485Y-196514342D01*
X197720057Y-196371485D01*
X197720057Y-196228628D01*
X197791485Y-196085771D01*
X197934342Y-196014342D01*
X198291485Y-196014342D01*
X198434342Y-195942914D01*
X199791485Y-196585771D02*
X199791485Y-195085771D01*
X199791485Y-196514342D02*
X199648628Y-196585771D01*
X199362914Y-196585771D01*
X199220057Y-196514342D01*
X199148628Y-196442914D01*
X199077200Y-196300057D01*
X199077200Y-195871485D01*
X199148628Y-195728628D01*
X199220057Y-195657200D01*
X199362914Y-195585771D01*
X199648628Y-195585771D01*
X199791485Y-195657200D01*
X202077200Y-197157200D02*
X202005771Y-197085771D01*
X201862914Y-196871485D01*
X201791485Y-196728628D01*
X201720057Y-196514342D01*
X201648628Y-196157200D01*
X201648628Y-195871485D01*
X201720057Y-195514342D01*
X201791485Y-195300057D01*
X201862914Y-195157200D01*
X202005771Y-194942914D01*
X202077200Y-194871485D01*
X203291485Y-195085771D02*
X203005771Y-195085771D01*
X202862914Y-195157200D01*
X202791485Y-195228628D01*
X202648628Y-195442914D01*
X202577200Y-195728628D01*
X202577200Y-196300057D01*
X202648628Y-196442914D01*
X202720057Y-196514342D01*
X202862914Y-196585771D01*
X203148628Y-196585771D01*
X203291485Y-196514342D01*
X203362914Y-196442914D01*
X203434342Y-196300057D01*
X203434342Y-195942914D01*
X203362914Y-195800057D01*
X203291485Y-195728628D01*
X203148628Y-195657200D01*
X202862914Y-195657200D01*
X202720057Y-195728628D01*
X202648628Y-195800057D01*
X202577200Y-195942914D01*
X204077200Y-196442914D02*
X204148628Y-196514342D01*
X204077200Y-196585771D01*
X204005771Y-196514342D01*
X204077200Y-196442914D01*
X204077200Y-196585771D01*
X205077200Y-195085771D02*
X205220057Y-195085771D01*
X205362914Y-195157200D01*
X205434342Y-195228628D01*
X205505771Y-195371485D01*
X205577200Y-195657200D01*
X205577200Y-196014342D01*
X205505771Y-196300057D01*
X205434342Y-196442914D01*
X205362914Y-196514342D01*
X205220057Y-196585771D01*
X205077200Y-196585771D01*
X204934342Y-196514342D01*
X204862914Y-196442914D01*
X204791485Y-196300057D01*
X204720057Y-196014342D01*
X204720057Y-195657200D01*
X204791485Y-195371485D01*
X204862914Y-195228628D01*
X204934342Y-195157200D01*
X205077200Y-195085771D01*
X206220057Y-196442914D02*
X206291485Y-196514342D01*
X206220057Y-196585771D01*
X206148628Y-196514342D01*
X206220057Y-196442914D01*
X206220057Y-196585771D01*
X207220057Y-195085771D02*
X207362914Y-195085771D01*
X207505771Y-195157200D01*
X207577200Y-195228628D01*
X207648628Y-195371485D01*
X207720057Y-195657200D01*
X207720057Y-196014342D01*
X207648628Y-196300057D01*
X207577200Y-196442914D01*
X207505771Y-196514342D01*
X207362914Y-196585771D01*
X207220057Y-196585771D01*
X207077200Y-196514342D01*
X207005771Y-196442914D01*
X206934342Y-196300057D01*
X206862914Y-196014342D01*
X206862914Y-195657200D01*
X206934342Y-195371485D01*
X207005771Y-195228628D01*
X207077200Y-195157200D01*
X207220057Y-195085771D01*
X208220057Y-197157200D02*
X208291485Y-197085771D01*
X208434342Y-196871485D01*
X208505771Y-196728628D01*
X208577200Y-196514342D01*
X208648628Y-196157200D01*
X208648628Y-195871485D01*
X208577200Y-195514342D01*
X208505771Y-195300057D01*
X208434342Y-195157200D01*
X208291485Y-194942914D01*
X208220057Y-194871485D01*
D10*
D11*
X177002200Y-191507200D02*
X285002200Y-191507200D01*
D10*
D12*
X264411485Y-193785771D02*
X263911485Y-193071485D01*
X263554342Y-193785771D02*
X263554342Y-192285771D01*
X264125771Y-192285771D01*
X264268628Y-192357200D01*
X264340057Y-192428628D01*
X264411485Y-192571485D01*
X264411485Y-192785771D01*
X264340057Y-192928628D01*
X264268628Y-193000057D01*
X264125771Y-193071485D01*
X263554342Y-193071485D01*
X265625771Y-193714342D02*
X265482914Y-193785771D01*
X265197200Y-193785771D01*
X265054342Y-193714342D01*
X264982914Y-193571485D01*
X264982914Y-193000057D01*
X265054342Y-192857200D01*
X265197200Y-192785771D01*
X265482914Y-192785771D01*
X265625771Y-192857200D01*
X265697200Y-193000057D01*
X265697200Y-193142914D01*
X264982914Y-193285771D01*
X266197200Y-192785771D02*
X266554342Y-193785771D01*
X266911485Y-192785771D01*
X267482914Y-193642914D02*
X267554342Y-193714342D01*
X267482914Y-193785771D01*
X267411485Y-193714342D01*
X267482914Y-193642914D01*
X267482914Y-193785771D01*
X267482914Y-192857200D02*
X267554342Y-192928628D01*
X267482914Y-193000057D01*
X267411485Y-192928628D01*
X267482914Y-192857200D01*
X267482914Y-193000057D01*
D10*
D11*
X178362914Y-193714342D02*
X178577200Y-193785771D01*
X178934342Y-193785771D01*
X179077200Y-193714342D01*
X179148628Y-193642914D01*
X179220057Y-193500057D01*
X179220057Y-193357200D01*
X179148628Y-193214342D01*
X179077200Y-193142914D01*
X178934342Y-193071485D01*
X178648628Y-193000057D01*
X178505771Y-192928628D01*
X178434342Y-192857200D01*
X178362914Y-192714342D01*
X178362914Y-192571485D01*
X178434342Y-192428628D01*
X178505771Y-192357200D01*
X178648628Y-192285771D01*
X179005771Y-192285771D01*
X179220057Y-192357200D01*
X179862914Y-193785771D02*
X179862914Y-192785771D01*
X179862914Y-192285771D02*
X179791485Y-192357200D01*
X179862914Y-192428628D01*
X179934342Y-192357200D01*
X179862914Y-192285771D01*
X179862914Y-192428628D01*
X180434342Y-192785771D02*
X181220057Y-192785771D01*
X180434342Y-193785771D01*
X181220057Y-193785771D01*
X182362914Y-193714342D02*
X182220057Y-193785771D01*
X181934342Y-193785771D01*
X181791485Y-193714342D01*
X181720057Y-193571485D01*
X181720057Y-193000057D01*
X181791485Y-192857200D01*
X181934342Y-192785771D01*
X182220057Y-192785771D01*
X182362914Y-192857200D01*
X182434342Y-193000057D01*
X182434342Y-193142914D01*
X181720057Y-193285771D01*
X183077200Y-193642914D02*
X183148628Y-193714342D01*
X183077200Y-193785771D01*
X183005771Y-193714342D01*
X183077200Y-193642914D01*
X183077200Y-193785771D01*
X183077200Y-192857200D02*
X183148628Y-192928628D01*
X183077200Y-193000057D01*
X183005771Y-192928628D01*
X183077200Y-192857200D01*
X183077200Y-193000057D01*
X184862914Y-193357200D02*
X185577200Y-193357200D01*
X184720057Y-193785771D02*
X185220057Y-192285771D01*
X185720057Y-193785771D01*
X186862914Y-192785771D02*
X186862914Y-193785771D01*
X186505771Y-192214342D02*
X186148628Y-193285771D01*
X187077200Y-193285771D01*
D10*
D11*
X263434342Y-196585771D02*
X263434342Y-195085771D01*
X264791485Y-196585771D02*
X264791485Y-195085771D01*
X264791485Y-196514342D02*
X264648628Y-196585771D01*
X264362914Y-196585771D01*
X264220057Y-196514342D01*
X264148628Y-196442914D01*
X264077200Y-196300057D01*
X264077200Y-195871485D01*
X264148628Y-195728628D01*
X264220057Y-195657200D01*
X264362914Y-195585771D01*
X264648628Y-195585771D01*
X264791485Y-195657200D01*
X265505771Y-196442914D02*
X265577200Y-196514342D01*
X265505771Y-196585771D01*
X265434342Y-196514342D01*
X265505771Y-196442914D01*
X265505771Y-196585771D01*
X265505771Y-195657200D02*
X265577200Y-195728628D01*
X265505771Y-195800057D01*
X265434342Y-195728628D01*
X265505771Y-195657200D01*
X265505771Y-195800057D01*
X268148628Y-196585771D02*
X267291485Y-196585771D01*
X267720057Y-196585771D02*
X267720057Y-195085771D01*
X267577200Y-195300057D01*
X267434342Y-195442914D01*
X267291485Y-195514342D01*
X269862914Y-195014342D02*
X268577200Y-196942914D01*
X271148628Y-196585771D02*
X270291485Y-196585771D01*
X270720057Y-196585771D02*
X270720057Y-195085771D01*
X270577200Y-195300057D01*
X270434342Y-195442914D01*
X270291485Y-195514342D01*
D10*
D11*
X177002200Y-187507200D02*
X285002200Y-187507200D01*
D10*
D13*
X178714580Y-188211961D02*
X179857438Y-188211961D01*
X179036009Y-190211961D02*
X179286009Y-188211961D01*
X180274104Y-190211961D02*
X180440771Y-188878628D01*
X180524104Y-188211961D02*
X180416961Y-188307200D01*
X180500295Y-188402438D01*
X180607438Y-188307200D01*
X180524104Y-188211961D01*
X180500295Y-188402438D01*
X181107438Y-188878628D02*
X181869342Y-188878628D01*
X181476485Y-188211961D02*
X181262200Y-189926247D01*
X181333628Y-190116723D01*
X181512200Y-190211961D01*
X181702676Y-190211961D01*
X182655057Y-190211961D02*
X182476485Y-190116723D01*
X182405057Y-189926247D01*
X182619342Y-188211961D01*
X184190771Y-190116723D02*
X183988390Y-190211961D01*
X183607438Y-190211961D01*
X183428866Y-190116723D01*
X183357438Y-189926247D01*
X183452676Y-189164342D01*
X183571723Y-188973866D01*
X183774104Y-188878628D01*
X184155057Y-188878628D01*
X184333628Y-188973866D01*
X184405057Y-189164342D01*
X184381247Y-189354819D01*
X183405057Y-189545295D01*
X185155057Y-190021485D02*
X185238390Y-190116723D01*
X185131247Y-190211961D01*
X185047914Y-190116723D01*
X185155057Y-190021485D01*
X185131247Y-190211961D01*
X185286009Y-188973866D02*
X185369342Y-189069104D01*
X185262200Y-189164342D01*
X185178866Y-189069104D01*
X185286009Y-188973866D01*
X185262200Y-189164342D01*
D10*
D11*
X178934342Y-185600057D02*
X178434342Y-185600057D01*
X178434342Y-186385771D02*
X178434342Y-184885771D01*
X179148628Y-184885771D01*
X179720057Y-186385771D02*
X179720057Y-185385771D01*
X179720057Y-184885771D02*
X179648628Y-184957200D01*
X179720057Y-185028628D01*
X179791485Y-184957200D01*
X179720057Y-184885771D01*
X179720057Y-185028628D01*
X180648628Y-186385771D02*
X180505771Y-186314342D01*
X180434342Y-186171485D01*
X180434342Y-184885771D01*
X181791485Y-186314342D02*
X181648628Y-186385771D01*
X181362914Y-186385771D01*
X181220057Y-186314342D01*
X181148628Y-186171485D01*
X181148628Y-185600057D01*
X181220057Y-185457200D01*
X181362914Y-185385771D01*
X181648628Y-185385771D01*
X181791485Y-185457200D01*
X181862914Y-185600057D01*
X181862914Y-185742914D01*
X181148628Y-185885771D01*
X182505771Y-186242914D02*
X182577200Y-186314342D01*
X182505771Y-186385771D01*
X182434342Y-186314342D01*
X182505771Y-186242914D01*
X182505771Y-186385771D01*
X182505771Y-185457200D02*
X182577200Y-185528628D01*
X182505771Y-185600057D01*
X182434342Y-185528628D01*
X182505771Y-185457200D01*
X182505771Y-185600057D01*
X185005771Y-186385771D02*
X185005771Y-184885771D01*
X185005771Y-186314342D02*
X184862914Y-186385771D01*
X184577200Y-186385771D01*
X184434342Y-186314342D01*
X184362914Y-186242914D01*
X184291485Y-186100057D01*
X184291485Y-185671485D01*
X184362914Y-185528628D01*
X184434342Y-185457200D01*
X184577200Y-185385771D01*
X184862914Y-185385771D01*
X185005771Y-185457200D01*
X185720057Y-186385771D02*
X185720057Y-185385771D01*
X185720057Y-185671485D02*
X185791485Y-185528628D01*
X185862914Y-185457200D01*
X186005771Y-185385771D01*
X186148628Y-185385771D01*
X186648628Y-186385771D02*
X186648628Y-185385771D01*
X186648628Y-184885771D02*
X186577200Y-184957200D01*
X186648628Y-185028628D01*
X186720057Y-184957200D01*
X186648628Y-184885771D01*
X186648628Y-185028628D01*
X187220057Y-185385771D02*
X187577200Y-186385771D01*
X187934342Y-185385771D01*
X189077200Y-186314342D02*
X188934342Y-186385771D01*
X188648628Y-186385771D01*
X188505771Y-186314342D01*
X188434342Y-186171485D01*
X188434342Y-185600057D01*
X188505771Y-185457200D01*
X188648628Y-185385771D01*
X188934342Y-185385771D01*
X189077200Y-185457200D01*
X189148628Y-185600057D01*
X189148628Y-185742914D01*
X188434342Y-185885771D01*
X189791485Y-186385771D02*
X189791485Y-185385771D01*
X189791485Y-185671485D02*
X189862914Y-185528628D01*
X189934342Y-185457200D01*
X190077200Y-185385771D01*
X190220057Y-185385771D01*
X190720057Y-185814342D02*
X191862914Y-185814342D01*
X192577200Y-186385771D02*
X192577200Y-184885771D01*
X192577200Y-185457200D02*
X192720057Y-185385771D01*
X193005771Y-185385771D01*
X193148628Y-185457200D01*
X193220057Y-185528628D01*
X193291485Y-185671485D01*
X193291485Y-186100057D01*
X193220057Y-186242914D01*
X193148628Y-186314342D01*
X193005771Y-186385771D01*
X192720057Y-186385771D01*
X192577200Y-186314342D01*
X194148628Y-186385771D02*
X194005771Y-186314342D01*
X193934342Y-186242914D01*
X193862914Y-186100057D01*
X193862914Y-185671485D01*
X193934342Y-185528628D01*
X194005771Y-185457200D01*
X194148628Y-185385771D01*
X194362914Y-185385771D01*
X194505771Y-185457200D01*
X194577200Y-185528628D01*
X194648628Y-185671485D01*
X194648628Y-186100057D01*
X194577200Y-186242914D01*
X194505771Y-186314342D01*
X194362914Y-186385771D01*
X194148628Y-186385771D01*
X195934342Y-186385771D02*
X195934342Y-185600057D01*
X195862914Y-185457200D01*
X195720057Y-185385771D01*
X195434342Y-185385771D01*
X195291485Y-185457200D01*
X195934342Y-186314342D02*
X195791485Y-186385771D01*
X195434342Y-186385771D01*
X195291485Y-186314342D01*
X195220057Y-186171485D01*
X195220057Y-186028628D01*
X195291485Y-185885771D01*
X195434342Y-185814342D01*
X195791485Y-185814342D01*
X195934342Y-185742914D01*
X196648628Y-186385771D02*
X196648628Y-185385771D01*
X196648628Y-185671485D02*
X196720057Y-185528628D01*
X196791485Y-185457200D01*
X196934342Y-185385771D01*
X197077200Y-185385771D01*
X198220057Y-186385771D02*
X198220057Y-184885771D01*
X198220057Y-186314342D02*
X198077200Y-186385771D01*
X197791485Y-186385771D01*
X197648628Y-186314342D01*
X197577200Y-186242914D01*
X197505771Y-186100057D01*
X197505771Y-185671485D01*
X197577200Y-185528628D01*
X197648628Y-185457200D01*
X197791485Y-185385771D01*
X198077200Y-185385771D01*
X198220057Y-185457200D01*
X198934342Y-186242914D02*
X199005771Y-186314342D01*
X198934342Y-186385771D01*
X198862914Y-186314342D01*
X198934342Y-186242914D01*
X198934342Y-186385771D01*
X199648628Y-186385771D02*
X199648628Y-184885771D01*
X199791485Y-185814342D02*
X200220057Y-186385771D01*
X200220057Y-185385771D02*
X199648628Y-185957200D01*
X200862914Y-186385771D02*
X200862914Y-185385771D01*
X200862914Y-184885771D02*
X200791485Y-184957200D01*
X200862914Y-185028628D01*
X200934342Y-184957200D01*
X200862914Y-184885771D01*
X200862914Y-185028628D01*
X202220057Y-186314342D02*
X202077200Y-186385771D01*
X201791485Y-186385771D01*
X201648628Y-186314342D01*
X201577200Y-186242914D01*
X201505771Y-186100057D01*
X201505771Y-185671485D01*
X201577200Y-185528628D01*
X201648628Y-185457200D01*
X201791485Y-185385771D01*
X202077200Y-185385771D01*
X202220057Y-185457200D01*
X203505771Y-186385771D02*
X203505771Y-185600057D01*
X203434342Y-185457200D01*
X203291485Y-185385771D01*
X203005771Y-185385771D01*
X202862914Y-185457200D01*
X203505771Y-186314342D02*
X203362914Y-186385771D01*
X203005771Y-186385771D01*
X202862914Y-186314342D01*
X202791485Y-186171485D01*
X202791485Y-186028628D01*
X202862914Y-185885771D01*
X203005771Y-185814342D01*
X203362914Y-185814342D01*
X203505771Y-185742914D01*
X204862914Y-186385771D02*
X204862914Y-184885771D01*
X204862914Y-186314342D02*
X204720057Y-186385771D01*
X204434342Y-186385771D01*
X204291485Y-186314342D01*
X204220057Y-186242914D01*
X204148628Y-186100057D01*
X204148628Y-185671485D01*
X204220057Y-185528628D01*
X204291485Y-185457200D01*
X204434342Y-185385771D01*
X204720057Y-185385771D01*
X204862914Y-185457200D01*
X205220057Y-186528628D02*
X206362914Y-186528628D01*
X206720057Y-185385771D02*
X206720057Y-186885771D01*
X206720057Y-185457200D02*
X206862914Y-185385771D01*
X207148628Y-185385771D01*
X207291485Y-185457200D01*
X207362914Y-185528628D01*
X207434342Y-185671485D01*
X207434342Y-186100057D01*
X207362914Y-186242914D01*
X207291485Y-186314342D01*
X207148628Y-186385771D01*
X206862914Y-186385771D01*
X206720057Y-186314342D01*
X208720057Y-186314342D02*
X208577200Y-186385771D01*
X208291485Y-186385771D01*
X208148628Y-186314342D01*
X208077200Y-186242914D01*
X208005771Y-186100057D01*
X208005771Y-185671485D01*
X208077200Y-185528628D01*
X208148628Y-185457200D01*
X208291485Y-185385771D01*
X208577200Y-185385771D01*
X208720057Y-185457200D01*
X209362914Y-186385771D02*
X209362914Y-184885771D01*
X209362914Y-185457200D02*
X209505771Y-185385771D01*
X209791485Y-185385771D01*
X209934342Y-185457200D01*
X210005771Y-185528628D01*
X210077200Y-185671485D01*
X210077200Y-186100057D01*
X210005771Y-186242914D01*
X209934342Y-186314342D01*
X209791485Y-186385771D01*
X209505771Y-186385771D01*
X209362914Y-186314342D01*
D10*
D11*
X177002200Y-181507200D02*
X285002200Y-181507200D01*
D10*
D11*
X178362914Y-183614342D02*
X178577200Y-183685771D01*
X178934342Y-183685771D01*
X179077200Y-183614342D01*
X179148628Y-183542914D01*
X179220057Y-183400057D01*
X179220057Y-183257200D01*
X179148628Y-183114342D01*
X179077200Y-183042914D01*
X178934342Y-182971485D01*
X178648628Y-182900057D01*
X178505771Y-182828628D01*
X178434342Y-182757200D01*
X178362914Y-182614342D01*
X178362914Y-182471485D01*
X178434342Y-182328628D01*
X178505771Y-182257200D01*
X178648628Y-182185771D01*
X179005771Y-182185771D01*
X179220057Y-182257200D01*
X179862914Y-183685771D02*
X179862914Y-182185771D01*
X180505771Y-183685771D02*
X180505771Y-182900057D01*
X180434342Y-182757200D01*
X180291485Y-182685771D01*
X180077200Y-182685771D01*
X179934342Y-182757200D01*
X179862914Y-182828628D01*
X181791485Y-183614342D02*
X181648628Y-183685771D01*
X181362914Y-183685771D01*
X181220057Y-183614342D01*
X181148628Y-183471485D01*
X181148628Y-182900057D01*
X181220057Y-182757200D01*
X181362914Y-182685771D01*
X181648628Y-182685771D01*
X181791485Y-182757200D01*
X181862914Y-182900057D01*
X181862914Y-183042914D01*
X181148628Y-183185771D01*
X183077200Y-183614342D02*
X182934342Y-183685771D01*
X182648628Y-183685771D01*
X182505771Y-183614342D01*
X182434342Y-183471485D01*
X182434342Y-182900057D01*
X182505771Y-182757200D01*
X182648628Y-182685771D01*
X182934342Y-182685771D01*
X183077200Y-182757200D01*
X183148628Y-182900057D01*
X183148628Y-183042914D01*
X182434342Y-183185771D01*
X183577200Y-182685771D02*
X184148628Y-182685771D01*
X183791485Y-182185771D02*
X183791485Y-183471485D01*
X183862914Y-183614342D01*
X184005771Y-183685771D01*
X184148628Y-183685771D01*
X184648628Y-183542914D02*
X184720057Y-183614342D01*
X184648628Y-183685771D01*
X184577200Y-183614342D01*
X184648628Y-183542914D01*
X184648628Y-183685771D01*
X184648628Y-182757200D02*
X184720057Y-182828628D01*
X184648628Y-182900057D01*
X184577200Y-182828628D01*
X184648628Y-182757200D01*
X184648628Y-182900057D01*
D10*
D12*
D10*
D11*
D10*
D11*
D10*
D11*
D10*
D11*
D10*
D11*
X197002200Y-191507200D02*
X197002200Y-194507200D01*
D10*
D11*
X261002200Y-191507200D02*
X261002200Y-198007200D01*
D14*
%TO.P,J4,2,Ext*%
%TO.N,GND*%
X170850000Y-109750000D03*
X179350000Y-109750000D03*
%TD*%
%TO.P,J3,2,Ext*%
%TO.N,GND*%
X179250000Y-71800000D03*
X170750000Y-71800000D03*
%TD*%
D15*
%TO.P,J1,1,Pin_1*%
%TO.N,5V*%
X103650000Y-103193750D03*
D16*
%TO.P,J1,2,Pin_2*%
%TO.N,3V3*%
X103650000Y-100653750D03*
%TO.P,J1,3,Pin_3*%
%TO.N,SDA0*%
X103650000Y-98113750D03*
%TO.P,J1,4,Pin_4*%
%TO.N,SCL0*%
X103650000Y-95573750D03*
%TO.P,J1,5,Pin_5*%
%TO.N,GND*%
X103650000Y-93033750D03*
%TD*%
D17*
%TO.P,C15,1*%
%TO.N,GND*%
X145800000Y-79767677D03*
D18*
%TO.P,C15,2*%
%TO.N,SiPM Bias*%
X145800000Y-76267677D03*
%TD*%
D15*
%TO.P,J2,1,Pin_1*%
%TO.N,DAC_OUT_I_SRC*%
X109450000Y-90468750D03*
D16*
%TO.P,J2,2,Pin_2*%
%TO.N,GND*%
X109450000Y-93008750D03*
%TO.P,J2,3,Pin_3*%
%TO.N,SCL0*%
X109450000Y-95548750D03*
%TO.P,J2,4,Pin_4*%
%TO.N,SDA0*%
X109450000Y-98088750D03*
%TO.P,J2,5,Pin_5*%
%TO.N,3V3*%
X109450000Y-100628750D03*
%TO.P,J2,6,Pin_6*%
%TO.N,GND*%
X109450000Y-103168750D03*
%TD*%
D14*
%TO.P,J5,2,Ext*%
%TO.N,GND*%
X162250000Y-109750000D03*
X153750000Y-109750000D03*
%TD*%
D19*
%TO.P,R6,1*%
%TO.N,GND*%
X154200000Y-100350000D03*
%TO.P,R6,2*%
X154200000Y-102350000D03*
%TD*%
%TO.P,R4,1*%
%TO.N,GND*%
X158000000Y-100350000D03*
%TO.P,R4,2*%
X158000000Y-102350000D03*
%TD*%
%TO.P,R5,1*%
%TO.N,GND*%
X161800000Y-100350000D03*
%TO.P,R5,2*%
X161800000Y-102350000D03*
%TD*%
D20*
%TO.N,5V*%
X124550000Y-108693750D03*
X124550000Y-103993750D03*
%TO.N,GND*%
X112500000Y-70000000D03*
X102500000Y-110000000D03*
X107500000Y-70000000D03*
X120800000Y-99650000D03*
X160000000Y-82500000D03*
X117500000Y-112500000D03*
X117500000Y-70000000D03*
X150000000Y-90000000D03*
X145000000Y-70000000D03*
X145000000Y-82500000D03*
X150000000Y-110000000D03*
X185000000Y-82500000D03*
X112500000Y-112500000D03*
X122500000Y-70000000D03*
X150000000Y-70000000D03*
X150000000Y-105000000D03*
X187500000Y-77500000D03*
X182500000Y-110000000D03*
X118500000Y-89000000D03*
X102500000Y-75000000D03*
X180000000Y-82500000D03*
X127500000Y-112500000D03*
X117500000Y-75000000D03*
X114500000Y-105000000D03*
X150000000Y-82500000D03*
X122500000Y-112500000D03*
X140000000Y-82500000D03*
X135000000Y-70000000D03*
X107500000Y-110000000D03*
X130000000Y-70000000D03*
X177500000Y-105000000D03*
X185000000Y-70000000D03*
X141500000Y-97500000D03*
X132500000Y-112500000D03*
X128500000Y-99500000D03*
X130000000Y-108000000D03*
X147500000Y-112500000D03*
X117200000Y-101250000D03*
X187500000Y-85000000D03*
X162500000Y-70000000D03*
X155000000Y-92500000D03*
X102500000Y-90000000D03*
X187500000Y-90000000D03*
X170000000Y-82500000D03*
X120800000Y-96550000D03*
X137500000Y-94000000D03*
X155000000Y-82500000D03*
X155000000Y-70000000D03*
X170000000Y-105000000D03*
X112500000Y-87500000D03*
X165000000Y-105000000D03*
X180000000Y-102500000D03*
X117500000Y-80000000D03*
X165000000Y-82500000D03*
X137500000Y-112500000D03*
X187500000Y-72500000D03*
X187500000Y-105000000D03*
X142500000Y-112500000D03*
X175000000Y-82500000D03*
X140000000Y-70000000D03*
X130000000Y-90000000D03*
%TO.N,DAC_OUT_I_SRC*%
X129677681Y-94693750D03*
X135185851Y-94685580D03*
%TO.N,+3.3VA*%
X139800000Y-106550000D03*
X142700000Y-102650000D03*
%TO.N,-33V*%
X123000000Y-93193750D03*
X123000000Y-74500000D03*
%TO.N,DC_LD1*%
X151100000Y-101350000D03*
X165200000Y-101350000D03*
%TD*%
D21*
%TO.N,-33V*%
X123000000Y-93193750D02*
X123000000Y-74500000D01*
%TO.N,5V*%
X124550000Y-103993750D02*
X124550000Y-108693750D01*
%TO.N,DAC_OUT_I_SRC*%
X129677681Y-94693750D02*
X135177681Y-94693750D01*
X135177681Y-94693750D02*
X135185851Y-94685580D01*
D22*
%TO.N,+3.3VA*%
X139800000Y-106550000D02*
X142700000Y-103650000D01*
X142700000Y-103650000D02*
X142700000Y-102650000D01*
D23*
%TO.N,DC_LD1*%
X151100000Y-101350000D02*
X165200000Y-101350000D01*
%TD*%
%TA.AperFunction,Conductor*%
%TO.N,GND*%
G36*
X190092121Y-68520002D02*
G01*
X190138614Y-68573658D01*
X190150000Y-68626000D01*
X190150000Y-112874000D01*
X190129998Y-112942121D01*
X190076342Y-112988614D01*
X190024000Y-113000000D01*
X100776000Y-113000000D01*
X100707879Y-112979998D01*
X100661386Y-112926342D01*
X100650000Y-112874000D01*
X100650000Y-112244669D01*
X152442001Y-112244669D01*
X152442371Y-112251490D01*
X152447895Y-112302352D01*
X152451521Y-112317604D01*
X152496676Y-112438054D01*
X152505214Y-112453649D01*
X152581715Y-112555724D01*
X152594276Y-112568285D01*
X152696351Y-112644786D01*
X152711946Y-112653324D01*
X152832394Y-112698478D01*
X152847649Y-112702105D01*
X152898514Y-112707631D01*
X152905328Y-112708000D01*
X153477885Y-112708000D01*
X153493124Y-112703525D01*
X153494329Y-112702135D01*
X153496000Y-112694452D01*
X153496000Y-112689884D01*
X154004000Y-112689884D01*
X154008475Y-112705123D01*
X154009865Y-112706328D01*
X154017548Y-112707999D01*
X154594669Y-112707999D01*
X154601490Y-112707629D01*
X154652352Y-112702105D01*
X154667604Y-112698479D01*
X154788054Y-112653324D01*
X154803649Y-112644786D01*
X154905724Y-112568285D01*
X154918285Y-112555724D01*
X154994786Y-112453649D01*
X155003324Y-112438054D01*
X155048478Y-112317606D01*
X155052105Y-112302351D01*
X155057631Y-112251486D01*
X155058000Y-112244672D01*
X155058000Y-112244669D01*
X160942001Y-112244669D01*
X160942371Y-112251490D01*
X160947895Y-112302352D01*
X160951521Y-112317604D01*
X160996676Y-112438054D01*
X161005214Y-112453649D01*
X161081715Y-112555724D01*
X161094276Y-112568285D01*
X161196351Y-112644786D01*
X161211946Y-112653324D01*
X161332394Y-112698478D01*
X161347649Y-112702105D01*
X161398514Y-112707631D01*
X161405328Y-112708000D01*
X161977885Y-112708000D01*
X161993124Y-112703525D01*
X161994329Y-112702135D01*
X161996000Y-112694452D01*
X161996000Y-112689884D01*
X162504000Y-112689884D01*
X162508475Y-112705123D01*
X162509865Y-112706328D01*
X162517548Y-112707999D01*
X163094669Y-112707999D01*
X163101490Y-112707629D01*
X163152352Y-112702105D01*
X163167604Y-112698479D01*
X163288054Y-112653324D01*
X163303649Y-112644786D01*
X163405724Y-112568285D01*
X163418285Y-112555724D01*
X163494786Y-112453649D01*
X163503324Y-112438054D01*
X163548478Y-112317606D01*
X163552105Y-112302351D01*
X163557631Y-112251486D01*
X163558000Y-112244672D01*
X163558000Y-112244669D01*
X169542001Y-112244669D01*
X169542371Y-112251490D01*
X169547895Y-112302352D01*
X169551521Y-112317604D01*
X169596676Y-112438054D01*
X169605214Y-112453649D01*
X169681715Y-112555724D01*
X169694276Y-112568285D01*
X169796351Y-112644786D01*
X169811946Y-112653324D01*
X169932394Y-112698478D01*
X169947649Y-112702105D01*
X169998514Y-112707631D01*
X170005328Y-112708000D01*
X170577885Y-112708000D01*
X170593124Y-112703525D01*
X170594329Y-112702135D01*
X170596000Y-112694452D01*
X170596000Y-112689884D01*
X171104000Y-112689884D01*
X171108475Y-112705123D01*
X171109865Y-112706328D01*
X171117548Y-112707999D01*
X171694669Y-112707999D01*
X171701490Y-112707629D01*
X171752352Y-112702105D01*
X171767604Y-112698479D01*
X171888054Y-112653324D01*
X171903649Y-112644786D01*
X172005724Y-112568285D01*
X172018285Y-112555724D01*
X172094786Y-112453649D01*
X172103324Y-112438054D01*
X172148478Y-112317606D01*
X172152105Y-112302351D01*
X172157631Y-112251486D01*
X172158000Y-112244672D01*
X172158000Y-112244669D01*
X178042001Y-112244669D01*
X178042371Y-112251490D01*
X178047895Y-112302352D01*
X178051521Y-112317604D01*
X178096676Y-112438054D01*
X178105214Y-112453649D01*
X178181715Y-112555724D01*
X178194276Y-112568285D01*
X178296351Y-112644786D01*
X178311946Y-112653324D01*
X178432394Y-112698478D01*
X178447649Y-112702105D01*
X178498514Y-112707631D01*
X178505328Y-112708000D01*
X179077885Y-112708000D01*
X179093124Y-112703525D01*
X179094329Y-112702135D01*
X179096000Y-112694452D01*
X179096000Y-112689884D01*
X179604000Y-112689884D01*
X179608475Y-112705123D01*
X179609865Y-112706328D01*
X179617548Y-112707999D01*
X180194669Y-112707999D01*
X180201490Y-112707629D01*
X180252352Y-112702105D01*
X180267604Y-112698479D01*
X180388054Y-112653324D01*
X180403649Y-112644786D01*
X180505724Y-112568285D01*
X180518285Y-112555724D01*
X180594786Y-112453649D01*
X180603324Y-112438054D01*
X180648478Y-112317606D01*
X180652105Y-112302351D01*
X180657631Y-112251486D01*
X180658000Y-112244672D01*
X180658000Y-110022115D01*
X180653525Y-110006876D01*
X180652135Y-110005671D01*
X180644452Y-110004000D01*
X179622115Y-110004000D01*
X179606876Y-110008475D01*
X179605671Y-110009865D01*
X179604000Y-110017548D01*
X179604000Y-112689884D01*
X179096000Y-112689884D01*
X179096000Y-110022115D01*
X179091525Y-110006876D01*
X179090135Y-110005671D01*
X179082452Y-110004000D01*
X178060116Y-110004000D01*
X178044877Y-110008475D01*
X178043672Y-110009865D01*
X178042001Y-110017548D01*
X178042001Y-112244669D01*
X172158000Y-112244669D01*
X172158000Y-110022115D01*
X172153525Y-110006876D01*
X172152135Y-110005671D01*
X172144452Y-110004000D01*
X171122115Y-110004000D01*
X171106876Y-110008475D01*
X171105671Y-110009865D01*
X171104000Y-110017548D01*
X171104000Y-112689884D01*
X170596000Y-112689884D01*
X170596000Y-110022115D01*
X170591525Y-110006876D01*
X170590135Y-110005671D01*
X170582452Y-110004000D01*
X169560116Y-110004000D01*
X169544877Y-110008475D01*
X169543672Y-110009865D01*
X169542001Y-110017548D01*
X169542001Y-112244669D01*
X163558000Y-112244669D01*
X163558000Y-110022115D01*
X163553525Y-110006876D01*
X163552135Y-110005671D01*
X163544452Y-110004000D01*
X162522115Y-110004000D01*
X162506876Y-110008475D01*
X162505671Y-110009865D01*
X162504000Y-110017548D01*
X162504000Y-112689884D01*
X161996000Y-112689884D01*
X161996000Y-110022115D01*
X161991525Y-110006876D01*
X161990135Y-110005671D01*
X161982452Y-110004000D01*
X160960116Y-110004000D01*
X160944877Y-110008475D01*
X160943672Y-110009865D01*
X160942001Y-110017548D01*
X160942001Y-112244669D01*
X155058000Y-112244669D01*
X155058000Y-110022115D01*
X155053525Y-110006876D01*
X155052135Y-110005671D01*
X155044452Y-110004000D01*
X154022115Y-110004000D01*
X154006876Y-110008475D01*
X154005671Y-110009865D01*
X154004000Y-110017548D01*
X154004000Y-112689884D01*
X153496000Y-112689884D01*
X153496000Y-110022115D01*
X153491525Y-110006876D01*
X153490135Y-110005671D01*
X153482452Y-110004000D01*
X152460116Y-110004000D01*
X152444877Y-110008475D01*
X152443672Y-110009865D01*
X152442001Y-110017548D01*
X152442001Y-112244669D01*
X100650000Y-112244669D01*
X100650000Y-109477885D01*
X152442000Y-109477885D01*
X152446475Y-109493124D01*
X152447865Y-109494329D01*
X152455548Y-109496000D01*
X153477885Y-109496000D01*
X153493124Y-109491525D01*
X153494329Y-109490135D01*
X153496000Y-109482452D01*
X153496000Y-109477885D01*
X154004000Y-109477885D01*
X154008475Y-109493124D01*
X154009865Y-109494329D01*
X154017548Y-109496000D01*
X155039884Y-109496000D01*
X155055123Y-109491525D01*
X155056328Y-109490135D01*
X155057999Y-109482452D01*
X155057999Y-109477885D01*
X160942000Y-109477885D01*
X160946475Y-109493124D01*
X160947865Y-109494329D01*
X160955548Y-109496000D01*
X161977885Y-109496000D01*
X161993124Y-109491525D01*
X161994329Y-109490135D01*
X161996000Y-109482452D01*
X161996000Y-109477885D01*
X162504000Y-109477885D01*
X162508475Y-109493124D01*
X162509865Y-109494329D01*
X162517548Y-109496000D01*
X163539884Y-109496000D01*
X163555123Y-109491525D01*
X163556328Y-109490135D01*
X163557999Y-109482452D01*
X163557999Y-109477885D01*
X169542000Y-109477885D01*
X169546475Y-109493124D01*
X169547865Y-109494329D01*
X169555548Y-109496000D01*
X170577885Y-109496000D01*
X170593124Y-109491525D01*
X170594329Y-109490135D01*
X170596000Y-109482452D01*
X170596000Y-109477885D01*
X171104000Y-109477885D01*
X171108475Y-109493124D01*
X171109865Y-109494329D01*
X171117548Y-109496000D01*
X172139884Y-109496000D01*
X172155123Y-109491525D01*
X172156328Y-109490135D01*
X172157999Y-109482452D01*
X172157999Y-109477885D01*
X178042000Y-109477885D01*
X178046475Y-109493124D01*
X178047865Y-109494329D01*
X178055548Y-109496000D01*
X179077885Y-109496000D01*
X179093124Y-109491525D01*
X179094329Y-109490135D01*
X179096000Y-109482452D01*
X179096000Y-109477885D01*
X179604000Y-109477885D01*
X179608475Y-109493124D01*
X179609865Y-109494329D01*
X179617548Y-109496000D01*
X180639884Y-109496000D01*
X180655123Y-109491525D01*
X180656328Y-109490135D01*
X180657999Y-109482452D01*
X180657999Y-107255331D01*
X180657629Y-107248510D01*
X180652105Y-107197648D01*
X180648479Y-107182396D01*
X180603324Y-107061946D01*
X180594786Y-107046351D01*
X180518285Y-106944276D01*
X180505724Y-106931715D01*
X180403649Y-106855214D01*
X180388054Y-106846676D01*
X180267606Y-106801522D01*
X180252351Y-106797895D01*
X180201486Y-106792369D01*
X180194672Y-106792000D01*
X179622115Y-106792000D01*
X179606876Y-106796475D01*
X179605671Y-106797865D01*
X179604000Y-106805548D01*
X179604000Y-109477885D01*
X179096000Y-109477885D01*
X179096000Y-106810116D01*
X179091525Y-106794877D01*
X179090135Y-106793672D01*
X179082452Y-106792001D01*
X178505331Y-106792001D01*
X178498510Y-106792371D01*
X178447648Y-106797895D01*
X178432396Y-106801521D01*
X178311946Y-106846676D01*
X178296351Y-106855214D01*
X178194276Y-106931715D01*
X178181715Y-106944276D01*
X178105214Y-107046351D01*
X178096676Y-107061946D01*
X178051522Y-107182394D01*
X178047895Y-107197649D01*
X178042369Y-107248514D01*
X178042000Y-107255328D01*
X178042000Y-109477885D01*
X172157999Y-109477885D01*
X172157999Y-107255331D01*
X172157629Y-107248510D01*
X172152105Y-107197648D01*
X172148479Y-107182396D01*
X172103324Y-107061946D01*
X172094786Y-107046351D01*
X172018285Y-106944276D01*
X172005724Y-106931715D01*
X171903649Y-106855214D01*
X171888054Y-106846676D01*
X171767606Y-106801522D01*
X171752351Y-106797895D01*
X171701486Y-106792369D01*
X171694672Y-106792000D01*
X171122115Y-106792000D01*
X171106876Y-106796475D01*
X171105671Y-106797865D01*
X171104000Y-106805548D01*
X171104000Y-109477885D01*
X170596000Y-109477885D01*
X170596000Y-106810116D01*
X170591525Y-106794877D01*
X170590135Y-106793672D01*
X170582452Y-106792001D01*
X170005331Y-106792001D01*
X169998510Y-106792371D01*
X169947648Y-106797895D01*
X169932396Y-106801521D01*
X169811946Y-106846676D01*
X169796351Y-106855214D01*
X169694276Y-106931715D01*
X169681715Y-106944276D01*
X169605214Y-107046351D01*
X169596676Y-107061946D01*
X169551522Y-107182394D01*
X169547895Y-107197649D01*
X169542369Y-107248514D01*
X169542000Y-107255328D01*
X169542000Y-109477885D01*
X163557999Y-109477885D01*
X163557999Y-107255331D01*
X163557629Y-107248510D01*
X163552105Y-107197648D01*
X163548479Y-107182396D01*
X163503324Y-107061946D01*
X163494786Y-107046351D01*
X163418285Y-106944276D01*
X163405724Y-106931715D01*
X163303649Y-106855214D01*
X163288054Y-106846676D01*
X163167606Y-106801522D01*
X163152351Y-106797895D01*
X163101486Y-106792369D01*
X163094672Y-106792000D01*
X162522115Y-106792000D01*
X162506876Y-106796475D01*
X162505671Y-106797865D01*
X162504000Y-106805548D01*
X162504000Y-109477885D01*
X161996000Y-109477885D01*
X161996000Y-106810116D01*
X161991525Y-106794877D01*
X161990135Y-106793672D01*
X161982452Y-106792001D01*
X161405331Y-106792001D01*
X161398510Y-106792371D01*
X161347648Y-106797895D01*
X161332396Y-106801521D01*
X161211946Y-106846676D01*
X161196351Y-106855214D01*
X161094276Y-106931715D01*
X161081715Y-106944276D01*
X161005214Y-107046351D01*
X160996676Y-107061946D01*
X160951522Y-107182394D01*
X160947895Y-107197649D01*
X160942369Y-107248514D01*
X160942000Y-107255328D01*
X160942000Y-109477885D01*
X155057999Y-109477885D01*
X155057999Y-107255331D01*
X155057629Y-107248510D01*
X155052105Y-107197648D01*
X155048479Y-107182396D01*
X155003324Y-107061946D01*
X154994786Y-107046351D01*
X154918285Y-106944276D01*
X154905724Y-106931715D01*
X154803649Y-106855214D01*
X154788054Y-106846676D01*
X154667606Y-106801522D01*
X154652351Y-106797895D01*
X154601486Y-106792369D01*
X154594672Y-106792000D01*
X154022115Y-106792000D01*
X154006876Y-106796475D01*
X154005671Y-106797865D01*
X154004000Y-106805548D01*
X154004000Y-109477885D01*
X153496000Y-109477885D01*
X153496000Y-106810116D01*
X153491525Y-106794877D01*
X153490135Y-106793672D01*
X153482452Y-106792001D01*
X152905331Y-106792001D01*
X152898510Y-106792371D01*
X152847648Y-106797895D01*
X152832396Y-106801521D01*
X152711946Y-106846676D01*
X152696351Y-106855214D01*
X152594276Y-106931715D01*
X152581715Y-106944276D01*
X152505214Y-107046351D01*
X152496676Y-107061946D01*
X152451522Y-107182394D01*
X152447895Y-107197649D01*
X152442369Y-107248514D01*
X152442000Y-107255328D01*
X152442000Y-109477885D01*
X100650000Y-109477885D01*
X100650000Y-108736266D01*
X123849500Y-108736266D01*
X123864724Y-108862070D01*
X123924655Y-109020673D01*
X124020688Y-109160401D01*
X124026358Y-109165453D01*
X124026359Y-109165454D01*
X124141608Y-109268138D01*
X124141612Y-109268140D01*
X124147279Y-109273190D01*
X124297119Y-109352526D01*
X124461559Y-109393831D01*
X124469157Y-109393871D01*
X124469159Y-109393871D01*
X124546332Y-109394275D01*
X124631105Y-109394719D01*
X124638492Y-109392945D01*
X124638496Y-109392945D01*
X124788583Y-109356911D01*
X124795968Y-109355138D01*
X124802712Y-109351657D01*
X124802715Y-109351656D01*
X124939883Y-109280858D01*
X124939884Y-109280858D01*
X124946631Y-109277375D01*
X125074396Y-109165919D01*
X125171887Y-109027203D01*
X125233476Y-108869237D01*
X125250500Y-108739924D01*
X125250500Y-106550000D01*
X139194318Y-106550000D01*
X139214956Y-106706762D01*
X139275464Y-106852841D01*
X139371718Y-106978282D01*
X139497159Y-107074536D01*
X139643238Y-107135044D01*
X139800000Y-107155682D01*
X139808188Y-107154604D01*
X139948574Y-107136122D01*
X139956762Y-107135044D01*
X140102841Y-107074536D01*
X140228282Y-106978282D01*
X140324536Y-106852841D01*
X140385044Y-106706762D01*
X140389975Y-106669305D01*
X140418697Y-106604378D01*
X140425802Y-106596656D01*
X142988586Y-104033872D01*
X142997312Y-104026900D01*
X142996923Y-104026442D01*
X143003757Y-104020626D01*
X143011350Y-104015835D01*
X143044506Y-103978293D01*
X143049852Y-103972606D01*
X143060373Y-103962085D01*
X143066048Y-103954513D01*
X143072424Y-103946682D01*
X143095570Y-103920474D01*
X143101513Y-103913745D01*
X143105329Y-103905618D01*
X143108834Y-103900281D01*
X143112930Y-103893463D01*
X143115987Y-103887880D01*
X143121372Y-103880695D01*
X143136798Y-103839546D01*
X143140725Y-103830226D01*
X143142977Y-103825430D01*
X143159399Y-103790452D01*
X143160780Y-103781582D01*
X143162639Y-103775502D01*
X143164665Y-103767781D01*
X143166031Y-103761568D01*
X143169184Y-103753157D01*
X143172441Y-103709324D01*
X143173595Y-103699277D01*
X143174751Y-103691855D01*
X143174751Y-103691853D01*
X143175500Y-103687044D01*
X143175500Y-103672838D01*
X143175846Y-103663501D01*
X143178612Y-103626274D01*
X143179277Y-103617326D01*
X143177404Y-103608550D01*
X143176793Y-103599593D01*
X143176899Y-103599586D01*
X143175500Y-103586333D01*
X143175500Y-103059518D01*
X143195502Y-102991397D01*
X143201537Y-102982814D01*
X143219509Y-102959392D01*
X143224536Y-102952841D01*
X143285044Y-102806762D01*
X143292899Y-102747095D01*
X152992001Y-102747095D01*
X152992338Y-102753614D01*
X153002257Y-102849206D01*
X153005149Y-102862600D01*
X153056588Y-103016784D01*
X153062761Y-103029962D01*
X153148063Y-103167807D01*
X153157099Y-103179208D01*
X153271829Y-103293739D01*
X153283240Y-103302751D01*
X153421243Y-103387816D01*
X153434424Y-103393963D01*
X153588710Y-103445138D01*
X153602086Y-103448005D01*
X153696438Y-103457672D01*
X153702854Y-103458000D01*
X153927885Y-103458000D01*
X153943124Y-103453525D01*
X153944329Y-103452135D01*
X153946000Y-103444452D01*
X153946000Y-103439884D01*
X154454000Y-103439884D01*
X154458475Y-103455123D01*
X154459865Y-103456328D01*
X154467548Y-103457999D01*
X154697095Y-103457999D01*
X154703614Y-103457662D01*
X154799206Y-103447743D01*
X154812600Y-103444851D01*
X154966784Y-103393412D01*
X154979962Y-103387239D01*
X155117807Y-103301937D01*
X155129208Y-103292901D01*
X155243739Y-103178171D01*
X155252751Y-103166760D01*
X155337816Y-103028757D01*
X155343963Y-103015576D01*
X155395138Y-102861290D01*
X155398005Y-102847914D01*
X155407672Y-102753562D01*
X155408000Y-102747146D01*
X155408000Y-102747095D01*
X156792001Y-102747095D01*
X156792338Y-102753614D01*
X156802257Y-102849206D01*
X156805149Y-102862600D01*
X156856588Y-103016784D01*
X156862761Y-103029962D01*
X156948063Y-103167807D01*
X156957099Y-103179208D01*
X157071829Y-103293739D01*
X157083240Y-103302751D01*
X157221243Y-103387816D01*
X157234424Y-103393963D01*
X157388710Y-103445138D01*
X157402086Y-103448005D01*
X157496438Y-103457672D01*
X157502854Y-103458000D01*
X157727885Y-103458000D01*
X157743124Y-103453525D01*
X157744329Y-103452135D01*
X157746000Y-103444452D01*
X157746000Y-103439884D01*
X158254000Y-103439884D01*
X158258475Y-103455123D01*
X158259865Y-103456328D01*
X158267548Y-103457999D01*
X158497095Y-103457999D01*
X158503614Y-103457662D01*
X158599206Y-103447743D01*
X158612600Y-103444851D01*
X158766784Y-103393412D01*
X158779962Y-103387239D01*
X158917807Y-103301937D01*
X158929208Y-103292901D01*
X159043739Y-103178171D01*
X159052751Y-103166760D01*
X159137816Y-103028757D01*
X159143963Y-103015576D01*
X159195138Y-102861290D01*
X159198005Y-102847914D01*
X159207672Y-102753562D01*
X159208000Y-102747146D01*
X159208000Y-102747095D01*
X160592001Y-102747095D01*
X160592338Y-102753614D01*
X160602257Y-102849206D01*
X160605149Y-102862600D01*
X160656588Y-103016784D01*
X160662761Y-103029962D01*
X160748063Y-103167807D01*
X160757099Y-103179208D01*
X160871829Y-103293739D01*
X160883240Y-103302751D01*
X161021243Y-103387816D01*
X161034424Y-103393963D01*
X161188710Y-103445138D01*
X161202086Y-103448005D01*
X161296438Y-103457672D01*
X161302854Y-103458000D01*
X161527885Y-103458000D01*
X161543124Y-103453525D01*
X161544329Y-103452135D01*
X161546000Y-103444452D01*
X161546000Y-103439884D01*
X162054000Y-103439884D01*
X162058475Y-103455123D01*
X162059865Y-103456328D01*
X162067548Y-103457999D01*
X162297095Y-103457999D01*
X162303614Y-103457662D01*
X162399206Y-103447743D01*
X162412600Y-103444851D01*
X162566784Y-103393412D01*
X162579962Y-103387239D01*
X162717807Y-103301937D01*
X162729208Y-103292901D01*
X162843739Y-103178171D01*
X162852751Y-103166760D01*
X162937816Y-103028757D01*
X162943963Y-103015576D01*
X162995138Y-102861290D01*
X162998005Y-102847914D01*
X163007672Y-102753562D01*
X163008000Y-102747146D01*
X163008000Y-102622115D01*
X163003525Y-102606876D01*
X163002135Y-102605671D01*
X162994452Y-102604000D01*
X162072115Y-102604000D01*
X162056876Y-102608475D01*
X162055671Y-102609865D01*
X162054000Y-102617548D01*
X162054000Y-103439884D01*
X161546000Y-103439884D01*
X161546000Y-102622115D01*
X161541525Y-102606876D01*
X161540135Y-102605671D01*
X161532452Y-102604000D01*
X160610116Y-102604000D01*
X160594877Y-102608475D01*
X160593672Y-102609865D01*
X160592001Y-102617548D01*
X160592001Y-102747095D01*
X159208000Y-102747095D01*
X159208000Y-102622115D01*
X159203525Y-102606876D01*
X159202135Y-102605671D01*
X159194452Y-102604000D01*
X158272115Y-102604000D01*
X158256876Y-102608475D01*
X158255671Y-102609865D01*
X158254000Y-102617548D01*
X158254000Y-103439884D01*
X157746000Y-103439884D01*
X157746000Y-102622115D01*
X157741525Y-102606876D01*
X157740135Y-102605671D01*
X157732452Y-102604000D01*
X156810116Y-102604000D01*
X156794877Y-102608475D01*
X156793672Y-102609865D01*
X156792001Y-102617548D01*
X156792001Y-102747095D01*
X155408000Y-102747095D01*
X155408000Y-102622115D01*
X155403525Y-102606876D01*
X155402135Y-102605671D01*
X155394452Y-102604000D01*
X154472115Y-102604000D01*
X154456876Y-102608475D01*
X154455671Y-102609865D01*
X154454000Y-102617548D01*
X154454000Y-103439884D01*
X153946000Y-103439884D01*
X153946000Y-102622115D01*
X153941525Y-102606876D01*
X153940135Y-102605671D01*
X153932452Y-102604000D01*
X153010116Y-102604000D01*
X152994877Y-102608475D01*
X152993672Y-102609865D01*
X152992001Y-102617548D01*
X152992001Y-102747095D01*
X143292899Y-102747095D01*
X143305682Y-102650000D01*
X143285044Y-102493238D01*
X143224536Y-102347159D01*
X143128282Y-102221718D01*
X143112374Y-102209511D01*
X143050164Y-102161776D01*
X143002841Y-102125464D01*
X142856762Y-102064956D01*
X142700000Y-102044318D01*
X142543238Y-102064956D01*
X142397159Y-102125464D01*
X142349836Y-102161776D01*
X142287627Y-102209511D01*
X142271718Y-102221718D01*
X142175464Y-102347159D01*
X142114956Y-102493238D01*
X142094318Y-102650000D01*
X142114956Y-102806762D01*
X142175464Y-102952841D01*
X142180491Y-102959392D01*
X142198463Y-102982814D01*
X142224063Y-103049035D01*
X142224500Y-103059518D01*
X142224500Y-103400852D01*
X142204498Y-103468973D01*
X142187595Y-103489947D01*
X139753344Y-105924198D01*
X139691032Y-105958224D01*
X139680698Y-105960024D01*
X139643238Y-105964956D01*
X139497159Y-106025464D01*
X139371718Y-106121718D01*
X139275464Y-106247159D01*
X139214956Y-106393238D01*
X139194318Y-106550000D01*
X125250500Y-106550000D01*
X125250500Y-103951234D01*
X125235276Y-103825430D01*
X125175345Y-103666827D01*
X125079312Y-103527099D01*
X125037614Y-103489947D01*
X124958392Y-103419362D01*
X124958388Y-103419360D01*
X124952721Y-103414310D01*
X124927304Y-103400852D01*
X124885080Y-103378496D01*
X124802881Y-103334974D01*
X124638441Y-103293669D01*
X124630843Y-103293629D01*
X124630841Y-103293629D01*
X124553668Y-103293225D01*
X124468895Y-103292781D01*
X124461508Y-103294555D01*
X124461504Y-103294555D01*
X124318162Y-103328970D01*
X124304032Y-103332362D01*
X124297288Y-103335843D01*
X124297285Y-103335844D01*
X124196592Y-103387816D01*
X124153369Y-103410125D01*
X124147647Y-103415117D01*
X124147645Y-103415118D01*
X124094293Y-103461660D01*
X124025604Y-103521581D01*
X124021237Y-103527795D01*
X123952025Y-103626274D01*
X123928113Y-103660297D01*
X123866524Y-103818263D01*
X123865532Y-103825796D01*
X123865532Y-103825797D01*
X123863722Y-103839546D01*
X123849500Y-103947576D01*
X123849500Y-108736266D01*
X100650000Y-108736266D01*
X100650000Y-104063498D01*
X102599500Y-104063498D01*
X102611133Y-104121981D01*
X102655448Y-104188302D01*
X102721769Y-104232617D01*
X102733938Y-104235038D01*
X102733939Y-104235038D01*
X102774184Y-104243043D01*
X102780252Y-104244250D01*
X104519748Y-104244250D01*
X104525816Y-104243043D01*
X104566061Y-104235038D01*
X104566062Y-104235038D01*
X104578231Y-104232617D01*
X104644552Y-104188302D01*
X104688867Y-104121981D01*
X104700500Y-104063498D01*
X104700500Y-103436716D01*
X108118257Y-103436716D01*
X108148565Y-103571196D01*
X108151645Y-103581025D01*
X108231770Y-103778353D01*
X108236413Y-103787544D01*
X108347694Y-103969138D01*
X108353777Y-103977449D01*
X108493213Y-104138417D01*
X108500580Y-104145633D01*
X108664434Y-104281666D01*
X108672881Y-104287581D01*
X108856756Y-104395029D01*
X108866042Y-104399479D01*
X109065001Y-104475453D01*
X109074899Y-104478329D01*
X109178250Y-104499356D01*
X109192299Y-104498160D01*
X109196000Y-104487815D01*
X109196000Y-104487267D01*
X109704000Y-104487267D01*
X109708064Y-104501109D01*
X109721478Y-104503143D01*
X109728184Y-104502284D01*
X109738262Y-104500142D01*
X109942255Y-104438941D01*
X109951842Y-104435183D01*
X110143095Y-104341489D01*
X110151945Y-104336214D01*
X110325328Y-104212542D01*
X110333200Y-104205889D01*
X110484052Y-104055562D01*
X110490730Y-104047715D01*
X110615003Y-103874770D01*
X110620313Y-103865933D01*
X110714670Y-103675017D01*
X110718469Y-103665422D01*
X110780377Y-103461660D01*
X110782555Y-103451587D01*
X110783986Y-103440712D01*
X110781775Y-103426528D01*
X110768617Y-103422750D01*
X109722115Y-103422750D01*
X109706876Y-103427225D01*
X109705671Y-103428615D01*
X109704000Y-103436298D01*
X109704000Y-104487267D01*
X109196000Y-104487267D01*
X109196000Y-103440865D01*
X109191525Y-103425626D01*
X109190135Y-103424421D01*
X109182452Y-103422750D01*
X108133225Y-103422750D01*
X108119694Y-103426723D01*
X108118257Y-103436716D01*
X104700500Y-103436716D01*
X104700500Y-102902933D01*
X108114389Y-102902933D01*
X108115912Y-102911357D01*
X108128292Y-102914750D01*
X110768344Y-102914750D01*
X110781875Y-102910777D01*
X110783180Y-102901697D01*
X110741214Y-102734625D01*
X110737894Y-102724874D01*
X110652972Y-102529564D01*
X110648105Y-102520489D01*
X110532426Y-102341676D01*
X110526136Y-102333507D01*
X110382806Y-102175990D01*
X110375273Y-102168965D01*
X110208139Y-102036972D01*
X110199552Y-102031267D01*
X110013117Y-101928349D01*
X110003705Y-101924119D01*
X109812031Y-101856243D01*
X109754495Y-101814649D01*
X109728579Y-101748551D01*
X109742513Y-101678935D01*
X109791872Y-101627904D01*
X109820206Y-101616112D01*
X109825790Y-101614553D01*
X109825799Y-101614550D01*
X109831725Y-101612895D01*
X109837214Y-101610122D01*
X109837220Y-101610120D01*
X110010116Y-101522783D01*
X110015610Y-101520008D01*
X110022800Y-101514391D01*
X110096780Y-101456591D01*
X110177951Y-101393174D01*
X110215218Y-101350000D01*
X150494318Y-101350000D01*
X150514956Y-101506762D01*
X150518116Y-101514391D01*
X150520443Y-101520008D01*
X150575464Y-101652841D01*
X150671718Y-101778282D01*
X150797159Y-101874536D01*
X150943238Y-101935044D01*
X151100000Y-101955682D01*
X151108188Y-101954604D01*
X151121094Y-101952905D01*
X151256762Y-101935044D01*
X151402841Y-101874536D01*
X151528282Y-101778282D01*
X151530072Y-101780614D01*
X151579948Y-101753379D01*
X151606731Y-101750500D01*
X152872834Y-101750500D01*
X152940955Y-101770502D01*
X152987448Y-101824158D01*
X152998178Y-101889343D01*
X152992328Y-101946440D01*
X152992000Y-101952855D01*
X152992000Y-102077885D01*
X152996475Y-102093124D01*
X152997865Y-102094329D01*
X153005548Y-102096000D01*
X153927885Y-102096000D01*
X153943124Y-102091525D01*
X153944329Y-102090135D01*
X153946000Y-102082452D01*
X153946000Y-101876500D01*
X153966002Y-101808379D01*
X154019658Y-101761886D01*
X154072000Y-101750500D01*
X154328000Y-101750500D01*
X154396121Y-101770502D01*
X154442614Y-101824158D01*
X154454000Y-101876500D01*
X154454000Y-102077885D01*
X154458475Y-102093124D01*
X154459865Y-102094329D01*
X154467548Y-102096000D01*
X155389884Y-102096000D01*
X155405123Y-102091525D01*
X155406328Y-102090135D01*
X155407999Y-102082452D01*
X155407999Y-101952905D01*
X155407662Y-101946386D01*
X155401760Y-101889503D01*
X155414625Y-101819682D01*
X155463196Y-101767900D01*
X155527087Y-101750500D01*
X156672834Y-101750500D01*
X156740955Y-101770502D01*
X156787448Y-101824158D01*
X156798178Y-101889343D01*
X156792328Y-101946440D01*
X156792000Y-101952855D01*
X156792000Y-102077885D01*
X156796475Y-102093124D01*
X156797865Y-102094329D01*
X156805548Y-102096000D01*
X157727885Y-102096000D01*
X157743124Y-102091525D01*
X157744329Y-102090135D01*
X157746000Y-102082452D01*
X157746000Y-101876500D01*
X157766002Y-101808379D01*
X157819658Y-101761886D01*
X157872000Y-101750500D01*
X158128000Y-101750500D01*
X158196121Y-101770502D01*
X158242614Y-101824158D01*
X158254000Y-101876500D01*
X158254000Y-102077885D01*
X158258475Y-102093124D01*
X158259865Y-102094329D01*
X158267548Y-102096000D01*
X159189884Y-102096000D01*
X159205123Y-102091525D01*
X159206328Y-102090135D01*
X159207999Y-102082452D01*
X159207999Y-101952905D01*
X159207662Y-101946386D01*
X159201760Y-101889503D01*
X159214625Y-101819682D01*
X159263196Y-101767900D01*
X159327087Y-101750500D01*
X160472834Y-101750500D01*
X160540955Y-101770502D01*
X160587448Y-101824158D01*
X160598178Y-101889343D01*
X160592328Y-101946440D01*
X160592000Y-101952855D01*
X160592000Y-102077885D01*
X160596475Y-102093124D01*
X160597865Y-102094329D01*
X160605548Y-102096000D01*
X161527885Y-102096000D01*
X161543124Y-102091525D01*
X161544329Y-102090135D01*
X161546000Y-102082452D01*
X161546000Y-101876500D01*
X161566002Y-101808379D01*
X161619658Y-101761886D01*
X161672000Y-101750500D01*
X161928000Y-101750500D01*
X161996121Y-101770502D01*
X162042614Y-101824158D01*
X162054000Y-101876500D01*
X162054000Y-102077885D01*
X162058475Y-102093124D01*
X162059865Y-102094329D01*
X162067548Y-102096000D01*
X162989884Y-102096000D01*
X163005123Y-102091525D01*
X163006328Y-102090135D01*
X163007999Y-102082452D01*
X163007999Y-101952905D01*
X163007662Y-101946386D01*
X163001760Y-101889503D01*
X163014625Y-101819682D01*
X163063196Y-101767900D01*
X163127087Y-101750500D01*
X164693269Y-101750500D01*
X164761390Y-101770502D01*
X164771460Y-101778618D01*
X164771718Y-101778282D01*
X164897159Y-101874536D01*
X165043238Y-101935044D01*
X165200000Y-101955682D01*
X165208188Y-101954604D01*
X165221094Y-101952905D01*
X165356762Y-101935044D01*
X165502841Y-101874536D01*
X165628282Y-101778282D01*
X165724536Y-101652841D01*
X165779557Y-101520008D01*
X165781884Y-101514391D01*
X165785044Y-101506762D01*
X165805682Y-101350000D01*
X165785044Y-101193238D01*
X165724536Y-101047159D01*
X165628282Y-100921718D01*
X165502841Y-100825464D01*
X165356762Y-100764956D01*
X165200000Y-100744318D01*
X165043238Y-100764956D01*
X164897159Y-100825464D01*
X164771718Y-100921718D01*
X164769928Y-100919386D01*
X164720052Y-100946621D01*
X164693269Y-100949500D01*
X163127166Y-100949500D01*
X163059045Y-100929498D01*
X163012552Y-100875842D01*
X163001822Y-100810657D01*
X163007672Y-100753560D01*
X163008000Y-100747146D01*
X163008000Y-100622115D01*
X163003525Y-100606876D01*
X163002135Y-100605671D01*
X162994452Y-100604000D01*
X162072115Y-100604000D01*
X162056876Y-100608475D01*
X162055671Y-100609865D01*
X162054000Y-100617548D01*
X162054000Y-100823500D01*
X162033998Y-100891621D01*
X161980342Y-100938114D01*
X161928000Y-100949500D01*
X161672000Y-100949500D01*
X161603879Y-100929498D01*
X161557386Y-100875842D01*
X161546000Y-100823500D01*
X161546000Y-100622115D01*
X161541525Y-100606876D01*
X161540135Y-100605671D01*
X161532452Y-100604000D01*
X160610116Y-100604000D01*
X160594877Y-100608475D01*
X160593672Y-100609865D01*
X160592001Y-100617548D01*
X160592001Y-100747095D01*
X160592338Y-100753614D01*
X160598240Y-100810497D01*
X160585375Y-100880318D01*
X160536804Y-100932100D01*
X160472913Y-100949500D01*
X159327166Y-100949500D01*
X159259045Y-100929498D01*
X159212552Y-100875842D01*
X159201822Y-100810657D01*
X159207672Y-100753560D01*
X159208000Y-100747146D01*
X159208000Y-100622115D01*
X159203525Y-100606876D01*
X159202135Y-100605671D01*
X159194452Y-100604000D01*
X158272115Y-100604000D01*
X158256876Y-100608475D01*
X158255671Y-100609865D01*
X158254000Y-100617548D01*
X158254000Y-100823500D01*
X158233998Y-100891621D01*
X158180342Y-100938114D01*
X158128000Y-100949500D01*
X157872000Y-100949500D01*
X157803879Y-100929498D01*
X157757386Y-100875842D01*
X157746000Y-100823500D01*
X157746000Y-100622115D01*
X157741525Y-100606876D01*
X157740135Y-100605671D01*
X157732452Y-100604000D01*
X156810116Y-100604000D01*
X156794877Y-100608475D01*
X156793672Y-100609865D01*
X156792001Y-100617548D01*
X156792001Y-100747095D01*
X156792338Y-100753614D01*
X156798240Y-100810497D01*
X156785375Y-100880318D01*
X156736804Y-100932100D01*
X156672913Y-100949500D01*
X155527166Y-100949500D01*
X155459045Y-100929498D01*
X155412552Y-100875842D01*
X155401822Y-100810657D01*
X155407672Y-100753560D01*
X155408000Y-100747146D01*
X155408000Y-100622115D01*
X155403525Y-100606876D01*
X155402135Y-100605671D01*
X155394452Y-100604000D01*
X154472115Y-100604000D01*
X154456876Y-100608475D01*
X154455671Y-100609865D01*
X154454000Y-100617548D01*
X154454000Y-100823500D01*
X154433998Y-100891621D01*
X154380342Y-100938114D01*
X154328000Y-100949500D01*
X154072000Y-100949500D01*
X154003879Y-100929498D01*
X153957386Y-100875842D01*
X153946000Y-100823500D01*
X153946000Y-100622115D01*
X153941525Y-100606876D01*
X153940135Y-100605671D01*
X153932452Y-100604000D01*
X153010116Y-100604000D01*
X152994877Y-100608475D01*
X152993672Y-100609865D01*
X152992001Y-100617548D01*
X152992001Y-100747095D01*
X152992338Y-100753614D01*
X152998240Y-100810497D01*
X152985375Y-100880318D01*
X152936804Y-100932100D01*
X152872913Y-100949500D01*
X151606731Y-100949500D01*
X151538610Y-100929498D01*
X151528540Y-100921382D01*
X151528282Y-100921718D01*
X151458881Y-100868465D01*
X151402841Y-100825464D01*
X151256762Y-100764956D01*
X151100000Y-100744318D01*
X150943238Y-100764956D01*
X150797159Y-100825464D01*
X150671718Y-100921718D01*
X150575464Y-101047159D01*
X150514956Y-101193238D01*
X150494318Y-101350000D01*
X110215218Y-101350000D01*
X110308540Y-101241884D01*
X110308540Y-101241883D01*
X110312564Y-101237222D01*
X110319185Y-101225568D01*
X110411276Y-101063457D01*
X110414323Y-101058094D01*
X110479351Y-100862613D01*
X110505171Y-100658224D01*
X110505583Y-100628750D01*
X110485480Y-100423720D01*
X110425935Y-100226499D01*
X110346916Y-100077885D01*
X152992000Y-100077885D01*
X152996475Y-100093124D01*
X152997865Y-100094329D01*
X153005548Y-100096000D01*
X153927885Y-100096000D01*
X153943124Y-100091525D01*
X153944329Y-100090135D01*
X153946000Y-100082452D01*
X153946000Y-100077885D01*
X154454000Y-100077885D01*
X154458475Y-100093124D01*
X154459865Y-100094329D01*
X154467548Y-100096000D01*
X155389884Y-100096000D01*
X155405123Y-100091525D01*
X155406328Y-100090135D01*
X155407999Y-100082452D01*
X155407999Y-100077885D01*
X156792000Y-100077885D01*
X156796475Y-100093124D01*
X156797865Y-100094329D01*
X156805548Y-100096000D01*
X157727885Y-100096000D01*
X157743124Y-100091525D01*
X157744329Y-100090135D01*
X157746000Y-100082452D01*
X157746000Y-100077885D01*
X158254000Y-100077885D01*
X158258475Y-100093124D01*
X158259865Y-100094329D01*
X158267548Y-100096000D01*
X159189884Y-100096000D01*
X159205123Y-100091525D01*
X159206328Y-100090135D01*
X159207999Y-100082452D01*
X159207999Y-100077885D01*
X160592000Y-100077885D01*
X160596475Y-100093124D01*
X160597865Y-100094329D01*
X160605548Y-100096000D01*
X161527885Y-100096000D01*
X161543124Y-100091525D01*
X161544329Y-100090135D01*
X161546000Y-100082452D01*
X161546000Y-100077885D01*
X162054000Y-100077885D01*
X162058475Y-100093124D01*
X162059865Y-100094329D01*
X162067548Y-100096000D01*
X162989884Y-100096000D01*
X163005123Y-100091525D01*
X163006328Y-100090135D01*
X163007999Y-100082452D01*
X163007999Y-99952905D01*
X163007662Y-99946386D01*
X162997743Y-99850794D01*
X162994851Y-99837400D01*
X162943412Y-99683216D01*
X162937239Y-99670038D01*
X162851937Y-99532193D01*
X162842901Y-99520792D01*
X162728171Y-99406261D01*
X162716760Y-99397249D01*
X162578757Y-99312184D01*
X162565576Y-99306037D01*
X162411290Y-99254862D01*
X162397914Y-99251995D01*
X162303562Y-99242328D01*
X162297145Y-99242000D01*
X162072115Y-99242000D01*
X162056876Y-99246475D01*
X162055671Y-99247865D01*
X162054000Y-99255548D01*
X162054000Y-100077885D01*
X161546000Y-100077885D01*
X161546000Y-99260116D01*
X161541525Y-99244877D01*
X161540135Y-99243672D01*
X161532452Y-99242001D01*
X161302905Y-99242001D01*
X161296386Y-99242338D01*
X161200794Y-99252257D01*
X161187400Y-99255149D01*
X161033216Y-99306588D01*
X161020038Y-99312761D01*
X160882193Y-99398063D01*
X160870792Y-99407099D01*
X160756261Y-99521829D01*
X160747249Y-99533240D01*
X160662184Y-99671243D01*
X160656037Y-99684424D01*
X160604862Y-99838710D01*
X160601995Y-99852086D01*
X160592328Y-99946438D01*
X160592000Y-99952855D01*
X160592000Y-100077885D01*
X159207999Y-100077885D01*
X159207999Y-99952905D01*
X159207662Y-99946386D01*
X159197743Y-99850794D01*
X159194851Y-99837400D01*
X159143412Y-99683216D01*
X159137239Y-99670038D01*
X159051937Y-99532193D01*
X159042901Y-99520792D01*
X158928171Y-99406261D01*
X158916760Y-99397249D01*
X158778757Y-99312184D01*
X158765576Y-99306037D01*
X158611290Y-99254862D01*
X158597914Y-99251995D01*
X158503562Y-99242328D01*
X158497145Y-99242000D01*
X158272115Y-99242000D01*
X158256876Y-99246475D01*
X158255671Y-99247865D01*
X158254000Y-99255548D01*
X158254000Y-100077885D01*
X157746000Y-100077885D01*
X157746000Y-99260116D01*
X157741525Y-99244877D01*
X157740135Y-99243672D01*
X157732452Y-99242001D01*
X157502905Y-99242001D01*
X157496386Y-99242338D01*
X157400794Y-99252257D01*
X157387400Y-99255149D01*
X157233216Y-99306588D01*
X157220038Y-99312761D01*
X157082193Y-99398063D01*
X157070792Y-99407099D01*
X156956261Y-99521829D01*
X156947249Y-99533240D01*
X156862184Y-99671243D01*
X156856037Y-99684424D01*
X156804862Y-99838710D01*
X156801995Y-99852086D01*
X156792328Y-99946438D01*
X156792000Y-99952855D01*
X156792000Y-100077885D01*
X155407999Y-100077885D01*
X155407999Y-99952905D01*
X155407662Y-99946386D01*
X155397743Y-99850794D01*
X155394851Y-99837400D01*
X155343412Y-99683216D01*
X155337239Y-99670038D01*
X155251937Y-99532193D01*
X155242901Y-99520792D01*
X155128171Y-99406261D01*
X155116760Y-99397249D01*
X154978757Y-99312184D01*
X154965576Y-99306037D01*
X154811290Y-99254862D01*
X154797914Y-99251995D01*
X154703562Y-99242328D01*
X154697145Y-99242000D01*
X154472115Y-99242000D01*
X154456876Y-99246475D01*
X154455671Y-99247865D01*
X154454000Y-99255548D01*
X154454000Y-100077885D01*
X153946000Y-100077885D01*
X153946000Y-99260116D01*
X153941525Y-99244877D01*
X153940135Y-99243672D01*
X153932452Y-99242001D01*
X153702905Y-99242001D01*
X153696386Y-99242338D01*
X153600794Y-99252257D01*
X153587400Y-99255149D01*
X153433216Y-99306588D01*
X153420038Y-99312761D01*
X153282193Y-99398063D01*
X153270792Y-99407099D01*
X153156261Y-99521829D01*
X153147249Y-99533240D01*
X153062184Y-99671243D01*
X153056037Y-99684424D01*
X153004862Y-99838710D01*
X153001995Y-99852086D01*
X152992328Y-99946438D01*
X152992000Y-99952855D01*
X152992000Y-100077885D01*
X110346916Y-100077885D01*
X110329218Y-100044599D01*
X110219401Y-99909950D01*
X110202906Y-99889725D01*
X110202903Y-99889722D01*
X110199011Y-99884950D01*
X110181786Y-99870700D01*
X110045025Y-99757561D01*
X110045021Y-99757559D01*
X110040275Y-99753632D01*
X109859055Y-99655647D01*
X109662254Y-99594727D01*
X109656129Y-99594083D01*
X109656128Y-99594083D01*
X109463498Y-99573837D01*
X109463496Y-99573837D01*
X109457369Y-99573193D01*
X109370529Y-99581096D01*
X109258342Y-99591305D01*
X109258339Y-99591306D01*
X109252203Y-99591864D01*
X109054572Y-99650030D01*
X109049107Y-99652887D01*
X108990403Y-99683577D01*
X108872002Y-99745476D01*
X108867201Y-99749336D01*
X108867198Y-99749338D01*
X108830764Y-99778632D01*
X108711447Y-99874565D01*
X108579024Y-100032380D01*
X108576056Y-100037778D01*
X108576053Y-100037783D01*
X108482743Y-100207515D01*
X108479776Y-100212912D01*
X108417484Y-100409282D01*
X108416798Y-100415399D01*
X108416797Y-100415403D01*
X108413993Y-100440403D01*
X108394520Y-100614012D01*
X108395463Y-100625244D01*
X108411020Y-100810497D01*
X108411759Y-100819303D01*
X108413458Y-100825228D01*
X108433025Y-100893465D01*
X108468544Y-101017336D01*
X108471359Y-101022813D01*
X108471360Y-101022816D01*
X108492247Y-101063457D01*
X108562712Y-101200568D01*
X108690677Y-101362020D01*
X108695370Y-101366014D01*
X108695371Y-101366015D01*
X108714376Y-101382189D01*
X108847564Y-101495541D01*
X108852942Y-101498547D01*
X108852944Y-101498548D01*
X108929295Y-101541219D01*
X109027398Y-101596047D01*
X109092437Y-101617179D01*
X109151042Y-101657252D01*
X109178680Y-101722648D01*
X109166574Y-101792605D01*
X109118568Y-101844912D01*
X109092646Y-101856777D01*
X108926868Y-101910962D01*
X108917359Y-101914959D01*
X108728463Y-102013292D01*
X108719738Y-102018786D01*
X108549433Y-102146655D01*
X108541726Y-102153498D01*
X108394590Y-102307467D01*
X108388104Y-102315477D01*
X108268098Y-102491399D01*
X108263000Y-102500373D01*
X108173338Y-102693533D01*
X108169775Y-102703220D01*
X108114389Y-102902933D01*
X104700500Y-102902933D01*
X104700500Y-102324002D01*
X104688867Y-102265519D01*
X104644552Y-102199198D01*
X104578231Y-102154883D01*
X104566062Y-102152462D01*
X104566061Y-102152462D01*
X104525816Y-102144457D01*
X104519748Y-102143250D01*
X102780252Y-102143250D01*
X102774184Y-102144457D01*
X102733939Y-102152462D01*
X102733938Y-102152462D01*
X102721769Y-102154883D01*
X102655448Y-102199198D01*
X102611133Y-102265519D01*
X102599500Y-102324002D01*
X102599500Y-104063498D01*
X100650000Y-104063498D01*
X100650000Y-100639012D01*
X102594520Y-100639012D01*
X102595036Y-100645156D01*
X102609912Y-100822304D01*
X102611759Y-100844303D01*
X102613458Y-100850228D01*
X102662947Y-101022816D01*
X102668544Y-101042336D01*
X102671359Y-101047813D01*
X102671360Y-101047816D01*
X102747049Y-101195091D01*
X102762712Y-101225568D01*
X102890677Y-101387020D01*
X102895370Y-101391014D01*
X102895371Y-101391015D01*
X103042486Y-101516219D01*
X103047564Y-101520541D01*
X103227398Y-101621047D01*
X103301767Y-101645211D01*
X103417471Y-101682806D01*
X103417475Y-101682807D01*
X103423329Y-101684709D01*
X103627894Y-101709101D01*
X103634029Y-101708629D01*
X103634031Y-101708629D01*
X103690039Y-101704319D01*
X103833300Y-101693296D01*
X103839230Y-101691640D01*
X103839232Y-101691640D01*
X104025797Y-101639550D01*
X104025796Y-101639550D01*
X104031725Y-101637895D01*
X104037214Y-101635122D01*
X104037220Y-101635120D01*
X104210116Y-101547783D01*
X104215610Y-101545008D01*
X104252459Y-101516219D01*
X104373101Y-101421963D01*
X104377951Y-101418174D01*
X104399531Y-101393174D01*
X104508540Y-101266884D01*
X104508540Y-101266883D01*
X104512564Y-101262222D01*
X104533387Y-101225568D01*
X104611276Y-101088457D01*
X104614323Y-101083094D01*
X104679351Y-100887613D01*
X104705171Y-100683224D01*
X104705390Y-100667556D01*
X104705534Y-100657272D01*
X104705534Y-100657268D01*
X104705583Y-100653750D01*
X104685480Y-100448720D01*
X104625935Y-100251499D01*
X104529218Y-100069599D01*
X104455859Y-99979652D01*
X104402906Y-99914725D01*
X104402903Y-99914722D01*
X104399011Y-99909950D01*
X104381786Y-99895700D01*
X104245025Y-99782561D01*
X104245021Y-99782559D01*
X104240275Y-99778632D01*
X104059055Y-99680647D01*
X103862254Y-99619727D01*
X103856129Y-99619083D01*
X103856128Y-99619083D01*
X103663498Y-99598837D01*
X103663496Y-99598837D01*
X103657369Y-99598193D01*
X103570529Y-99606096D01*
X103458342Y-99616305D01*
X103458339Y-99616306D01*
X103452203Y-99616864D01*
X103254572Y-99675030D01*
X103072002Y-99770476D01*
X103067201Y-99774336D01*
X103067198Y-99774338D01*
X102916254Y-99895700D01*
X102911447Y-99899565D01*
X102779024Y-100057380D01*
X102776056Y-100062778D01*
X102776053Y-100062783D01*
X102696487Y-100207515D01*
X102679776Y-100237912D01*
X102617484Y-100434282D01*
X102616798Y-100440399D01*
X102616797Y-100440403D01*
X102598447Y-100604000D01*
X102594520Y-100639012D01*
X100650000Y-100639012D01*
X100650000Y-98099012D01*
X102594520Y-98099012D01*
X102595036Y-98105156D01*
X102609660Y-98279303D01*
X102611759Y-98304303D01*
X102613458Y-98310228D01*
X102662947Y-98482816D01*
X102668544Y-98502336D01*
X102671359Y-98507813D01*
X102671360Y-98507816D01*
X102692247Y-98548457D01*
X102762712Y-98685568D01*
X102890677Y-98847020D01*
X102895370Y-98851014D01*
X102895371Y-98851015D01*
X103042486Y-98976219D01*
X103047564Y-98980541D01*
X103227398Y-99081047D01*
X103322238Y-99111863D01*
X103417471Y-99142806D01*
X103417475Y-99142807D01*
X103423329Y-99144709D01*
X103627894Y-99169101D01*
X103634029Y-99168629D01*
X103634031Y-99168629D01*
X103690039Y-99164319D01*
X103833300Y-99153296D01*
X103839230Y-99151640D01*
X103839232Y-99151640D01*
X104025797Y-99099550D01*
X104025796Y-99099550D01*
X104031725Y-99097895D01*
X104037214Y-99095122D01*
X104037220Y-99095120D01*
X104210116Y-99007783D01*
X104215610Y-99005008D01*
X104252459Y-98976219D01*
X104373101Y-98881963D01*
X104377951Y-98878174D01*
X104399531Y-98853174D01*
X104508540Y-98726884D01*
X104508540Y-98726883D01*
X104512564Y-98722222D01*
X104533387Y-98685568D01*
X104611276Y-98548457D01*
X104614323Y-98543094D01*
X104679351Y-98347613D01*
X104705171Y-98143224D01*
X104705390Y-98127556D01*
X104705534Y-98117272D01*
X104705534Y-98117268D01*
X104705583Y-98113750D01*
X104701687Y-98074012D01*
X108394520Y-98074012D01*
X108411759Y-98279303D01*
X108413458Y-98285228D01*
X108433025Y-98353465D01*
X108468544Y-98477336D01*
X108471359Y-98482813D01*
X108471360Y-98482816D01*
X108492247Y-98523457D01*
X108562712Y-98660568D01*
X108690677Y-98822020D01*
X108695370Y-98826014D01*
X108695371Y-98826015D01*
X108714376Y-98842189D01*
X108847564Y-98955541D01*
X108852942Y-98958547D01*
X108852944Y-98958548D01*
X108929295Y-99001219D01*
X109027398Y-99056047D01*
X109104340Y-99081047D01*
X109217471Y-99117806D01*
X109217475Y-99117807D01*
X109223329Y-99119709D01*
X109427894Y-99144101D01*
X109434029Y-99143629D01*
X109434031Y-99143629D01*
X109490039Y-99139319D01*
X109633300Y-99128296D01*
X109639230Y-99126640D01*
X109639232Y-99126640D01*
X109795708Y-99082951D01*
X109831725Y-99072895D01*
X109837214Y-99070122D01*
X109837220Y-99070120D01*
X110010116Y-98982783D01*
X110015610Y-98980008D01*
X110177951Y-98853174D01*
X110312564Y-98697222D01*
X110319185Y-98685568D01*
X110411276Y-98523457D01*
X110414323Y-98518094D01*
X110479351Y-98322613D01*
X110505171Y-98118224D01*
X110505583Y-98088750D01*
X110485480Y-97883720D01*
X110425935Y-97686499D01*
X110329218Y-97504599D01*
X110219401Y-97369950D01*
X110202906Y-97349725D01*
X110202903Y-97349722D01*
X110199011Y-97344950D01*
X110181786Y-97330700D01*
X110045025Y-97217561D01*
X110045021Y-97217559D01*
X110040275Y-97213632D01*
X109859055Y-97115647D01*
X109662254Y-97054727D01*
X109656129Y-97054083D01*
X109656128Y-97054083D01*
X109463498Y-97033837D01*
X109463496Y-97033837D01*
X109457369Y-97033193D01*
X109370529Y-97041096D01*
X109258342Y-97051305D01*
X109258339Y-97051306D01*
X109252203Y-97051864D01*
X109054572Y-97110030D01*
X109049107Y-97112887D01*
X108990403Y-97143577D01*
X108872002Y-97205476D01*
X108867201Y-97209336D01*
X108867198Y-97209338D01*
X108830764Y-97238632D01*
X108711447Y-97334565D01*
X108579024Y-97492380D01*
X108576056Y-97497778D01*
X108576053Y-97497783D01*
X108482743Y-97667515D01*
X108479776Y-97672912D01*
X108417484Y-97869282D01*
X108416798Y-97875399D01*
X108416797Y-97875403D01*
X108413993Y-97900403D01*
X108394520Y-98074012D01*
X104701687Y-98074012D01*
X104685480Y-97908720D01*
X104625935Y-97711499D01*
X104529218Y-97529599D01*
X104455859Y-97439652D01*
X104402906Y-97374725D01*
X104402903Y-97374722D01*
X104399011Y-97369950D01*
X104381786Y-97355700D01*
X104245025Y-97242561D01*
X104245021Y-97242559D01*
X104240275Y-97238632D01*
X104059055Y-97140647D01*
X103862254Y-97079727D01*
X103856129Y-97079083D01*
X103856128Y-97079083D01*
X103663498Y-97058837D01*
X103663496Y-97058837D01*
X103657369Y-97058193D01*
X103570529Y-97066096D01*
X103458342Y-97076305D01*
X103458339Y-97076306D01*
X103452203Y-97076864D01*
X103254572Y-97135030D01*
X103072002Y-97230476D01*
X103067201Y-97234336D01*
X103067198Y-97234338D01*
X102916254Y-97355700D01*
X102911447Y-97359565D01*
X102779024Y-97517380D01*
X102776056Y-97522778D01*
X102776053Y-97522783D01*
X102769315Y-97535040D01*
X102679776Y-97697912D01*
X102617484Y-97894282D01*
X102616798Y-97900399D01*
X102616797Y-97900403D01*
X102598011Y-98067887D01*
X102594520Y-98099012D01*
X100650000Y-98099012D01*
X100650000Y-93301716D01*
X102318257Y-93301716D01*
X102348565Y-93436196D01*
X102351645Y-93446025D01*
X102431770Y-93643353D01*
X102436413Y-93652544D01*
X102547694Y-93834138D01*
X102553777Y-93842449D01*
X102693213Y-94003417D01*
X102700580Y-94010633D01*
X102864434Y-94146666D01*
X102872881Y-94152581D01*
X103056756Y-94260029D01*
X103066042Y-94264479D01*
X103265001Y-94340453D01*
X103279866Y-94344772D01*
X103279289Y-94346758D01*
X103334260Y-94375832D01*
X103369110Y-94437686D01*
X103364988Y-94508563D01*
X103323201Y-94565959D01*
X103281930Y-94586978D01*
X103260489Y-94593288D01*
X103260484Y-94593290D01*
X103254572Y-94595030D01*
X103072002Y-94690476D01*
X103067201Y-94694336D01*
X103067198Y-94694338D01*
X102916254Y-94815700D01*
X102911447Y-94819565D01*
X102779024Y-94977380D01*
X102776056Y-94982778D01*
X102776053Y-94982783D01*
X102713553Y-95096471D01*
X102679776Y-95157912D01*
X102617484Y-95354282D01*
X102616798Y-95360399D01*
X102616797Y-95360403D01*
X102612590Y-95397912D01*
X102594520Y-95559012D01*
X102595036Y-95565156D01*
X102609660Y-95739303D01*
X102611759Y-95764303D01*
X102613458Y-95770228D01*
X102662947Y-95942816D01*
X102668544Y-95962336D01*
X102671359Y-95967813D01*
X102671360Y-95967816D01*
X102692247Y-96008457D01*
X102762712Y-96145568D01*
X102890677Y-96307020D01*
X102895370Y-96311014D01*
X102895371Y-96311015D01*
X103042486Y-96436219D01*
X103047564Y-96440541D01*
X103227398Y-96541047D01*
X103322238Y-96571863D01*
X103417471Y-96602806D01*
X103417475Y-96602807D01*
X103423329Y-96604709D01*
X103627894Y-96629101D01*
X103634029Y-96628629D01*
X103634031Y-96628629D01*
X103690039Y-96624319D01*
X103833300Y-96613296D01*
X103839230Y-96611640D01*
X103839232Y-96611640D01*
X104025797Y-96559550D01*
X104025796Y-96559550D01*
X104031725Y-96557895D01*
X104037214Y-96555122D01*
X104037220Y-96555120D01*
X104210116Y-96467783D01*
X104215610Y-96465008D01*
X104252459Y-96436219D01*
X104373101Y-96341963D01*
X104377951Y-96338174D01*
X104399531Y-96313174D01*
X104508540Y-96186884D01*
X104508540Y-96186883D01*
X104512564Y-96182222D01*
X104533387Y-96145568D01*
X104611276Y-96008457D01*
X104614323Y-96003094D01*
X104679351Y-95807613D01*
X104705171Y-95603224D01*
X104705390Y-95587556D01*
X104705534Y-95577272D01*
X104705534Y-95577268D01*
X104705583Y-95573750D01*
X104685480Y-95368720D01*
X104625935Y-95171499D01*
X104529218Y-94989599D01*
X104447273Y-94889125D01*
X104402906Y-94834725D01*
X104402903Y-94834722D01*
X104399011Y-94829950D01*
X104381786Y-94815700D01*
X104245025Y-94702561D01*
X104245021Y-94702559D01*
X104240275Y-94698632D01*
X104059055Y-94600647D01*
X104008183Y-94584900D01*
X103949025Y-94545649D01*
X103920477Y-94480645D01*
X103931605Y-94410526D01*
X103978876Y-94357554D01*
X104009235Y-94343849D01*
X104142255Y-94303941D01*
X104151842Y-94300183D01*
X104343095Y-94206489D01*
X104351945Y-94201214D01*
X104525328Y-94077542D01*
X104533200Y-94070889D01*
X104684052Y-93920562D01*
X104690730Y-93912715D01*
X104815003Y-93739770D01*
X104820313Y-93730933D01*
X104914670Y-93540017D01*
X104918469Y-93530422D01*
X104980377Y-93326660D01*
X104982555Y-93316587D01*
X104983986Y-93305712D01*
X104981775Y-93291528D01*
X104968617Y-93287750D01*
X102333225Y-93287750D01*
X102319694Y-93291723D01*
X102318257Y-93301716D01*
X100650000Y-93301716D01*
X100650000Y-93276716D01*
X108118257Y-93276716D01*
X108148565Y-93411196D01*
X108151645Y-93421025D01*
X108231770Y-93618353D01*
X108236413Y-93627544D01*
X108347694Y-93809138D01*
X108353777Y-93817449D01*
X108493213Y-93978417D01*
X108500580Y-93985633D01*
X108664434Y-94121666D01*
X108672881Y-94127581D01*
X108856756Y-94235029D01*
X108866042Y-94239479D01*
X109065001Y-94315453D01*
X109079866Y-94319772D01*
X109079289Y-94321758D01*
X109134260Y-94350832D01*
X109169110Y-94412686D01*
X109164988Y-94483563D01*
X109123201Y-94540959D01*
X109081930Y-94561978D01*
X109060489Y-94568288D01*
X109060484Y-94568290D01*
X109054572Y-94570030D01*
X109049107Y-94572887D01*
X108990403Y-94603577D01*
X108872002Y-94665476D01*
X108867201Y-94669336D01*
X108867198Y-94669338D01*
X108830764Y-94698632D01*
X108711447Y-94794565D01*
X108579024Y-94952380D01*
X108576056Y-94957778D01*
X108576053Y-94957783D01*
X108496694Y-95102138D01*
X108479776Y-95132912D01*
X108417484Y-95329282D01*
X108416798Y-95335399D01*
X108416797Y-95335403D01*
X108410164Y-95394542D01*
X108394520Y-95534012D01*
X108411759Y-95739303D01*
X108413458Y-95745228D01*
X108433025Y-95813465D01*
X108468544Y-95937336D01*
X108471359Y-95942813D01*
X108471360Y-95942816D01*
X108492247Y-95983457D01*
X108562712Y-96120568D01*
X108690677Y-96282020D01*
X108695370Y-96286014D01*
X108695371Y-96286015D01*
X108714376Y-96302189D01*
X108847564Y-96415541D01*
X108852942Y-96418547D01*
X108852944Y-96418548D01*
X108929295Y-96461219D01*
X109027398Y-96516047D01*
X109104340Y-96541047D01*
X109217471Y-96577806D01*
X109217475Y-96577807D01*
X109223329Y-96579709D01*
X109427894Y-96604101D01*
X109434029Y-96603629D01*
X109434031Y-96603629D01*
X109490039Y-96599319D01*
X109633300Y-96588296D01*
X109639230Y-96586640D01*
X109639232Y-96586640D01*
X109795708Y-96542951D01*
X109831725Y-96532895D01*
X109837214Y-96530122D01*
X109837220Y-96530120D01*
X110010116Y-96442783D01*
X110015610Y-96440008D01*
X110177951Y-96313174D01*
X110312564Y-96157222D01*
X110319185Y-96145568D01*
X110411276Y-95983457D01*
X110414323Y-95978094D01*
X110479351Y-95782613D01*
X110505171Y-95578224D01*
X110505583Y-95548750D01*
X110485480Y-95343720D01*
X110425935Y-95146499D01*
X110329218Y-94964599D01*
X110219401Y-94829950D01*
X110202906Y-94809725D01*
X110202903Y-94809722D01*
X110199011Y-94804950D01*
X110171567Y-94782246D01*
X110162633Y-94774855D01*
X128976712Y-94774855D01*
X128978486Y-94782242D01*
X128978486Y-94782246D01*
X128986518Y-94815700D01*
X129016293Y-94939718D01*
X129019774Y-94946462D01*
X129019775Y-94946465D01*
X129044847Y-94995040D01*
X129094056Y-95090381D01*
X129099048Y-95096103D01*
X129099049Y-95096105D01*
X129148259Y-95152515D01*
X129205512Y-95218146D01*
X129211726Y-95222513D01*
X129338011Y-95311268D01*
X129338013Y-95311269D01*
X129344228Y-95315637D01*
X129502194Y-95377226D01*
X129509727Y-95378218D01*
X129509728Y-95378218D01*
X129580781Y-95387572D01*
X129631507Y-95394250D01*
X135149040Y-95394250D01*
X135157610Y-95394542D01*
X135207035Y-95397912D01*
X135207039Y-95397912D01*
X135214611Y-95398428D01*
X135222087Y-95397123D01*
X135222090Y-95397123D01*
X135276813Y-95387572D01*
X135283339Y-95386609D01*
X135323777Y-95381715D01*
X135346001Y-95379026D01*
X135353108Y-95376341D01*
X135356401Y-95375532D01*
X135370872Y-95371573D01*
X135374148Y-95370584D01*
X135381635Y-95369277D01*
X135388595Y-95366222D01*
X135439441Y-95343903D01*
X135445547Y-95341411D01*
X135497499Y-95321780D01*
X135497501Y-95321779D01*
X135504604Y-95319095D01*
X135510859Y-95314796D01*
X135513884Y-95313215D01*
X135526980Y-95305925D01*
X135529924Y-95304184D01*
X135536883Y-95301129D01*
X135586954Y-95262708D01*
X135592290Y-95258831D01*
X135638067Y-95227369D01*
X135638073Y-95227364D01*
X135644332Y-95223062D01*
X135685293Y-95177089D01*
X135690273Y-95171815D01*
X135711243Y-95150845D01*
X135727646Y-95129925D01*
X135732697Y-95123884D01*
X135757121Y-95096471D01*
X135760674Y-95089761D01*
X135765012Y-95083520D01*
X135765138Y-95083608D01*
X135770804Y-95074884D01*
X135774717Y-95069893D01*
X135789434Y-95051123D01*
X135859206Y-94896596D01*
X135872607Y-94824293D01*
X135888719Y-94737355D01*
X135890103Y-94729888D01*
X135888528Y-94702561D01*
X135886225Y-94662619D01*
X135880344Y-94560621D01*
X135830490Y-94398569D01*
X135743420Y-94253085D01*
X135738083Y-94247692D01*
X135738080Y-94247688D01*
X135667350Y-94176214D01*
X135624161Y-94132570D01*
X135515071Y-94065721D01*
X135486078Y-94047954D01*
X135486075Y-94047953D01*
X135479597Y-94043983D01*
X135472356Y-94041672D01*
X135325312Y-93994743D01*
X135325309Y-93994742D01*
X135318076Y-93992434D01*
X135310500Y-93991917D01*
X135310497Y-93991917D01*
X135156497Y-93981418D01*
X135156493Y-93981418D01*
X135148921Y-93980902D01*
X135141444Y-93982207D01*
X135141443Y-93982207D01*
X135088921Y-93991374D01*
X135067257Y-93993250D01*
X129635165Y-93993250D01*
X129509361Y-94008474D01*
X129350758Y-94068405D01*
X129211030Y-94164438D01*
X129205978Y-94170108D01*
X129205977Y-94170109D01*
X129103293Y-94285358D01*
X129103291Y-94285362D01*
X129098241Y-94291029D01*
X129018905Y-94440869D01*
X128977600Y-94605309D01*
X128977560Y-94612907D01*
X128977560Y-94612909D01*
X128977242Y-94673632D01*
X128976712Y-94774855D01*
X110162633Y-94774855D01*
X110045025Y-94677561D01*
X110045021Y-94677559D01*
X110040275Y-94673632D01*
X109859055Y-94575647D01*
X109808183Y-94559900D01*
X109749025Y-94520649D01*
X109720477Y-94455645D01*
X109731605Y-94385526D01*
X109778876Y-94332554D01*
X109809235Y-94318849D01*
X109942255Y-94278941D01*
X109951842Y-94275183D01*
X110143095Y-94181489D01*
X110151945Y-94176214D01*
X110325328Y-94052542D01*
X110333200Y-94045889D01*
X110484052Y-93895562D01*
X110490730Y-93887715D01*
X110615003Y-93714770D01*
X110620313Y-93705933D01*
X110714670Y-93515017D01*
X110718469Y-93505422D01*
X110780377Y-93301660D01*
X110782555Y-93291587D01*
X110783986Y-93280712D01*
X110781775Y-93266528D01*
X110768617Y-93262750D01*
X108133225Y-93262750D01*
X108119694Y-93266723D01*
X108118257Y-93276716D01*
X100650000Y-93276716D01*
X100650000Y-93236266D01*
X122299500Y-93236266D01*
X122314724Y-93362070D01*
X122374655Y-93520673D01*
X122470688Y-93660401D01*
X122476358Y-93665453D01*
X122476359Y-93665454D01*
X122591608Y-93768138D01*
X122591612Y-93768140D01*
X122597279Y-93773190D01*
X122747119Y-93852526D01*
X122911559Y-93893831D01*
X122919157Y-93893871D01*
X122919159Y-93893871D01*
X122996332Y-93894275D01*
X123081105Y-93894719D01*
X123088492Y-93892945D01*
X123088496Y-93892945D01*
X123238583Y-93856911D01*
X123245968Y-93855138D01*
X123252712Y-93851657D01*
X123252715Y-93851656D01*
X123389883Y-93780858D01*
X123389884Y-93780858D01*
X123396631Y-93777375D01*
X123524396Y-93665919D01*
X123565525Y-93607399D01*
X123617518Y-93533420D01*
X123617519Y-93533418D01*
X123621887Y-93527203D01*
X123683476Y-93369237D01*
X123692373Y-93301660D01*
X123699962Y-93244011D01*
X123699962Y-93244010D01*
X123700500Y-93239924D01*
X123700500Y-80812346D01*
X144292001Y-80812346D01*
X144292371Y-80819167D01*
X144297895Y-80870029D01*
X144301521Y-80885281D01*
X144346676Y-81005731D01*
X144355214Y-81021326D01*
X144431715Y-81123401D01*
X144444276Y-81135962D01*
X144546351Y-81212463D01*
X144561946Y-81221001D01*
X144682394Y-81266155D01*
X144697649Y-81269782D01*
X144748514Y-81275308D01*
X144755328Y-81275677D01*
X145527885Y-81275677D01*
X145543124Y-81271202D01*
X145544329Y-81269812D01*
X145546000Y-81262129D01*
X145546000Y-81257561D01*
X146054000Y-81257561D01*
X146058475Y-81272800D01*
X146059865Y-81274005D01*
X146067548Y-81275676D01*
X146844669Y-81275676D01*
X146851490Y-81275306D01*
X146902352Y-81269782D01*
X146917604Y-81266156D01*
X147038054Y-81221001D01*
X147053649Y-81212463D01*
X147155724Y-81135962D01*
X147168285Y-81123401D01*
X147244786Y-81021326D01*
X147253324Y-81005731D01*
X147298478Y-80885283D01*
X147302105Y-80870028D01*
X147307631Y-80819163D01*
X147308000Y-80812349D01*
X147308000Y-80039792D01*
X147303525Y-80024553D01*
X147302135Y-80023348D01*
X147294452Y-80021677D01*
X146072115Y-80021677D01*
X146056876Y-80026152D01*
X146055671Y-80027542D01*
X146054000Y-80035225D01*
X146054000Y-81257561D01*
X145546000Y-81257561D01*
X145546000Y-80039792D01*
X145541525Y-80024553D01*
X145540135Y-80023348D01*
X145532452Y-80021677D01*
X144310116Y-80021677D01*
X144294877Y-80026152D01*
X144293672Y-80027542D01*
X144292001Y-80035225D01*
X144292001Y-80812346D01*
X123700500Y-80812346D01*
X123700500Y-79495562D01*
X144292000Y-79495562D01*
X144296475Y-79510801D01*
X144297865Y-79512006D01*
X144305548Y-79513677D01*
X145527885Y-79513677D01*
X145543124Y-79509202D01*
X145544329Y-79507812D01*
X145546000Y-79500129D01*
X145546000Y-79495562D01*
X146054000Y-79495562D01*
X146058475Y-79510801D01*
X146059865Y-79512006D01*
X146067548Y-79513677D01*
X147289884Y-79513677D01*
X147305123Y-79509202D01*
X147306328Y-79507812D01*
X147307999Y-79500129D01*
X147307999Y-78723008D01*
X147307629Y-78716187D01*
X147302105Y-78665325D01*
X147298479Y-78650073D01*
X147253324Y-78529623D01*
X147244786Y-78514028D01*
X147168285Y-78411953D01*
X147155724Y-78399392D01*
X147053649Y-78322891D01*
X147038054Y-78314353D01*
X146917606Y-78269199D01*
X146902351Y-78265572D01*
X146851486Y-78260046D01*
X146844672Y-78259677D01*
X146072115Y-78259677D01*
X146056876Y-78264152D01*
X146055671Y-78265542D01*
X146054000Y-78273225D01*
X146054000Y-79495562D01*
X145546000Y-79495562D01*
X145546000Y-78277793D01*
X145541525Y-78262554D01*
X145540135Y-78261349D01*
X145532452Y-78259678D01*
X144755331Y-78259678D01*
X144748510Y-78260048D01*
X144697648Y-78265572D01*
X144682396Y-78269198D01*
X144561946Y-78314353D01*
X144546351Y-78322891D01*
X144444276Y-78399392D01*
X144431715Y-78411953D01*
X144355214Y-78514028D01*
X144346676Y-78529623D01*
X144301522Y-78650071D01*
X144297895Y-78665326D01*
X144292369Y-78716191D01*
X144292000Y-78723005D01*
X144292000Y-79495562D01*
X123700500Y-79495562D01*
X123700500Y-76236117D01*
X144594770Y-76236117D01*
X144609200Y-76456281D01*
X144610621Y-76461877D01*
X144610622Y-76461882D01*
X144662090Y-76664534D01*
X144663511Y-76670129D01*
X144665928Y-76675371D01*
X144665928Y-76675372D01*
X144704046Y-76758056D01*
X144755883Y-76870498D01*
X144883222Y-77050679D01*
X145041264Y-77204638D01*
X145046060Y-77207843D01*
X145046063Y-77207845D01*
X145130261Y-77264104D01*
X145224717Y-77327217D01*
X145230020Y-77329495D01*
X145230023Y-77329497D01*
X145422129Y-77412032D01*
X145427436Y-77414312D01*
X145507088Y-77432335D01*
X145636995Y-77461731D01*
X145637001Y-77461732D01*
X145642632Y-77463006D01*
X145648403Y-77463233D01*
X145648405Y-77463233D01*
X145716211Y-77465897D01*
X145863098Y-77471668D01*
X145972275Y-77455838D01*
X146075738Y-77440837D01*
X146075743Y-77440836D01*
X146081452Y-77440008D01*
X146086916Y-77438153D01*
X146086921Y-77438152D01*
X146284907Y-77370945D01*
X146284912Y-77370943D01*
X146290379Y-77369087D01*
X146482884Y-77261279D01*
X146652518Y-77120195D01*
X146793602Y-76950561D01*
X146901410Y-76758056D01*
X146903266Y-76752589D01*
X146903268Y-76752584D01*
X146970475Y-76554598D01*
X146970476Y-76554593D01*
X146972331Y-76549129D01*
X146973159Y-76543420D01*
X146973160Y-76543415D01*
X147003458Y-76334449D01*
X147003991Y-76330775D01*
X147005643Y-76267677D01*
X146985454Y-76047966D01*
X146925565Y-75835613D01*
X146827980Y-75637730D01*
X146695967Y-75460944D01*
X146533949Y-75311176D01*
X146347350Y-75193441D01*
X146142421Y-75111683D01*
X146136761Y-75110557D01*
X146136757Y-75110556D01*
X145931691Y-75069766D01*
X145931688Y-75069766D01*
X145926024Y-75068639D01*
X145920249Y-75068563D01*
X145920245Y-75068563D01*
X145809504Y-75067114D01*
X145705406Y-75065751D01*
X145699709Y-75066730D01*
X145699708Y-75066730D01*
X145493654Y-75102136D01*
X145493653Y-75102136D01*
X145487957Y-75103115D01*
X145280957Y-75179481D01*
X145091341Y-75292291D01*
X144925457Y-75437767D01*
X144788863Y-75611037D01*
X144686131Y-75806297D01*
X144620703Y-76017010D01*
X144594770Y-76236117D01*
X123700500Y-76236117D01*
X123700500Y-74457484D01*
X123685276Y-74331680D01*
X123671291Y-74294669D01*
X169442001Y-74294669D01*
X169442371Y-74301490D01*
X169447895Y-74352352D01*
X169451521Y-74367604D01*
X169496676Y-74488054D01*
X169505214Y-74503649D01*
X169581715Y-74605724D01*
X169594276Y-74618285D01*
X169696351Y-74694786D01*
X169711946Y-74703324D01*
X169832394Y-74748478D01*
X169847649Y-74752105D01*
X169898514Y-74757631D01*
X169905328Y-74758000D01*
X170477885Y-74758000D01*
X170493124Y-74753525D01*
X170494329Y-74752135D01*
X170496000Y-74744452D01*
X170496000Y-74739884D01*
X171004000Y-74739884D01*
X171008475Y-74755123D01*
X171009865Y-74756328D01*
X171017548Y-74757999D01*
X171594669Y-74757999D01*
X171601490Y-74757629D01*
X171652352Y-74752105D01*
X171667604Y-74748479D01*
X171788054Y-74703324D01*
X171803649Y-74694786D01*
X171905724Y-74618285D01*
X171918285Y-74605724D01*
X171994786Y-74503649D01*
X172003324Y-74488054D01*
X172048478Y-74367606D01*
X172052105Y-74352351D01*
X172057631Y-74301486D01*
X172058000Y-74294672D01*
X172058000Y-74294669D01*
X177942001Y-74294669D01*
X177942371Y-74301490D01*
X177947895Y-74352352D01*
X177951521Y-74367604D01*
X177996676Y-74488054D01*
X178005214Y-74503649D01*
X178081715Y-74605724D01*
X178094276Y-74618285D01*
X178196351Y-74694786D01*
X178211946Y-74703324D01*
X178332394Y-74748478D01*
X178347649Y-74752105D01*
X178398514Y-74757631D01*
X178405328Y-74758000D01*
X178977885Y-74758000D01*
X178993124Y-74753525D01*
X178994329Y-74752135D01*
X178996000Y-74744452D01*
X178996000Y-74739884D01*
X179504000Y-74739884D01*
X179508475Y-74755123D01*
X179509865Y-74756328D01*
X179517548Y-74757999D01*
X180094669Y-74757999D01*
X180101490Y-74757629D01*
X180152352Y-74752105D01*
X180167604Y-74748479D01*
X180288054Y-74703324D01*
X180303649Y-74694786D01*
X180405724Y-74618285D01*
X180418285Y-74605724D01*
X180494786Y-74503649D01*
X180503324Y-74488054D01*
X180548478Y-74367606D01*
X180552105Y-74352351D01*
X180557631Y-74301486D01*
X180558000Y-74294672D01*
X180558000Y-72072115D01*
X180553525Y-72056876D01*
X180552135Y-72055671D01*
X180544452Y-72054000D01*
X179522115Y-72054000D01*
X179506876Y-72058475D01*
X179505671Y-72059865D01*
X179504000Y-72067548D01*
X179504000Y-74739884D01*
X178996000Y-74739884D01*
X178996000Y-72072115D01*
X178991525Y-72056876D01*
X178990135Y-72055671D01*
X178982452Y-72054000D01*
X177960116Y-72054000D01*
X177944877Y-72058475D01*
X177943672Y-72059865D01*
X177942001Y-72067548D01*
X177942001Y-74294669D01*
X172058000Y-74294669D01*
X172058000Y-72072115D01*
X172053525Y-72056876D01*
X172052135Y-72055671D01*
X172044452Y-72054000D01*
X171022115Y-72054000D01*
X171006876Y-72058475D01*
X171005671Y-72059865D01*
X171004000Y-72067548D01*
X171004000Y-74739884D01*
X170496000Y-74739884D01*
X170496000Y-72072115D01*
X170491525Y-72056876D01*
X170490135Y-72055671D01*
X170482452Y-72054000D01*
X169460116Y-72054000D01*
X169444877Y-72058475D01*
X169443672Y-72059865D01*
X169442001Y-72067548D01*
X169442001Y-74294669D01*
X123671291Y-74294669D01*
X123625345Y-74173077D01*
X123529312Y-74033349D01*
X123517514Y-74022837D01*
X123408392Y-73925612D01*
X123408388Y-73925610D01*
X123402721Y-73920560D01*
X123252881Y-73841224D01*
X123088441Y-73799919D01*
X123080843Y-73799879D01*
X123080841Y-73799879D01*
X123003668Y-73799475D01*
X122918895Y-73799031D01*
X122911508Y-73800805D01*
X122911504Y-73800805D01*
X122768162Y-73835220D01*
X122754032Y-73838612D01*
X122747288Y-73842093D01*
X122747285Y-73842094D01*
X122742089Y-73844776D01*
X122603369Y-73916375D01*
X122475604Y-74027831D01*
X122378113Y-74166547D01*
X122316524Y-74324513D01*
X122299500Y-74453826D01*
X122299500Y-93236266D01*
X100650000Y-93236266D01*
X100650000Y-92767933D01*
X102314389Y-92767933D01*
X102315912Y-92776357D01*
X102328292Y-92779750D01*
X103377885Y-92779750D01*
X103393124Y-92775275D01*
X103394329Y-92773885D01*
X103396000Y-92766202D01*
X103396000Y-92761635D01*
X103904000Y-92761635D01*
X103908475Y-92776874D01*
X103909865Y-92778079D01*
X103917548Y-92779750D01*
X104968344Y-92779750D01*
X104981875Y-92775777D01*
X104983180Y-92766697D01*
X104977211Y-92742933D01*
X108114389Y-92742933D01*
X108115912Y-92751357D01*
X108128292Y-92754750D01*
X110768344Y-92754750D01*
X110781875Y-92750777D01*
X110783180Y-92741697D01*
X110741214Y-92574625D01*
X110737894Y-92564874D01*
X110652972Y-92369564D01*
X110648105Y-92360489D01*
X110532426Y-92181676D01*
X110526136Y-92173507D01*
X110382806Y-92015990D01*
X110375273Y-92008965D01*
X110208139Y-91876972D01*
X110199552Y-91871267D01*
X110013117Y-91768349D01*
X110003705Y-91764119D01*
X110003435Y-91764023D01*
X110003341Y-91763955D01*
X109998989Y-91761999D01*
X109999393Y-91761101D01*
X109945899Y-91722429D01*
X109919983Y-91656331D01*
X109933917Y-91586715D01*
X109983276Y-91535684D01*
X110045495Y-91519250D01*
X110319748Y-91519250D01*
X110325816Y-91518043D01*
X110366061Y-91510038D01*
X110366062Y-91510038D01*
X110378231Y-91507617D01*
X110444552Y-91463302D01*
X110488867Y-91396981D01*
X110500500Y-91338498D01*
X110500500Y-89599002D01*
X110488867Y-89540519D01*
X110444552Y-89474198D01*
X110378231Y-89429883D01*
X110366062Y-89427462D01*
X110366061Y-89427462D01*
X110325816Y-89419457D01*
X110319748Y-89418250D01*
X108580252Y-89418250D01*
X108574184Y-89419457D01*
X108533939Y-89427462D01*
X108533938Y-89427462D01*
X108521769Y-89429883D01*
X108455448Y-89474198D01*
X108411133Y-89540519D01*
X108399500Y-89599002D01*
X108399500Y-91338498D01*
X108411133Y-91396981D01*
X108455448Y-91463302D01*
X108521769Y-91507617D01*
X108533938Y-91510038D01*
X108533939Y-91510038D01*
X108574184Y-91518043D01*
X108580252Y-91519250D01*
X108855233Y-91519250D01*
X108923354Y-91539252D01*
X108969847Y-91592908D01*
X108979951Y-91663182D01*
X108950457Y-91727762D01*
X108913413Y-91757013D01*
X108728463Y-91853292D01*
X108719738Y-91858786D01*
X108549433Y-91986655D01*
X108541726Y-91993498D01*
X108394590Y-92147467D01*
X108388104Y-92155477D01*
X108268098Y-92331399D01*
X108263000Y-92340373D01*
X108173338Y-92533533D01*
X108169775Y-92543220D01*
X108114389Y-92742933D01*
X104977211Y-92742933D01*
X104941214Y-92599625D01*
X104937894Y-92589874D01*
X104852972Y-92394564D01*
X104848105Y-92385489D01*
X104732426Y-92206676D01*
X104726136Y-92198507D01*
X104582806Y-92040990D01*
X104575273Y-92033965D01*
X104408139Y-91901972D01*
X104399552Y-91896267D01*
X104213117Y-91793349D01*
X104203705Y-91789119D01*
X104002959Y-91718030D01*
X103992988Y-91715396D01*
X103921837Y-91702722D01*
X103908540Y-91704182D01*
X103904000Y-91718739D01*
X103904000Y-92761635D01*
X103396000Y-92761635D01*
X103396000Y-91716852D01*
X103392082Y-91703508D01*
X103377806Y-91701521D01*
X103339324Y-91707410D01*
X103329288Y-91709801D01*
X103126868Y-91775962D01*
X103117359Y-91779959D01*
X102928463Y-91878292D01*
X102919738Y-91883786D01*
X102749433Y-92011655D01*
X102741726Y-92018498D01*
X102594590Y-92172467D01*
X102588104Y-92180477D01*
X102468098Y-92356399D01*
X102463000Y-92365373D01*
X102373338Y-92558533D01*
X102369775Y-92568220D01*
X102314389Y-92767933D01*
X100650000Y-92767933D01*
X100650000Y-71527885D01*
X169442000Y-71527885D01*
X169446475Y-71543124D01*
X169447865Y-71544329D01*
X169455548Y-71546000D01*
X170477885Y-71546000D01*
X170493124Y-71541525D01*
X170494329Y-71540135D01*
X170496000Y-71532452D01*
X170496000Y-71527885D01*
X171004000Y-71527885D01*
X171008475Y-71543124D01*
X171009865Y-71544329D01*
X171017548Y-71546000D01*
X172039884Y-71546000D01*
X172055123Y-71541525D01*
X172056328Y-71540135D01*
X172057999Y-71532452D01*
X172057999Y-71527885D01*
X177942000Y-71527885D01*
X177946475Y-71543124D01*
X177947865Y-71544329D01*
X177955548Y-71546000D01*
X178977885Y-71546000D01*
X178993124Y-71541525D01*
X178994329Y-71540135D01*
X178996000Y-71532452D01*
X178996000Y-71527885D01*
X179504000Y-71527885D01*
X179508475Y-71543124D01*
X179509865Y-71544329D01*
X179517548Y-71546000D01*
X180539884Y-71546000D01*
X180555123Y-71541525D01*
X180556328Y-71540135D01*
X180557999Y-71532452D01*
X180557999Y-69305331D01*
X180557629Y-69298510D01*
X180552105Y-69247648D01*
X180548479Y-69232396D01*
X180503324Y-69111946D01*
X180494786Y-69096351D01*
X180418285Y-68994276D01*
X180405724Y-68981715D01*
X180303649Y-68905214D01*
X180288054Y-68896676D01*
X180167606Y-68851522D01*
X180152351Y-68847895D01*
X180101486Y-68842369D01*
X180094672Y-68842000D01*
X179522115Y-68842000D01*
X179506876Y-68846475D01*
X179505671Y-68847865D01*
X179504000Y-68855548D01*
X179504000Y-71527885D01*
X178996000Y-71527885D01*
X178996000Y-68860116D01*
X178991525Y-68844877D01*
X178990135Y-68843672D01*
X178982452Y-68842001D01*
X178405331Y-68842001D01*
X178398510Y-68842371D01*
X178347648Y-68847895D01*
X178332396Y-68851521D01*
X178211946Y-68896676D01*
X178196351Y-68905214D01*
X178094276Y-68981715D01*
X178081715Y-68994276D01*
X178005214Y-69096351D01*
X177996676Y-69111946D01*
X177951522Y-69232394D01*
X177947895Y-69247649D01*
X177942369Y-69298514D01*
X177942000Y-69305328D01*
X177942000Y-71527885D01*
X172057999Y-71527885D01*
X172057999Y-69305331D01*
X172057629Y-69298510D01*
X172052105Y-69247648D01*
X172048479Y-69232396D01*
X172003324Y-69111946D01*
X171994786Y-69096351D01*
X171918285Y-68994276D01*
X171905724Y-68981715D01*
X171803649Y-68905214D01*
X171788054Y-68896676D01*
X171667606Y-68851522D01*
X171652351Y-68847895D01*
X171601486Y-68842369D01*
X171594672Y-68842000D01*
X171022115Y-68842000D01*
X171006876Y-68846475D01*
X171005671Y-68847865D01*
X171004000Y-68855548D01*
X171004000Y-71527885D01*
X170496000Y-71527885D01*
X170496000Y-68860116D01*
X170491525Y-68844877D01*
X170490135Y-68843672D01*
X170482452Y-68842001D01*
X169905331Y-68842001D01*
X169898510Y-68842371D01*
X169847648Y-68847895D01*
X169832396Y-68851521D01*
X169711946Y-68896676D01*
X169696351Y-68905214D01*
X169594276Y-68981715D01*
X169581715Y-68994276D01*
X169505214Y-69096351D01*
X169496676Y-69111946D01*
X169451522Y-69232394D01*
X169447895Y-69247649D01*
X169442369Y-69298514D01*
X169442000Y-69305328D01*
X169442000Y-71527885D01*
X100650000Y-71527885D01*
X100650000Y-68626000D01*
X100670002Y-68557879D01*
X100723658Y-68511386D01*
X100776000Y-68500000D01*
X190024000Y-68500000D01*
X190092121Y-68520002D01*
G37*
%TD.AperFunction*%
%TD*%
M02*
