%TF.GenerationSoftware,KiCad,Pcbnew,(6.0.0)*%
%TF.CreationDate,2022-03-16T14:13:50+01:00*%
%TF.ProjectId,driver-board,64726976-6572-42d6-926f-6172642e6b69,rev?*%
%TF.SameCoordinates,Original*%
%TF.FileFunction,Legend,Top*%
%TF.FilePolarity,Positive*%
%FSLAX46Y46*%
G04 Gerber Fmt 4.6, Leading zero omitted, Abs format (unit mm)*
G04 Created by KiCad (PCBNEW (6.0.0)) date 2022-03-16 14:13:50*
%MOMM*%
%LPD*%
G01*
G04 APERTURE LIST*
%ADD10C,0.150000*%
%ADD11C,0.120000*%
G04 APERTURE END LIST*
D10*
X63452380Y-111547619D02*
X62976190Y-111880952D01*
X63452380Y-112119047D02*
X62452380Y-112119047D01*
X62452380Y-111738095D01*
X62500000Y-111642857D01*
X62547619Y-111595238D01*
X62642857Y-111547619D01*
X62785714Y-111547619D01*
X62880952Y-111595238D01*
X62928571Y-111642857D01*
X62976190Y-111738095D01*
X62976190Y-112119047D01*
X63404761Y-111166666D02*
X63452380Y-111023809D01*
X63452380Y-110785714D01*
X63404761Y-110690476D01*
X63357142Y-110642857D01*
X63261904Y-110595238D01*
X63166666Y-110595238D01*
X63071428Y-110642857D01*
X63023809Y-110690476D01*
X62976190Y-110785714D01*
X62928571Y-110976190D01*
X62880952Y-111071428D01*
X62833333Y-111119047D01*
X62738095Y-111166666D01*
X62642857Y-111166666D01*
X62547619Y-111119047D01*
X62500000Y-111071428D01*
X62452380Y-110976190D01*
X62452380Y-110738095D01*
X62500000Y-110595238D01*
X62452380Y-110309523D02*
X62452380Y-109738095D01*
X63452380Y-110023809D02*
X62452380Y-110023809D01*
X136323571Y-102971428D02*
X136371190Y-102828571D01*
X136418809Y-102780952D01*
X136514047Y-102733333D01*
X136656904Y-102733333D01*
X136752142Y-102780952D01*
X136799761Y-102828571D01*
X136847380Y-102923809D01*
X136847380Y-103304761D01*
X135847380Y-103304761D01*
X135847380Y-102971428D01*
X135895000Y-102876190D01*
X135942619Y-102828571D01*
X136037857Y-102780952D01*
X136133095Y-102780952D01*
X136228333Y-102828571D01*
X136275952Y-102876190D01*
X136323571Y-102971428D01*
X136323571Y-103304761D01*
X136847380Y-102304761D02*
X135847380Y-102304761D01*
X136561666Y-101876190D02*
X136561666Y-101400000D01*
X136847380Y-101971428D02*
X135847380Y-101638095D01*
X136847380Y-101304761D01*
X136799761Y-101019047D02*
X136847380Y-100876190D01*
X136847380Y-100638095D01*
X136799761Y-100542857D01*
X136752142Y-100495238D01*
X136656904Y-100447619D01*
X136561666Y-100447619D01*
X136466428Y-100495238D01*
X136418809Y-100542857D01*
X136371190Y-100638095D01*
X136323571Y-100828571D01*
X136275952Y-100923809D01*
X136228333Y-100971428D01*
X136133095Y-101019047D01*
X136037857Y-101019047D01*
X135942619Y-100971428D01*
X135895000Y-100923809D01*
X135847380Y-100828571D01*
X135847380Y-100590476D01*
X135895000Y-100447619D01*
X137457380Y-104423809D02*
X137457380Y-104233333D01*
X137505000Y-104138095D01*
X137600238Y-104042857D01*
X137790714Y-103995238D01*
X138124047Y-103995238D01*
X138314523Y-104042857D01*
X138409761Y-104138095D01*
X138457380Y-104233333D01*
X138457380Y-104423809D01*
X138409761Y-104519047D01*
X138314523Y-104614285D01*
X138124047Y-104661904D01*
X137790714Y-104661904D01*
X137600238Y-104614285D01*
X137505000Y-104519047D01*
X137457380Y-104423809D01*
X138457380Y-103566666D02*
X137457380Y-103566666D01*
X138457380Y-102995238D01*
X137457380Y-102995238D01*
X137409761Y-101804761D02*
X138695476Y-102661904D01*
X137457380Y-101280952D02*
X137457380Y-101090476D01*
X137505000Y-100995238D01*
X137600238Y-100900000D01*
X137790714Y-100852380D01*
X138124047Y-100852380D01*
X138314523Y-100900000D01*
X138409761Y-100995238D01*
X138457380Y-101090476D01*
X138457380Y-101280952D01*
X138409761Y-101376190D01*
X138314523Y-101471428D01*
X138124047Y-101519047D01*
X137790714Y-101519047D01*
X137600238Y-101471428D01*
X137505000Y-101376190D01*
X137457380Y-101280952D01*
X137933571Y-100090476D02*
X137933571Y-100423809D01*
X138457380Y-100423809D02*
X137457380Y-100423809D01*
X137457380Y-99947619D01*
X137933571Y-99233333D02*
X137933571Y-99566666D01*
X138457380Y-99566666D02*
X137457380Y-99566666D01*
X137457380Y-99090476D01*
%TO.C,C14*%
X101457142Y-117757142D02*
X101409523Y-117804761D01*
X101266666Y-117852380D01*
X101171428Y-117852380D01*
X101028571Y-117804761D01*
X100933333Y-117709523D01*
X100885714Y-117614285D01*
X100838095Y-117423809D01*
X100838095Y-117280952D01*
X100885714Y-117090476D01*
X100933333Y-116995238D01*
X101028571Y-116900000D01*
X101171428Y-116852380D01*
X101266666Y-116852380D01*
X101409523Y-116900000D01*
X101457142Y-116947619D01*
X102409523Y-117852380D02*
X101838095Y-117852380D01*
X102123809Y-117852380D02*
X102123809Y-116852380D01*
X102028571Y-116995238D01*
X101933333Y-117090476D01*
X101838095Y-117138095D01*
X103266666Y-117185714D02*
X103266666Y-117852380D01*
X103028571Y-116804761D02*
X102790476Y-117519047D01*
X103409523Y-117519047D01*
%TO.C,C10*%
X121357142Y-104642857D02*
X121404761Y-104690476D01*
X121452380Y-104833333D01*
X121452380Y-104928571D01*
X121404761Y-105071428D01*
X121309523Y-105166666D01*
X121214285Y-105214285D01*
X121023809Y-105261904D01*
X120880952Y-105261904D01*
X120690476Y-105214285D01*
X120595238Y-105166666D01*
X120500000Y-105071428D01*
X120452380Y-104928571D01*
X120452380Y-104833333D01*
X120500000Y-104690476D01*
X120547619Y-104642857D01*
X121452380Y-103690476D02*
X121452380Y-104261904D01*
X121452380Y-103976190D02*
X120452380Y-103976190D01*
X120595238Y-104071428D01*
X120690476Y-104166666D01*
X120738095Y-104261904D01*
X120452380Y-103071428D02*
X120452380Y-102976190D01*
X120500000Y-102880952D01*
X120547619Y-102833333D01*
X120642857Y-102785714D01*
X120833333Y-102738095D01*
X121071428Y-102738095D01*
X121261904Y-102785714D01*
X121357142Y-102833333D01*
X121404761Y-102880952D01*
X121452380Y-102976190D01*
X121452380Y-103071428D01*
X121404761Y-103166666D01*
X121357142Y-103214285D01*
X121261904Y-103261904D01*
X121071428Y-103309523D01*
X120833333Y-103309523D01*
X120642857Y-103261904D01*
X120547619Y-103214285D01*
X120500000Y-103166666D01*
X120452380Y-103071428D01*
%TO.C,R7*%
X107958813Y-108302380D02*
X107625480Y-107826190D01*
X107387384Y-108302380D02*
X107387384Y-107302380D01*
X107768337Y-107302380D01*
X107863575Y-107350000D01*
X107911194Y-107397619D01*
X107958813Y-107492857D01*
X107958813Y-107635714D01*
X107911194Y-107730952D01*
X107863575Y-107778571D01*
X107768337Y-107826190D01*
X107387384Y-107826190D01*
X108292146Y-107302380D02*
X108958813Y-107302380D01*
X108530241Y-108302380D01*
%TO.C,R4*%
X99102380Y-125466666D02*
X98626190Y-125800000D01*
X99102380Y-126038095D02*
X98102380Y-126038095D01*
X98102380Y-125657142D01*
X98150000Y-125561904D01*
X98197619Y-125514285D01*
X98292857Y-125466666D01*
X98435714Y-125466666D01*
X98530952Y-125514285D01*
X98578571Y-125561904D01*
X98626190Y-125657142D01*
X98626190Y-126038095D01*
X98435714Y-124609523D02*
X99102380Y-124609523D01*
X98054761Y-124847619D02*
X98769047Y-125085714D01*
X98769047Y-124466666D01*
%TO.C,C16*%
X93857142Y-122157142D02*
X93809523Y-122204761D01*
X93666666Y-122252380D01*
X93571428Y-122252380D01*
X93428571Y-122204761D01*
X93333333Y-122109523D01*
X93285714Y-122014285D01*
X93238095Y-121823809D01*
X93238095Y-121680952D01*
X93285714Y-121490476D01*
X93333333Y-121395238D01*
X93428571Y-121300000D01*
X93571428Y-121252380D01*
X93666666Y-121252380D01*
X93809523Y-121300000D01*
X93857142Y-121347619D01*
X94809523Y-122252380D02*
X94238095Y-122252380D01*
X94523809Y-122252380D02*
X94523809Y-121252380D01*
X94428571Y-121395238D01*
X94333333Y-121490476D01*
X94238095Y-121538095D01*
X95666666Y-121252380D02*
X95476190Y-121252380D01*
X95380952Y-121300000D01*
X95333333Y-121347619D01*
X95238095Y-121490476D01*
X95190476Y-121680952D01*
X95190476Y-122061904D01*
X95238095Y-122157142D01*
X95285714Y-122204761D01*
X95380952Y-122252380D01*
X95571428Y-122252380D01*
X95666666Y-122204761D01*
X95714285Y-122157142D01*
X95761904Y-122061904D01*
X95761904Y-121823809D01*
X95714285Y-121728571D01*
X95666666Y-121680952D01*
X95571428Y-121633333D01*
X95380952Y-121633333D01*
X95285714Y-121680952D01*
X95238095Y-121728571D01*
X95190476Y-121823809D01*
%TO.C,C3*%
X116037142Y-85066666D02*
X116084761Y-85114285D01*
X116132380Y-85257142D01*
X116132380Y-85352380D01*
X116084761Y-85495238D01*
X115989523Y-85590476D01*
X115894285Y-85638095D01*
X115703809Y-85685714D01*
X115560952Y-85685714D01*
X115370476Y-85638095D01*
X115275238Y-85590476D01*
X115180000Y-85495238D01*
X115132380Y-85352380D01*
X115132380Y-85257142D01*
X115180000Y-85114285D01*
X115227619Y-85066666D01*
X115132380Y-84733333D02*
X115132380Y-84114285D01*
X115513333Y-84447619D01*
X115513333Y-84304761D01*
X115560952Y-84209523D01*
X115608571Y-84161904D01*
X115703809Y-84114285D01*
X115941904Y-84114285D01*
X116037142Y-84161904D01*
X116084761Y-84209523D01*
X116132380Y-84304761D01*
X116132380Y-84590476D01*
X116084761Y-84685714D01*
X116037142Y-84733333D01*
%TO.C,L1*%
X96733333Y-110752380D02*
X96257142Y-110752380D01*
X96257142Y-109752380D01*
X97590476Y-110752380D02*
X97019047Y-110752380D01*
X97304761Y-110752380D02*
X97304761Y-109752380D01*
X97209523Y-109895238D01*
X97114285Y-109990476D01*
X97019047Y-110038095D01*
%TO.C,C13*%
X99357142Y-107677142D02*
X99309523Y-107724761D01*
X99166666Y-107772380D01*
X99071428Y-107772380D01*
X98928571Y-107724761D01*
X98833333Y-107629523D01*
X98785714Y-107534285D01*
X98738095Y-107343809D01*
X98738095Y-107200952D01*
X98785714Y-107010476D01*
X98833333Y-106915238D01*
X98928571Y-106820000D01*
X99071428Y-106772380D01*
X99166666Y-106772380D01*
X99309523Y-106820000D01*
X99357142Y-106867619D01*
X100309523Y-107772380D02*
X99738095Y-107772380D01*
X100023809Y-107772380D02*
X100023809Y-106772380D01*
X99928571Y-106915238D01*
X99833333Y-107010476D01*
X99738095Y-107058095D01*
X100642857Y-106772380D02*
X101261904Y-106772380D01*
X100928571Y-107153333D01*
X101071428Y-107153333D01*
X101166666Y-107200952D01*
X101214285Y-107248571D01*
X101261904Y-107343809D01*
X101261904Y-107581904D01*
X101214285Y-107677142D01*
X101166666Y-107724761D01*
X101071428Y-107772380D01*
X100785714Y-107772380D01*
X100690476Y-107724761D01*
X100642857Y-107677142D01*
%TO.C,R1*%
X117202380Y-83166666D02*
X116726190Y-83500000D01*
X117202380Y-83738095D02*
X116202380Y-83738095D01*
X116202380Y-83357142D01*
X116250000Y-83261904D01*
X116297619Y-83214285D01*
X116392857Y-83166666D01*
X116535714Y-83166666D01*
X116630952Y-83214285D01*
X116678571Y-83261904D01*
X116726190Y-83357142D01*
X116726190Y-83738095D01*
X117202380Y-82214285D02*
X117202380Y-82785714D01*
X117202380Y-82500000D02*
X116202380Y-82500000D01*
X116345238Y-82595238D01*
X116440476Y-82690476D01*
X116488095Y-82785714D01*
%TO.C,C1*%
X100419642Y-76066666D02*
X100467261Y-76114285D01*
X100514880Y-76257142D01*
X100514880Y-76352380D01*
X100467261Y-76495238D01*
X100372023Y-76590476D01*
X100276785Y-76638095D01*
X100086309Y-76685714D01*
X99943452Y-76685714D01*
X99752976Y-76638095D01*
X99657738Y-76590476D01*
X99562500Y-76495238D01*
X99514880Y-76352380D01*
X99514880Y-76257142D01*
X99562500Y-76114285D01*
X99610119Y-76066666D01*
X100514880Y-75114285D02*
X100514880Y-75685714D01*
X100514880Y-75400000D02*
X99514880Y-75400000D01*
X99657738Y-75495238D01*
X99752976Y-75590476D01*
X99800595Y-75685714D01*
%TO.C,C6*%
X118757142Y-99129166D02*
X118804761Y-99176785D01*
X118852380Y-99319642D01*
X118852380Y-99414880D01*
X118804761Y-99557738D01*
X118709523Y-99652976D01*
X118614285Y-99700595D01*
X118423809Y-99748214D01*
X118280952Y-99748214D01*
X118090476Y-99700595D01*
X117995238Y-99652976D01*
X117900000Y-99557738D01*
X117852380Y-99414880D01*
X117852380Y-99319642D01*
X117900000Y-99176785D01*
X117947619Y-99129166D01*
X117852380Y-98272023D02*
X117852380Y-98462500D01*
X117900000Y-98557738D01*
X117947619Y-98605357D01*
X118090476Y-98700595D01*
X118280952Y-98748214D01*
X118661904Y-98748214D01*
X118757142Y-98700595D01*
X118804761Y-98652976D01*
X118852380Y-98557738D01*
X118852380Y-98367261D01*
X118804761Y-98272023D01*
X118757142Y-98224404D01*
X118661904Y-98176785D01*
X118423809Y-98176785D01*
X118328571Y-98224404D01*
X118280952Y-98272023D01*
X118233333Y-98367261D01*
X118233333Y-98557738D01*
X118280952Y-98652976D01*
X118328571Y-98700595D01*
X118423809Y-98748214D01*
%TO.C,C2*%
X112833333Y-73557142D02*
X112785714Y-73604761D01*
X112642857Y-73652380D01*
X112547619Y-73652380D01*
X112404761Y-73604761D01*
X112309523Y-73509523D01*
X112261904Y-73414285D01*
X112214285Y-73223809D01*
X112214285Y-73080952D01*
X112261904Y-72890476D01*
X112309523Y-72795238D01*
X112404761Y-72700000D01*
X112547619Y-72652380D01*
X112642857Y-72652380D01*
X112785714Y-72700000D01*
X112833333Y-72747619D01*
X113214285Y-72747619D02*
X113261904Y-72700000D01*
X113357142Y-72652380D01*
X113595238Y-72652380D01*
X113690476Y-72700000D01*
X113738095Y-72747619D01*
X113785714Y-72842857D01*
X113785714Y-72938095D01*
X113738095Y-73080952D01*
X113166666Y-73652380D01*
X113785714Y-73652380D01*
%TO.C,U2*%
X106138095Y-72852380D02*
X106138095Y-73661904D01*
X106185714Y-73757142D01*
X106233333Y-73804761D01*
X106328571Y-73852380D01*
X106519047Y-73852380D01*
X106614285Y-73804761D01*
X106661904Y-73757142D01*
X106709523Y-73661904D01*
X106709523Y-72852380D01*
X107138095Y-72947619D02*
X107185714Y-72900000D01*
X107280952Y-72852380D01*
X107519047Y-72852380D01*
X107614285Y-72900000D01*
X107661904Y-72947619D01*
X107709523Y-73042857D01*
X107709523Y-73138095D01*
X107661904Y-73280952D01*
X107090476Y-73852380D01*
X107709523Y-73852380D01*
%TO.C,C9*%
X112833333Y-77177142D02*
X112785714Y-77224761D01*
X112642857Y-77272380D01*
X112547619Y-77272380D01*
X112404761Y-77224761D01*
X112309523Y-77129523D01*
X112261904Y-77034285D01*
X112214285Y-76843809D01*
X112214285Y-76700952D01*
X112261904Y-76510476D01*
X112309523Y-76415238D01*
X112404761Y-76320000D01*
X112547619Y-76272380D01*
X112642857Y-76272380D01*
X112785714Y-76320000D01*
X112833333Y-76367619D01*
X113309523Y-77272380D02*
X113500000Y-77272380D01*
X113595238Y-77224761D01*
X113642857Y-77177142D01*
X113738095Y-77034285D01*
X113785714Y-76843809D01*
X113785714Y-76462857D01*
X113738095Y-76367619D01*
X113690476Y-76320000D01*
X113595238Y-76272380D01*
X113404761Y-76272380D01*
X113309523Y-76320000D01*
X113261904Y-76367619D01*
X113214285Y-76462857D01*
X113214285Y-76700952D01*
X113261904Y-76796190D01*
X113309523Y-76843809D01*
X113404761Y-76891428D01*
X113595238Y-76891428D01*
X113690476Y-76843809D01*
X113738095Y-76796190D01*
X113785714Y-76700952D01*
%TO.C,RV2*%
X116447619Y-120304761D02*
X116923809Y-119971428D01*
X116447619Y-119733333D02*
X117447619Y-119733333D01*
X117447619Y-120114285D01*
X117400000Y-120209523D01*
X117352380Y-120257142D01*
X117257142Y-120304761D01*
X117114285Y-120304761D01*
X117019047Y-120257142D01*
X116971428Y-120209523D01*
X116923809Y-120114285D01*
X116923809Y-119733333D01*
X117447619Y-120590476D02*
X116447619Y-120923809D01*
X117447619Y-121257142D01*
X117352380Y-121542857D02*
X117400000Y-121590476D01*
X117447619Y-121685714D01*
X117447619Y-121923809D01*
X117400000Y-122019047D01*
X117352380Y-122066666D01*
X117257142Y-122114285D01*
X117161904Y-122114285D01*
X117019047Y-122066666D01*
X116447619Y-121495238D01*
X116447619Y-122114285D01*
%TO.C,TP4*%
X97354507Y-90503792D02*
X97925935Y-90503792D01*
X97640221Y-91503792D02*
X97640221Y-90503792D01*
X98259269Y-91503792D02*
X98259269Y-90503792D01*
X98640221Y-90503792D01*
X98735459Y-90551412D01*
X98783078Y-90599031D01*
X98830697Y-90694269D01*
X98830697Y-90837126D01*
X98783078Y-90932364D01*
X98735459Y-90979983D01*
X98640221Y-91027602D01*
X98259269Y-91027602D01*
X99687840Y-90837126D02*
X99687840Y-91503792D01*
X99449745Y-90456173D02*
X99211650Y-91170459D01*
X99830697Y-91170459D01*
%TO.C,C11*%
X123357142Y-118357142D02*
X123309523Y-118404761D01*
X123166666Y-118452380D01*
X123071428Y-118452380D01*
X122928571Y-118404761D01*
X122833333Y-118309523D01*
X122785714Y-118214285D01*
X122738095Y-118023809D01*
X122738095Y-117880952D01*
X122785714Y-117690476D01*
X122833333Y-117595238D01*
X122928571Y-117500000D01*
X123071428Y-117452380D01*
X123166666Y-117452380D01*
X123309523Y-117500000D01*
X123357142Y-117547619D01*
X124309523Y-118452380D02*
X123738095Y-118452380D01*
X124023809Y-118452380D02*
X124023809Y-117452380D01*
X123928571Y-117595238D01*
X123833333Y-117690476D01*
X123738095Y-117738095D01*
X125261904Y-118452380D02*
X124690476Y-118452380D01*
X124976190Y-118452380D02*
X124976190Y-117452380D01*
X124880952Y-117595238D01*
X124785714Y-117690476D01*
X124690476Y-117738095D01*
%TO.C,L2*%
X103252380Y-121366666D02*
X103252380Y-121842857D01*
X102252380Y-121842857D01*
X102347619Y-121080952D02*
X102300000Y-121033333D01*
X102252380Y-120938095D01*
X102252380Y-120700000D01*
X102300000Y-120604761D01*
X102347619Y-120557142D01*
X102442857Y-120509523D01*
X102538095Y-120509523D01*
X102680952Y-120557142D01*
X103252380Y-121128571D01*
X103252380Y-120509523D01*
%TO.C,TP7*%
X115538095Y-110352380D02*
X116109523Y-110352380D01*
X115823809Y-111352380D02*
X115823809Y-110352380D01*
X116442857Y-111352380D02*
X116442857Y-110352380D01*
X116823809Y-110352380D01*
X116919047Y-110400000D01*
X116966666Y-110447619D01*
X117014285Y-110542857D01*
X117014285Y-110685714D01*
X116966666Y-110780952D01*
X116919047Y-110828571D01*
X116823809Y-110876190D01*
X116442857Y-110876190D01*
X117347619Y-110352380D02*
X118014285Y-110352380D01*
X117585714Y-111352380D01*
%TO.C,J1*%
X93691665Y-99659880D02*
X93691665Y-100374166D01*
X93644046Y-100517023D01*
X93548808Y-100612261D01*
X93405951Y-100659880D01*
X93310713Y-100659880D01*
X94691665Y-100659880D02*
X94120237Y-100659880D01*
X94405951Y-100659880D02*
X94405951Y-99659880D01*
X94310713Y-99802738D01*
X94215475Y-99897976D01*
X94120237Y-99945595D01*
%TO.C,C12*%
X129457142Y-123757142D02*
X129409523Y-123804761D01*
X129266666Y-123852380D01*
X129171428Y-123852380D01*
X129028571Y-123804761D01*
X128933333Y-123709523D01*
X128885714Y-123614285D01*
X128838095Y-123423809D01*
X128838095Y-123280952D01*
X128885714Y-123090476D01*
X128933333Y-122995238D01*
X129028571Y-122900000D01*
X129171428Y-122852380D01*
X129266666Y-122852380D01*
X129409523Y-122900000D01*
X129457142Y-122947619D01*
X130409523Y-123852380D02*
X129838095Y-123852380D01*
X130123809Y-123852380D02*
X130123809Y-122852380D01*
X130028571Y-122995238D01*
X129933333Y-123090476D01*
X129838095Y-123138095D01*
X130790476Y-122947619D02*
X130838095Y-122900000D01*
X130933333Y-122852380D01*
X131171428Y-122852380D01*
X131266666Y-122900000D01*
X131314285Y-122947619D01*
X131361904Y-123042857D01*
X131361904Y-123138095D01*
X131314285Y-123280952D01*
X130742857Y-123852380D01*
X131361904Y-123852380D01*
%TO.C,J3*%
X62641666Y-97624880D02*
X62641666Y-98339166D01*
X62594047Y-98482023D01*
X62498809Y-98577261D01*
X62355952Y-98624880D01*
X62260714Y-98624880D01*
X63022619Y-97624880D02*
X63641666Y-97624880D01*
X63308333Y-98005833D01*
X63451190Y-98005833D01*
X63546428Y-98053452D01*
X63594047Y-98101071D01*
X63641666Y-98196309D01*
X63641666Y-98434404D01*
X63594047Y-98529642D01*
X63546428Y-98577261D01*
X63451190Y-98624880D01*
X63165476Y-98624880D01*
X63070238Y-98577261D01*
X63022619Y-98529642D01*
%TO.C,R6*%
X104833333Y-108852380D02*
X104500000Y-108376190D01*
X104261904Y-108852380D02*
X104261904Y-107852380D01*
X104642857Y-107852380D01*
X104738095Y-107900000D01*
X104785714Y-107947619D01*
X104833333Y-108042857D01*
X104833333Y-108185714D01*
X104785714Y-108280952D01*
X104738095Y-108328571D01*
X104642857Y-108376190D01*
X104261904Y-108376190D01*
X105690476Y-107852380D02*
X105500000Y-107852380D01*
X105404761Y-107900000D01*
X105357142Y-107947619D01*
X105261904Y-108090476D01*
X105214285Y-108280952D01*
X105214285Y-108661904D01*
X105261904Y-108757142D01*
X105309523Y-108804761D01*
X105404761Y-108852380D01*
X105595238Y-108852380D01*
X105690476Y-108804761D01*
X105738095Y-108757142D01*
X105785714Y-108661904D01*
X105785714Y-108423809D01*
X105738095Y-108328571D01*
X105690476Y-108280952D01*
X105595238Y-108233333D01*
X105404761Y-108233333D01*
X105309523Y-108280952D01*
X105261904Y-108328571D01*
X105214285Y-108423809D01*
%TO.C,TP1*%
X94538095Y-79452380D02*
X95109523Y-79452380D01*
X94823809Y-80452380D02*
X94823809Y-79452380D01*
X95442857Y-80452380D02*
X95442857Y-79452380D01*
X95823809Y-79452380D01*
X95919047Y-79500000D01*
X95966666Y-79547619D01*
X96014285Y-79642857D01*
X96014285Y-79785714D01*
X95966666Y-79880952D01*
X95919047Y-79928571D01*
X95823809Y-79976190D01*
X95442857Y-79976190D01*
X96966666Y-80452380D02*
X96395238Y-80452380D01*
X96680952Y-80452380D02*
X96680952Y-79452380D01*
X96585714Y-79595238D01*
X96490476Y-79690476D01*
X96395238Y-79738095D01*
%TO.C,RN1*%
X99209523Y-82752380D02*
X98876190Y-82276190D01*
X98638095Y-82752380D02*
X98638095Y-81752380D01*
X99019047Y-81752380D01*
X99114285Y-81800000D01*
X99161904Y-81847619D01*
X99209523Y-81942857D01*
X99209523Y-82085714D01*
X99161904Y-82180952D01*
X99114285Y-82228571D01*
X99019047Y-82276190D01*
X98638095Y-82276190D01*
X99638095Y-82752380D02*
X99638095Y-81752380D01*
X100209523Y-82752380D01*
X100209523Y-81752380D01*
X101209523Y-82752380D02*
X100638095Y-82752380D01*
X100923809Y-82752380D02*
X100923809Y-81752380D01*
X100828571Y-81895238D01*
X100733333Y-81990476D01*
X100638095Y-82038095D01*
%TO.C,U4*%
X102338095Y-95152380D02*
X102338095Y-95961904D01*
X102385714Y-96057142D01*
X102433333Y-96104761D01*
X102528571Y-96152380D01*
X102719047Y-96152380D01*
X102814285Y-96104761D01*
X102861904Y-96057142D01*
X102909523Y-95961904D01*
X102909523Y-95152380D01*
X103814285Y-95485714D02*
X103814285Y-96152380D01*
X103576190Y-95104761D02*
X103338095Y-95819047D01*
X103957142Y-95819047D01*
%TO.C,R8*%
X110333333Y-108852380D02*
X110000000Y-108376190D01*
X109761904Y-108852380D02*
X109761904Y-107852380D01*
X110142857Y-107852380D01*
X110238095Y-107900000D01*
X110285714Y-107947619D01*
X110333333Y-108042857D01*
X110333333Y-108185714D01*
X110285714Y-108280952D01*
X110238095Y-108328571D01*
X110142857Y-108376190D01*
X109761904Y-108376190D01*
X110904761Y-108280952D02*
X110809523Y-108233333D01*
X110761904Y-108185714D01*
X110714285Y-108090476D01*
X110714285Y-108042857D01*
X110761904Y-107947619D01*
X110809523Y-107900000D01*
X110904761Y-107852380D01*
X111095238Y-107852380D01*
X111190476Y-107900000D01*
X111238095Y-107947619D01*
X111285714Y-108042857D01*
X111285714Y-108090476D01*
X111238095Y-108185714D01*
X111190476Y-108233333D01*
X111095238Y-108280952D01*
X110904761Y-108280952D01*
X110809523Y-108328571D01*
X110761904Y-108376190D01*
X110714285Y-108471428D01*
X110714285Y-108661904D01*
X110761904Y-108757142D01*
X110809523Y-108804761D01*
X110904761Y-108852380D01*
X111095238Y-108852380D01*
X111190476Y-108804761D01*
X111238095Y-108757142D01*
X111285714Y-108661904D01*
X111285714Y-108471428D01*
X111238095Y-108376190D01*
X111190476Y-108328571D01*
X111095238Y-108280952D01*
%TO.C,JP1*%
X97452380Y-101433333D02*
X98166666Y-101433333D01*
X98309523Y-101480952D01*
X98404761Y-101576190D01*
X98452380Y-101719047D01*
X98452380Y-101814285D01*
X98452380Y-100957142D02*
X97452380Y-100957142D01*
X97452380Y-100576190D01*
X97500000Y-100480952D01*
X97547619Y-100433333D01*
X97642857Y-100385714D01*
X97785714Y-100385714D01*
X97880952Y-100433333D01*
X97928571Y-100480952D01*
X97976190Y-100576190D01*
X97976190Y-100957142D01*
X98452380Y-99433333D02*
X98452380Y-100004761D01*
X98452380Y-99719047D02*
X97452380Y-99719047D01*
X97595238Y-99814285D01*
X97690476Y-99909523D01*
X97738095Y-100004761D01*
%TO.C,R2*%
X111652380Y-99066666D02*
X111176190Y-99400000D01*
X111652380Y-99638095D02*
X110652380Y-99638095D01*
X110652380Y-99257142D01*
X110700000Y-99161904D01*
X110747619Y-99114285D01*
X110842857Y-99066666D01*
X110985714Y-99066666D01*
X111080952Y-99114285D01*
X111128571Y-99161904D01*
X111176190Y-99257142D01*
X111176190Y-99638095D01*
X110747619Y-98685714D02*
X110700000Y-98638095D01*
X110652380Y-98542857D01*
X110652380Y-98304761D01*
X110700000Y-98209523D01*
X110747619Y-98161904D01*
X110842857Y-98114285D01*
X110938095Y-98114285D01*
X111080952Y-98161904D01*
X111652380Y-98733333D01*
X111652380Y-98114285D01*
%TO.C,U1*%
X77690595Y-98654880D02*
X77690595Y-99464404D01*
X77738214Y-99559642D01*
X77785833Y-99607261D01*
X77881071Y-99654880D01*
X78071547Y-99654880D01*
X78166785Y-99607261D01*
X78214404Y-99559642D01*
X78262023Y-99464404D01*
X78262023Y-98654880D01*
X79262023Y-99654880D02*
X78690595Y-99654880D01*
X78976309Y-99654880D02*
X78976309Y-98654880D01*
X78881071Y-98797738D01*
X78785833Y-98892976D01*
X78690595Y-98940595D01*
X91290875Y-101145935D02*
X90832939Y-101065122D01*
X90967626Y-101469183D02*
X90401941Y-100903498D01*
X90617440Y-100687999D01*
X90698252Y-100661061D01*
X90752127Y-100661061D01*
X90832939Y-100687999D01*
X90913751Y-100768811D01*
X90940689Y-100849623D01*
X90940689Y-100903498D01*
X90913751Y-100984310D01*
X90698252Y-101199809D01*
X90967626Y-100337812D02*
X91425562Y-100795748D01*
X91506374Y-100822686D01*
X91560249Y-100822686D01*
X91641061Y-100795748D01*
X91748811Y-100687999D01*
X91775748Y-100607187D01*
X91775748Y-100553312D01*
X91748811Y-100472500D01*
X91290875Y-100014564D01*
X92125935Y-100310875D02*
X91560249Y-99745190D01*
X92449183Y-99987626D01*
X91883498Y-99421941D01*
X64938658Y-80300655D02*
X64857846Y-80327593D01*
X64777034Y-80408405D01*
X64723159Y-80516154D01*
X64723159Y-80623904D01*
X64750097Y-80704716D01*
X64830909Y-80839403D01*
X64911721Y-80920215D01*
X65046408Y-81001028D01*
X65127220Y-81027965D01*
X65234970Y-81027965D01*
X65342719Y-80974090D01*
X65396594Y-80920215D01*
X65450469Y-80812466D01*
X65450469Y-80758591D01*
X65261907Y-80570029D01*
X65154158Y-80677779D01*
X65746780Y-80570029D02*
X65181095Y-80004344D01*
X66070029Y-80246780D01*
X65504344Y-79681095D01*
X66339403Y-79977406D02*
X65773718Y-79411721D01*
X65908405Y-79277034D01*
X66016154Y-79223159D01*
X66123904Y-79223159D01*
X66204716Y-79250097D01*
X66339403Y-79330909D01*
X66420215Y-79411721D01*
X66501028Y-79546408D01*
X66527965Y-79627220D01*
X66527965Y-79734970D01*
X66474090Y-79842719D01*
X66339403Y-79977406D01*
X90538658Y-80300655D02*
X90457846Y-80327593D01*
X90377034Y-80408405D01*
X90323159Y-80516154D01*
X90323159Y-80623904D01*
X90350097Y-80704716D01*
X90430909Y-80839403D01*
X90511721Y-80920215D01*
X90646408Y-81001028D01*
X90727220Y-81027965D01*
X90834970Y-81027965D01*
X90942719Y-80974090D01*
X90996594Y-80920215D01*
X91050469Y-80812466D01*
X91050469Y-80758591D01*
X90861907Y-80570029D01*
X90754158Y-80677779D01*
X91346780Y-80570029D02*
X90781095Y-80004344D01*
X91670029Y-80246780D01*
X91104344Y-79681095D01*
X91939403Y-79977406D02*
X91373718Y-79411721D01*
X91508405Y-79277034D01*
X91616154Y-79223159D01*
X91723904Y-79223159D01*
X91804716Y-79250097D01*
X91939403Y-79330909D01*
X92020215Y-79411721D01*
X92101028Y-79546408D01*
X92127965Y-79627220D01*
X92127965Y-79734970D01*
X92074090Y-79842719D01*
X91939403Y-79977406D01*
X64938658Y-93000655D02*
X64857846Y-93027593D01*
X64777034Y-93108405D01*
X64723159Y-93216154D01*
X64723159Y-93323904D01*
X64750097Y-93404716D01*
X64830909Y-93539403D01*
X64911721Y-93620215D01*
X65046408Y-93701028D01*
X65127220Y-93727965D01*
X65234970Y-93727965D01*
X65342719Y-93674090D01*
X65396594Y-93620215D01*
X65450469Y-93512466D01*
X65450469Y-93458591D01*
X65261907Y-93270029D01*
X65154158Y-93377779D01*
X65746780Y-93270029D02*
X65181095Y-92704344D01*
X66070029Y-92946780D01*
X65504344Y-92381095D01*
X66339403Y-92677406D02*
X65773718Y-92111721D01*
X65908405Y-91977034D01*
X66016154Y-91923159D01*
X66123904Y-91923159D01*
X66204716Y-91950097D01*
X66339403Y-92030909D01*
X66420215Y-92111721D01*
X66501028Y-92246408D01*
X66527965Y-92327220D01*
X66527965Y-92434970D01*
X66474090Y-92542719D01*
X66339403Y-92677406D01*
X90343722Y-108493092D02*
X90262910Y-108520029D01*
X90182097Y-108600841D01*
X90128223Y-108708591D01*
X90128223Y-108816341D01*
X90155160Y-108897153D01*
X90235972Y-109031840D01*
X90316784Y-109112652D01*
X90451471Y-109193464D01*
X90532284Y-109220402D01*
X90640033Y-109220402D01*
X90747783Y-109166527D01*
X90801658Y-109112652D01*
X90855532Y-109004902D01*
X90855532Y-108951028D01*
X90666971Y-108762466D01*
X90559221Y-108870215D01*
X91151844Y-108762466D02*
X90586158Y-108196780D01*
X90801658Y-107981281D01*
X90882470Y-107954344D01*
X90936345Y-107954344D01*
X91017157Y-107981281D01*
X91097969Y-108062093D01*
X91124906Y-108142906D01*
X91124906Y-108196780D01*
X91097969Y-108277593D01*
X90882470Y-108493092D01*
X91178781Y-107711907D02*
X91178781Y-107658032D01*
X91205719Y-107577220D01*
X91340406Y-107442533D01*
X91421218Y-107415596D01*
X91475093Y-107415596D01*
X91555905Y-107442533D01*
X91609780Y-107496408D01*
X91663654Y-107604158D01*
X91663654Y-108250655D01*
X92013841Y-107900469D01*
X92552589Y-107361721D02*
X92229340Y-107684970D01*
X92390964Y-107523345D02*
X91825279Y-106957660D01*
X91852216Y-107092347D01*
X91852216Y-107200097D01*
X91825279Y-107280909D01*
X90604097Y-93943464D02*
X90873471Y-93674090D01*
X90711846Y-94158963D02*
X90334723Y-93404716D01*
X91088970Y-93781840D01*
X91035095Y-92758219D02*
X90954283Y-92785156D01*
X90873471Y-92865968D01*
X90819596Y-92973718D01*
X90819596Y-93081467D01*
X90846533Y-93162280D01*
X90927345Y-93296967D01*
X91008158Y-93377779D01*
X91142845Y-93458591D01*
X91223657Y-93485528D01*
X91331406Y-93485528D01*
X91439156Y-93431654D01*
X91493031Y-93377779D01*
X91546906Y-93270029D01*
X91546906Y-93216154D01*
X91358344Y-93027593D01*
X91250594Y-93135342D01*
X91843217Y-93027593D02*
X91277532Y-92461907D01*
X92166466Y-92704344D01*
X91600780Y-92138658D01*
X92435840Y-92434970D02*
X91870154Y-91869284D01*
X92004841Y-91734597D01*
X92112591Y-91680723D01*
X92220341Y-91680723D01*
X92301153Y-91707660D01*
X92435840Y-91788472D01*
X92516652Y-91869284D01*
X92597464Y-92003971D01*
X92624402Y-92084784D01*
X92624402Y-92192533D01*
X92570527Y-92300283D01*
X92435840Y-92434970D01*
X70942976Y-125726309D02*
X71057261Y-125764404D01*
X71247738Y-125764404D01*
X71323928Y-125726309D01*
X71362023Y-125688214D01*
X71400119Y-125612023D01*
X71400119Y-125535833D01*
X71362023Y-125459642D01*
X71323928Y-125421547D01*
X71247738Y-125383452D01*
X71095357Y-125345357D01*
X71019166Y-125307261D01*
X70981071Y-125269166D01*
X70942976Y-125192976D01*
X70942976Y-125116785D01*
X70981071Y-125040595D01*
X71019166Y-125002500D01*
X71095357Y-124964404D01*
X71285833Y-124964404D01*
X71400119Y-125002500D01*
X71666785Y-124964404D02*
X71857261Y-125764404D01*
X72009642Y-125192976D01*
X72162023Y-125764404D01*
X72352500Y-124964404D01*
X73114404Y-125688214D02*
X73076309Y-125726309D01*
X72962023Y-125764404D01*
X72885833Y-125764404D01*
X72771547Y-125726309D01*
X72695357Y-125650119D01*
X72657261Y-125573928D01*
X72619166Y-125421547D01*
X72619166Y-125307261D01*
X72657261Y-125154880D01*
X72695357Y-125078690D01*
X72771547Y-125002500D01*
X72885833Y-124964404D01*
X72962023Y-124964404D01*
X73076309Y-125002500D01*
X73114404Y-125040595D01*
X73838214Y-125764404D02*
X73457261Y-125764404D01*
X73457261Y-124964404D01*
X74104880Y-125764404D02*
X74104880Y-124964404D01*
X74562023Y-125764404D02*
X74219166Y-125307261D01*
X74562023Y-124964404D02*
X74104880Y-125421547D01*
X90405629Y-75729809D02*
X91159877Y-76106933D01*
X90782753Y-75352686D01*
X91429251Y-75244936D02*
X91537000Y-75191061D01*
X91590875Y-75191061D01*
X91671687Y-75217999D01*
X91752499Y-75298811D01*
X91779437Y-75379623D01*
X91779437Y-75433498D01*
X91752500Y-75514310D01*
X91537000Y-75729809D01*
X90971315Y-75164124D01*
X91159877Y-74975562D01*
X91240689Y-74948625D01*
X91294564Y-74948625D01*
X91375376Y-74975562D01*
X91429251Y-75029437D01*
X91456188Y-75110249D01*
X91456188Y-75164124D01*
X91429251Y-75244936D01*
X91240689Y-75433498D01*
X91537000Y-74598438D02*
X91994936Y-75056374D01*
X92075748Y-75083312D01*
X92129623Y-75083312D01*
X92210435Y-75056374D01*
X92318185Y-74948625D01*
X92345122Y-74867812D01*
X92345122Y-74813938D01*
X92318185Y-74733125D01*
X91860249Y-74275190D01*
X92641434Y-74571501D02*
X92749183Y-74517626D01*
X92883870Y-74382939D01*
X92910808Y-74302127D01*
X92910808Y-74248252D01*
X92883870Y-74167440D01*
X92829996Y-74113565D01*
X92749183Y-74086628D01*
X92695309Y-74086628D01*
X92614496Y-74113565D01*
X92479809Y-74194377D01*
X92398997Y-74221315D01*
X92345122Y-74221315D01*
X92264310Y-74194377D01*
X92210435Y-74140503D01*
X92183498Y-74059690D01*
X92183498Y-74005816D01*
X92210435Y-73925003D01*
X92345122Y-73790316D01*
X92452872Y-73736442D01*
X82357261Y-125726309D02*
X82471547Y-125764404D01*
X82662023Y-125764404D01*
X82738214Y-125726309D01*
X82776309Y-125688214D01*
X82814404Y-125612023D01*
X82814404Y-125535833D01*
X82776309Y-125459642D01*
X82738214Y-125421547D01*
X82662023Y-125383452D01*
X82509642Y-125345357D01*
X82433452Y-125307261D01*
X82395357Y-125269166D01*
X82357261Y-125192976D01*
X82357261Y-125116785D01*
X82395357Y-125040595D01*
X82433452Y-125002500D01*
X82509642Y-124964404D01*
X82700119Y-124964404D01*
X82814404Y-125002500D01*
X83081071Y-124964404D02*
X83271547Y-125764404D01*
X83423928Y-125192976D01*
X83576309Y-125764404D01*
X83766785Y-124964404D01*
X84071547Y-125764404D02*
X84071547Y-124964404D01*
X84262023Y-124964404D01*
X84376309Y-125002500D01*
X84452500Y-125078690D01*
X84490595Y-125154880D01*
X84528690Y-125307261D01*
X84528690Y-125421547D01*
X84490595Y-125573928D01*
X84452500Y-125650119D01*
X84376309Y-125726309D01*
X84262023Y-125764404D01*
X84071547Y-125764404D01*
X84871547Y-125764404D02*
X84871547Y-124964404D01*
X85404880Y-124964404D02*
X85557261Y-124964404D01*
X85633452Y-125002500D01*
X85709642Y-125078690D01*
X85747738Y-125231071D01*
X85747738Y-125497738D01*
X85709642Y-125650119D01*
X85633452Y-125726309D01*
X85557261Y-125764404D01*
X85404880Y-125764404D01*
X85328690Y-125726309D01*
X85252500Y-125650119D01*
X85214404Y-125497738D01*
X85214404Y-125231071D01*
X85252500Y-125078690D01*
X85328690Y-125002500D01*
X85404880Y-124964404D01*
X90538658Y-105700655D02*
X90457846Y-105727593D01*
X90377034Y-105808405D01*
X90323159Y-105916154D01*
X90323159Y-106023904D01*
X90350097Y-106104716D01*
X90430909Y-106239403D01*
X90511721Y-106320215D01*
X90646408Y-106401028D01*
X90727220Y-106427965D01*
X90834970Y-106427965D01*
X90942719Y-106374090D01*
X90996594Y-106320215D01*
X91050469Y-106212466D01*
X91050469Y-106158591D01*
X90861907Y-105970029D01*
X90754158Y-106077779D01*
X91346780Y-105970029D02*
X90781095Y-105404344D01*
X91670029Y-105646780D01*
X91104344Y-105081095D01*
X91939403Y-105377406D02*
X91373718Y-104811721D01*
X91508405Y-104677034D01*
X91616154Y-104623159D01*
X91723904Y-104623159D01*
X91804716Y-104650097D01*
X91939403Y-104730909D01*
X92020215Y-104811721D01*
X92101028Y-104946408D01*
X92127965Y-105027220D01*
X92127965Y-105134970D01*
X92074090Y-105242719D01*
X91939403Y-105377406D01*
X64965596Y-87893718D02*
X64884784Y-87920655D01*
X64803971Y-88001467D01*
X64750097Y-88109217D01*
X64750097Y-88216967D01*
X64777034Y-88297779D01*
X64857846Y-88432466D01*
X64938658Y-88513278D01*
X65073345Y-88594090D01*
X65154158Y-88621028D01*
X65261907Y-88621028D01*
X65369657Y-88567153D01*
X65423532Y-88513278D01*
X65477406Y-88405528D01*
X65477406Y-88351654D01*
X65288845Y-88163092D01*
X65181095Y-88270841D01*
X65773718Y-88163092D02*
X65208032Y-87597406D01*
X65423532Y-87381907D01*
X65504344Y-87354970D01*
X65558219Y-87354970D01*
X65639031Y-87381907D01*
X65719843Y-87462719D01*
X65746780Y-87543532D01*
X65746780Y-87597406D01*
X65719843Y-87678219D01*
X65504344Y-87893718D01*
X66204716Y-86977846D02*
X66581840Y-87354970D01*
X65854530Y-86897034D02*
X66123904Y-87435782D01*
X66474090Y-87085596D01*
X64938658Y-118400655D02*
X64857846Y-118427593D01*
X64777034Y-118508405D01*
X64723159Y-118616154D01*
X64723159Y-118723904D01*
X64750097Y-118804716D01*
X64830909Y-118939403D01*
X64911721Y-119020215D01*
X65046408Y-119101028D01*
X65127220Y-119127965D01*
X65234970Y-119127965D01*
X65342719Y-119074090D01*
X65396594Y-119020215D01*
X65450469Y-118912466D01*
X65450469Y-118858591D01*
X65261907Y-118670029D01*
X65154158Y-118777779D01*
X65746780Y-118670029D02*
X65181095Y-118104344D01*
X66070029Y-118346780D01*
X65504344Y-117781095D01*
X66339403Y-118077406D02*
X65773718Y-117511721D01*
X65908405Y-117377034D01*
X66016154Y-117323159D01*
X66123904Y-117323159D01*
X66204716Y-117350097D01*
X66339403Y-117430909D01*
X66420215Y-117511721D01*
X66501028Y-117646408D01*
X66527965Y-117727220D01*
X66527965Y-117834970D01*
X66474090Y-117942719D01*
X66339403Y-118077406D01*
X90550222Y-90449092D02*
X90469410Y-90476029D01*
X90388597Y-90556841D01*
X90334723Y-90664591D01*
X90334723Y-90772341D01*
X90361660Y-90853153D01*
X90442472Y-90987840D01*
X90523284Y-91068652D01*
X90657971Y-91149464D01*
X90738784Y-91176402D01*
X90846533Y-91176402D01*
X90954283Y-91122527D01*
X91008158Y-91068652D01*
X91062032Y-90960902D01*
X91062032Y-90907028D01*
X90873471Y-90718466D01*
X90765721Y-90826215D01*
X91358344Y-90718466D02*
X90792658Y-90152780D01*
X91008158Y-89937281D01*
X91088970Y-89910344D01*
X91142845Y-89910344D01*
X91223657Y-89937281D01*
X91304469Y-90018093D01*
X91331406Y-90098906D01*
X91331406Y-90152780D01*
X91304469Y-90233593D01*
X91088970Y-90449092D01*
X91385281Y-89667907D02*
X91385281Y-89614032D01*
X91412219Y-89533220D01*
X91546906Y-89398533D01*
X91627718Y-89371596D01*
X91681593Y-89371596D01*
X91762405Y-89398533D01*
X91816280Y-89452408D01*
X91870154Y-89560158D01*
X91870154Y-90206655D01*
X92220341Y-89856469D01*
X92220341Y-89209971D02*
X92139528Y-89236909D01*
X92085654Y-89236909D01*
X92004841Y-89209971D01*
X91977904Y-89183034D01*
X91950967Y-89102222D01*
X91950967Y-89048347D01*
X91977904Y-88967535D01*
X92085654Y-88859785D01*
X92166466Y-88832848D01*
X92220341Y-88832848D01*
X92301153Y-88859785D01*
X92328090Y-88886723D01*
X92355028Y-88967535D01*
X92355028Y-89021410D01*
X92328090Y-89102222D01*
X92220341Y-89209971D01*
X92193403Y-89290784D01*
X92193403Y-89344658D01*
X92220341Y-89425471D01*
X92328090Y-89533220D01*
X92408902Y-89560158D01*
X92462777Y-89560158D01*
X92543589Y-89533220D01*
X92651339Y-89425471D01*
X92678276Y-89344658D01*
X92678276Y-89290784D01*
X92651339Y-89209971D01*
X92543589Y-89102222D01*
X92462777Y-89075284D01*
X92408902Y-89075284D01*
X92328090Y-89102222D01*
X90550222Y-95793092D02*
X90469410Y-95820029D01*
X90388597Y-95900841D01*
X90334723Y-96008591D01*
X90334723Y-96116341D01*
X90361660Y-96197153D01*
X90442472Y-96331840D01*
X90523284Y-96412652D01*
X90657971Y-96493464D01*
X90738784Y-96520402D01*
X90846533Y-96520402D01*
X90954283Y-96466527D01*
X91008158Y-96412652D01*
X91062032Y-96304902D01*
X91062032Y-96251028D01*
X90873471Y-96062466D01*
X90765721Y-96170215D01*
X91358344Y-96062466D02*
X90792658Y-95496780D01*
X91008158Y-95281281D01*
X91088970Y-95254344D01*
X91142845Y-95254344D01*
X91223657Y-95281281D01*
X91304469Y-95362093D01*
X91331406Y-95442906D01*
X91331406Y-95496780D01*
X91304469Y-95577593D01*
X91088970Y-95793092D01*
X91385281Y-95011907D02*
X91385281Y-94958032D01*
X91412219Y-94877220D01*
X91546906Y-94742533D01*
X91627718Y-94715596D01*
X91681593Y-94715596D01*
X91762405Y-94742533D01*
X91816280Y-94796408D01*
X91870154Y-94904158D01*
X91870154Y-95550655D01*
X92220341Y-95200469D01*
X91843217Y-94446222D02*
X92220341Y-94069098D01*
X92543589Y-94877220D01*
X90550222Y-98323092D02*
X90469410Y-98350029D01*
X90388597Y-98430841D01*
X90334723Y-98538591D01*
X90334723Y-98646341D01*
X90361660Y-98727153D01*
X90442472Y-98861840D01*
X90523284Y-98942652D01*
X90657971Y-99023464D01*
X90738784Y-99050402D01*
X90846533Y-99050402D01*
X90954283Y-98996527D01*
X91008158Y-98942652D01*
X91062032Y-98834902D01*
X91062032Y-98781028D01*
X90873471Y-98592466D01*
X90765721Y-98700215D01*
X91358344Y-98592466D02*
X90792658Y-98026780D01*
X91008158Y-97811281D01*
X91088970Y-97784344D01*
X91142845Y-97784344D01*
X91223657Y-97811281D01*
X91304469Y-97892093D01*
X91331406Y-97972906D01*
X91331406Y-98026780D01*
X91304469Y-98107593D01*
X91088970Y-98323092D01*
X91385281Y-97541907D02*
X91385281Y-97488032D01*
X91412219Y-97407220D01*
X91546906Y-97272533D01*
X91627718Y-97245596D01*
X91681593Y-97245596D01*
X91762405Y-97272533D01*
X91816280Y-97326408D01*
X91870154Y-97434158D01*
X91870154Y-98080655D01*
X92220341Y-97730469D01*
X92139528Y-96679910D02*
X92031779Y-96787660D01*
X92004841Y-96868472D01*
X92004841Y-96922347D01*
X92031779Y-97057034D01*
X92112591Y-97191721D01*
X92328090Y-97407220D01*
X92408902Y-97434158D01*
X92462777Y-97434158D01*
X92543589Y-97407220D01*
X92651339Y-97299471D01*
X92678276Y-97218658D01*
X92678276Y-97164784D01*
X92651339Y-97083971D01*
X92516652Y-96949284D01*
X92435840Y-96922347D01*
X92381965Y-96922347D01*
X92301153Y-96949284D01*
X92193403Y-97057034D01*
X92166466Y-97137846D01*
X92166466Y-97191721D01*
X92193403Y-97272533D01*
X90443722Y-111023092D02*
X90362910Y-111050029D01*
X90282097Y-111130841D01*
X90228223Y-111238591D01*
X90228223Y-111346341D01*
X90255160Y-111427153D01*
X90335972Y-111561840D01*
X90416784Y-111642652D01*
X90551471Y-111723464D01*
X90632284Y-111750402D01*
X90740033Y-111750402D01*
X90847783Y-111696527D01*
X90901658Y-111642652D01*
X90955532Y-111534902D01*
X90955532Y-111481028D01*
X90766971Y-111292466D01*
X90659221Y-111400215D01*
X91251844Y-111292466D02*
X90686158Y-110726780D01*
X90901658Y-110511281D01*
X90982470Y-110484344D01*
X91036345Y-110484344D01*
X91117157Y-110511281D01*
X91197969Y-110592093D01*
X91224906Y-110672906D01*
X91224906Y-110726780D01*
X91197969Y-110807593D01*
X90982470Y-111023092D01*
X91278781Y-110241907D02*
X91278781Y-110188032D01*
X91305719Y-110107220D01*
X91440406Y-109972533D01*
X91521218Y-109945596D01*
X91575093Y-109945596D01*
X91655905Y-109972533D01*
X91709780Y-110026408D01*
X91763654Y-110134158D01*
X91763654Y-110780655D01*
X92113841Y-110430469D01*
X91898341Y-109514597D02*
X91952216Y-109460723D01*
X92033028Y-109433785D01*
X92086903Y-109433785D01*
X92167715Y-109460723D01*
X92302402Y-109541535D01*
X92437089Y-109676222D01*
X92517902Y-109810909D01*
X92544839Y-109891721D01*
X92544839Y-109945596D01*
X92517902Y-110026408D01*
X92464027Y-110080283D01*
X92383215Y-110107220D01*
X92329340Y-110107220D01*
X92248528Y-110080283D01*
X92113841Y-109999471D01*
X91979154Y-109864784D01*
X91898341Y-109730097D01*
X91871404Y-109649284D01*
X91871404Y-109595410D01*
X91898341Y-109514597D01*
X90538658Y-118400655D02*
X90457846Y-118427593D01*
X90377034Y-118508405D01*
X90323159Y-118616154D01*
X90323159Y-118723904D01*
X90350097Y-118804716D01*
X90430909Y-118939403D01*
X90511721Y-119020215D01*
X90646408Y-119101028D01*
X90727220Y-119127965D01*
X90834970Y-119127965D01*
X90942719Y-119074090D01*
X90996594Y-119020215D01*
X91050469Y-118912466D01*
X91050469Y-118858591D01*
X90861907Y-118670029D01*
X90754158Y-118777779D01*
X91346780Y-118670029D02*
X90781095Y-118104344D01*
X91670029Y-118346780D01*
X91104344Y-117781095D01*
X91939403Y-118077406D02*
X91373718Y-117511721D01*
X91508405Y-117377034D01*
X91616154Y-117323159D01*
X91723904Y-117323159D01*
X91804716Y-117350097D01*
X91939403Y-117430909D01*
X92020215Y-117511721D01*
X92101028Y-117646408D01*
X92127965Y-117727220D01*
X92127965Y-117834970D01*
X92074090Y-117942719D01*
X91939403Y-118077406D01*
X64965596Y-90433718D02*
X64884784Y-90460655D01*
X64803971Y-90541467D01*
X64750097Y-90649217D01*
X64750097Y-90756967D01*
X64777034Y-90837779D01*
X64857846Y-90972466D01*
X64938658Y-91053278D01*
X65073345Y-91134090D01*
X65154158Y-91161028D01*
X65261907Y-91161028D01*
X65369657Y-91107153D01*
X65423532Y-91053278D01*
X65477406Y-90945528D01*
X65477406Y-90891654D01*
X65288845Y-90703092D01*
X65181095Y-90810841D01*
X65773718Y-90703092D02*
X65208032Y-90137406D01*
X65423532Y-89921907D01*
X65504344Y-89894970D01*
X65558219Y-89894970D01*
X65639031Y-89921907D01*
X65719843Y-90002719D01*
X65746780Y-90083532D01*
X65746780Y-90137406D01*
X65719843Y-90218219D01*
X65504344Y-90433718D01*
X66043092Y-89302347D02*
X65773718Y-89571721D01*
X66016154Y-89868032D01*
X66016154Y-89814158D01*
X66043092Y-89733345D01*
X66177779Y-89598658D01*
X66258591Y-89571721D01*
X66312466Y-89571721D01*
X66393278Y-89598658D01*
X66527965Y-89733345D01*
X66554902Y-89814158D01*
X66554902Y-89868032D01*
X66527965Y-89948845D01*
X66393278Y-90083532D01*
X66312466Y-90110469D01*
X66258591Y-90110469D01*
X90342347Y-85693092D02*
X90692533Y-85342906D01*
X90719471Y-85746967D01*
X90800283Y-85666154D01*
X90881095Y-85639217D01*
X90934970Y-85639217D01*
X91015782Y-85666154D01*
X91150469Y-85800841D01*
X91177406Y-85881654D01*
X91177406Y-85935528D01*
X91150469Y-86016341D01*
X90988845Y-86177965D01*
X90908032Y-86204902D01*
X90854158Y-86204902D01*
X90854158Y-85181281D02*
X91608405Y-85558405D01*
X91231281Y-84804158D01*
X91365968Y-84669471D02*
X91716154Y-84319284D01*
X91743092Y-84723345D01*
X91823904Y-84642533D01*
X91904716Y-84615596D01*
X91958591Y-84615596D01*
X92039403Y-84642533D01*
X92174090Y-84777220D01*
X92201028Y-84858032D01*
X92201028Y-84911907D01*
X92174090Y-84992719D01*
X92012466Y-85154344D01*
X91931654Y-85181281D01*
X91877779Y-85181281D01*
X64938658Y-105700655D02*
X64857846Y-105727593D01*
X64777034Y-105808405D01*
X64723159Y-105916154D01*
X64723159Y-106023904D01*
X64750097Y-106104716D01*
X64830909Y-106239403D01*
X64911721Y-106320215D01*
X65046408Y-106401028D01*
X65127220Y-106427965D01*
X65234970Y-106427965D01*
X65342719Y-106374090D01*
X65396594Y-106320215D01*
X65450469Y-106212466D01*
X65450469Y-106158591D01*
X65261907Y-105970029D01*
X65154158Y-106077779D01*
X65746780Y-105970029D02*
X65181095Y-105404344D01*
X66070029Y-105646780D01*
X65504344Y-105081095D01*
X66339403Y-105377406D02*
X65773718Y-104811721D01*
X65908405Y-104677034D01*
X66016154Y-104623159D01*
X66123904Y-104623159D01*
X66204716Y-104650097D01*
X66339403Y-104730909D01*
X66420215Y-104811721D01*
X66501028Y-104946408D01*
X66527965Y-105027220D01*
X66527965Y-105134970D01*
X66474090Y-105242719D01*
X66339403Y-105377406D01*
%TO.C,C7*%
X115157142Y-99164166D02*
X115204761Y-99211785D01*
X115252380Y-99354642D01*
X115252380Y-99449880D01*
X115204761Y-99592738D01*
X115109523Y-99687976D01*
X115014285Y-99735595D01*
X114823809Y-99783214D01*
X114680952Y-99783214D01*
X114490476Y-99735595D01*
X114395238Y-99687976D01*
X114300000Y-99592738D01*
X114252380Y-99449880D01*
X114252380Y-99354642D01*
X114300000Y-99211785D01*
X114347619Y-99164166D01*
X114252380Y-98830833D02*
X114252380Y-98164166D01*
X115252380Y-98592738D01*
%TO.C,TP6*%
X102863575Y-103452380D02*
X103435003Y-103452380D01*
X103149289Y-104452380D02*
X103149289Y-103452380D01*
X103768337Y-104452380D02*
X103768337Y-103452380D01*
X104149289Y-103452380D01*
X104244527Y-103500000D01*
X104292146Y-103547619D01*
X104339765Y-103642857D01*
X104339765Y-103785714D01*
X104292146Y-103880952D01*
X104244527Y-103928571D01*
X104149289Y-103976190D01*
X103768337Y-103976190D01*
X105196908Y-103452380D02*
X105006432Y-103452380D01*
X104911194Y-103500000D01*
X104863575Y-103547619D01*
X104768337Y-103690476D01*
X104720718Y-103880952D01*
X104720718Y-104261904D01*
X104768337Y-104357142D01*
X104815956Y-104404761D01*
X104911194Y-104452380D01*
X105101670Y-104452380D01*
X105196908Y-104404761D01*
X105244527Y-104357142D01*
X105292146Y-104261904D01*
X105292146Y-104023809D01*
X105244527Y-103928571D01*
X105196908Y-103880952D01*
X105101670Y-103833333D01*
X104911194Y-103833333D01*
X104815956Y-103880952D01*
X104768337Y-103928571D01*
X104720718Y-104023809D01*
%TO.C,R3*%
X124333333Y-113352380D02*
X124000000Y-112876190D01*
X123761904Y-113352380D02*
X123761904Y-112352380D01*
X124142857Y-112352380D01*
X124238095Y-112400000D01*
X124285714Y-112447619D01*
X124333333Y-112542857D01*
X124333333Y-112685714D01*
X124285714Y-112780952D01*
X124238095Y-112828571D01*
X124142857Y-112876190D01*
X123761904Y-112876190D01*
X124666666Y-112352380D02*
X125285714Y-112352380D01*
X124952380Y-112733333D01*
X125095238Y-112733333D01*
X125190476Y-112780952D01*
X125238095Y-112828571D01*
X125285714Y-112923809D01*
X125285714Y-113161904D01*
X125238095Y-113257142D01*
X125190476Y-113304761D01*
X125095238Y-113352380D01*
X124809523Y-113352380D01*
X124714285Y-113304761D01*
X124666666Y-113257142D01*
%TO.C,C8*%
X107233333Y-78757142D02*
X107185714Y-78804761D01*
X107042857Y-78852380D01*
X106947619Y-78852380D01*
X106804761Y-78804761D01*
X106709523Y-78709523D01*
X106661904Y-78614285D01*
X106614285Y-78423809D01*
X106614285Y-78280952D01*
X106661904Y-78090476D01*
X106709523Y-77995238D01*
X106804761Y-77900000D01*
X106947619Y-77852380D01*
X107042857Y-77852380D01*
X107185714Y-77900000D01*
X107233333Y-77947619D01*
X107804761Y-78280952D02*
X107709523Y-78233333D01*
X107661904Y-78185714D01*
X107614285Y-78090476D01*
X107614285Y-78042857D01*
X107661904Y-77947619D01*
X107709523Y-77900000D01*
X107804761Y-77852380D01*
X107995238Y-77852380D01*
X108090476Y-77900000D01*
X108138095Y-77947619D01*
X108185714Y-78042857D01*
X108185714Y-78090476D01*
X108138095Y-78185714D01*
X108090476Y-78233333D01*
X107995238Y-78280952D01*
X107804761Y-78280952D01*
X107709523Y-78328571D01*
X107661904Y-78376190D01*
X107614285Y-78471428D01*
X107614285Y-78661904D01*
X107661904Y-78757142D01*
X107709523Y-78804761D01*
X107804761Y-78852380D01*
X107995238Y-78852380D01*
X108090476Y-78804761D01*
X108138095Y-78757142D01*
X108185714Y-78661904D01*
X108185714Y-78471428D01*
X108138095Y-78376190D01*
X108090476Y-78328571D01*
X107995238Y-78280952D01*
%TO.C,C4*%
X105219421Y-91892142D02*
X105171802Y-91939761D01*
X105028945Y-91987380D01*
X104933707Y-91987380D01*
X104790849Y-91939761D01*
X104695611Y-91844523D01*
X104647992Y-91749285D01*
X104600373Y-91558809D01*
X104600373Y-91415952D01*
X104647992Y-91225476D01*
X104695611Y-91130238D01*
X104790849Y-91035000D01*
X104933707Y-90987380D01*
X105028945Y-90987380D01*
X105171802Y-91035000D01*
X105219421Y-91082619D01*
X106076564Y-91320714D02*
X106076564Y-91987380D01*
X105838468Y-90939761D02*
X105600373Y-91654047D01*
X106219421Y-91654047D01*
%TO.C,U3*%
X107115595Y-82054880D02*
X107115595Y-82864404D01*
X107163214Y-82959642D01*
X107210833Y-83007261D01*
X107306071Y-83054880D01*
X107496547Y-83054880D01*
X107591785Y-83007261D01*
X107639404Y-82959642D01*
X107687023Y-82864404D01*
X107687023Y-82054880D01*
X108067976Y-82054880D02*
X108687023Y-82054880D01*
X108353690Y-82435833D01*
X108496547Y-82435833D01*
X108591785Y-82483452D01*
X108639404Y-82531071D01*
X108687023Y-82626309D01*
X108687023Y-82864404D01*
X108639404Y-82959642D01*
X108591785Y-83007261D01*
X108496547Y-83054880D01*
X108210833Y-83054880D01*
X108115595Y-83007261D01*
X108067976Y-82959642D01*
%TO.C,TP5*%
X106138095Y-111852380D02*
X106709523Y-111852380D01*
X106423809Y-112852380D02*
X106423809Y-111852380D01*
X107042857Y-112852380D02*
X107042857Y-111852380D01*
X107423809Y-111852380D01*
X107519047Y-111900000D01*
X107566666Y-111947619D01*
X107614285Y-112042857D01*
X107614285Y-112185714D01*
X107566666Y-112280952D01*
X107519047Y-112328571D01*
X107423809Y-112376190D01*
X107042857Y-112376190D01*
X108519047Y-111852380D02*
X108042857Y-111852380D01*
X107995238Y-112328571D01*
X108042857Y-112280952D01*
X108138095Y-112233333D01*
X108376190Y-112233333D01*
X108471428Y-112280952D01*
X108519047Y-112328571D01*
X108566666Y-112423809D01*
X108566666Y-112661904D01*
X108519047Y-112757142D01*
X108471428Y-112804761D01*
X108376190Y-112852380D01*
X108138095Y-112852380D01*
X108042857Y-112804761D01*
X107995238Y-112757142D01*
%TO.C,R5*%
X100733333Y-125452380D02*
X100400000Y-124976190D01*
X100161904Y-125452380D02*
X100161904Y-124452380D01*
X100542857Y-124452380D01*
X100638095Y-124500000D01*
X100685714Y-124547619D01*
X100733333Y-124642857D01*
X100733333Y-124785714D01*
X100685714Y-124880952D01*
X100638095Y-124928571D01*
X100542857Y-124976190D01*
X100161904Y-124976190D01*
X101638095Y-124452380D02*
X101161904Y-124452380D01*
X101114285Y-124928571D01*
X101161904Y-124880952D01*
X101257142Y-124833333D01*
X101495238Y-124833333D01*
X101590476Y-124880952D01*
X101638095Y-124928571D01*
X101685714Y-125023809D01*
X101685714Y-125261904D01*
X101638095Y-125357142D01*
X101590476Y-125404761D01*
X101495238Y-125452380D01*
X101257142Y-125452380D01*
X101161904Y-125404761D01*
X101114285Y-125357142D01*
%TO.C,U6*%
X114838095Y-103852380D02*
X114838095Y-104661904D01*
X114885714Y-104757142D01*
X114933333Y-104804761D01*
X115028571Y-104852380D01*
X115219047Y-104852380D01*
X115314285Y-104804761D01*
X115361904Y-104757142D01*
X115409523Y-104661904D01*
X115409523Y-103852380D01*
X116314285Y-103852380D02*
X116123809Y-103852380D01*
X116028571Y-103900000D01*
X115980952Y-103947619D01*
X115885714Y-104090476D01*
X115838095Y-104280952D01*
X115838095Y-104661904D01*
X115885714Y-104757142D01*
X115933333Y-104804761D01*
X116028571Y-104852380D01*
X116219047Y-104852380D01*
X116314285Y-104804761D01*
X116361904Y-104757142D01*
X116409523Y-104661904D01*
X116409523Y-104423809D01*
X116361904Y-104328571D01*
X116314285Y-104280952D01*
X116219047Y-104233333D01*
X116028571Y-104233333D01*
X115933333Y-104280952D01*
X115885714Y-104328571D01*
X115838095Y-104423809D01*
%TO.C,TP3*%
X110100380Y-104261904D02*
X110100380Y-103690476D01*
X111100380Y-103976190D02*
X110100380Y-103976190D01*
X111100380Y-103357142D02*
X110100380Y-103357142D01*
X110100380Y-102976190D01*
X110148000Y-102880952D01*
X110195619Y-102833333D01*
X110290857Y-102785714D01*
X110433714Y-102785714D01*
X110528952Y-102833333D01*
X110576571Y-102880952D01*
X110624190Y-102976190D01*
X110624190Y-103357142D01*
X110100380Y-102452380D02*
X110100380Y-101833333D01*
X110481333Y-102166666D01*
X110481333Y-102023809D01*
X110528952Y-101928571D01*
X110576571Y-101880952D01*
X110671809Y-101833333D01*
X110909904Y-101833333D01*
X111005142Y-101880952D01*
X111052761Y-101928571D01*
X111100380Y-102023809D01*
X111100380Y-102309523D01*
X111052761Y-102404761D01*
X111005142Y-102452380D01*
%TO.C,J4*%
X139552380Y-119233333D02*
X140266666Y-119233333D01*
X140409523Y-119280952D01*
X140504761Y-119376190D01*
X140552380Y-119519047D01*
X140552380Y-119614285D01*
X139885714Y-118328571D02*
X140552380Y-118328571D01*
X139504761Y-118566666D02*
X140219047Y-118804761D01*
X140219047Y-118185714D01*
%TO.C,TP2*%
X109638095Y-90432380D02*
X110209523Y-90432380D01*
X109923809Y-91432380D02*
X109923809Y-90432380D01*
X110542857Y-91432380D02*
X110542857Y-90432380D01*
X110923809Y-90432380D01*
X111019047Y-90480000D01*
X111066666Y-90527619D01*
X111114285Y-90622857D01*
X111114285Y-90765714D01*
X111066666Y-90860952D01*
X111019047Y-90908571D01*
X110923809Y-90956190D01*
X110542857Y-90956190D01*
X111495238Y-90527619D02*
X111542857Y-90480000D01*
X111638095Y-90432380D01*
X111876190Y-90432380D01*
X111971428Y-90480000D01*
X112019047Y-90527619D01*
X112066666Y-90622857D01*
X112066666Y-90718095D01*
X112019047Y-90860952D01*
X111447619Y-91432380D01*
X112066666Y-91432380D01*
%TO.C,U7*%
X96238095Y-117552380D02*
X96238095Y-118361904D01*
X96285714Y-118457142D01*
X96333333Y-118504761D01*
X96428571Y-118552380D01*
X96619047Y-118552380D01*
X96714285Y-118504761D01*
X96761904Y-118457142D01*
X96809523Y-118361904D01*
X96809523Y-117552380D01*
X97190476Y-117552380D02*
X97857142Y-117552380D01*
X97428571Y-118552380D01*
%TO.C,C15*%
X92957142Y-125042857D02*
X93004761Y-125090476D01*
X93052380Y-125233333D01*
X93052380Y-125328571D01*
X93004761Y-125471428D01*
X92909523Y-125566666D01*
X92814285Y-125614285D01*
X92623809Y-125661904D01*
X92480952Y-125661904D01*
X92290476Y-125614285D01*
X92195238Y-125566666D01*
X92100000Y-125471428D01*
X92052380Y-125328571D01*
X92052380Y-125233333D01*
X92100000Y-125090476D01*
X92147619Y-125042857D01*
X93052380Y-124090476D02*
X93052380Y-124661904D01*
X93052380Y-124376190D02*
X92052380Y-124376190D01*
X92195238Y-124471428D01*
X92290476Y-124566666D01*
X92338095Y-124661904D01*
X92052380Y-123185714D02*
X92052380Y-123661904D01*
X92528571Y-123709523D01*
X92480952Y-123661904D01*
X92433333Y-123566666D01*
X92433333Y-123328571D01*
X92480952Y-123233333D01*
X92528571Y-123185714D01*
X92623809Y-123138095D01*
X92861904Y-123138095D01*
X92957142Y-123185714D01*
X93004761Y-123233333D01*
X93052380Y-123328571D01*
X93052380Y-123566666D01*
X93004761Y-123661904D01*
X92957142Y-123709523D01*
D11*
%TO.C,C14*%
X98738748Y-116735000D02*
X99261252Y-116735000D01*
X98738748Y-115265000D02*
X99261252Y-115265000D01*
%TO.C,C10*%
X123835000Y-104361252D02*
X123835000Y-103838748D01*
X122365000Y-104361252D02*
X122365000Y-103838748D01*
%TO.C,SW1*%
X63800000Y-100750000D02*
X64300000Y-100750000D01*
X60700000Y-100750000D02*
X61200000Y-100750000D01*
X64300000Y-100750000D02*
X64300000Y-107250000D01*
X63800000Y-107250000D02*
X64300000Y-107250000D01*
X60700000Y-107250000D02*
X60700000Y-100750000D01*
X60700000Y-107250000D02*
X61200000Y-107250000D01*
%TO.C,R7*%
X108352544Y-105465000D02*
X107898416Y-105465000D01*
X108352544Y-106935000D02*
X107898416Y-106935000D01*
%TO.C,R4*%
X96265000Y-124272936D02*
X96265000Y-124727064D01*
X97735000Y-124272936D02*
X97735000Y-124727064D01*
%TO.C,C16*%
X95761252Y-119265000D02*
X95238748Y-119265000D01*
X95761252Y-120735000D02*
X95238748Y-120735000D01*
%TO.C,C3*%
X114735000Y-84638748D02*
X114735000Y-85161252D01*
X113265000Y-84638748D02*
X113265000Y-85161252D01*
%TO.C,L1*%
X100102064Y-111140000D02*
X98897936Y-111140000D01*
X100102064Y-113860000D02*
X98897936Y-113860000D01*
%TO.C,C13*%
X99738748Y-109735000D02*
X100261252Y-109735000D01*
X99738748Y-108265000D02*
X100261252Y-108265000D01*
%TO.C,R1*%
X117665000Y-83227064D02*
X117665000Y-82772936D01*
X119135000Y-83227064D02*
X119135000Y-82772936D01*
%TO.C,C1*%
X102660000Y-75738748D02*
X102660000Y-76261252D01*
X101190000Y-75738748D02*
X101190000Y-76261252D01*
%TO.C,SW2*%
X129500000Y-108600000D02*
X132000000Y-108600000D01*
X132000000Y-108600000D02*
X132000000Y-101600000D01*
X132000000Y-101600000D02*
X129500000Y-101600000D01*
X129500000Y-101600000D02*
X129500000Y-108600000D01*
%TO.C,C6*%
X117272500Y-99223752D02*
X117272500Y-98701248D01*
X115802500Y-99223752D02*
X115802500Y-98701248D01*
%TO.C,C2*%
X112701248Y-75735000D02*
X113223752Y-75735000D01*
X112701248Y-74265000D02*
X113223752Y-74265000D01*
%TO.C,U2*%
X106025000Y-77510000D02*
X107825000Y-77510000D01*
X107825000Y-74290000D02*
X105375000Y-74290000D01*
%TO.C,C9*%
X112738748Y-77765000D02*
X113261252Y-77765000D01*
X112738748Y-79235000D02*
X113261252Y-79235000D01*
%TO.C,RV2*%
X107400000Y-116000000D02*
X107400000Y-126000000D01*
X115000000Y-128499333D02*
X107400000Y-128500000D01*
X107400000Y-126000000D02*
X107400000Y-128500000D01*
X115000000Y-113500000D02*
X107500000Y-113500000D01*
X107400000Y-116000000D02*
X107400000Y-113500000D01*
X107500000Y-113500000D02*
X107400000Y-113500000D01*
X115000000Y-128499334D02*
G75*
G03*
X115000000Y-113500000I1J7499667D01*
G01*
%TO.C,TP4*%
X99550000Y-92900000D02*
G75*
G03*
X99550000Y-92900000I-950000J0D01*
G01*
%TO.C,C11*%
X123738748Y-116735000D02*
X124261252Y-116735000D01*
X123738748Y-115265000D02*
X124261252Y-115265000D01*
%TO.C,L2*%
X106360000Y-120397936D02*
X106360000Y-121602064D01*
X103640000Y-120397936D02*
X103640000Y-121602064D01*
%TO.C,TP7*%
X114950000Y-111000000D02*
G75*
G03*
X114950000Y-111000000I-950000J0D01*
G01*
%TO.C,J1*%
X94024999Y-101647500D02*
X95354999Y-101647500D01*
X92694999Y-117007500D02*
X95354999Y-117007500D01*
X95354999Y-104247500D02*
X95354999Y-117007500D01*
X92694999Y-104247500D02*
X95354999Y-104247500D01*
X92694999Y-104247500D02*
X92694999Y-117007500D01*
X95354999Y-101647500D02*
X95354999Y-102977500D01*
%TO.C,C12*%
X130049000Y-115959000D02*
X130049000Y-112526000D01*
X130849000Y-122138000D02*
X130849000Y-118441000D01*
X131009000Y-122174000D02*
X131009000Y-118441000D01*
X130729000Y-122107000D02*
X130729000Y-118441000D01*
X130889000Y-122147000D02*
X130889000Y-118441000D01*
X129449000Y-121571000D02*
X129449000Y-118441000D01*
X129569000Y-121640000D02*
X129569000Y-118441000D01*
X131730000Y-122270000D02*
X131730000Y-112130000D01*
X128369000Y-120720000D02*
X128369000Y-113680000D01*
X130489000Y-122037000D02*
X130489000Y-118441000D01*
X127529000Y-119565000D02*
X127529000Y-114835000D01*
X131209000Y-115959000D02*
X131209000Y-112189000D01*
X127369000Y-119237000D02*
X127369000Y-115163000D01*
X129329000Y-115959000D02*
X129329000Y-112902000D01*
X128649000Y-120989000D02*
X128649000Y-113411000D01*
X127689000Y-119845000D02*
X127689000Y-114555000D01*
X130449000Y-122024000D02*
X130449000Y-118441000D01*
X128329000Y-120678000D02*
X128329000Y-113722000D01*
X128129000Y-120454000D02*
X128129000Y-113946000D01*
X129289000Y-115959000D02*
X129289000Y-112927000D01*
X129969000Y-121839000D02*
X129969000Y-118441000D01*
X131370000Y-122235000D02*
X131370000Y-118441000D01*
X128609000Y-120953000D02*
X128609000Y-113447000D01*
X129209000Y-115959000D02*
X129209000Y-112979000D01*
X128409000Y-120761000D02*
X128409000Y-113639000D01*
X129009000Y-121280000D02*
X129009000Y-113120000D01*
X127169000Y-118710000D02*
X127169000Y-115690000D01*
X128169000Y-120501000D02*
X128169000Y-113899000D01*
X129969000Y-115959000D02*
X129969000Y-112561000D01*
X128049000Y-120356000D02*
X128049000Y-114044000D01*
X130489000Y-115959000D02*
X130489000Y-112363000D01*
X130529000Y-122050000D02*
X130529000Y-118441000D01*
X128769000Y-121092000D02*
X128769000Y-113308000D01*
X130209000Y-115959000D02*
X130209000Y-112462000D01*
X130529000Y-115959000D02*
X130529000Y-112350000D01*
X127609000Y-119710000D02*
X127609000Y-114690000D01*
X127049000Y-118262000D02*
X127049000Y-116138000D01*
X137529646Y-120075000D02*
X136529646Y-120075000D01*
X127929000Y-120200000D02*
X127929000Y-114200000D01*
X128289000Y-120636000D02*
X128289000Y-113764000D01*
X131329000Y-122230000D02*
X131329000Y-118441000D01*
X130289000Y-121968000D02*
X130289000Y-118441000D01*
X130209000Y-121938000D02*
X130209000Y-118441000D01*
X131049000Y-115959000D02*
X131049000Y-112218000D01*
X129249000Y-115959000D02*
X129249000Y-112953000D01*
X131009000Y-115959000D02*
X131009000Y-112226000D01*
X130369000Y-121997000D02*
X130369000Y-118441000D01*
X129729000Y-115959000D02*
X129729000Y-112675000D01*
X127649000Y-119779000D02*
X127649000Y-114621000D01*
X131450000Y-115959000D02*
X131450000Y-112155000D01*
X129769000Y-115959000D02*
X129769000Y-112655000D01*
X128689000Y-121024000D02*
X128689000Y-113376000D01*
X131129000Y-115959000D02*
X131129000Y-112203000D01*
X127289000Y-119046000D02*
X127289000Y-115354000D01*
X131049000Y-122182000D02*
X131049000Y-118441000D01*
X131450000Y-122245000D02*
X131450000Y-118441000D01*
X131490000Y-122250000D02*
X131490000Y-118441000D01*
X127769000Y-119970000D02*
X127769000Y-114430000D01*
X131370000Y-115959000D02*
X131370000Y-112165000D01*
X129489000Y-115959000D02*
X129489000Y-112805000D01*
X130089000Y-115959000D02*
X130089000Y-112510000D01*
X130889000Y-115959000D02*
X130889000Y-112253000D01*
X127249000Y-118942000D02*
X127249000Y-115458000D01*
X131249000Y-122218000D02*
X131249000Y-118441000D01*
X127889000Y-120145000D02*
X127889000Y-114255000D01*
X130449000Y-115959000D02*
X130449000Y-112376000D01*
X130689000Y-122097000D02*
X130689000Y-118441000D01*
X131610000Y-122262000D02*
X131610000Y-112138000D01*
X131810000Y-122275000D02*
X131810000Y-112125000D01*
X130769000Y-122118000D02*
X130769000Y-118441000D01*
X131129000Y-122197000D02*
X131129000Y-118441000D01*
X130009000Y-121857000D02*
X130009000Y-118441000D01*
X131930000Y-122279000D02*
X131930000Y-112121000D01*
X130569000Y-122062000D02*
X130569000Y-118441000D01*
X129929000Y-121821000D02*
X129929000Y-118441000D01*
X130129000Y-115959000D02*
X130129000Y-112493000D01*
X129369000Y-115959000D02*
X129369000Y-112877000D01*
X130809000Y-122128000D02*
X130809000Y-118441000D01*
X130969000Y-115959000D02*
X130969000Y-112235000D01*
X128809000Y-121125000D02*
X128809000Y-113275000D01*
X131410000Y-122240000D02*
X131410000Y-118441000D01*
X127449000Y-119409000D02*
X127449000Y-114991000D01*
X130369000Y-115959000D02*
X130369000Y-112403000D01*
X130169000Y-121923000D02*
X130169000Y-118441000D01*
X128529000Y-120879000D02*
X128529000Y-113521000D01*
X129769000Y-121745000D02*
X129769000Y-118441000D01*
X130609000Y-122074000D02*
X130609000Y-118441000D01*
X127089000Y-118430000D02*
X127089000Y-115970000D01*
X129849000Y-115959000D02*
X129849000Y-112616000D01*
X131650000Y-122265000D02*
X131650000Y-112135000D01*
X128929000Y-121220000D02*
X128929000Y-113180000D01*
X128489000Y-120840000D02*
X128489000Y-113560000D01*
X130049000Y-121874000D02*
X130049000Y-118441000D01*
X128209000Y-120547000D02*
X128209000Y-113853000D01*
X130249000Y-115959000D02*
X130249000Y-112446000D01*
X130329000Y-115959000D02*
X130329000Y-112417000D01*
X130689000Y-115959000D02*
X130689000Y-112303000D01*
X130769000Y-115959000D02*
X130769000Y-112282000D01*
X129529000Y-115959000D02*
X129529000Y-112783000D01*
X127209000Y-118830000D02*
X127209000Y-115570000D01*
X130849000Y-115959000D02*
X130849000Y-112262000D01*
X129169000Y-121394000D02*
X129169000Y-118441000D01*
X130649000Y-122085000D02*
X130649000Y-118441000D01*
X127409000Y-119325000D02*
X127409000Y-115075000D01*
X129209000Y-121421000D02*
X129209000Y-118441000D01*
X130169000Y-115959000D02*
X130169000Y-112477000D01*
X129129000Y-115959000D02*
X129129000Y-113034000D01*
X128849000Y-121157000D02*
X128849000Y-113243000D01*
X130969000Y-122165000D02*
X130969000Y-118441000D01*
X129809000Y-115959000D02*
X129809000Y-112636000D01*
X127009000Y-118062000D02*
X127009000Y-116338000D01*
X131089000Y-115959000D02*
X131089000Y-112210000D01*
X129089000Y-115959000D02*
X129089000Y-113062000D01*
X129569000Y-115959000D02*
X129569000Y-112760000D01*
X127569000Y-119639000D02*
X127569000Y-114761000D01*
X129609000Y-121662000D02*
X129609000Y-118441000D01*
X130329000Y-121983000D02*
X130329000Y-118441000D01*
X130089000Y-121890000D02*
X130089000Y-118441000D01*
X130609000Y-115959000D02*
X130609000Y-112326000D01*
X131169000Y-115959000D02*
X131169000Y-112196000D01*
X132010000Y-122280000D02*
X132010000Y-112120000D01*
X130729000Y-115959000D02*
X130729000Y-112293000D01*
X129729000Y-121725000D02*
X129729000Y-118441000D01*
X130409000Y-115959000D02*
X130409000Y-112389000D01*
X131530000Y-122254000D02*
X131530000Y-118441000D01*
X131490000Y-115959000D02*
X131490000Y-112150000D01*
X130289000Y-115959000D02*
X130289000Y-112432000D01*
X129649000Y-121683000D02*
X129649000Y-118441000D01*
X128249000Y-120592000D02*
X128249000Y-113808000D01*
X127729000Y-119909000D02*
X127729000Y-114491000D01*
X130569000Y-115959000D02*
X130569000Y-112338000D01*
X128569000Y-120916000D02*
X128569000Y-113484000D01*
X129049000Y-121310000D02*
X129049000Y-113090000D01*
X130649000Y-115959000D02*
X130649000Y-112315000D01*
X131329000Y-115959000D02*
X131329000Y-112170000D01*
X129609000Y-115959000D02*
X129609000Y-112738000D01*
X129689000Y-115959000D02*
X129689000Y-112696000D01*
X129409000Y-121547000D02*
X129409000Y-118441000D01*
X127489000Y-119489000D02*
X127489000Y-114911000D01*
X127969000Y-120254000D02*
X127969000Y-114146000D01*
X128009000Y-120306000D02*
X128009000Y-114094000D01*
X127809000Y-120030000D02*
X127809000Y-114370000D01*
X129929000Y-115959000D02*
X129929000Y-112579000D01*
X130929000Y-122156000D02*
X130929000Y-118441000D01*
X128889000Y-121189000D02*
X128889000Y-113211000D01*
X130009000Y-115959000D02*
X130009000Y-112543000D01*
X130409000Y-122011000D02*
X130409000Y-118441000D01*
X129129000Y-121366000D02*
X129129000Y-118441000D01*
X131970000Y-122280000D02*
X131970000Y-112120000D01*
X129369000Y-121523000D02*
X129369000Y-118441000D01*
X131249000Y-115959000D02*
X131249000Y-112182000D01*
X131410000Y-115959000D02*
X131410000Y-112160000D01*
X129689000Y-121704000D02*
X129689000Y-118441000D01*
X129249000Y-121447000D02*
X129249000Y-118441000D01*
X131770000Y-122273000D02*
X131770000Y-112127000D01*
X127129000Y-118578000D02*
X127129000Y-115822000D01*
X129489000Y-121595000D02*
X129489000Y-118441000D01*
X127329000Y-119144000D02*
X127329000Y-115256000D01*
X128089000Y-120406000D02*
X128089000Y-113994000D01*
X130249000Y-121954000D02*
X130249000Y-118441000D01*
X130129000Y-121907000D02*
X130129000Y-118441000D01*
X129329000Y-121498000D02*
X129329000Y-118441000D01*
X131570000Y-122258000D02*
X131570000Y-112142000D01*
X127849000Y-120089000D02*
X127849000Y-114311000D01*
X131209000Y-122211000D02*
X131209000Y-118441000D01*
X137029646Y-120575000D02*
X137029646Y-119575000D01*
X129889000Y-115959000D02*
X129889000Y-112597000D01*
X131850000Y-122277000D02*
X131850000Y-112123000D01*
X128449000Y-120801000D02*
X128449000Y-113599000D01*
X128969000Y-121250000D02*
X128969000Y-113150000D01*
X129849000Y-121784000D02*
X129849000Y-118441000D01*
X129449000Y-115959000D02*
X129449000Y-112829000D01*
X129809000Y-121764000D02*
X129809000Y-118441000D01*
X129649000Y-115959000D02*
X129649000Y-112717000D01*
X128729000Y-121058000D02*
X128729000Y-113342000D01*
X132050000Y-122280000D02*
X132050000Y-112120000D01*
X129409000Y-115959000D02*
X129409000Y-112853000D01*
X131289000Y-122224000D02*
X131289000Y-118441000D01*
X131089000Y-122190000D02*
X131089000Y-118441000D01*
X126969000Y-117799000D02*
X126969000Y-116601000D01*
X130809000Y-115959000D02*
X130809000Y-112272000D01*
X131890000Y-122278000D02*
X131890000Y-112122000D01*
X131169000Y-122204000D02*
X131169000Y-118441000D01*
X129089000Y-121338000D02*
X129089000Y-118441000D01*
X129529000Y-121617000D02*
X129529000Y-118441000D01*
X131289000Y-115959000D02*
X131289000Y-112176000D01*
X129289000Y-121473000D02*
X129289000Y-118441000D01*
X129889000Y-121803000D02*
X129889000Y-118441000D01*
X131690000Y-122268000D02*
X131690000Y-112132000D01*
X131530000Y-115959000D02*
X131530000Y-112146000D01*
X129169000Y-115959000D02*
X129169000Y-113006000D01*
X130929000Y-115959000D02*
X130929000Y-112244000D01*
X137170000Y-117200000D02*
G75*
G03*
X137170000Y-117200000I-5120000J0D01*
G01*
%TO.C,J3*%
X64305000Y-94132500D02*
X61645000Y-94132500D01*
X62975000Y-96732500D02*
X61645000Y-96732500D01*
X64305000Y-81372500D02*
X61645000Y-81372500D01*
X64305000Y-94132500D02*
X64305000Y-81372500D01*
X61645000Y-96732500D02*
X61645000Y-95402500D01*
X61645000Y-94132500D02*
X61645000Y-81372500D01*
%TO.C,R6*%
X105227064Y-110735000D02*
X104772936Y-110735000D01*
X105227064Y-109265000D02*
X104772936Y-109265000D01*
%TO.C,TP1*%
X96750000Y-81900000D02*
G75*
G03*
X96750000Y-81900000I-950000J0D01*
G01*
%TO.C,RN1*%
X100927500Y-88672500D02*
X98827500Y-88672500D01*
X100927500Y-83332500D02*
X98827500Y-83332500D01*
%TO.C,U4*%
X103421088Y-96451088D02*
X105371088Y-96451088D01*
X103421088Y-101571088D02*
X105371088Y-101571088D01*
X103421088Y-96451088D02*
X99971088Y-96451088D01*
X103421088Y-101571088D02*
X101471088Y-101571088D01*
%TO.C,R8*%
X110227064Y-109265000D02*
X109772936Y-109265000D01*
X110227064Y-110735000D02*
X109772936Y-110735000D01*
%TO.C,JP1*%
X99100000Y-96300000D02*
X99100000Y-99100000D01*
X99100000Y-99100000D02*
X97100000Y-99100000D01*
X97100000Y-99100000D02*
X97100000Y-96300000D01*
X97100000Y-96300000D02*
X99100000Y-96300000D01*
%TO.C,R2*%
X108802500Y-99189564D02*
X108802500Y-98735436D01*
X110272500Y-99189564D02*
X110272500Y-98735436D01*
%TO.C,U1*%
X67952500Y-104102500D02*
X67952500Y-104502500D01*
X67952500Y-106602500D02*
X67952500Y-107002500D01*
X67952500Y-91402500D02*
X67952500Y-91802500D01*
X88952500Y-116802500D02*
X88952500Y-117202500D01*
X88952500Y-99002500D02*
X88952500Y-99402500D01*
X88952500Y-111702500D02*
X88952500Y-112102500D01*
X67952500Y-88802500D02*
X67952500Y-89202500D01*
X67952500Y-86302500D02*
X67952500Y-86702500D01*
X67952500Y-73702500D02*
X67952500Y-74002500D01*
X88952500Y-83802500D02*
X88952500Y-84202500D01*
X67952500Y-114302500D02*
X67952500Y-114702500D01*
X67952500Y-116802500D02*
X67952500Y-117202500D01*
X67952500Y-93902500D02*
X67952500Y-94302500D01*
X67952500Y-73702500D02*
X88952500Y-73702500D01*
X88952500Y-78702500D02*
X88952500Y-79102500D01*
X67952500Y-78702500D02*
X67952500Y-79102500D01*
X67952500Y-109202500D02*
X67952500Y-109602500D01*
X88952500Y-88802500D02*
X88952500Y-89202500D01*
X88952500Y-81202500D02*
X88952500Y-81602500D01*
X67952500Y-101502500D02*
X67952500Y-101902500D01*
X67952500Y-99002500D02*
X67952500Y-99402500D01*
X88952500Y-104102500D02*
X88952500Y-104502500D01*
X88952500Y-96502500D02*
X88952500Y-96902500D01*
X67952500Y-76102500D02*
X67952500Y-76502500D01*
X88952500Y-114302500D02*
X88952500Y-114702500D01*
X88952500Y-106602500D02*
X88952500Y-107002500D01*
X67952500Y-111702500D02*
X67952500Y-112102500D01*
X67952500Y-76369500D02*
X70959500Y-76369500D01*
X88952500Y-101502500D02*
X88952500Y-101902500D01*
X88952500Y-121902500D02*
X88952500Y-122302500D01*
X67952500Y-121902500D02*
X67952500Y-122302500D01*
X67952500Y-81202500D02*
X67952500Y-81602500D01*
X67952500Y-83802500D02*
X67952500Y-84202500D01*
X76952500Y-124702500D02*
X77352500Y-124702500D01*
X88952500Y-73702500D02*
X88952500Y-74002500D01*
X88952500Y-109202500D02*
X88952500Y-109602500D01*
X88952500Y-119302500D02*
X88952500Y-119702500D01*
X67952500Y-119302500D02*
X67952500Y-119702500D01*
X88952500Y-86302500D02*
X88952500Y-86702500D01*
X88952500Y-93902500D02*
X88952500Y-94302500D01*
X74752500Y-124702500D02*
X67952500Y-124702500D01*
X88952500Y-76102500D02*
X88952500Y-76502500D01*
X79552500Y-124702500D02*
X79952500Y-124702500D01*
X88952500Y-91402500D02*
X88952500Y-91802500D01*
X88952500Y-124702500D02*
X82152500Y-124702500D01*
X67952500Y-96502500D02*
X67952500Y-96902500D01*
X70959500Y-76369500D02*
X70959500Y-73702500D01*
%TO.C,C7*%
X112202500Y-99223752D02*
X112202500Y-98701248D01*
X113672500Y-99223752D02*
X113672500Y-98701248D01*
%TO.C,TP6*%
X105075480Y-106200000D02*
G75*
G03*
X105075480Y-106200000I-950000J0D01*
G01*
%TO.C,R3*%
X124227064Y-110065000D02*
X123772936Y-110065000D01*
X124227064Y-111535000D02*
X123772936Y-111535000D01*
%TO.C,C8*%
X107698752Y-80835000D02*
X107176248Y-80835000D01*
X107698752Y-79365000D02*
X107176248Y-79365000D01*
%TO.C,C4*%
X104982340Y-94035000D02*
X104459836Y-94035000D01*
X104982340Y-92565000D02*
X104459836Y-92565000D01*
%TO.C,U3*%
X107877500Y-83442500D02*
X104427500Y-83442500D01*
X107877500Y-83442500D02*
X109827500Y-83442500D01*
X107877500Y-88562500D02*
X109827500Y-88562500D01*
X107877500Y-88562500D02*
X105927500Y-88562500D01*
%TO.C,TP5*%
X105850000Y-112800000D02*
G75*
G03*
X105850000Y-112800000I-950000J0D01*
G01*
%TO.C,R5*%
X100727064Y-123735000D02*
X100272936Y-123735000D01*
X100727064Y-122265000D02*
X100272936Y-122265000D01*
%TO.C,U6*%
X116000000Y-108610000D02*
X119600000Y-108610000D01*
X116000000Y-108610000D02*
X113800000Y-108610000D01*
X116000000Y-105390000D02*
X113800000Y-105390000D01*
X116000000Y-105390000D02*
X118200000Y-105390000D01*
%TO.C,TP3*%
X109950000Y-103000000D02*
G75*
G03*
X109950000Y-103000000I-950000J0D01*
G01*
%TO.C,TP2*%
X114727500Y-90782500D02*
G75*
G03*
X114727500Y-90782500I-950000J0D01*
G01*
%TO.C,U7*%
X100000000Y-117940000D02*
X100800000Y-117940000D01*
X100000000Y-117940000D02*
X98200000Y-117940000D01*
X100000000Y-121060000D02*
X99200000Y-121060000D01*
X100000000Y-121060000D02*
X100800000Y-121060000D01*
%TO.C,C15*%
X95235000Y-124238748D02*
X95235000Y-124761252D01*
X93765000Y-124238748D02*
X93765000Y-124761252D01*
%TD*%
M02*
