%TF.GenerationSoftware,KiCad,Pcbnew,(6.0.0)*%
%TF.CreationDate,2022-03-15T13:53:43+01:00*%
%TF.ProjectId,driver-board,64726976-6572-42d6-926f-6172642e6b69,rev?*%
%TF.SameCoordinates,Original*%
%TF.FileFunction,Soldermask,Bot*%
%TF.FilePolarity,Negative*%
%FSLAX46Y46*%
G04 Gerber Fmt 4.6, Leading zero omitted, Abs format (unit mm)*
G04 Created by KiCad (PCBNEW (6.0.0)) date 2022-03-15 13:53:43*
%MOMM*%
%LPD*%
G01*
G04 APERTURE LIST*
G04 Aperture macros list*
%AMRoundRect*
0 Rectangle with rounded corners*
0 $1 Rounding radius*
0 $2 $3 $4 $5 $6 $7 $8 $9 X,Y pos of 4 corners*
0 Add a 4 corners polygon primitive as box body*
4,1,4,$2,$3,$4,$5,$6,$7,$8,$9,$2,$3,0*
0 Add four circle primitives for the rounded corners*
1,1,$1+$1,$2,$3*
1,1,$1+$1,$4,$5*
1,1,$1+$1,$6,$7*
1,1,$1+$1,$8,$9*
0 Add four rect primitives between the rounded corners*
20,1,$1+$1,$2,$3,$4,$5,0*
20,1,$1+$1,$4,$5,$6,$7,0*
20,1,$1+$1,$6,$7,$8,$9,0*
20,1,$1+$1,$8,$9,$2,$3,0*%
G04 Aperture macros list end*
%ADD10C,3.200000*%
%ADD11O,1.500000X1.500000*%
%ADD12O,1.800000X1.800000*%
%ADD13R,1.700000X1.700000*%
%ADD14O,1.700000X1.700000*%
%ADD15R,2.000000X2.000000*%
%ADD16C,2.000000*%
%ADD17R,4.900000X1.600000*%
%ADD18R,1.500000X5.600000*%
%ADD19R,1.600000X4.900000*%
%ADD20RoundRect,0.250000X-0.475000X0.337500X-0.475000X-0.337500X0.475000X-0.337500X0.475000X0.337500X0*%
%ADD21R,0.760000X1.270000*%
%ADD22O,1.200000X1.600000*%
%ADD23O,1.200000X1.200000*%
G04 APERTURE END LIST*
D10*
%TO.C,REF\u002A\u002A*%
X62100000Y-126000000D03*
%TD*%
%TO.C,REF\u002A\u002A*%
X138900000Y-126000000D03*
%TD*%
%TO.C,REF\u002A\u002A*%
X62100000Y-75900000D03*
%TD*%
D11*
%TO.C,U1*%
X80877500Y-78232500D03*
D12*
X75727500Y-75202500D03*
X81177500Y-75202500D03*
D11*
X76027500Y-78232500D03*
D13*
X69562500Y-80152500D03*
D14*
X69562500Y-87772500D03*
X69562500Y-90312500D03*
D13*
X69562500Y-92852500D03*
X69562500Y-105552500D03*
X69562500Y-118252500D03*
X87342500Y-118252500D03*
D14*
X87342500Y-110632500D03*
X87342500Y-108092500D03*
D13*
X87342500Y-105552500D03*
D14*
X87342500Y-100472500D03*
X87342500Y-97932500D03*
X87342500Y-95392500D03*
D13*
X87342500Y-92852500D03*
D14*
X87342500Y-90312500D03*
X87342500Y-85232500D03*
D13*
X87342500Y-80152500D03*
D14*
X87342500Y-75072500D03*
X75912500Y-123102500D03*
D13*
X78452500Y-123102500D03*
D14*
X80992500Y-123102500D03*
%TD*%
D13*
%TO.C,J1*%
X94024999Y-102977500D03*
D14*
X94024999Y-105517500D03*
X94024999Y-108057500D03*
X94024999Y-110597500D03*
X94024999Y-113137500D03*
X94024999Y-115677500D03*
%TD*%
D15*
%TO.C,C12*%
X133800000Y-117200000D03*
D16*
X130300000Y-117200000D03*
%TD*%
D13*
%TO.C,J3*%
X62975000Y-95402500D03*
D14*
X62975000Y-92862500D03*
X62975000Y-90322500D03*
X62975000Y-87782500D03*
X62975000Y-85242500D03*
X62975000Y-82702500D03*
%TD*%
D17*
%TO.C,J4*%
X140050000Y-115050000D03*
X140050000Y-106550000D03*
%TD*%
D18*
%TO.C,J2*%
X128115276Y-75350000D03*
D19*
X132365276Y-75000000D03*
X123865276Y-75000000D03*
%TD*%
D20*
%TO.C,C5*%
X125800000Y-85362500D03*
X125800000Y-87437500D03*
%TD*%
D21*
%TO.C,U5*%
X128160000Y-87400000D03*
X130700000Y-87400000D03*
X130700000Y-84615000D03*
X128160000Y-84615000D03*
%TD*%
D22*
%TO.C,LD1*%
X139684724Y-84569448D03*
D23*
X140954724Y-85839448D03*
X139684724Y-87109448D03*
%TD*%
M02*
