M48
; DRILL file {KiCad (6.0.0)} date Tue Mar 15 13:53:37 2022
; FORMAT={-:-/ absolute / metric / decimal}
; #@! TF.CreationDate,2022-03-15T13:53:37+01:00
; #@! TF.GenerationSoftware,Kicad,Pcbnew,(6.0.0)
; #@! TF.FileFunction,Plated,1,2,PTH
FMAT,2
METRIC
; #@! TA.AperFunction,Plated,PTH,ViaDrill
T1C0.400
; #@! TA.AperFunction,Plated,PTH,ComponentDrill
T2C0.700
; #@! TA.AperFunction,Plated,PTH,ComponentDrill
T3C1.000
; #@! TA.AperFunction,Plated,PTH,ComponentDrill
T4C1.020
%
G90
G05
T1
X80.903Y-73.644
X81.957Y-85.242
X81.957Y-113.1
X92.1Y-85.3
X96.2Y-87.9
X96.2Y-98.3
X96.5Y-121.8
X97.4Y-109.0
X98.397Y-89.602
X100.921Y-102.411
X101.962Y-78.8
X103.277Y-87.902
X103.662Y-76.3
X103.686Y-91.746
X104.6Y-80.1
X105.1Y-117.7
X106.3Y-82.0
X112.4Y-93.0
X113.7Y-93.0
X114.9Y-93.0
X115.3Y-108.0
X116.2Y-86.0
X116.6Y-82.0
X116.8Y-75.0
X116.8Y-78.5
X117.0Y-106.7
X119.2Y-87.5
X121.0Y-73.0
X121.0Y-75.0
X121.0Y-77.0
X121.0Y-79.0
X121.0Y-81.0
X121.0Y-83.0
X121.0Y-85.0
X121.0Y-89.0
X121.0Y-91.0
X121.0Y-95.0
X123.0Y-95.0
X123.0Y-114.0
X125.1Y-119.6
X127.0Y-95.0
X129.0Y-95.0
X130.7Y-107.6
X130.8Y-102.6
X131.0Y-95.0
X133.0Y-95.0
X134.0Y-73.0
X135.0Y-95.0
X136.0Y-73.0
X138.0Y-73.0
X140.0Y-73.0
X140.0Y-95.0
X140.05Y-103.3
X140.05Y-116.9
X142.0Y-73.0
X142.0Y-75.0
X142.0Y-77.0
X142.0Y-79.0
X142.0Y-81.0
X142.0Y-83.0
X142.0Y-85.0
X142.0Y-91.0
X142.0Y-93.0
X142.0Y-95.0
T2
X139.685Y-84.569
X139.685Y-87.109
X140.955Y-85.839
T3
X62.975Y-82.703
X62.975Y-85.242
X62.975Y-87.782
X62.975Y-90.322
X62.975Y-92.862
X62.975Y-95.402
X94.025Y-102.977
X94.025Y-105.517
X94.025Y-108.057
X94.025Y-110.597
X94.025Y-113.137
X94.025Y-115.677
X130.3Y-117.2
X133.8Y-117.2
T4
X69.562Y-80.153
X69.562Y-87.772
X69.562Y-90.312
X69.562Y-92.852
X69.562Y-105.552
X69.562Y-118.252
X75.912Y-123.102
X78.453Y-123.102
X80.992Y-123.102
X87.343Y-75.072
X87.343Y-80.153
X87.343Y-85.233
X87.343Y-90.312
X87.343Y-92.852
X87.343Y-95.392
X87.343Y-97.932
X87.343Y-100.472
X87.343Y-105.552
X87.343Y-108.093
X87.343Y-110.632
X87.343Y-118.252
T0
M30
