%FSLAX45Y45*%
G04 Gerber Fmt 4.5, Leading zero omitted, Abs format (unit mm)*
G04 Created by KiCad (PCBNEW (6.0.0)) date 2022-06-07 13:13:02*
%MOMM*%
%LPD*%
G01*
G04 APERTURE LIST*
%TA.AperFunction,Profile*%
%ADD10C,0.100000*%
%TD*%
%ADD11C,0.200000*%
%ADD12C,0.040000*%
%ADD13C,0.100000*%
G04 APERTURE END LIST*
D10*
X10040000Y-6825000D02*
X10040000Y-11325000D01*
X10040000Y-11325000D02*
X19040000Y-11325000D01*
X19040000Y-6825000D02*
X10040000Y-6825000D01*
X19040000Y-11325000D02*
X19040000Y-6825000D01*
D11*
D12*
X10230000Y-7480000D02*
X10270000Y-7520000D01*
X10270000Y-7480000D02*
X10230000Y-7520000D01*
X10230000Y-8980000D02*
X10270000Y-9020000D01*
X10270000Y-8980000D02*
X10230000Y-9020000D01*
X10230000Y-10980000D02*
X10270000Y-11020000D01*
X10270000Y-10980000D02*
X10230000Y-11020000D01*
X10730000Y-6980000D02*
X10770000Y-7020000D01*
X10770000Y-6980000D02*
X10730000Y-7020000D01*
X10730000Y-10980000D02*
X10770000Y-11020000D01*
X10770000Y-10980000D02*
X10730000Y-11020000D01*
X11230000Y-6980000D02*
X11270000Y-7020000D01*
X11270000Y-6980000D02*
X11230000Y-7020000D01*
X11230000Y-8730000D02*
X11270000Y-8770000D01*
X11270000Y-8730000D02*
X11230000Y-8770000D01*
X11230000Y-11230000D02*
X11270000Y-11270000D01*
X11270000Y-11230000D02*
X11230000Y-11270000D01*
X11430000Y-10480000D02*
X11470000Y-10520000D01*
X11470000Y-10480000D02*
X11430000Y-10520000D01*
X11700000Y-10105000D02*
X11740000Y-10145000D01*
X11740000Y-10105000D02*
X11700000Y-10145000D01*
X11730000Y-6980000D02*
X11770000Y-7020000D01*
X11770000Y-6980000D02*
X11730000Y-7020000D01*
X11730000Y-7480000D02*
X11770000Y-7520000D01*
X11770000Y-7480000D02*
X11730000Y-7520000D01*
X11730000Y-7980000D02*
X11770000Y-8020000D01*
X11770000Y-7980000D02*
X11730000Y-8020000D01*
X11730000Y-11230000D02*
X11770000Y-11270000D01*
X11770000Y-11230000D02*
X11730000Y-11270000D01*
X11830000Y-8880000D02*
X11870000Y-8920000D01*
X11870000Y-8880000D02*
X11830000Y-8920000D01*
X12060000Y-9635000D02*
X12100000Y-9675000D01*
X12100000Y-9635000D02*
X12060000Y-9675000D01*
X12060000Y-9945000D02*
X12100000Y-9985000D01*
X12100000Y-9945000D02*
X12060000Y-9985000D01*
X12230000Y-6980000D02*
X12270000Y-7020000D01*
X12270000Y-6980000D02*
X12230000Y-7020000D01*
X12230000Y-11230000D02*
X12270000Y-11270000D01*
X12270000Y-11230000D02*
X12230000Y-11270000D01*
X12280000Y-7430000D02*
X12320000Y-7470000D01*
X12320000Y-7430000D02*
X12280000Y-7470000D01*
X12280000Y-9299375D02*
X12320000Y-9339375D01*
X12320000Y-9299375D02*
X12280000Y-9339375D01*
X12435000Y-10379375D02*
X12475000Y-10419375D01*
X12475000Y-10379375D02*
X12435000Y-10419375D01*
X12435000Y-10849375D02*
X12475000Y-10889375D01*
X12475000Y-10849375D02*
X12435000Y-10889375D01*
X12730000Y-11230000D02*
X12770000Y-11270000D01*
X12770000Y-11230000D02*
X12730000Y-11270000D01*
X12830000Y-9930000D02*
X12870000Y-9970000D01*
X12870000Y-9930000D02*
X12830000Y-9970000D01*
X12947768Y-9449375D02*
X12987768Y-9489375D01*
X12987768Y-9449375D02*
X12947768Y-9489375D01*
X12980000Y-6980000D02*
X13020000Y-7020000D01*
X13020000Y-6980000D02*
X12980000Y-7020000D01*
X12980000Y-8980000D02*
X13020000Y-9020000D01*
X13020000Y-8980000D02*
X12980000Y-9020000D01*
X12980000Y-10780000D02*
X13020000Y-10820000D01*
X13020000Y-10780000D02*
X12980000Y-10820000D01*
X13230000Y-11230000D02*
X13270000Y-11270000D01*
X13270000Y-11230000D02*
X13230000Y-11270000D01*
X13480000Y-6980000D02*
X13520000Y-7020000D01*
X13520000Y-6980000D02*
X13480000Y-7020000D01*
X13498585Y-9448558D02*
X13538585Y-9488558D01*
X13538585Y-9448558D02*
X13498585Y-9488558D01*
X13730000Y-9380000D02*
X13770000Y-9420000D01*
X13770000Y-9380000D02*
X13730000Y-9420000D01*
X13730000Y-11230000D02*
X13770000Y-11270000D01*
X13770000Y-11230000D02*
X13730000Y-11270000D01*
X13960000Y-10635000D02*
X14000000Y-10675000D01*
X14000000Y-10635000D02*
X13960000Y-10675000D01*
X13980000Y-6980000D02*
X14020000Y-7020000D01*
X14020000Y-6980000D02*
X13980000Y-7020000D01*
X13980000Y-8230000D02*
X14020000Y-8270000D01*
X14020000Y-8230000D02*
X13980000Y-8270000D01*
X14130000Y-9730000D02*
X14170000Y-9770000D01*
X14170000Y-9730000D02*
X14130000Y-9770000D01*
X14230000Y-11230000D02*
X14270000Y-11270000D01*
X14270000Y-11230000D02*
X14230000Y-11270000D01*
X14250000Y-10245000D02*
X14290000Y-10285000D01*
X14290000Y-10245000D02*
X14250000Y-10285000D01*
X14480000Y-6980000D02*
X14520000Y-7020000D01*
X14520000Y-6980000D02*
X14480000Y-7020000D01*
X14480000Y-8230000D02*
X14520000Y-8270000D01*
X14520000Y-8230000D02*
X14480000Y-8270000D01*
X14730000Y-11230000D02*
X14770000Y-11270000D01*
X14770000Y-11230000D02*
X14730000Y-11270000D01*
X14980000Y-6980000D02*
X15020000Y-7020000D01*
X15020000Y-6980000D02*
X14980000Y-7020000D01*
X14980000Y-8230000D02*
X15020000Y-8270000D01*
X15020000Y-8230000D02*
X14980000Y-8270000D01*
X14980000Y-8980000D02*
X15020000Y-9020000D01*
X15020000Y-8980000D02*
X14980000Y-9020000D01*
X14980000Y-10480000D02*
X15020000Y-10520000D01*
X15020000Y-10480000D02*
X14980000Y-10520000D01*
X14980000Y-10980000D02*
X15020000Y-11020000D01*
X15020000Y-10980000D02*
X14980000Y-11020000D01*
X15090000Y-10115000D02*
X15130000Y-10155000D01*
X15130000Y-10115000D02*
X15090000Y-10155000D01*
X15480000Y-6980000D02*
X15520000Y-7020000D01*
X15520000Y-6980000D02*
X15480000Y-7020000D01*
X15480000Y-8230000D02*
X15520000Y-8270000D01*
X15520000Y-8230000D02*
X15480000Y-8270000D01*
X15480000Y-9230000D02*
X15520000Y-9270000D01*
X15520000Y-9230000D02*
X15480000Y-9270000D01*
X15980000Y-8230000D02*
X16020000Y-8270000D01*
X16020000Y-8230000D02*
X15980000Y-8270000D01*
X16230000Y-6980000D02*
X16270000Y-7020000D01*
X16270000Y-6980000D02*
X16230000Y-7020000D01*
X16480000Y-8230000D02*
X16520000Y-8270000D01*
X16520000Y-8230000D02*
X16480000Y-8270000D01*
X16480000Y-10480000D02*
X16520000Y-10520000D01*
X16520000Y-10480000D02*
X16480000Y-10520000D01*
X16500000Y-10115000D02*
X16540000Y-10155000D01*
X16540000Y-10115000D02*
X16500000Y-10155000D01*
X16980000Y-8230000D02*
X17020000Y-8270000D01*
X17020000Y-8230000D02*
X16980000Y-8270000D01*
X16980000Y-10480000D02*
X17020000Y-10520000D01*
X17020000Y-10480000D02*
X16980000Y-10520000D01*
X17480000Y-8230000D02*
X17520000Y-8270000D01*
X17520000Y-8230000D02*
X17480000Y-8270000D01*
X17730000Y-10480000D02*
X17770000Y-10520000D01*
X17770000Y-10480000D02*
X17730000Y-10520000D01*
X17980000Y-8230000D02*
X18020000Y-8270000D01*
X18020000Y-8230000D02*
X17980000Y-8270000D01*
X17980000Y-10230000D02*
X18020000Y-10270000D01*
X18020000Y-10230000D02*
X17980000Y-10270000D01*
X18230000Y-10980000D02*
X18270000Y-11020000D01*
X18270000Y-10980000D02*
X18230000Y-11020000D01*
X18480000Y-6980000D02*
X18520000Y-7020000D01*
X18520000Y-6980000D02*
X18480000Y-7020000D01*
X18480000Y-8230000D02*
X18520000Y-8270000D01*
X18520000Y-8230000D02*
X18480000Y-8270000D01*
X18730000Y-7230000D02*
X18770000Y-7270000D01*
X18770000Y-7230000D02*
X18730000Y-7270000D01*
X18730000Y-7730000D02*
X18770000Y-7770000D01*
X18770000Y-7730000D02*
X18730000Y-7770000D01*
X18730000Y-8480000D02*
X18770000Y-8520000D01*
X18770000Y-8480000D02*
X18730000Y-8520000D01*
X18730000Y-8980000D02*
X18770000Y-9020000D01*
X18770000Y-8980000D02*
X18730000Y-9020000D01*
X18730000Y-10480000D02*
X18770000Y-10520000D01*
X18770000Y-10480000D02*
X18730000Y-10520000D01*
D13*
X10415000Y-9303375D02*
G75*
G03*
X10415000Y-9303375I-50000J0D01*
G01*
X10415000Y-9557375D02*
G75*
G03*
X10415000Y-9557375I-50000J0D01*
G01*
X10415000Y-9811375D02*
G75*
G03*
X10415000Y-9811375I-50000J0D01*
G01*
X10415000Y-10065375D02*
G75*
G03*
X10415000Y-10065375I-50000J0D01*
G01*
X10415000Y-10319375D02*
G75*
G03*
X10415000Y-10319375I-50000J0D01*
G01*
X10995000Y-9046875D02*
G75*
G03*
X10995000Y-9046875I-50000J0D01*
G01*
X10995000Y-9300875D02*
G75*
G03*
X10995000Y-9300875I-50000J0D01*
G01*
X10995000Y-9554875D02*
G75*
G03*
X10995000Y-9554875I-50000J0D01*
G01*
X10995000Y-9808875D02*
G75*
G03*
X10995000Y-9808875I-50000J0D01*
G01*
X10995000Y-10062875D02*
G75*
G03*
X10995000Y-10062875I-50000J0D01*
G01*
X10995000Y-10316875D02*
G75*
G03*
X10995000Y-10316875I-50000J0D01*
G01*
X14630000Y-7626768D02*
G75*
G03*
X14630000Y-7626768I-50000J0D01*
G01*
X14630000Y-7976768D02*
G75*
G03*
X14630000Y-7976768I-50000J0D01*
G01*
D11*
X10292619Y-11640476D02*
X10292619Y-11440476D01*
X10340238Y-11440476D01*
X10368810Y-11450000D01*
X10387857Y-11469048D01*
X10397381Y-11488095D01*
X10406905Y-11526190D01*
X10406905Y-11554762D01*
X10397381Y-11592857D01*
X10387857Y-11611905D01*
X10368810Y-11630952D01*
X10340238Y-11640476D01*
X10292619Y-11640476D01*
X10492619Y-11640476D02*
X10492619Y-11507143D01*
X10492619Y-11545238D02*
X10502143Y-11526190D01*
X10511667Y-11516667D01*
X10530714Y-11507143D01*
X10549762Y-11507143D01*
X10616429Y-11640476D02*
X10616429Y-11507143D01*
X10616429Y-11440476D02*
X10606905Y-11450000D01*
X10616429Y-11459524D01*
X10625952Y-11450000D01*
X10616429Y-11440476D01*
X10616429Y-11459524D01*
X10740238Y-11640476D02*
X10721190Y-11630952D01*
X10711667Y-11611905D01*
X10711667Y-11440476D01*
X10845000Y-11640476D02*
X10825952Y-11630952D01*
X10816429Y-11611905D01*
X10816429Y-11440476D01*
X11073571Y-11640476D02*
X11073571Y-11440476D01*
X11140238Y-11583333D01*
X11206905Y-11440476D01*
X11206905Y-11640476D01*
X11387857Y-11640476D02*
X11387857Y-11535714D01*
X11378333Y-11516667D01*
X11359286Y-11507143D01*
X11321190Y-11507143D01*
X11302143Y-11516667D01*
X11387857Y-11630952D02*
X11368809Y-11640476D01*
X11321190Y-11640476D01*
X11302143Y-11630952D01*
X11292619Y-11611905D01*
X11292619Y-11592857D01*
X11302143Y-11573809D01*
X11321190Y-11564286D01*
X11368809Y-11564286D01*
X11387857Y-11554762D01*
X11483095Y-11507143D02*
X11483095Y-11707143D01*
X11483095Y-11516667D02*
X11502143Y-11507143D01*
X11540238Y-11507143D01*
X11559286Y-11516667D01*
X11568809Y-11526190D01*
X11578333Y-11545238D01*
X11578333Y-11602381D01*
X11568809Y-11621428D01*
X11559286Y-11630952D01*
X11540238Y-11640476D01*
X11502143Y-11640476D01*
X11483095Y-11630952D01*
X11664048Y-11621428D02*
X11673571Y-11630952D01*
X11664048Y-11640476D01*
X11654524Y-11630952D01*
X11664048Y-11621428D01*
X11664048Y-11640476D01*
X11664048Y-11516667D02*
X11673571Y-11526190D01*
X11664048Y-11535714D01*
X11654524Y-11526190D01*
X11664048Y-11516667D01*
X11664048Y-11535714D01*
D12*
X9995000Y-11950000D02*
X10035000Y-11990000D01*
X10035000Y-11950000D02*
X9995000Y-11990000D01*
D11*
X10330714Y-11860476D02*
X10349762Y-11860476D01*
X10368810Y-11870000D01*
X10378333Y-11879524D01*
X10387857Y-11898571D01*
X10397381Y-11936667D01*
X10397381Y-11984286D01*
X10387857Y-12022381D01*
X10378333Y-12041428D01*
X10368810Y-12050952D01*
X10349762Y-12060476D01*
X10330714Y-12060476D01*
X10311667Y-12050952D01*
X10302143Y-12041428D01*
X10292619Y-12022381D01*
X10283095Y-11984286D01*
X10283095Y-11936667D01*
X10292619Y-11898571D01*
X10302143Y-11879524D01*
X10311667Y-11870000D01*
X10330714Y-11860476D01*
X10483095Y-12041428D02*
X10492619Y-12050952D01*
X10483095Y-12060476D01*
X10473571Y-12050952D01*
X10483095Y-12041428D01*
X10483095Y-12060476D01*
X10664048Y-11927143D02*
X10664048Y-12060476D01*
X10616429Y-11850952D02*
X10568810Y-11993809D01*
X10692619Y-11993809D01*
X10806905Y-11860476D02*
X10825952Y-11860476D01*
X10845000Y-11870000D01*
X10854524Y-11879524D01*
X10864048Y-11898571D01*
X10873571Y-11936667D01*
X10873571Y-11984286D01*
X10864048Y-12022381D01*
X10854524Y-12041428D01*
X10845000Y-12050952D01*
X10825952Y-12060476D01*
X10806905Y-12060476D01*
X10787857Y-12050952D01*
X10778333Y-12041428D01*
X10768810Y-12022381D01*
X10759286Y-11984286D01*
X10759286Y-11936667D01*
X10768810Y-11898571D01*
X10778333Y-11879524D01*
X10787857Y-11870000D01*
X10806905Y-11860476D01*
X10997381Y-11860476D02*
X11016429Y-11860476D01*
X11035476Y-11870000D01*
X11045000Y-11879524D01*
X11054524Y-11898571D01*
X11064048Y-11936667D01*
X11064048Y-11984286D01*
X11054524Y-12022381D01*
X11045000Y-12041428D01*
X11035476Y-12050952D01*
X11016429Y-12060476D01*
X10997381Y-12060476D01*
X10978333Y-12050952D01*
X10968810Y-12041428D01*
X10959286Y-12022381D01*
X10949762Y-11984286D01*
X10949762Y-11936667D01*
X10959286Y-11898571D01*
X10968810Y-11879524D01*
X10978333Y-11870000D01*
X10997381Y-11860476D01*
X11149762Y-12060476D02*
X11149762Y-11927143D01*
X11149762Y-11946190D02*
X11159286Y-11936667D01*
X11178333Y-11927143D01*
X11206905Y-11927143D01*
X11225952Y-11936667D01*
X11235476Y-11955714D01*
X11235476Y-12060476D01*
X11235476Y-11955714D02*
X11245000Y-11936667D01*
X11264048Y-11927143D01*
X11292619Y-11927143D01*
X11311667Y-11936667D01*
X11321190Y-11955714D01*
X11321190Y-12060476D01*
X11416428Y-12060476D02*
X11416428Y-11927143D01*
X11416428Y-11946190D02*
X11425952Y-11936667D01*
X11445000Y-11927143D01*
X11473571Y-11927143D01*
X11492619Y-11936667D01*
X11502143Y-11955714D01*
X11502143Y-12060476D01*
X11502143Y-11955714D02*
X11511667Y-11936667D01*
X11530714Y-11927143D01*
X11559286Y-11927143D01*
X11578333Y-11936667D01*
X11587857Y-11955714D01*
X11587857Y-12060476D01*
X11978333Y-11850952D02*
X11806905Y-12108095D01*
X12235476Y-11860476D02*
X12254524Y-11860476D01*
X12273571Y-11870000D01*
X12283095Y-11879524D01*
X12292619Y-11898571D01*
X12302143Y-11936667D01*
X12302143Y-11984286D01*
X12292619Y-12022381D01*
X12283095Y-12041428D01*
X12273571Y-12050952D01*
X12254524Y-12060476D01*
X12235476Y-12060476D01*
X12216428Y-12050952D01*
X12206905Y-12041428D01*
X12197381Y-12022381D01*
X12187857Y-11984286D01*
X12187857Y-11936667D01*
X12197381Y-11898571D01*
X12206905Y-11879524D01*
X12216428Y-11870000D01*
X12235476Y-11860476D01*
X12387857Y-12041428D02*
X12397381Y-12050952D01*
X12387857Y-12060476D01*
X12378333Y-12050952D01*
X12387857Y-12041428D01*
X12387857Y-12060476D01*
X12521190Y-11860476D02*
X12540238Y-11860476D01*
X12559286Y-11870000D01*
X12568809Y-11879524D01*
X12578333Y-11898571D01*
X12587857Y-11936667D01*
X12587857Y-11984286D01*
X12578333Y-12022381D01*
X12568809Y-12041428D01*
X12559286Y-12050952D01*
X12540238Y-12060476D01*
X12521190Y-12060476D01*
X12502143Y-12050952D01*
X12492619Y-12041428D01*
X12483095Y-12022381D01*
X12473571Y-11984286D01*
X12473571Y-11936667D01*
X12483095Y-11898571D01*
X12492619Y-11879524D01*
X12502143Y-11870000D01*
X12521190Y-11860476D01*
X12778333Y-12060476D02*
X12664048Y-12060476D01*
X12721190Y-12060476D02*
X12721190Y-11860476D01*
X12702143Y-11889048D01*
X12683095Y-11908095D01*
X12664048Y-11917619D01*
X12959286Y-11860476D02*
X12864048Y-11860476D01*
X12854524Y-11955714D01*
X12864048Y-11946190D01*
X12883095Y-11936667D01*
X12930714Y-11936667D01*
X12949762Y-11946190D01*
X12959286Y-11955714D01*
X12968809Y-11974762D01*
X12968809Y-12022381D01*
X12959286Y-12041428D01*
X12949762Y-12050952D01*
X12930714Y-12060476D01*
X12883095Y-12060476D01*
X12864048Y-12050952D01*
X12854524Y-12041428D01*
X13035476Y-11860476D02*
X13168809Y-11860476D01*
X13083095Y-12060476D01*
X13235476Y-11860476D02*
X13235476Y-11898571D01*
X13311667Y-11860476D02*
X13311667Y-11898571D01*
X13606905Y-12136667D02*
X13597381Y-12127143D01*
X13578333Y-12098571D01*
X13568809Y-12079524D01*
X13559286Y-12050952D01*
X13549762Y-12003333D01*
X13549762Y-11965238D01*
X13559286Y-11917619D01*
X13568809Y-11889048D01*
X13578333Y-11870000D01*
X13597381Y-11841428D01*
X13606905Y-11831905D01*
X13664048Y-11860476D02*
X13797381Y-11860476D01*
X13711667Y-12060476D01*
X13978333Y-12060476D02*
X13864048Y-12060476D01*
X13921190Y-12060476D02*
X13921190Y-11860476D01*
X13902143Y-11889048D01*
X13883095Y-11908095D01*
X13864048Y-11917619D01*
X14216428Y-12060476D02*
X14216428Y-11860476D01*
X14302143Y-12060476D02*
X14302143Y-11955714D01*
X14292619Y-11936667D01*
X14273571Y-11927143D01*
X14245000Y-11927143D01*
X14225952Y-11936667D01*
X14216428Y-11946190D01*
X14425952Y-12060476D02*
X14406905Y-12050952D01*
X14397381Y-12041428D01*
X14387857Y-12022381D01*
X14387857Y-11965238D01*
X14397381Y-11946190D01*
X14406905Y-11936667D01*
X14425952Y-11927143D01*
X14454524Y-11927143D01*
X14473571Y-11936667D01*
X14483095Y-11946190D01*
X14492619Y-11965238D01*
X14492619Y-12022381D01*
X14483095Y-12041428D01*
X14473571Y-12050952D01*
X14454524Y-12060476D01*
X14425952Y-12060476D01*
X14606905Y-12060476D02*
X14587857Y-12050952D01*
X14578333Y-12031905D01*
X14578333Y-11860476D01*
X14759286Y-12050952D02*
X14740238Y-12060476D01*
X14702143Y-12060476D01*
X14683095Y-12050952D01*
X14673571Y-12031905D01*
X14673571Y-11955714D01*
X14683095Y-11936667D01*
X14702143Y-11927143D01*
X14740238Y-11927143D01*
X14759286Y-11936667D01*
X14768809Y-11955714D01*
X14768809Y-11974762D01*
X14673571Y-11993809D01*
X14845000Y-12050952D02*
X14864048Y-12060476D01*
X14902143Y-12060476D01*
X14921190Y-12050952D01*
X14930714Y-12031905D01*
X14930714Y-12022381D01*
X14921190Y-12003333D01*
X14902143Y-11993809D01*
X14873571Y-11993809D01*
X14854524Y-11984286D01*
X14845000Y-11965238D01*
X14845000Y-11955714D01*
X14854524Y-11936667D01*
X14873571Y-11927143D01*
X14902143Y-11927143D01*
X14921190Y-11936667D01*
X14997381Y-12136667D02*
X15006905Y-12127143D01*
X15025952Y-12098571D01*
X15035476Y-12079524D01*
X15045000Y-12050952D01*
X15054524Y-12003333D01*
X15054524Y-11965238D01*
X15045000Y-11917619D01*
X15035476Y-11889048D01*
X15025952Y-11870000D01*
X15006905Y-11841428D01*
X14997381Y-11831905D01*
D13*
X10035000Y-12234000D02*
G75*
G03*
X10035000Y-12234000I-50000J0D01*
G01*
D11*
X10397381Y-12324476D02*
X10283095Y-12324476D01*
X10340238Y-12324476D02*
X10340238Y-12124476D01*
X10321190Y-12153048D01*
X10302143Y-12172095D01*
X10283095Y-12181619D01*
X10483095Y-12305428D02*
X10492619Y-12314952D01*
X10483095Y-12324476D01*
X10473571Y-12314952D01*
X10483095Y-12305428D01*
X10483095Y-12324476D01*
X10616429Y-12124476D02*
X10635476Y-12124476D01*
X10654524Y-12134000D01*
X10664048Y-12143524D01*
X10673571Y-12162571D01*
X10683095Y-12200667D01*
X10683095Y-12248286D01*
X10673571Y-12286381D01*
X10664048Y-12305428D01*
X10654524Y-12314952D01*
X10635476Y-12324476D01*
X10616429Y-12324476D01*
X10597381Y-12314952D01*
X10587857Y-12305428D01*
X10578333Y-12286381D01*
X10568810Y-12248286D01*
X10568810Y-12200667D01*
X10578333Y-12162571D01*
X10587857Y-12143524D01*
X10597381Y-12134000D01*
X10616429Y-12124476D01*
X10806905Y-12124476D02*
X10825952Y-12124476D01*
X10845000Y-12134000D01*
X10854524Y-12143524D01*
X10864048Y-12162571D01*
X10873571Y-12200667D01*
X10873571Y-12248286D01*
X10864048Y-12286381D01*
X10854524Y-12305428D01*
X10845000Y-12314952D01*
X10825952Y-12324476D01*
X10806905Y-12324476D01*
X10787857Y-12314952D01*
X10778333Y-12305428D01*
X10768810Y-12286381D01*
X10759286Y-12248286D01*
X10759286Y-12200667D01*
X10768810Y-12162571D01*
X10778333Y-12143524D01*
X10787857Y-12134000D01*
X10806905Y-12124476D01*
X10997381Y-12124476D02*
X11016429Y-12124476D01*
X11035476Y-12134000D01*
X11045000Y-12143524D01*
X11054524Y-12162571D01*
X11064048Y-12200667D01*
X11064048Y-12248286D01*
X11054524Y-12286381D01*
X11045000Y-12305428D01*
X11035476Y-12314952D01*
X11016429Y-12324476D01*
X10997381Y-12324476D01*
X10978333Y-12314952D01*
X10968810Y-12305428D01*
X10959286Y-12286381D01*
X10949762Y-12248286D01*
X10949762Y-12200667D01*
X10959286Y-12162571D01*
X10968810Y-12143524D01*
X10978333Y-12134000D01*
X10997381Y-12124476D01*
X11149762Y-12324476D02*
X11149762Y-12191143D01*
X11149762Y-12210190D02*
X11159286Y-12200667D01*
X11178333Y-12191143D01*
X11206905Y-12191143D01*
X11225952Y-12200667D01*
X11235476Y-12219714D01*
X11235476Y-12324476D01*
X11235476Y-12219714D02*
X11245000Y-12200667D01*
X11264048Y-12191143D01*
X11292619Y-12191143D01*
X11311667Y-12200667D01*
X11321190Y-12219714D01*
X11321190Y-12324476D01*
X11416428Y-12324476D02*
X11416428Y-12191143D01*
X11416428Y-12210190D02*
X11425952Y-12200667D01*
X11445000Y-12191143D01*
X11473571Y-12191143D01*
X11492619Y-12200667D01*
X11502143Y-12219714D01*
X11502143Y-12324476D01*
X11502143Y-12219714D02*
X11511667Y-12200667D01*
X11530714Y-12191143D01*
X11559286Y-12191143D01*
X11578333Y-12200667D01*
X11587857Y-12219714D01*
X11587857Y-12324476D01*
X11978333Y-12114952D02*
X11806905Y-12372095D01*
X12235476Y-12124476D02*
X12254524Y-12124476D01*
X12273571Y-12134000D01*
X12283095Y-12143524D01*
X12292619Y-12162571D01*
X12302143Y-12200667D01*
X12302143Y-12248286D01*
X12292619Y-12286381D01*
X12283095Y-12305428D01*
X12273571Y-12314952D01*
X12254524Y-12324476D01*
X12235476Y-12324476D01*
X12216428Y-12314952D01*
X12206905Y-12305428D01*
X12197381Y-12286381D01*
X12187857Y-12248286D01*
X12187857Y-12200667D01*
X12197381Y-12162571D01*
X12206905Y-12143524D01*
X12216428Y-12134000D01*
X12235476Y-12124476D01*
X12387857Y-12305428D02*
X12397381Y-12314952D01*
X12387857Y-12324476D01*
X12378333Y-12314952D01*
X12387857Y-12305428D01*
X12387857Y-12324476D01*
X12521190Y-12124476D02*
X12540238Y-12124476D01*
X12559286Y-12134000D01*
X12568809Y-12143524D01*
X12578333Y-12162571D01*
X12587857Y-12200667D01*
X12587857Y-12248286D01*
X12578333Y-12286381D01*
X12568809Y-12305428D01*
X12559286Y-12314952D01*
X12540238Y-12324476D01*
X12521190Y-12324476D01*
X12502143Y-12314952D01*
X12492619Y-12305428D01*
X12483095Y-12286381D01*
X12473571Y-12248286D01*
X12473571Y-12200667D01*
X12483095Y-12162571D01*
X12492619Y-12143524D01*
X12502143Y-12134000D01*
X12521190Y-12124476D01*
X12654524Y-12124476D02*
X12778333Y-12124476D01*
X12711667Y-12200667D01*
X12740238Y-12200667D01*
X12759286Y-12210190D01*
X12768809Y-12219714D01*
X12778333Y-12238762D01*
X12778333Y-12286381D01*
X12768809Y-12305428D01*
X12759286Y-12314952D01*
X12740238Y-12324476D01*
X12683095Y-12324476D01*
X12664048Y-12314952D01*
X12654524Y-12305428D01*
X12873571Y-12324476D02*
X12911667Y-12324476D01*
X12930714Y-12314952D01*
X12940238Y-12305428D01*
X12959286Y-12276857D01*
X12968809Y-12238762D01*
X12968809Y-12162571D01*
X12959286Y-12143524D01*
X12949762Y-12134000D01*
X12930714Y-12124476D01*
X12892619Y-12124476D01*
X12873571Y-12134000D01*
X12864048Y-12143524D01*
X12854524Y-12162571D01*
X12854524Y-12210190D01*
X12864048Y-12229238D01*
X12873571Y-12238762D01*
X12892619Y-12248286D01*
X12930714Y-12248286D01*
X12949762Y-12238762D01*
X12959286Y-12229238D01*
X12968809Y-12210190D01*
X13140238Y-12191143D02*
X13140238Y-12324476D01*
X13092619Y-12114952D02*
X13045000Y-12257809D01*
X13168809Y-12257809D01*
X13235476Y-12124476D02*
X13235476Y-12162571D01*
X13311667Y-12124476D02*
X13311667Y-12162571D01*
X13606905Y-12400667D02*
X13597381Y-12391143D01*
X13578333Y-12362571D01*
X13568809Y-12343524D01*
X13559286Y-12314952D01*
X13549762Y-12267333D01*
X13549762Y-12229238D01*
X13559286Y-12181619D01*
X13568809Y-12153048D01*
X13578333Y-12134000D01*
X13597381Y-12105428D01*
X13606905Y-12095905D01*
X13787857Y-12324476D02*
X13673571Y-12324476D01*
X13730714Y-12324476D02*
X13730714Y-12124476D01*
X13711667Y-12153048D01*
X13692619Y-12172095D01*
X13673571Y-12181619D01*
X13854524Y-12124476D02*
X13978333Y-12124476D01*
X13911667Y-12200667D01*
X13940238Y-12200667D01*
X13959286Y-12210190D01*
X13968809Y-12219714D01*
X13978333Y-12238762D01*
X13978333Y-12286381D01*
X13968809Y-12305428D01*
X13959286Y-12314952D01*
X13940238Y-12324476D01*
X13883095Y-12324476D01*
X13864048Y-12314952D01*
X13854524Y-12305428D01*
X14216428Y-12324476D02*
X14216428Y-12124476D01*
X14302143Y-12324476D02*
X14302143Y-12219714D01*
X14292619Y-12200667D01*
X14273571Y-12191143D01*
X14245000Y-12191143D01*
X14225952Y-12200667D01*
X14216428Y-12210190D01*
X14425952Y-12324476D02*
X14406905Y-12314952D01*
X14397381Y-12305428D01*
X14387857Y-12286381D01*
X14387857Y-12229238D01*
X14397381Y-12210190D01*
X14406905Y-12200667D01*
X14425952Y-12191143D01*
X14454524Y-12191143D01*
X14473571Y-12200667D01*
X14483095Y-12210190D01*
X14492619Y-12229238D01*
X14492619Y-12286381D01*
X14483095Y-12305428D01*
X14473571Y-12314952D01*
X14454524Y-12324476D01*
X14425952Y-12324476D01*
X14606905Y-12324476D02*
X14587857Y-12314952D01*
X14578333Y-12295905D01*
X14578333Y-12124476D01*
X14759286Y-12314952D02*
X14740238Y-12324476D01*
X14702143Y-12324476D01*
X14683095Y-12314952D01*
X14673571Y-12295905D01*
X14673571Y-12219714D01*
X14683095Y-12200667D01*
X14702143Y-12191143D01*
X14740238Y-12191143D01*
X14759286Y-12200667D01*
X14768809Y-12219714D01*
X14768809Y-12238762D01*
X14673571Y-12257809D01*
X14845000Y-12314952D02*
X14864048Y-12324476D01*
X14902143Y-12324476D01*
X14921190Y-12314952D01*
X14930714Y-12295905D01*
X14930714Y-12286381D01*
X14921190Y-12267333D01*
X14902143Y-12257809D01*
X14873571Y-12257809D01*
X14854524Y-12248286D01*
X14845000Y-12229238D01*
X14845000Y-12219714D01*
X14854524Y-12200667D01*
X14873571Y-12191143D01*
X14902143Y-12191143D01*
X14921190Y-12200667D01*
X14997381Y-12400667D02*
X15006905Y-12391143D01*
X15025952Y-12362571D01*
X15035476Y-12343524D01*
X15045000Y-12314952D01*
X15054524Y-12267333D01*
X15054524Y-12229238D01*
X15045000Y-12181619D01*
X15035476Y-12153048D01*
X15025952Y-12134000D01*
X15006905Y-12105428D01*
X14997381Y-12095905D01*
M02*
