%TF.GenerationSoftware,KiCad,Pcbnew,(6.0.0)*%
%TF.CreationDate,2022-03-15T11:15:48+01:00*%
%TF.ProjectId,driver-board,64726976-6572-42d6-926f-6172642e6b69,rev?*%
%TF.SameCoordinates,Original*%
%TF.FileFunction,Copper,L1,Top*%
%TF.FilePolarity,Positive*%
%FSLAX46Y46*%
G04 Gerber Fmt 4.6, Leading zero omitted, Abs format (unit mm)*
G04 Created by KiCad (PCBNEW (6.0.0)) date 2022-03-15 11:15:48*
%MOMM*%
%LPD*%
G01*
G04 APERTURE LIST*
G04 Aperture macros list*
%AMRoundRect*
0 Rectangle with rounded corners*
0 $1 Rounding radius*
0 $2 $3 $4 $5 $6 $7 $8 $9 X,Y pos of 4 corners*
0 Add a 4 corners polygon primitive as box body*
4,1,4,$2,$3,$4,$5,$6,$7,$8,$9,$2,$3,0*
0 Add four circle primitives for the rounded corners*
1,1,$1+$1,$2,$3*
1,1,$1+$1,$4,$5*
1,1,$1+$1,$6,$7*
1,1,$1+$1,$8,$9*
0 Add four rect primitives between the rounded corners*
20,1,$1+$1,$2,$3,$4,$5,0*
20,1,$1+$1,$4,$5,$6,$7,0*
20,1,$1+$1,$6,$7,$8,$9,0*
20,1,$1+$1,$8,$9,$2,$3,0*%
G04 Aperture macros list end*
%TA.AperFunction,SMDPad,CuDef*%
%ADD10R,3.500000X1.700000*%
%TD*%
%TA.AperFunction,ComponentPad*%
%ADD11R,1.700000X1.700000*%
%TD*%
%TA.AperFunction,ComponentPad*%
%ADD12O,1.700000X1.700000*%
%TD*%
%TA.AperFunction,SMDPad,CuDef*%
%ADD13R,1.700000X3.500000*%
%TD*%
%TA.AperFunction,SMDPad,CuDef*%
%ADD14RoundRect,0.250000X-0.337500X-0.475000X0.337500X-0.475000X0.337500X0.475000X-0.337500X0.475000X0*%
%TD*%
%TA.AperFunction,SMDPad,CuDef*%
%ADD15RoundRect,0.250000X0.475000X-0.337500X0.475000X0.337500X-0.475000X0.337500X-0.475000X-0.337500X0*%
%TD*%
%TA.AperFunction,SMDPad,CuDef*%
%ADD16R,1.400000X0.900000*%
%TD*%
%TA.AperFunction,SMDPad,CuDef*%
%ADD17RoundRect,0.250000X0.350000X0.450000X-0.350000X0.450000X-0.350000X-0.450000X0.350000X-0.450000X0*%
%TD*%
%TA.AperFunction,SMDPad,CuDef*%
%ADD18RoundRect,0.250000X-0.450000X0.350000X-0.450000X-0.350000X0.450000X-0.350000X0.450000X0.350000X0*%
%TD*%
%TA.AperFunction,SMDPad,CuDef*%
%ADD19RoundRect,0.250000X0.337500X0.475000X-0.337500X0.475000X-0.337500X-0.475000X0.337500X-0.475000X0*%
%TD*%
%TA.AperFunction,SMDPad,CuDef*%
%ADD20RoundRect,0.250000X-0.475000X0.337500X-0.475000X-0.337500X0.475000X-0.337500X0.475000X0.337500X0*%
%TD*%
%TA.AperFunction,SMDPad,CuDef*%
%ADD21RoundRect,0.250001X0.462499X1.074999X-0.462499X1.074999X-0.462499X-1.074999X0.462499X-1.074999X0*%
%TD*%
%TA.AperFunction,SMDPad,CuDef*%
%ADD22RoundRect,0.250000X0.450000X-0.350000X0.450000X0.350000X-0.450000X0.350000X-0.450000X-0.350000X0*%
%TD*%
%TA.AperFunction,SMDPad,CuDef*%
%ADD23R,2.500000X1.200000*%
%TD*%
%TA.AperFunction,SMDPad,CuDef*%
%ADD24R,1.560000X0.650000*%
%TD*%
%TA.AperFunction,SMDPad,CuDef*%
%ADD25R,4.200000X1.400000*%
%TD*%
%TA.AperFunction,SMDPad,CuDef*%
%ADD26C,1.500000*%
%TD*%
%TA.AperFunction,SMDPad,CuDef*%
%ADD27RoundRect,0.250001X-1.074999X0.462499X-1.074999X-0.462499X1.074999X-0.462499X1.074999X0.462499X0*%
%TD*%
%TA.AperFunction,ComponentPad*%
%ADD28R,2.000000X2.000000*%
%TD*%
%TA.AperFunction,ComponentPad*%
%ADD29C,2.000000*%
%TD*%
%TA.AperFunction,SMDPad,CuDef*%
%ADD30R,0.900000X0.900000*%
%TD*%
%TA.AperFunction,SMDPad,CuDef*%
%ADD31RoundRect,0.150000X-0.825000X-0.150000X0.825000X-0.150000X0.825000X0.150000X-0.825000X0.150000X0*%
%TD*%
%TA.AperFunction,SMDPad,CuDef*%
%ADD32R,1.500000X1.000000*%
%TD*%
%TA.AperFunction,SMDPad,CuDef*%
%ADD33RoundRect,0.100000X0.637500X0.100000X-0.637500X0.100000X-0.637500X-0.100000X0.637500X-0.100000X0*%
%TD*%
%TA.AperFunction,ConnectorPad*%
%ADD34R,5.600000X1.500000*%
%TD*%
%TA.AperFunction,ConnectorPad*%
%ADD35R,4.900000X1.600000*%
%TD*%
%TA.AperFunction,SMDPad,CuDef*%
%ADD36RoundRect,0.150000X-0.512500X-0.150000X0.512500X-0.150000X0.512500X0.150000X-0.512500X0.150000X0*%
%TD*%
%TA.AperFunction,ConnectorPad*%
%ADD37R,1.600000X4.900000*%
%TD*%
%TA.AperFunction,ComponentPad*%
%ADD38O,1.200000X1.600000*%
%TD*%
%TA.AperFunction,ComponentPad*%
%ADD39O,1.200000X1.200000*%
%TD*%
%TA.AperFunction,ViaPad*%
%ADD40C,0.800000*%
%TD*%
%TA.AperFunction,Conductor*%
%ADD41C,1.000000*%
%TD*%
%TA.AperFunction,Conductor*%
%ADD42C,0.400000*%
%TD*%
%TA.AperFunction,Conductor*%
%ADD43C,0.500000*%
%TD*%
%TA.AperFunction,Conductor*%
%ADD44C,0.550000*%
%TD*%
G04 APERTURE END LIST*
%TO.C,JP1*%
G36*
X98400000Y-97950000D02*
G01*
X97800000Y-97950000D01*
X97800000Y-97450000D01*
X98400000Y-97450000D01*
X98400000Y-97950000D01*
G37*
%TD*%
D10*
%TO.P,U1,3,GND*%
%TO.N,GND*%
X68662500Y-80152500D03*
D11*
X69562500Y-80152500D03*
D10*
%TO.P,U1,6,GPIO4*%
%TO.N,SDA1*%
X68662500Y-87772500D03*
D12*
X69562500Y-87772500D03*
%TO.P,U1,7,GPIO5*%
%TO.N,SCL1*%
X69562500Y-90312500D03*
D10*
X68662500Y-90312500D03*
D11*
%TO.P,U1,8,GND*%
%TO.N,GND*%
X69562500Y-92852500D03*
D10*
X68662500Y-92852500D03*
%TO.P,U1,13,GND*%
X68662500Y-105552500D03*
D11*
X69562500Y-105552500D03*
%TO.P,U1,18,GND*%
X69562500Y-118252500D03*
D10*
X68662500Y-118252500D03*
D11*
%TO.P,U1,23,GND*%
X87342500Y-118252500D03*
D10*
X88242500Y-118252500D03*
D12*
%TO.P,U1,26,GPIO20*%
%TO.N,SDA0*%
X87342500Y-110632500D03*
D10*
X88242500Y-110632500D03*
%TO.P,U1,27,GPIO21*%
%TO.N,SCL0*%
X88242500Y-108092500D03*
D12*
X87342500Y-108092500D03*
D10*
%TO.P,U1,28,GND*%
%TO.N,GND*%
X88242500Y-105552500D03*
D11*
X87342500Y-105552500D03*
D10*
%TO.P,U1,30,RUN*%
%TO.N,Net-(SW1-Pad1)*%
X88242500Y-100472500D03*
D12*
X87342500Y-100472500D03*
D10*
%TO.P,U1,31,GPIO26_ADC0*%
%TO.N,TIA_OUT*%
X88242500Y-97932500D03*
D12*
X87342500Y-97932500D03*
D10*
%TO.P,U1,32,GPIO27_ADC1*%
%TO.N,DAC_OUT_I_SRC*%
X88242500Y-95392500D03*
D12*
X87342500Y-95392500D03*
D11*
%TO.P,U1,33,AGND*%
%TO.N,GND*%
X87342500Y-92852500D03*
D10*
X88242500Y-92852500D03*
%TO.P,U1,34,GPIO28_ADC2*%
%TO.N,unconnected-(U1-Pad34)*%
X88242500Y-90312500D03*
D12*
X87342500Y-90312500D03*
D10*
%TO.P,U1,36,3V3*%
%TO.N,3V3*%
X88242500Y-85232500D03*
D12*
X87342500Y-85232500D03*
D11*
%TO.P,U1,38,GND*%
%TO.N,GND*%
X87342500Y-80152500D03*
D10*
X88242500Y-80152500D03*
D12*
%TO.P,U1,40,VBUS*%
%TO.N,5V*%
X87342500Y-75072500D03*
D10*
X88242500Y-75072500D03*
D13*
%TO.P,U1,41,SWCLK*%
%TO.N,unconnected-(U1-Pad41)*%
X75912500Y-124002500D03*
D12*
X75912500Y-123102500D03*
D11*
%TO.P,U1,42,GND*%
%TO.N,unconnected-(U1-Pad42)*%
X78452500Y-123102500D03*
D13*
X78452500Y-124002500D03*
%TO.P,U1,43,SWDIO*%
%TO.N,unconnected-(U1-Pad43)*%
X80992500Y-124002500D03*
D12*
X80992500Y-123102500D03*
%TD*%
D14*
%TO.P,C14,1*%
%TO.N,Net-(C14-Pad1)*%
X97962500Y-116000000D03*
%TO.P,C14,2*%
%TO.N,Net-(C14-Pad2)*%
X100037500Y-116000000D03*
%TD*%
D15*
%TO.P,C10,2*%
%TO.N,GND*%
X123100000Y-103062500D03*
%TO.P,C10,1*%
%TO.N,Net-(R3-Pad2)*%
X123100000Y-105137500D03*
%TD*%
D16*
%TO.P,SW1,1,1*%
%TO.N,Net-(SW1-Pad1)*%
X62500000Y-100750000D03*
%TO.P,SW1,2,2*%
%TO.N,GND*%
X62500000Y-107250000D03*
%TD*%
D17*
%TO.P,R7,1*%
%TO.N,Net-(R7-Pad1)*%
X109125480Y-106200000D03*
%TO.P,R7,2*%
%TO.N,Net-(R7-Pad2)*%
X107125480Y-106200000D03*
%TD*%
D18*
%TO.P,R4,1*%
%TO.N,Net-(C15-Pad1)*%
X97000000Y-123500000D03*
%TO.P,R4,2*%
%TO.N,-33V*%
X97000000Y-125500000D03*
%TD*%
D19*
%TO.P,C16,1*%
%TO.N,GND*%
X96537500Y-120000000D03*
%TO.P,C16,2*%
%TO.N,-33V*%
X94462500Y-120000000D03*
%TD*%
D20*
%TO.P,C3,1*%
%TO.N,A3V3*%
X114000000Y-83862500D03*
%TO.P,C3,2*%
%TO.N,GND*%
X114000000Y-85937500D03*
%TD*%
D21*
%TO.P,L1,1,1*%
%TO.N,5V*%
X100987500Y-112500000D03*
%TO.P,L1,2,2*%
%TO.N,Net-(C14-Pad1)*%
X98012500Y-112500000D03*
%TD*%
D14*
%TO.P,C13,1*%
%TO.N,GND*%
X98962500Y-109000000D03*
%TO.P,C13,2*%
%TO.N,5V*%
X101037500Y-109000000D03*
%TD*%
D22*
%TO.P,R1,1*%
%TO.N,Net-(C5-Pad2)*%
X118400000Y-84000000D03*
%TO.P,R1,2*%
%TO.N,Net-(R1-Pad2)*%
X118400000Y-82000000D03*
%TD*%
D20*
%TO.P,C1,1*%
%TO.N,5V*%
X101925000Y-74962500D03*
%TO.P,C1,2*%
%TO.N,GND*%
X101925000Y-77037500D03*
%TD*%
D23*
%TO.P,SW2,3,C*%
%TO.N,GND*%
X128000000Y-102600000D03*
X133500000Y-102600000D03*
%TO.P,SW2,2,B*%
%TO.N,Net-(R3-Pad2)*%
X133500000Y-105100000D03*
X128000000Y-105100000D03*
%TO.P,SW2,1,A*%
%TO.N,Net-(RV2-Pad2)*%
X128000000Y-107600000D03*
X133500000Y-107600000D03*
%TD*%
D15*
%TO.P,C6,1*%
%TO.N,PD*%
X116537500Y-100000000D03*
%TO.P,C6,2*%
%TO.N,TIA_OUT*%
X116537500Y-97925000D03*
%TD*%
D14*
%TO.P,C2,1*%
%TO.N,A3V3*%
X111925000Y-75000000D03*
%TO.P,C2,2*%
%TO.N,GND*%
X114000000Y-75000000D03*
%TD*%
D24*
%TO.P,U2,1,VIN*%
%TO.N,5V*%
X105575000Y-74950000D03*
%TO.P,U2,2,GND*%
%TO.N,GND*%
X105575000Y-75900000D03*
%TO.P,U2,3,EN*%
%TO.N,unconnected-(U2-Pad3)*%
X105575000Y-76850000D03*
%TO.P,U2,4,NC*%
%TO.N,unconnected-(U2-Pad4)*%
X108275000Y-76850000D03*
%TO.P,U2,5,VOUT*%
%TO.N,A3V3*%
X108275000Y-74950000D03*
%TD*%
D14*
%TO.P,C9,1*%
%TO.N,A3V3*%
X111962500Y-78500000D03*
%TO.P,C9,2*%
%TO.N,GND*%
X114037500Y-78500000D03*
%TD*%
D25*
%TO.P,RV2,1,1*%
%TO.N,GND*%
X105100000Y-116000000D03*
%TO.P,RV2,2,2*%
%TO.N,Net-(RV2-Pad2)*%
X125100000Y-121100000D03*
%TO.P,RV2,3,3*%
%TO.N,-33V*%
X105100000Y-126000000D03*
%TD*%
D26*
%TO.P,TP4,1,1*%
%TO.N,TIA_OUT*%
X98600000Y-92900000D03*
%TD*%
D14*
%TO.P,C11,1*%
%TO.N,GND*%
X122962500Y-116000000D03*
%TO.P,C11,2*%
%TO.N,SiPM Bias*%
X125037500Y-116000000D03*
%TD*%
D27*
%TO.P,L2,1,1*%
%TO.N,Net-(C14-Pad2)*%
X105000000Y-119512500D03*
%TO.P,L2,2,2*%
%TO.N,-33V*%
X105000000Y-122487500D03*
%TD*%
D26*
%TO.P,TP7,1,1*%
%TO.N,Net-(R8-Pad1)*%
X114000000Y-111000000D03*
%TD*%
D11*
%TO.P,J1,1,Pin_1*%
%TO.N,DAC_OUT_I_SRC*%
X94024999Y-102977500D03*
D12*
%TO.P,J1,2,Pin_2*%
%TO.N,GND*%
X94024999Y-105517500D03*
%TO.P,J1,3,Pin_3*%
%TO.N,SCL0*%
X94024999Y-108057500D03*
%TO.P,J1,4,Pin_4*%
%TO.N,SDA0*%
X94024999Y-110597500D03*
%TO.P,J1,5,Pin_5*%
%TO.N,3V3*%
X94024999Y-113137500D03*
%TO.P,J1,6,Pin_6*%
%TO.N,GND*%
X94024999Y-115677500D03*
%TD*%
D28*
%TO.P,C12,1*%
%TO.N,GND*%
X133800000Y-117200000D03*
D29*
%TO.P,C12,2*%
%TO.N,SiPM Bias*%
X130300000Y-117200000D03*
%TD*%
D11*
%TO.P,J3,1,Pin_1*%
%TO.N,DAC_OUT_TIA*%
X62975000Y-95402500D03*
D12*
%TO.P,J3,2,Pin_2*%
%TO.N,GND*%
X62975000Y-92862500D03*
%TO.P,J3,3,Pin_3*%
%TO.N,SCL1*%
X62975000Y-90322500D03*
%TO.P,J3,4,Pin_4*%
%TO.N,SDA1*%
X62975000Y-87782500D03*
%TO.P,J3,5,Pin_5*%
%TO.N,3V3*%
X62975000Y-85242500D03*
%TO.P,J3,6,Pin_6*%
%TO.N,GND*%
X62975000Y-82702500D03*
%TD*%
D17*
%TO.P,R6,1*%
%TO.N,Net-(R6-Pad1)*%
X106000000Y-110000000D03*
%TO.P,R6,2*%
%TO.N,Net-(R6-Pad2)*%
X104000000Y-110000000D03*
%TD*%
D26*
%TO.P,TP1,1,1*%
%TO.N,DAC_OUT_I_SRC*%
X95800000Y-81900000D03*
%TD*%
D30*
%TO.P,RN1,8,R1.2*%
%TO.N,Net-(RN1-Pad7)*%
X101377500Y-84002500D03*
%TO.P,RN1,7,R2.2*%
X101377500Y-85342500D03*
%TO.P,RN1,6,R3.2*%
%TO.N,Net-(RN1-Pad5)*%
X101377500Y-86662500D03*
%TO.P,RN1,5,R4.2*%
X101377500Y-88002500D03*
%TO.P,RN1,4,R4.1*%
%TO.N,GND*%
X98377500Y-88002500D03*
%TO.P,RN1,3,R3.1*%
%TO.N,Net-(RN1-Pad3)*%
X98377500Y-86662500D03*
%TO.P,RN1,2,R2.1*%
%TO.N,DAC_OUT_I_SRC*%
X98377500Y-85342500D03*
%TO.P,RN1,1,R1.1*%
%TO.N,Net-(R1-Pad2)*%
X98377500Y-84002500D03*
%TD*%
D31*
%TO.P,U4,8,V+*%
%TO.N,A3V3*%
X105896088Y-97106088D03*
%TO.P,U4,7*%
%TO.N,TIA_OUT*%
X105896088Y-98376088D03*
%TO.P,U4,6,-*%
%TO.N,PD*%
X105896088Y-99646088D03*
%TO.P,U4,5,+*%
%TO.N,Net-(JP1-Pad2)*%
X105896088Y-100916088D03*
%TO.P,U4,4,V-*%
%TO.N,GND*%
X100946088Y-100916088D03*
%TO.P,U4,3,+*%
%TO.N,unconnected-(U4-Pad3)*%
X100946088Y-99646088D03*
%TO.P,U4,2,-*%
%TO.N,unconnected-(U4-Pad2)*%
X100946088Y-98376088D03*
%TO.P,U4,1*%
%TO.N,unconnected-(U4-Pad1)*%
X100946088Y-97106088D03*
%TD*%
D17*
%TO.P,R8,1*%
%TO.N,Net-(R8-Pad1)*%
X111000000Y-110000000D03*
%TO.P,R8,2*%
%TO.N,Net-(R6-Pad1)*%
X109000000Y-110000000D03*
%TD*%
D32*
%TO.P,JP1,1,A*%
%TO.N,DAC_OUT_TIA*%
X98100000Y-98350000D03*
%TO.P,JP1,2,B*%
%TO.N,Net-(JP1-Pad2)*%
X98100000Y-97050000D03*
%TD*%
D22*
%TO.P,R2,1*%
%TO.N,PD*%
X109537500Y-99962500D03*
%TO.P,R2,2*%
%TO.N,TIA_OUT*%
X109537500Y-97962500D03*
%TD*%
D15*
%TO.P,C7,1*%
%TO.N,PD*%
X112937500Y-100000000D03*
%TO.P,C7,2*%
%TO.N,TIA_OUT*%
X112937500Y-97925000D03*
%TD*%
D26*
%TO.P,TP6,1,1*%
%TO.N,Net-(R7-Pad2)*%
X104125480Y-106200000D03*
%TD*%
D17*
%TO.P,R3,2*%
%TO.N,Net-(R3-Pad2)*%
X123000000Y-110800000D03*
%TO.P,R3,1*%
%TO.N,SiPM Bias*%
X125000000Y-110800000D03*
%TD*%
D19*
%TO.P,C8,1*%
%TO.N,A3V3*%
X108475000Y-80100000D03*
%TO.P,C8,2*%
%TO.N,GND*%
X106400000Y-80100000D03*
%TD*%
%TO.P,C4,1*%
%TO.N,A3V3*%
X105758588Y-93711088D03*
%TO.P,C4,2*%
%TO.N,GND*%
X103683588Y-93711088D03*
%TD*%
D31*
%TO.P,U3,8,V+*%
%TO.N,A3V3*%
X110352500Y-84097500D03*
%TO.P,U3,7*%
%TO.N,Net-(RN1-Pad3)*%
X110352500Y-85367500D03*
%TO.P,U3,6,-*%
X110352500Y-86637500D03*
%TO.P,U3,5,+*%
%TO.N,Net-(C5-Pad2)*%
X110352500Y-87907500D03*
%TO.P,U3,4,V-*%
%TO.N,GND*%
X105402500Y-87907500D03*
%TO.P,U3,3,+*%
%TO.N,Net-(RN1-Pad5)*%
X105402500Y-86637500D03*
%TO.P,U3,2,-*%
%TO.N,Net-(RN1-Pad7)*%
X105402500Y-85367500D03*
%TO.P,U3,1*%
%TO.N,Net-(R1-Pad2)*%
X105402500Y-84097500D03*
%TD*%
D26*
%TO.P,TP5,1,1*%
%TO.N,Net-(R6-Pad2)*%
X104900000Y-112800000D03*
%TD*%
D17*
%TO.P,R5,1*%
%TO.N,Net-(R5-Pad1)*%
X101500000Y-123000000D03*
%TO.P,R5,2*%
%TO.N,Net-(C15-Pad1)*%
X99500000Y-123000000D03*
%TD*%
D33*
%TO.P,U6,8,V+*%
%TO.N,GND*%
X113137500Y-107975000D03*
%TO.P,U6,7*%
%TO.N,Net-(R8-Pad1)*%
X113137500Y-107325000D03*
%TO.P,U6,6,-*%
%TO.N,Net-(R6-Pad1)*%
X113137500Y-106675000D03*
%TO.P,U6,5,+*%
%TO.N,Net-(R7-Pad1)*%
X113137500Y-106025000D03*
%TO.P,U6,4,V-*%
%TO.N,-33V*%
X118862500Y-106025000D03*
%TO.P,U6,3,+*%
%TO.N,GND*%
X118862500Y-106675000D03*
%TO.P,U6,2,-*%
%TO.N,Net-(R3-Pad2)*%
X118862500Y-107325000D03*
%TO.P,U6,1*%
X118862500Y-107975000D03*
%TD*%
D26*
%TO.P,TP3,1,1*%
%TO.N,Net-(JP1-Pad2)*%
X109000000Y-103000000D03*
%TD*%
D34*
%TO.P,J4,1,In*%
%TO.N,SiPM Bias*%
X139700000Y-110800000D03*
D35*
%TO.P,J4,2,Ext*%
%TO.N,GND*%
X140050000Y-115050000D03*
X140050000Y-106550000D03*
%TD*%
D26*
%TO.P,TP2,1,1*%
%TO.N,Net-(C5-Pad2)*%
X113777500Y-90782500D03*
%TD*%
D36*
%TO.P,U7,1,SW*%
%TO.N,Net-(C14-Pad1)*%
X98862500Y-118550000D03*
%TO.P,U7,2,GND*%
%TO.N,GND*%
X98862500Y-119500000D03*
%TO.P,U7,3,FB*%
%TO.N,Net-(C15-Pad1)*%
X98862500Y-120450000D03*
%TO.P,U7,4,REF*%
%TO.N,Net-(R5-Pad1)*%
X101137500Y-120450000D03*
%TO.P,U7,5,D*%
%TO.N,Net-(C14-Pad2)*%
X101137500Y-119500000D03*
%TO.P,U7,6,VIN*%
%TO.N,5V*%
X101137500Y-118550000D03*
%TD*%
D20*
%TO.P,C15,1*%
%TO.N,Net-(C15-Pad1)*%
X94500000Y-123462500D03*
%TO.P,C15,2*%
%TO.N,-33V*%
X94500000Y-125537500D03*
%TD*%
D37*
%TO.P,J2,2,Ext*%
%TO.N,GND*%
X132365276Y-75000000D03*
X123865276Y-75000000D03*
%TD*%
D38*
%TO.P,LD1,1*%
%TO.N,LD_LOW*%
X139684724Y-84569448D03*
D39*
%TO.P,LD1,2*%
%TO.N,A3V3*%
X140954724Y-85839448D03*
%TO.P,LD1,3*%
%TO.N,PD*%
X139684724Y-87109448D03*
%TD*%
D40*
%TO.N,GND*%
X117000000Y-106700000D03*
X135000000Y-95000000D03*
X105100000Y-117700000D03*
X123000000Y-114000000D03*
X140050000Y-103300000D03*
X100921088Y-102411088D03*
X103662500Y-76300000D03*
X138000000Y-73000000D03*
X125000000Y-95000000D03*
X127000000Y-95000000D03*
X142000000Y-77000000D03*
X121000000Y-83000000D03*
X140000000Y-95000000D03*
X98397500Y-89602500D03*
X129000000Y-95000000D03*
X134000000Y-73000000D03*
X121000000Y-95000000D03*
X103686088Y-91746088D03*
X142000000Y-93000000D03*
X115300000Y-108000000D03*
X121000000Y-73000000D03*
X121000000Y-85000000D03*
X103277500Y-87902500D03*
X104600000Y-80100000D03*
X140000000Y-73000000D03*
X97400000Y-109000000D03*
X136000000Y-73000000D03*
X121000000Y-79000000D03*
X121000000Y-77000000D03*
X133000000Y-95000000D03*
X116800000Y-75000000D03*
X142000000Y-73000000D03*
X116800000Y-78500000D03*
X140050000Y-116900000D03*
X121000000Y-91000000D03*
X142000000Y-83000000D03*
X142000000Y-81000000D03*
X131000000Y-95000000D03*
X130800000Y-102600000D03*
X142000000Y-95000000D03*
X142000000Y-85000000D03*
X142000000Y-75000000D03*
X101962500Y-78800000D03*
X121000000Y-75000000D03*
X116200000Y-86000000D03*
X121000000Y-89000000D03*
X121000000Y-81000000D03*
X142000000Y-91000000D03*
X123000000Y-95000000D03*
X96500000Y-121800000D03*
X142000000Y-79000000D03*
%TO.N,3V3*%
X81957500Y-113100000D03*
X81957500Y-85242500D03*
%TO.N,DAC_OUT_I_SRC*%
X92100000Y-85300000D03*
%TO.N,Net-(R1-Pad2)*%
X116600000Y-82000000D03*
X106300000Y-82000000D03*
%TO.N,A3V3*%
X113700000Y-93000000D03*
X114900000Y-93000000D03*
X112400000Y-93000000D03*
%TO.N,Net-(C5-Pad2)*%
X119200000Y-87500000D03*
%TO.N,DAC_OUT_TIA*%
X96200000Y-87900000D03*
X96200000Y-98300000D03*
%TO.N,Net-(RV2-Pad2)*%
X130700000Y-107600000D03*
X125100000Y-119599999D03*
%TD*%
D41*
%TO.N,GND*%
X140050000Y-106550000D02*
X140050000Y-103300000D01*
D42*
X115275000Y-107975000D02*
X113137500Y-107975000D01*
X115300000Y-108000000D02*
X115275000Y-107975000D01*
D43*
X117025000Y-106675000D02*
X117000000Y-106700000D01*
D42*
X118862500Y-106675000D02*
X117025000Y-106675000D01*
D43*
%TO.N,Net-(R3-Pad2)*%
X120600000Y-110800000D02*
X123000000Y-110800000D01*
X118862500Y-109062500D02*
X120600000Y-110800000D01*
X118862500Y-107975000D02*
X118862500Y-109062500D01*
D41*
X121525000Y-107975000D02*
X118862500Y-107975000D01*
X123100000Y-106400000D02*
X121525000Y-107975000D01*
X123100000Y-105137500D02*
X123100000Y-106400000D01*
X123137500Y-105100000D02*
X133500000Y-105100000D01*
X123100000Y-105137500D02*
X123137500Y-105100000D01*
D43*
X118862500Y-107637500D02*
X118862500Y-107374520D01*
X118862500Y-107975000D02*
X118862500Y-107637500D01*
D41*
%TO.N,SiPM Bias*%
X139700000Y-110800000D02*
X125000000Y-110800000D01*
X125000000Y-110800000D02*
X125000000Y-115962500D01*
D43*
%TO.N,5V*%
X101925000Y-74962500D02*
X105562500Y-74962500D01*
%TO.N,GND*%
X123000000Y-114000000D02*
X123000000Y-115962500D01*
X103686088Y-91746088D02*
X103683588Y-91748588D01*
X103662500Y-76300000D02*
X104062500Y-75900000D01*
D41*
X140050000Y-115050000D02*
X140050000Y-116900000D01*
D43*
X103277500Y-87902500D02*
X105397500Y-87902500D01*
D41*
X116200000Y-86000000D02*
X114062500Y-86000000D01*
D43*
X101925000Y-78762500D02*
X101925000Y-77037500D01*
X104062500Y-75900000D02*
X105575000Y-75900000D01*
X101962500Y-78800000D02*
X101925000Y-78762500D01*
X103683588Y-93711088D02*
X103683588Y-91748588D01*
D41*
X128000000Y-102600000D02*
X130800000Y-102600000D01*
D43*
X100921088Y-102411088D02*
X100921088Y-100941088D01*
D41*
X130800000Y-102600000D02*
X133500000Y-102600000D01*
X106400000Y-80100000D02*
X104600000Y-80100000D01*
D43*
X98377500Y-89582500D02*
X98377500Y-88002500D01*
D41*
X105100000Y-117700000D02*
X105100000Y-116000000D01*
D44*
X97400000Y-109000000D02*
X98962500Y-109000000D01*
D43*
X98397500Y-89602500D02*
X98377500Y-89582500D01*
D41*
X114037500Y-78500000D02*
X116800000Y-78500000D01*
X62500000Y-107250000D02*
X67865000Y-107250000D01*
X114000000Y-75000000D02*
X116800000Y-75000000D01*
X67865000Y-107250000D02*
X69562500Y-105552500D01*
%TO.N,3V3*%
X81957500Y-85242500D02*
X87332500Y-85242500D01*
X62975000Y-85242500D02*
X81957500Y-85242500D01*
X81995000Y-113137500D02*
X94024999Y-113137500D01*
X81957500Y-113100000D02*
X81995000Y-113137500D01*
%TO.N,DAC_OUT_I_SRC*%
X96000000Y-85300000D02*
X98335000Y-85300000D01*
X95800000Y-81900000D02*
X95800000Y-85100000D01*
X92100000Y-85300000D02*
X96000000Y-85300000D01*
X95800000Y-85100000D02*
X96000000Y-85300000D01*
%TO.N,Net-(SW1-Pad1)*%
X62500000Y-100750000D02*
X87065000Y-100750000D01*
D43*
%TO.N,Net-(R1-Pad2)*%
X116600000Y-82000000D02*
X118400000Y-82000000D01*
X105402500Y-82897500D02*
X106300000Y-82000000D01*
X105402500Y-84097500D02*
X105402500Y-82897500D01*
X98377500Y-84002500D02*
X99777500Y-82602500D01*
X102477500Y-82602500D02*
X103977500Y-84102500D01*
X103977500Y-84102500D02*
X105397500Y-84102500D01*
X99777500Y-82602500D02*
X102477500Y-82602500D01*
%TO.N,Net-(RN1-Pad3)*%
X98377500Y-86662500D02*
X99437500Y-86662500D01*
X107177500Y-89502500D02*
X107977500Y-88702500D01*
X108642500Y-86637500D02*
X110352500Y-86637500D01*
X99437500Y-86662500D02*
X99877500Y-87102500D01*
X99877500Y-87102500D02*
X99877500Y-89002500D01*
X107977500Y-88702500D02*
X107977500Y-87302500D01*
X100377500Y-89502500D02*
X107177500Y-89502500D01*
X107977500Y-87302500D02*
X108642500Y-86637500D01*
X110352500Y-85367500D02*
X110352500Y-86637500D01*
X99877500Y-89002500D02*
X100377500Y-89502500D01*
%TO.N,Net-(RN1-Pad5)*%
X101377500Y-86662500D02*
X105377500Y-86662500D01*
X101377500Y-86662500D02*
X101377500Y-88002500D01*
%TO.N,Net-(RN1-Pad7)*%
X101377500Y-85342500D02*
X105377500Y-85342500D01*
X101377500Y-84002500D02*
X101377500Y-85342500D01*
%TO.N,A3V3*%
X112237500Y-84062500D02*
X110387500Y-84062500D01*
X105821088Y-94348588D02*
X105821088Y-97031088D01*
X105821088Y-97031088D02*
X105896088Y-97106088D01*
X113800000Y-84062500D02*
X112237500Y-84062500D01*
%TO.N,Net-(C5-Pad2)*%
X110277500Y-87982500D02*
X110352500Y-87907500D01*
X111177500Y-90782500D02*
X110277500Y-89882500D01*
D41*
X118400000Y-84000000D02*
X118400000Y-86700000D01*
D43*
X111177500Y-90782500D02*
X113777500Y-90782500D01*
X110352500Y-87907500D02*
X118792500Y-87907500D01*
X110277500Y-89882500D02*
X110277500Y-87982500D01*
D41*
X118400000Y-86700000D02*
X119200000Y-87500000D01*
D43*
X118792500Y-87907500D02*
X119200000Y-87500000D01*
D41*
%TO.N,PD*%
X133300000Y-100000000D02*
X139684724Y-93615276D01*
X139684724Y-93615276D02*
X139684724Y-87109448D01*
X116537500Y-100000000D02*
X133300000Y-100000000D01*
X109537500Y-99962500D02*
X116500000Y-99962500D01*
D43*
X105896088Y-99646088D02*
X109221088Y-99646088D01*
%TO.N,TIA_OUT*%
X109537500Y-97962500D02*
X116500000Y-97962500D01*
X104200000Y-96200000D02*
X104200000Y-97600000D01*
X109123912Y-98376088D02*
X109537500Y-97962500D01*
X98600000Y-92900000D02*
X100900000Y-92900000D01*
X105896088Y-98376088D02*
X109123912Y-98376088D01*
D41*
X91167500Y-97932500D02*
X96200000Y-92900000D01*
D43*
X104200000Y-97600000D02*
X104976088Y-98376088D01*
X100900000Y-92900000D02*
X104200000Y-96200000D01*
D41*
X87342500Y-97932500D02*
X91167500Y-97932500D01*
X96200000Y-92900000D02*
X98600000Y-92900000D01*
D43*
X104976088Y-98376088D02*
X105896088Y-98376088D01*
D41*
%TO.N,DAC_OUT_TIA*%
X79153478Y-95402500D02*
X86655978Y-87900000D01*
X62975000Y-95402500D02*
X79153478Y-95402500D01*
X96250000Y-98350000D02*
X98000000Y-98350000D01*
X86655978Y-87900000D02*
X96200000Y-87900000D01*
X96200000Y-98300000D02*
X96250000Y-98350000D01*
D43*
%TO.N,Net-(JP1-Pad2)*%
X98100000Y-96400000D02*
X99100000Y-95400000D01*
X107916088Y-100916088D02*
X109000000Y-102000000D01*
X105896088Y-100916088D02*
X107916088Y-100916088D01*
X109000000Y-102000000D02*
X109000000Y-103000000D01*
X98100000Y-97050000D02*
X98100000Y-96400000D01*
X103200000Y-99600000D02*
X104516088Y-100916088D01*
X103200000Y-97300000D02*
X103200000Y-99600000D01*
X101300000Y-95400000D02*
X103200000Y-97300000D01*
X104516088Y-100916088D02*
X105896088Y-100916088D01*
X99100000Y-95400000D02*
X101300000Y-95400000D01*
D41*
%TO.N,SCL0*%
X87342500Y-108092500D02*
X93989999Y-108092500D01*
%TO.N,SDA0*%
X94024999Y-110597500D02*
X87377500Y-110597500D01*
D43*
%TO.N,SDA1*%
X62975000Y-87782500D02*
X69552500Y-87782500D01*
%TO.N,SCL1*%
X62975000Y-90322500D02*
X69552500Y-90322500D01*
D44*
%TO.N,Net-(C14-Pad2)*%
X101137500Y-119500000D02*
X100541796Y-119500000D01*
X100541796Y-119500000D02*
X100000000Y-118958204D01*
X101137500Y-119500000D02*
X104987500Y-119500000D01*
X100000000Y-118958204D02*
X100000000Y-116037500D01*
D43*
%TO.N,Net-(C15-Pad1)*%
X98950000Y-120450000D02*
X99000000Y-120500000D01*
D41*
%TO.N,SiPM Bias*%
X125037500Y-116000000D02*
X129100000Y-116000000D01*
X129100000Y-116000000D02*
X130300000Y-117200000D01*
D43*
%TO.N,Net-(R6-Pad1)*%
X109000000Y-110000000D02*
X106000000Y-110000000D01*
D42*
X109000000Y-110000000D02*
X109000000Y-109000000D01*
X111325000Y-106675000D02*
X113137500Y-106675000D01*
X109000000Y-109000000D02*
X111325000Y-106675000D01*
D43*
%TO.N,Net-(R6-Pad2)*%
X104900000Y-110900000D02*
X104900000Y-112800000D01*
X104000000Y-110000000D02*
X104900000Y-110900000D01*
D42*
%TO.N,Net-(R7-Pad1)*%
X109300480Y-106025000D02*
X113137500Y-106025000D01*
D43*
%TO.N,Net-(R7-Pad2)*%
X104125480Y-106200000D02*
X107125480Y-106200000D01*
%TO.N,Net-(R8-Pad1)*%
X113000000Y-110000000D02*
X114000000Y-111000000D01*
D42*
X111000000Y-110000000D02*
X111000000Y-108668573D01*
X111000000Y-108668573D02*
X112343573Y-107325000D01*
D43*
X111000000Y-110000000D02*
X113000000Y-110000000D01*
D42*
X112343573Y-107325000D02*
X113137500Y-107325000D01*
D41*
%TO.N,Net-(RV2-Pad2)*%
X125100000Y-119599999D02*
X125100000Y-121100000D01*
X128000000Y-107600000D02*
X130700000Y-107600000D01*
X130700000Y-107600000D02*
X133500000Y-107600000D01*
%TD*%
%TA.AperFunction,Conductor*%
%TO.N,5V*%
G36*
X106642121Y-72270002D02*
G01*
X106688614Y-72323658D01*
X106700000Y-72376000D01*
X106700000Y-75330128D01*
X106679998Y-75398249D01*
X106626342Y-75444742D01*
X106556068Y-75454846D01*
X106500275Y-75429365D01*
X106499552Y-75430448D01*
X106492870Y-75425983D01*
X106492869Y-75425983D01*
X106433231Y-75386133D01*
X106421062Y-75383712D01*
X106421061Y-75383712D01*
X106380816Y-75375707D01*
X106374748Y-75374500D01*
X104775252Y-75374500D01*
X104769184Y-75375707D01*
X104728939Y-75383712D01*
X104728938Y-75383712D01*
X104716769Y-75386133D01*
X104706453Y-75393026D01*
X104653715Y-75428265D01*
X104583712Y-75449500D01*
X104096719Y-75449500D01*
X104081910Y-75448627D01*
X104079093Y-75448294D01*
X104048189Y-75444636D01*
X104038926Y-75446328D01*
X104038919Y-75446328D01*
X103990482Y-75455175D01*
X103986583Y-75455825D01*
X103963853Y-75459242D01*
X103937856Y-75463150D01*
X103937855Y-75463150D01*
X103928538Y-75464551D01*
X103922025Y-75467679D01*
X103914927Y-75468975D01*
X103862847Y-75496028D01*
X103859345Y-75497777D01*
X103814913Y-75519113D01*
X103806421Y-75523191D01*
X103801136Y-75528077D01*
X103801089Y-75528108D01*
X103794711Y-75531421D01*
X103789672Y-75535725D01*
X103752445Y-75572952D01*
X103748880Y-75576381D01*
X103706944Y-75615146D01*
X103703251Y-75621505D01*
X103697734Y-75627663D01*
X103656559Y-75668838D01*
X103594247Y-75702864D01*
X103583915Y-75704664D01*
X103505738Y-75714956D01*
X103359659Y-75775464D01*
X103234218Y-75871718D01*
X103137964Y-75997159D01*
X103077456Y-76143238D01*
X103063467Y-76249500D01*
X103058076Y-76290446D01*
X103029354Y-76355373D01*
X102970089Y-76394465D01*
X102933154Y-76400000D01*
X102800000Y-76400000D01*
X102800000Y-76396235D01*
X102759943Y-76396236D01*
X102720581Y-76376690D01*
X102620761Y-76302961D01*
X102620754Y-76302957D01*
X102613184Y-76297366D01*
X102485369Y-76252481D01*
X102477723Y-76251758D01*
X102477722Y-76251758D01*
X102471752Y-76251194D01*
X102453834Y-76249500D01*
X101396166Y-76249500D01*
X101378248Y-76251194D01*
X101372278Y-76251758D01*
X101372277Y-76251758D01*
X101364631Y-76252481D01*
X101236816Y-76297366D01*
X101229246Y-76302958D01*
X101229243Y-76302959D01*
X101228875Y-76303231D01*
X101127850Y-76377850D01*
X101122258Y-76385421D01*
X101052959Y-76479243D01*
X101052958Y-76479246D01*
X101047366Y-76486816D01*
X101002481Y-76614631D01*
X100999500Y-76646166D01*
X100999500Y-77428834D01*
X101002481Y-77460369D01*
X101047366Y-77588184D01*
X101052958Y-77595754D01*
X101052959Y-77595757D01*
X101115335Y-77680206D01*
X101127850Y-77697150D01*
X101135421Y-77702742D01*
X101229243Y-77772041D01*
X101229246Y-77772042D01*
X101236816Y-77777634D01*
X101297128Y-77798814D01*
X101357388Y-77819976D01*
X101357392Y-77819977D01*
X101364631Y-77822519D01*
X101372275Y-77823242D01*
X101375500Y-77823949D01*
X101437753Y-77858084D01*
X101471668Y-77920456D01*
X101474500Y-77947022D01*
X101474500Y-78406772D01*
X101454498Y-78474893D01*
X101448464Y-78483474D01*
X101442993Y-78490604D01*
X101442991Y-78490608D01*
X101437964Y-78497159D01*
X101377456Y-78643238D01*
X101356818Y-78800000D01*
X101377456Y-78956762D01*
X101437964Y-79102841D01*
X101446245Y-79113633D01*
X101512517Y-79200000D01*
X101534218Y-79228282D01*
X101659659Y-79324536D01*
X101805738Y-79385044D01*
X101962500Y-79405682D01*
X101970688Y-79404604D01*
X102111074Y-79386122D01*
X102119262Y-79385044D01*
X102265341Y-79324536D01*
X102390782Y-79228282D01*
X102412484Y-79200000D01*
X102478755Y-79113633D01*
X102487036Y-79102841D01*
X102547544Y-78956762D01*
X102549078Y-78945110D01*
X102550275Y-78942404D01*
X102550759Y-78940598D01*
X102551041Y-78940673D01*
X102577800Y-78880183D01*
X102637065Y-78841091D01*
X102708057Y-78840246D01*
X102768236Y-78877916D01*
X102798495Y-78942141D01*
X102800000Y-78961556D01*
X102800000Y-82059975D01*
X102779998Y-82128096D01*
X102726342Y-82174589D01*
X102656068Y-82184693D01*
X102636010Y-82180111D01*
X102621981Y-82175674D01*
X102618250Y-82174429D01*
X102571763Y-82158104D01*
X102571761Y-82158104D01*
X102562869Y-82154981D01*
X102555681Y-82154699D01*
X102555622Y-82154688D01*
X102548770Y-82152520D01*
X102542163Y-82152000D01*
X102489484Y-82152000D01*
X102484537Y-82151903D01*
X102427506Y-82149662D01*
X102420400Y-82151546D01*
X102412153Y-82152000D01*
X99811720Y-82152000D01*
X99796911Y-82151127D01*
X99772543Y-82148243D01*
X99763190Y-82147136D01*
X99753926Y-82148828D01*
X99753925Y-82148828D01*
X99705499Y-82157672D01*
X99701596Y-82158322D01*
X99652855Y-82165650D01*
X99652854Y-82165650D01*
X99643538Y-82167051D01*
X99637025Y-82170179D01*
X99629927Y-82171475D01*
X99577853Y-82198525D01*
X99574363Y-82200268D01*
X99521421Y-82225691D01*
X99516135Y-82230577D01*
X99516087Y-82230610D01*
X99509712Y-82233921D01*
X99504672Y-82238225D01*
X99467445Y-82275452D01*
X99463880Y-82278881D01*
X99421944Y-82317646D01*
X99418251Y-82324005D01*
X99412734Y-82330163D01*
X98427802Y-83315095D01*
X98365490Y-83349121D01*
X98338707Y-83352000D01*
X97907752Y-83352000D01*
X97901684Y-83353207D01*
X97861439Y-83361212D01*
X97861438Y-83361212D01*
X97849269Y-83363633D01*
X97782948Y-83407948D01*
X97738633Y-83474269D01*
X97727000Y-83532752D01*
X97727000Y-84472248D01*
X97724417Y-84472248D01*
X97713273Y-84530931D01*
X97664421Y-84582447D01*
X97601123Y-84599500D01*
X96626500Y-84599500D01*
X96558379Y-84579498D01*
X96511886Y-84525842D01*
X96500500Y-84473500D01*
X96500500Y-82590038D01*
X96520502Y-82521917D01*
X96531118Y-82507708D01*
X96576426Y-82455218D01*
X96576432Y-82455210D01*
X96580454Y-82450550D01*
X96672526Y-82288474D01*
X96731364Y-82111601D01*
X96750077Y-81963475D01*
X96754285Y-81930170D01*
X96754286Y-81930163D01*
X96754727Y-81926668D01*
X96755099Y-81900000D01*
X96736909Y-81714487D01*
X96735128Y-81708588D01*
X96735127Y-81708583D01*
X96684814Y-81541939D01*
X96683033Y-81536040D01*
X96639278Y-81453748D01*
X96598416Y-81376898D01*
X96598414Y-81376895D01*
X96595522Y-81371456D01*
X96591632Y-81366686D01*
X96591629Y-81366682D01*
X96481605Y-81231780D01*
X96481602Y-81231777D01*
X96477710Y-81227005D01*
X96472056Y-81222327D01*
X96338834Y-81112116D01*
X96334085Y-81108187D01*
X96170116Y-81019529D01*
X96034773Y-80977634D01*
X95997936Y-80966231D01*
X95997933Y-80966230D01*
X95992049Y-80964409D01*
X95985924Y-80963765D01*
X95985923Y-80963765D01*
X95812796Y-80945568D01*
X95812795Y-80945568D01*
X95806668Y-80944924D01*
X95728549Y-80952033D01*
X95627171Y-80961259D01*
X95627168Y-80961260D01*
X95621032Y-80961818D01*
X95615122Y-80963557D01*
X95615119Y-80963558D01*
X95448129Y-81012707D01*
X95442214Y-81014448D01*
X95277023Y-81100807D01*
X95131752Y-81217608D01*
X95011935Y-81360401D01*
X95008971Y-81365793D01*
X95008968Y-81365797D01*
X94981943Y-81414956D01*
X94922135Y-81523746D01*
X94865772Y-81701424D01*
X94844994Y-81886665D01*
X94860592Y-82072414D01*
X94862291Y-82078339D01*
X94905161Y-82227845D01*
X94911971Y-82251595D01*
X94997176Y-82417385D01*
X95001002Y-82422212D01*
X95072246Y-82512101D01*
X95098883Y-82577911D01*
X95099500Y-82590365D01*
X95099500Y-84473500D01*
X95079498Y-84541621D01*
X95025842Y-84588114D01*
X94973500Y-84599500D01*
X92057484Y-84599500D01*
X91931680Y-84614724D01*
X91773077Y-84674655D01*
X91766819Y-84678956D01*
X91666436Y-84747948D01*
X91633349Y-84770688D01*
X91628297Y-84776358D01*
X91628296Y-84776359D01*
X91525612Y-84891608D01*
X91525610Y-84891612D01*
X91520560Y-84897279D01*
X91517008Y-84903988D01*
X91517007Y-84903989D01*
X91484746Y-84964920D01*
X91441224Y-85047119D01*
X91399919Y-85211559D01*
X91399031Y-85381105D01*
X91400805Y-85388492D01*
X91400805Y-85388496D01*
X91411503Y-85433053D01*
X91438612Y-85545968D01*
X91442093Y-85552712D01*
X91442094Y-85552715D01*
X91485373Y-85636566D01*
X91516375Y-85696631D01*
X91521367Y-85702353D01*
X91521368Y-85702355D01*
X91583808Y-85773931D01*
X91627831Y-85824396D01*
X91634045Y-85828763D01*
X91760330Y-85917518D01*
X91760332Y-85917519D01*
X91766547Y-85921887D01*
X91924513Y-85983476D01*
X91932046Y-85984468D01*
X91932047Y-85984468D01*
X92049739Y-85999962D01*
X92053826Y-86000500D01*
X95923871Y-86000500D01*
X95946831Y-86002610D01*
X95955692Y-86004252D01*
X95963272Y-86003815D01*
X95963273Y-86003815D01*
X96017144Y-86000709D01*
X96024396Y-86000500D01*
X97611710Y-86000500D01*
X97679831Y-86020502D01*
X97726324Y-86074158D01*
X97735289Y-86151081D01*
X97727000Y-86192752D01*
X97727000Y-87132248D01*
X97738633Y-87190731D01*
X97745526Y-87201047D01*
X97782948Y-87257052D01*
X97780916Y-87258410D01*
X97806749Y-87305717D01*
X97801684Y-87376532D01*
X97781931Y-87407268D01*
X97782948Y-87407948D01*
X97738633Y-87474269D01*
X97727000Y-87532752D01*
X97727000Y-88472248D01*
X97738633Y-88530731D01*
X97782948Y-88597052D01*
X97849269Y-88641367D01*
X97853554Y-88642219D01*
X97904498Y-88683271D01*
X97927000Y-88755134D01*
X97927000Y-89186467D01*
X97906998Y-89254588D01*
X97900971Y-89263159D01*
X97872964Y-89299659D01*
X97812456Y-89445738D01*
X97791818Y-89602500D01*
X97812456Y-89759262D01*
X97872964Y-89905341D01*
X97969218Y-90030782D01*
X98094659Y-90127036D01*
X98240738Y-90187544D01*
X98397500Y-90208182D01*
X98405688Y-90207104D01*
X98546074Y-90188622D01*
X98554262Y-90187544D01*
X98700341Y-90127036D01*
X98825782Y-90030782D01*
X98922036Y-89905341D01*
X98982544Y-89759262D01*
X99003182Y-89602500D01*
X98982544Y-89445738D01*
X98922036Y-89299659D01*
X98854036Y-89211040D01*
X98828437Y-89144821D01*
X98828000Y-89134338D01*
X98828000Y-88755134D01*
X98848002Y-88687013D01*
X98901650Y-88642179D01*
X98905731Y-88641367D01*
X98972052Y-88597052D01*
X99016367Y-88530731D01*
X99028000Y-88472248D01*
X99028000Y-87532752D01*
X99016367Y-87474269D01*
X98972052Y-87407948D01*
X98974084Y-87406590D01*
X98948251Y-87359283D01*
X98953316Y-87288468D01*
X98973069Y-87257732D01*
X98972052Y-87257052D01*
X99009472Y-87201050D01*
X99016367Y-87190731D01*
X99017219Y-87186446D01*
X99058271Y-87135502D01*
X99130134Y-87113000D01*
X99198707Y-87113000D01*
X99266828Y-87133002D01*
X99287802Y-87149905D01*
X99390095Y-87252198D01*
X99424121Y-87314510D01*
X99427000Y-87341293D01*
X99427000Y-88968280D01*
X99426127Y-88983089D01*
X99422136Y-89016810D01*
X99423828Y-89026074D01*
X99423828Y-89026075D01*
X99432672Y-89074501D01*
X99433322Y-89078404D01*
X99439286Y-89118068D01*
X99442051Y-89136462D01*
X99445179Y-89142975D01*
X99446475Y-89150073D01*
X99473525Y-89202147D01*
X99475268Y-89205637D01*
X99500691Y-89258579D01*
X99505577Y-89263865D01*
X99505610Y-89263913D01*
X99508921Y-89270288D01*
X99513225Y-89275328D01*
X99550452Y-89312555D01*
X99553881Y-89316120D01*
X99592646Y-89358056D01*
X99599005Y-89361749D01*
X99605163Y-89367266D01*
X100034747Y-89796850D01*
X100044601Y-89807939D01*
X100059794Y-89827211D01*
X100059798Y-89827215D01*
X100065628Y-89834610D01*
X100073375Y-89839964D01*
X100073379Y-89839968D01*
X100113904Y-89867977D01*
X100117098Y-89870258D01*
X100164317Y-89905135D01*
X100171134Y-89907529D01*
X100177069Y-89911631D01*
X100186044Y-89914469D01*
X100186045Y-89914470D01*
X100208007Y-89921415D01*
X100232975Y-89929312D01*
X100236715Y-89930560D01*
X100283245Y-89946900D01*
X100283248Y-89946901D01*
X100292131Y-89950020D01*
X100299316Y-89950303D01*
X100299389Y-89950317D01*
X100306230Y-89952480D01*
X100312837Y-89953000D01*
X100365506Y-89953000D01*
X100370452Y-89953097D01*
X100427494Y-89955338D01*
X100434600Y-89953454D01*
X100442847Y-89953000D01*
X102674000Y-89953000D01*
X102742121Y-89973002D01*
X102788614Y-90026658D01*
X102800000Y-90079000D01*
X102800000Y-93858707D01*
X102779998Y-93926828D01*
X102726342Y-93973321D01*
X102656068Y-93983425D01*
X102591488Y-93953931D01*
X102584905Y-93947802D01*
X101242753Y-92605650D01*
X101232899Y-92594561D01*
X101217707Y-92575291D01*
X101217705Y-92575289D01*
X101211872Y-92567890D01*
X101204125Y-92562535D01*
X101204123Y-92562534D01*
X101163625Y-92534545D01*
X101160403Y-92532243D01*
X101120758Y-92502960D01*
X101120757Y-92502959D01*
X101113184Y-92497366D01*
X101106368Y-92494973D01*
X101100431Y-92490869D01*
X101091451Y-92488029D01*
X101091449Y-92488028D01*
X101071283Y-92481650D01*
X101044481Y-92473174D01*
X101040750Y-92471929D01*
X100994263Y-92455604D01*
X100994261Y-92455604D01*
X100985369Y-92452481D01*
X100978181Y-92452199D01*
X100978122Y-92452188D01*
X100971270Y-92450020D01*
X100964663Y-92449500D01*
X100911984Y-92449500D01*
X100907037Y-92449403D01*
X100850006Y-92447162D01*
X100842900Y-92449046D01*
X100834653Y-92449500D01*
X99512727Y-92449500D01*
X99444606Y-92429498D01*
X99401476Y-92382655D01*
X99395522Y-92371456D01*
X99334998Y-92297247D01*
X99281605Y-92231780D01*
X99281602Y-92231777D01*
X99277710Y-92227005D01*
X99271882Y-92222183D01*
X99146793Y-92118700D01*
X99134085Y-92108187D01*
X98970116Y-92019529D01*
X98866264Y-91987382D01*
X98797936Y-91966231D01*
X98797933Y-91966230D01*
X98792049Y-91964409D01*
X98785924Y-91963765D01*
X98785923Y-91963765D01*
X98612796Y-91945568D01*
X98612795Y-91945568D01*
X98606668Y-91944924D01*
X98528549Y-91952033D01*
X98427171Y-91961259D01*
X98427168Y-91961260D01*
X98421032Y-91961818D01*
X98415122Y-91963557D01*
X98415119Y-91963558D01*
X98328884Y-91988939D01*
X98242214Y-92014448D01*
X98077023Y-92100807D01*
X97988853Y-92171698D01*
X97923233Y-92198793D01*
X97909903Y-92199500D01*
X96228641Y-92199500D01*
X96220071Y-92199208D01*
X96219211Y-92199149D01*
X96163070Y-92195322D01*
X96155593Y-92196627D01*
X96155590Y-92196627D01*
X96100870Y-92206177D01*
X96094346Y-92207140D01*
X96039221Y-92213811D01*
X96039218Y-92213812D01*
X96031680Y-92214724D01*
X96024578Y-92217408D01*
X96021242Y-92218227D01*
X96006785Y-92222183D01*
X96003528Y-92223166D01*
X95996047Y-92224472D01*
X95989095Y-92227524D01*
X95989094Y-92227524D01*
X95938233Y-92249849D01*
X95932128Y-92252340D01*
X95880189Y-92271967D01*
X95880185Y-92271969D01*
X95873077Y-92274655D01*
X95866813Y-92278960D01*
X95863774Y-92280549D01*
X95850701Y-92287824D01*
X95847750Y-92289569D01*
X95840798Y-92292621D01*
X95834770Y-92297246D01*
X95834769Y-92297247D01*
X95790727Y-92331042D01*
X95785391Y-92334919D01*
X95739614Y-92366381D01*
X95739608Y-92366386D01*
X95733349Y-92370688D01*
X95728294Y-92376362D01*
X95692392Y-92416657D01*
X95687411Y-92421933D01*
X90914248Y-97195095D01*
X90851936Y-97229121D01*
X90825153Y-97232000D01*
X90319000Y-97232000D01*
X90250879Y-97211998D01*
X90204386Y-97158342D01*
X90193000Y-97106000D01*
X90193000Y-97062752D01*
X90181367Y-97004269D01*
X90137052Y-96937948D01*
X90070731Y-96893633D01*
X90058562Y-96891212D01*
X90058561Y-96891212D01*
X90018316Y-96883207D01*
X90012248Y-96882000D01*
X87404589Y-96882000D01*
X87391419Y-96881310D01*
X87355998Y-96877587D01*
X87355996Y-96877587D01*
X87349869Y-96876943D01*
X87301882Y-96881310D01*
X87300003Y-96881481D01*
X87288584Y-96882000D01*
X86472752Y-96882000D01*
X86466684Y-96883207D01*
X86426439Y-96891212D01*
X86426438Y-96891212D01*
X86414269Y-96893633D01*
X86347948Y-96937948D01*
X86303633Y-97004269D01*
X86292000Y-97062752D01*
X86292000Y-97866317D01*
X86291215Y-97880362D01*
X86287020Y-97917762D01*
X86290194Y-97955556D01*
X86291558Y-97971802D01*
X86292000Y-97982346D01*
X86292000Y-98802248D01*
X86293207Y-98808316D01*
X86296842Y-98826588D01*
X86303633Y-98860731D01*
X86347948Y-98927052D01*
X86414269Y-98971367D01*
X86426438Y-98973788D01*
X86426439Y-98973788D01*
X86466684Y-98981793D01*
X86472752Y-98983000D01*
X87272223Y-98983000D01*
X87287142Y-98983886D01*
X87320394Y-98987851D01*
X87326529Y-98987379D01*
X87326531Y-98987379D01*
X87378617Y-98983371D01*
X87388284Y-98983000D01*
X90012248Y-98983000D01*
X90018316Y-98981793D01*
X90058561Y-98973788D01*
X90058562Y-98973788D01*
X90070731Y-98971367D01*
X90137052Y-98927052D01*
X90181367Y-98860731D01*
X90188159Y-98826588D01*
X90191793Y-98808316D01*
X90193000Y-98802248D01*
X90193000Y-98759000D01*
X90213002Y-98690879D01*
X90266658Y-98644386D01*
X90319000Y-98633000D01*
X91138859Y-98633000D01*
X91147429Y-98633292D01*
X91196854Y-98636662D01*
X91196858Y-98636662D01*
X91204430Y-98637178D01*
X91211906Y-98635873D01*
X91211909Y-98635873D01*
X91266632Y-98626322D01*
X91273158Y-98625359D01*
X91313596Y-98620465D01*
X91335820Y-98617776D01*
X91342927Y-98615091D01*
X91346220Y-98614282D01*
X91360691Y-98610323D01*
X91363967Y-98609334D01*
X91371454Y-98608027D01*
X91378414Y-98604972D01*
X91429260Y-98582653D01*
X91435366Y-98580161D01*
X91487318Y-98560530D01*
X91487320Y-98560529D01*
X91494423Y-98557845D01*
X91500678Y-98553546D01*
X91503703Y-98551965D01*
X91516799Y-98544675D01*
X91519743Y-98542934D01*
X91526702Y-98539879D01*
X91564462Y-98510905D01*
X91576773Y-98501458D01*
X91582109Y-98497581D01*
X91627886Y-98466119D01*
X91627892Y-98466114D01*
X91634151Y-98461812D01*
X91675109Y-98415842D01*
X91680089Y-98410567D01*
X96453252Y-93637405D01*
X96515564Y-93603379D01*
X96542347Y-93600500D01*
X97910113Y-93600500D01*
X97978234Y-93620502D01*
X97991775Y-93630546D01*
X98054912Y-93684279D01*
X98217627Y-93775217D01*
X98394907Y-93832819D01*
X98579998Y-93854890D01*
X98586133Y-93854418D01*
X98586135Y-93854418D01*
X98759710Y-93841062D01*
X98759715Y-93841061D01*
X98765851Y-93840589D01*
X98771781Y-93838933D01*
X98771783Y-93838933D01*
X98939459Y-93792117D01*
X98939458Y-93792117D01*
X98945387Y-93790462D01*
X99111768Y-93706417D01*
X99136255Y-93687286D01*
X99253794Y-93595454D01*
X99253795Y-93595453D01*
X99258655Y-93591656D01*
X99358802Y-93475634D01*
X99376432Y-93455210D01*
X99376434Y-93455208D01*
X99380454Y-93450550D01*
X99401067Y-93414264D01*
X99452106Y-93364913D01*
X99510624Y-93350500D01*
X100661207Y-93350500D01*
X100729328Y-93370502D01*
X100750302Y-93387405D01*
X102763095Y-95400198D01*
X102797121Y-95462510D01*
X102800000Y-95489293D01*
X102800000Y-95958707D01*
X102779998Y-96026828D01*
X102726342Y-96073321D01*
X102656068Y-96083425D01*
X102591488Y-96053931D01*
X102584905Y-96047802D01*
X101642753Y-95105650D01*
X101632899Y-95094561D01*
X101617707Y-95075291D01*
X101617705Y-95075289D01*
X101611872Y-95067890D01*
X101604125Y-95062535D01*
X101604123Y-95062534D01*
X101565331Y-95035724D01*
X101563615Y-95034538D01*
X101560403Y-95032243D01*
X101520758Y-95002960D01*
X101520757Y-95002959D01*
X101513184Y-94997366D01*
X101506368Y-94994973D01*
X101500431Y-94990869D01*
X101491451Y-94988029D01*
X101491449Y-94988028D01*
X101471283Y-94981650D01*
X101444481Y-94973174D01*
X101440750Y-94971929D01*
X101394263Y-94955604D01*
X101394261Y-94955604D01*
X101385369Y-94952481D01*
X101378181Y-94952199D01*
X101378122Y-94952188D01*
X101371270Y-94950020D01*
X101364663Y-94949500D01*
X101311984Y-94949500D01*
X101307037Y-94949403D01*
X101250006Y-94947162D01*
X101242900Y-94949046D01*
X101234653Y-94949500D01*
X99134220Y-94949500D01*
X99119411Y-94948627D01*
X99095043Y-94945743D01*
X99085690Y-94944636D01*
X99076426Y-94946328D01*
X99076422Y-94946328D01*
X99027989Y-94955173D01*
X99024088Y-94955822D01*
X98975355Y-94963149D01*
X98975347Y-94963151D01*
X98966038Y-94964551D01*
X98959528Y-94967677D01*
X98952427Y-94968974D01*
X98944072Y-94973314D01*
X98900363Y-94996018D01*
X98896825Y-94997786D01*
X98895959Y-94998202D01*
X98843921Y-95023191D01*
X98838640Y-95028074D01*
X98838588Y-95028109D01*
X98832212Y-95031420D01*
X98827172Y-95035724D01*
X98789933Y-95072963D01*
X98786367Y-95076393D01*
X98751357Y-95108755D01*
X98751355Y-95108758D01*
X98744444Y-95115146D01*
X98740753Y-95121501D01*
X98735245Y-95127651D01*
X97805645Y-96057252D01*
X97794555Y-96067107D01*
X97767890Y-96088128D01*
X97762535Y-96095875D01*
X97762534Y-96095877D01*
X97734545Y-96136375D01*
X97732243Y-96139597D01*
X97716524Y-96160879D01*
X97697366Y-96186816D01*
X97694973Y-96193632D01*
X97690869Y-96199569D01*
X97688029Y-96208549D01*
X97688028Y-96208551D01*
X97673182Y-96255495D01*
X97671938Y-96259225D01*
X97669821Y-96265254D01*
X97628375Y-96322897D01*
X97562344Y-96348983D01*
X97550940Y-96349500D01*
X97330252Y-96349500D01*
X97324184Y-96350707D01*
X97283939Y-96358712D01*
X97283938Y-96358712D01*
X97271769Y-96361133D01*
X97205448Y-96405448D01*
X97161133Y-96471769D01*
X97149500Y-96530252D01*
X97149500Y-97523500D01*
X97129498Y-97591621D01*
X97075842Y-97638114D01*
X97023500Y-97649500D01*
X96488761Y-97649500D01*
X96436913Y-97638338D01*
X96411016Y-97626645D01*
X96244308Y-97595748D01*
X96236728Y-97596185D01*
X96236727Y-97596185D01*
X96207468Y-97597872D01*
X96075041Y-97605507D01*
X95912989Y-97655361D01*
X95767505Y-97742431D01*
X95762112Y-97747768D01*
X95762108Y-97747771D01*
X95759873Y-97749983D01*
X95646990Y-97861690D01*
X95558402Y-98006254D01*
X95506854Y-98167775D01*
X95506337Y-98175355D01*
X95506337Y-98175356D01*
X95499428Y-98276704D01*
X95495322Y-98336930D01*
X95496627Y-98344407D01*
X95496627Y-98344408D01*
X95509095Y-98415843D01*
X95524473Y-98503954D01*
X95527524Y-98510903D01*
X95527524Y-98510905D01*
X95546763Y-98554733D01*
X95592621Y-98659202D01*
X95597243Y-98665226D01*
X95597244Y-98665227D01*
X95656674Y-98742676D01*
X95672022Y-98762678D01*
X95734413Y-98825069D01*
X95740268Y-98831336D01*
X95777831Y-98874396D01*
X95829473Y-98910690D01*
X95834758Y-98914616D01*
X95878476Y-98948895D01*
X95878480Y-98948897D01*
X95884457Y-98953584D01*
X95891380Y-98956710D01*
X95894328Y-98958495D01*
X95907288Y-98965887D01*
X95910334Y-98967520D01*
X95916547Y-98971887D01*
X95948228Y-98984239D01*
X95975366Y-98994820D01*
X95981445Y-98997375D01*
X96038984Y-99023355D01*
X96046455Y-99024740D01*
X96049723Y-99025764D01*
X96064164Y-99029877D01*
X96067437Y-99030717D01*
X96074513Y-99033476D01*
X96115465Y-99038867D01*
X96137106Y-99041716D01*
X96143623Y-99042748D01*
X96178936Y-99049293D01*
X96205692Y-99054252D01*
X96213272Y-99053815D01*
X96213273Y-99053815D01*
X96267144Y-99050709D01*
X96274396Y-99050500D01*
X98869748Y-99050500D01*
X98875816Y-99049293D01*
X98916061Y-99041288D01*
X98916062Y-99041288D01*
X98928231Y-99038867D01*
X98994552Y-98994552D01*
X99038867Y-98928231D01*
X99050500Y-98869748D01*
X99050500Y-98559306D01*
X99770588Y-98559306D01*
X99771258Y-98563856D01*
X99771258Y-98563859D01*
X99779304Y-98618514D01*
X99780730Y-98628200D01*
X99832156Y-98732943D01*
X99914738Y-98815381D01*
X99924094Y-98819954D01*
X99924095Y-98819955D01*
X99937665Y-98826588D01*
X100019570Y-98866624D01*
X100049888Y-98871047D01*
X100083344Y-98875928D01*
X100083348Y-98875928D01*
X100087870Y-98876588D01*
X101804306Y-98876588D01*
X101808856Y-98875918D01*
X101808859Y-98875918D01*
X101863514Y-98867872D01*
X101863515Y-98867872D01*
X101873200Y-98866446D01*
X101954382Y-98826588D01*
X101968595Y-98819610D01*
X101968597Y-98819609D01*
X101977943Y-98815020D01*
X102060381Y-98732438D01*
X102111624Y-98627606D01*
X102121588Y-98559306D01*
X102121588Y-98192870D01*
X102112959Y-98134250D01*
X102112872Y-98133662D01*
X102112872Y-98133661D01*
X102111446Y-98123976D01*
X102060020Y-98019233D01*
X101977438Y-97936795D01*
X101872606Y-97885552D01*
X101842115Y-97881104D01*
X101808832Y-97876248D01*
X101808828Y-97876248D01*
X101804306Y-97875588D01*
X100087870Y-97875588D01*
X100083320Y-97876258D01*
X100083317Y-97876258D01*
X100028662Y-97884304D01*
X100028661Y-97884304D01*
X100018976Y-97885730D01*
X99969080Y-97910228D01*
X99923581Y-97932566D01*
X99923579Y-97932567D01*
X99914233Y-97937156D01*
X99831795Y-98019738D01*
X99780552Y-98124570D01*
X99770588Y-98192870D01*
X99770588Y-98559306D01*
X99050500Y-98559306D01*
X99050500Y-97830252D01*
X99038867Y-97771769D01*
X99031974Y-97761453D01*
X99027223Y-97749983D01*
X99030937Y-97748445D01*
X99016472Y-97702249D01*
X99031312Y-97651711D01*
X99027223Y-97650017D01*
X99031974Y-97638547D01*
X99038867Y-97628231D01*
X99043304Y-97605928D01*
X99049293Y-97575816D01*
X99050500Y-97569748D01*
X99050500Y-96530252D01*
X99038867Y-96471769D01*
X98994552Y-96405448D01*
X98964614Y-96385443D01*
X98919086Y-96330967D01*
X98910237Y-96260524D01*
X98945520Y-96191583D01*
X99249698Y-95887405D01*
X99312010Y-95853379D01*
X99338793Y-95850500D01*
X101061207Y-95850500D01*
X101129328Y-95870502D01*
X101150302Y-95887405D01*
X101653390Y-96390493D01*
X101687416Y-96452805D01*
X101682351Y-96523620D01*
X101639804Y-96580456D01*
X101573284Y-96605267D01*
X101564295Y-96605588D01*
X100087870Y-96605588D01*
X100083320Y-96606258D01*
X100083317Y-96606258D01*
X100028662Y-96614304D01*
X100028661Y-96614304D01*
X100018976Y-96615730D01*
X99969080Y-96640228D01*
X99923581Y-96662566D01*
X99923579Y-96662567D01*
X99914233Y-96667156D01*
X99831795Y-96749738D01*
X99780552Y-96854570D01*
X99770588Y-96922870D01*
X99770588Y-97289306D01*
X99771258Y-97293856D01*
X99771258Y-97293859D01*
X99779304Y-97348514D01*
X99780730Y-97358200D01*
X99832156Y-97462943D01*
X99914738Y-97545381D01*
X100019570Y-97596624D01*
X100050061Y-97601072D01*
X100083344Y-97605928D01*
X100083348Y-97605928D01*
X100087870Y-97606588D01*
X101804306Y-97606588D01*
X101808856Y-97605918D01*
X101808859Y-97605918D01*
X101863514Y-97597872D01*
X101863515Y-97597872D01*
X101873200Y-97596446D01*
X101927578Y-97569748D01*
X101968595Y-97549610D01*
X101968597Y-97549609D01*
X101977943Y-97545020D01*
X102060381Y-97462438D01*
X102066609Y-97449698D01*
X102107328Y-97366394D01*
X102111624Y-97357606D01*
X102121588Y-97289306D01*
X102121588Y-97162881D01*
X102141590Y-97094760D01*
X102195246Y-97048267D01*
X102265520Y-97038163D01*
X102330100Y-97067657D01*
X102336683Y-97073786D01*
X102712595Y-97449698D01*
X102746621Y-97512010D01*
X102749500Y-97538793D01*
X102749500Y-99565780D01*
X102748627Y-99580589D01*
X102744636Y-99614310D01*
X102746328Y-99623574D01*
X102746328Y-99623575D01*
X102755172Y-99672001D01*
X102755822Y-99675904D01*
X102756714Y-99681833D01*
X102764551Y-99733962D01*
X102767679Y-99740475D01*
X102768975Y-99747573D01*
X102773318Y-99755933D01*
X102773318Y-99755934D01*
X102785814Y-99779990D01*
X102800000Y-99838072D01*
X102800000Y-115275174D01*
X102799833Y-115278578D01*
X102799500Y-115280252D01*
X102799500Y-116719748D01*
X102799833Y-116721422D01*
X102800000Y-116724826D01*
X102800000Y-118878130D01*
X102779998Y-118946251D01*
X102726342Y-118992744D01*
X102678198Y-119004060D01*
X102067100Y-119024430D01*
X102062902Y-119024500D01*
X101811426Y-119024500D01*
X101770169Y-119014955D01*
X101769647Y-119016646D01*
X101760302Y-119013758D01*
X101751518Y-119009464D01*
X101741843Y-119008052D01*
X101741841Y-119008052D01*
X101687744Y-119000160D01*
X101687740Y-119000160D01*
X101683218Y-118999500D01*
X100765944Y-118999500D01*
X100697823Y-118979498D01*
X100676849Y-118962595D01*
X100512405Y-118798151D01*
X100478379Y-118735839D01*
X100475500Y-118709056D01*
X100475500Y-117006501D01*
X100495502Y-116938380D01*
X100549158Y-116891887D01*
X100559754Y-116887618D01*
X100579298Y-116880755D01*
X100579301Y-116880753D01*
X100588184Y-116877634D01*
X100595754Y-116872042D01*
X100595757Y-116872041D01*
X100689579Y-116802742D01*
X100697150Y-116797150D01*
X100711124Y-116778231D01*
X100772041Y-116695757D01*
X100772042Y-116695754D01*
X100777634Y-116688184D01*
X100822519Y-116560369D01*
X100825500Y-116528834D01*
X100825500Y-115471166D01*
X100822519Y-115439631D01*
X100777634Y-115311816D01*
X100772042Y-115304246D01*
X100772041Y-115304243D01*
X100702742Y-115210421D01*
X100697150Y-115202850D01*
X100680206Y-115190335D01*
X100595757Y-115127959D01*
X100595754Y-115127958D01*
X100588184Y-115122366D01*
X100460369Y-115077481D01*
X100452723Y-115076758D01*
X100452722Y-115076758D01*
X100446752Y-115076194D01*
X100428834Y-115074500D01*
X99926000Y-115074500D01*
X99857879Y-115054498D01*
X99811386Y-115000842D01*
X99800000Y-114948500D01*
X99800000Y-110100000D01*
X99594793Y-110100000D01*
X99526672Y-110079998D01*
X99480179Y-110026342D01*
X99470075Y-109956068D01*
X99499569Y-109891488D01*
X99519934Y-109872649D01*
X99614576Y-109802745D01*
X99614579Y-109802742D01*
X99622150Y-109797150D01*
X99639047Y-109774274D01*
X99697041Y-109695757D01*
X99697042Y-109695754D01*
X99702634Y-109688184D01*
X99747519Y-109560369D01*
X99748547Y-109549500D01*
X99750221Y-109531782D01*
X99750500Y-109528834D01*
X99750500Y-108471166D01*
X99747519Y-108439631D01*
X99702634Y-108311816D01*
X99697042Y-108304246D01*
X99697041Y-108304243D01*
X99627742Y-108210421D01*
X99622150Y-108202850D01*
X99540235Y-108142346D01*
X99520757Y-108127959D01*
X99520754Y-108127958D01*
X99513184Y-108122366D01*
X99385369Y-108077481D01*
X99377723Y-108076758D01*
X99377722Y-108076758D01*
X99371752Y-108076194D01*
X99353834Y-108074500D01*
X98571166Y-108074500D01*
X98553248Y-108076194D01*
X98547278Y-108076758D01*
X98547277Y-108076758D01*
X98539631Y-108077481D01*
X98411816Y-108122366D01*
X98404246Y-108127958D01*
X98404243Y-108127959D01*
X98384765Y-108142346D01*
X98302850Y-108202850D01*
X98297258Y-108210421D01*
X98227959Y-108304243D01*
X98227958Y-108304246D01*
X98222366Y-108311816D01*
X98177481Y-108439631D01*
X98174373Y-108438540D01*
X98147451Y-108487703D01*
X98085098Y-108521653D01*
X98058463Y-108524500D01*
X97809518Y-108524500D01*
X97741397Y-108504498D01*
X97732814Y-108498463D01*
X97709392Y-108480491D01*
X97702841Y-108475464D01*
X97556762Y-108414956D01*
X97400000Y-108394318D01*
X97243238Y-108414956D01*
X97097159Y-108475464D01*
X96971718Y-108571718D01*
X96875464Y-108697159D01*
X96814956Y-108843238D01*
X96794318Y-109000000D01*
X96814956Y-109156762D01*
X96875464Y-109302841D01*
X96971718Y-109428282D01*
X97097159Y-109524536D01*
X97243238Y-109585044D01*
X97251426Y-109586122D01*
X97290089Y-109591212D01*
X97400000Y-109605682D01*
X97408188Y-109604604D01*
X97548574Y-109586122D01*
X97556762Y-109585044D01*
X97702841Y-109524536D01*
X97732814Y-109501537D01*
X97799035Y-109475937D01*
X97809518Y-109475500D01*
X98058463Y-109475500D01*
X98126584Y-109495502D01*
X98173077Y-109549158D01*
X98176886Y-109560578D01*
X98177481Y-109560369D01*
X98222366Y-109688184D01*
X98227958Y-109695754D01*
X98227959Y-109695757D01*
X98285953Y-109774274D01*
X98302850Y-109797150D01*
X98310421Y-109802742D01*
X98310424Y-109802745D01*
X98405066Y-109872649D01*
X98447977Y-109929210D01*
X98453497Y-109999992D01*
X98419873Y-110062521D01*
X98357781Y-110096946D01*
X98330207Y-110100000D01*
X95926000Y-110100000D01*
X95857879Y-110079998D01*
X95811386Y-110026342D01*
X95800000Y-109974000D01*
X95800000Y-101600000D01*
X92000000Y-101600000D01*
X92000000Y-107266000D01*
X91979998Y-107334121D01*
X91926342Y-107380614D01*
X91874000Y-107392000D01*
X90319000Y-107392000D01*
X90250879Y-107371998D01*
X90204386Y-107318342D01*
X90193000Y-107266000D01*
X90193000Y-107222752D01*
X90181367Y-107164269D01*
X90137052Y-107097948D01*
X90070731Y-107053633D01*
X90058562Y-107051212D01*
X90058561Y-107051212D01*
X90018316Y-107043207D01*
X90012248Y-107042000D01*
X87404589Y-107042000D01*
X87391419Y-107041310D01*
X87355998Y-107037587D01*
X87355996Y-107037587D01*
X87349869Y-107036943D01*
X87301882Y-107041310D01*
X87300003Y-107041481D01*
X87288584Y-107042000D01*
X86472752Y-107042000D01*
X86466684Y-107043207D01*
X86426439Y-107051212D01*
X86426438Y-107051212D01*
X86414269Y-107053633D01*
X86347948Y-107097948D01*
X86303633Y-107164269D01*
X86292000Y-107222752D01*
X86292000Y-108026317D01*
X86291215Y-108040362D01*
X86287020Y-108077762D01*
X86287536Y-108083905D01*
X86291558Y-108131802D01*
X86292000Y-108142346D01*
X86292000Y-108962248D01*
X86303633Y-109020731D01*
X86310526Y-109031047D01*
X86326637Y-109055158D01*
X86347948Y-109087052D01*
X86414269Y-109131367D01*
X86426438Y-109133788D01*
X86426439Y-109133788D01*
X86466684Y-109141793D01*
X86472752Y-109143000D01*
X87272223Y-109143000D01*
X87287142Y-109143886D01*
X87320394Y-109147851D01*
X87326529Y-109147379D01*
X87326531Y-109147379D01*
X87378617Y-109143371D01*
X87388284Y-109143000D01*
X90012248Y-109143000D01*
X90018316Y-109141793D01*
X90058561Y-109133788D01*
X90058562Y-109133788D01*
X90070731Y-109131367D01*
X90137052Y-109087052D01*
X90158363Y-109055158D01*
X90174474Y-109031047D01*
X90181367Y-109020731D01*
X90193000Y-108962248D01*
X90193000Y-108919000D01*
X90213002Y-108850879D01*
X90266658Y-108804386D01*
X90319000Y-108793000D01*
X91874000Y-108793000D01*
X91942121Y-108813002D01*
X91988614Y-108866658D01*
X92000000Y-108919000D01*
X92000000Y-109771000D01*
X91979998Y-109839121D01*
X91926342Y-109885614D01*
X91874000Y-109897000D01*
X90319000Y-109897000D01*
X90250879Y-109876998D01*
X90204386Y-109823342D01*
X90193886Y-109775074D01*
X90193607Y-109775102D01*
X90193371Y-109772705D01*
X90193000Y-109771000D01*
X90193000Y-109762752D01*
X90181367Y-109704269D01*
X90137052Y-109637948D01*
X90070731Y-109593633D01*
X90058562Y-109591212D01*
X90058561Y-109591212D01*
X90018316Y-109583207D01*
X90012248Y-109582000D01*
X87404589Y-109582000D01*
X87391419Y-109581310D01*
X87355998Y-109577587D01*
X87355996Y-109577587D01*
X87349869Y-109576943D01*
X87301882Y-109581310D01*
X87300003Y-109581481D01*
X87288584Y-109582000D01*
X86472752Y-109582000D01*
X86466684Y-109583207D01*
X86426439Y-109591212D01*
X86426438Y-109591212D01*
X86414269Y-109593633D01*
X86347948Y-109637948D01*
X86303633Y-109704269D01*
X86292000Y-109762752D01*
X86292000Y-110566317D01*
X86291215Y-110580362D01*
X86287020Y-110617762D01*
X86287536Y-110623905D01*
X86291558Y-110671802D01*
X86292000Y-110682346D01*
X86292000Y-111502248D01*
X86303633Y-111560731D01*
X86310526Y-111571047D01*
X86326637Y-111595158D01*
X86347948Y-111627052D01*
X86414269Y-111671367D01*
X86426438Y-111673788D01*
X86426439Y-111673788D01*
X86466684Y-111681793D01*
X86472752Y-111683000D01*
X87272223Y-111683000D01*
X87287142Y-111683886D01*
X87320394Y-111687851D01*
X87326529Y-111687379D01*
X87326531Y-111687379D01*
X87378617Y-111683371D01*
X87388284Y-111683000D01*
X90012248Y-111683000D01*
X90018316Y-111681793D01*
X90058561Y-111673788D01*
X90058562Y-111673788D01*
X90070731Y-111671367D01*
X90137052Y-111627052D01*
X90158363Y-111595158D01*
X90174474Y-111571047D01*
X90181367Y-111560731D01*
X90193000Y-111502248D01*
X90193000Y-111424000D01*
X90213002Y-111355879D01*
X90266658Y-111309386D01*
X90319000Y-111298000D01*
X91874000Y-111298000D01*
X91942121Y-111318002D01*
X91988614Y-111371658D01*
X92000000Y-111424000D01*
X92000000Y-112311000D01*
X91979998Y-112379121D01*
X91926342Y-112425614D01*
X91874000Y-112437000D01*
X82217788Y-112437000D01*
X82180110Y-112431235D01*
X82175442Y-112429772D01*
X82168516Y-112426645D01*
X82001808Y-112395748D01*
X81994228Y-112396185D01*
X81994227Y-112396185D01*
X81963001Y-112397985D01*
X81832541Y-112405507D01*
X81670489Y-112455361D01*
X81525005Y-112542431D01*
X81519612Y-112547768D01*
X81519608Y-112547771D01*
X81465391Y-112601424D01*
X81404490Y-112661690D01*
X81315902Y-112806254D01*
X81264354Y-112967775D01*
X81252822Y-113136930D01*
X81254127Y-113144407D01*
X81254127Y-113144408D01*
X81258066Y-113166974D01*
X81281973Y-113303954D01*
X81285024Y-113310903D01*
X81285024Y-113310905D01*
X81302427Y-113350550D01*
X81350121Y-113459202D01*
X81429522Y-113562678D01*
X81432441Y-113565597D01*
X81479414Y-113612571D01*
X81485267Y-113618836D01*
X81522831Y-113661896D01*
X81574473Y-113698190D01*
X81579758Y-113702116D01*
X81623476Y-113736395D01*
X81623480Y-113736397D01*
X81629457Y-113741084D01*
X81636380Y-113744210D01*
X81639328Y-113745995D01*
X81652288Y-113753387D01*
X81655334Y-113755020D01*
X81661547Y-113759387D01*
X81720366Y-113782320D01*
X81726445Y-113784875D01*
X81783984Y-113810855D01*
X81791455Y-113812240D01*
X81794723Y-113813264D01*
X81809164Y-113817377D01*
X81812437Y-113818217D01*
X81819513Y-113820976D01*
X81864183Y-113826856D01*
X81882106Y-113829216D01*
X81888623Y-113830248D01*
X81930036Y-113837923D01*
X81950692Y-113841752D01*
X81958272Y-113841315D01*
X81958273Y-113841315D01*
X82012144Y-113838209D01*
X82019396Y-113838000D01*
X91874000Y-113838000D01*
X91942121Y-113858002D01*
X91988614Y-113911658D01*
X92000000Y-113964000D01*
X92000000Y-129624000D01*
X91979998Y-129692121D01*
X91926342Y-129738614D01*
X91874000Y-129750000D01*
X58376000Y-129750000D01*
X58307879Y-129729998D01*
X58261386Y-129676342D01*
X58250000Y-129624000D01*
X58250000Y-123087762D01*
X74857020Y-123087762D01*
X74857536Y-123093905D01*
X74861558Y-123141802D01*
X74862000Y-123152346D01*
X74862000Y-125772248D01*
X74873633Y-125830731D01*
X74917948Y-125897052D01*
X74984269Y-125941367D01*
X74996438Y-125943788D01*
X74996439Y-125943788D01*
X75036684Y-125951793D01*
X75042752Y-125953000D01*
X76782248Y-125953000D01*
X76788316Y-125951793D01*
X76828561Y-125943788D01*
X76828562Y-125943788D01*
X76840731Y-125941367D01*
X76907052Y-125897052D01*
X76951367Y-125830731D01*
X76963000Y-125772248D01*
X77402000Y-125772248D01*
X77413633Y-125830731D01*
X77457948Y-125897052D01*
X77524269Y-125941367D01*
X77536438Y-125943788D01*
X77536439Y-125943788D01*
X77576684Y-125951793D01*
X77582752Y-125953000D01*
X79322248Y-125953000D01*
X79328316Y-125951793D01*
X79368561Y-125943788D01*
X79368562Y-125943788D01*
X79380731Y-125941367D01*
X79447052Y-125897052D01*
X79491367Y-125830731D01*
X79503000Y-125772248D01*
X79503000Y-123087762D01*
X79937020Y-123087762D01*
X79937536Y-123093905D01*
X79941558Y-123141802D01*
X79942000Y-123152346D01*
X79942000Y-125772248D01*
X79953633Y-125830731D01*
X79997948Y-125897052D01*
X80064269Y-125941367D01*
X80076438Y-125943788D01*
X80076439Y-125943788D01*
X80116684Y-125951793D01*
X80122752Y-125953000D01*
X81862248Y-125953000D01*
X81868316Y-125951793D01*
X81908561Y-125943788D01*
X81908562Y-125943788D01*
X81920731Y-125941367D01*
X81987052Y-125897052D01*
X82031367Y-125830731D01*
X82043000Y-125772248D01*
X82043000Y-123176873D01*
X82043994Y-123161081D01*
X82047228Y-123135478D01*
X82047671Y-123131974D01*
X82048083Y-123102500D01*
X82043601Y-123056788D01*
X82043000Y-123044494D01*
X82043000Y-122232752D01*
X82031367Y-122174269D01*
X81987052Y-122107948D01*
X81920731Y-122063633D01*
X81908562Y-122061212D01*
X81908561Y-122061212D01*
X81868316Y-122053207D01*
X81862248Y-122052000D01*
X81054589Y-122052000D01*
X81041419Y-122051310D01*
X81005998Y-122047587D01*
X81005996Y-122047587D01*
X80999869Y-122046943D01*
X80951882Y-122051310D01*
X80950003Y-122051481D01*
X80938584Y-122052000D01*
X80122752Y-122052000D01*
X80116684Y-122053207D01*
X80076439Y-122061212D01*
X80076438Y-122061212D01*
X80064269Y-122063633D01*
X79997948Y-122107948D01*
X79953633Y-122174269D01*
X79942000Y-122232752D01*
X79942000Y-123036317D01*
X79941215Y-123050362D01*
X79937707Y-123081637D01*
X79937020Y-123087762D01*
X79503000Y-123087762D01*
X79503000Y-122232752D01*
X79491367Y-122174269D01*
X79447052Y-122107948D01*
X79380731Y-122063633D01*
X79368562Y-122061212D01*
X79368561Y-122061212D01*
X79328316Y-122053207D01*
X79322248Y-122052000D01*
X77582752Y-122052000D01*
X77576684Y-122053207D01*
X77536439Y-122061212D01*
X77536438Y-122061212D01*
X77524269Y-122063633D01*
X77457948Y-122107948D01*
X77413633Y-122174269D01*
X77402000Y-122232752D01*
X77402000Y-125772248D01*
X76963000Y-125772248D01*
X76963000Y-123176873D01*
X76963994Y-123161081D01*
X76967228Y-123135478D01*
X76967671Y-123131974D01*
X76968083Y-123102500D01*
X76963601Y-123056788D01*
X76963000Y-123044494D01*
X76963000Y-122232752D01*
X76951367Y-122174269D01*
X76907052Y-122107948D01*
X76840731Y-122063633D01*
X76828562Y-122061212D01*
X76828561Y-122061212D01*
X76788316Y-122053207D01*
X76782248Y-122052000D01*
X75974589Y-122052000D01*
X75961419Y-122051310D01*
X75925998Y-122047587D01*
X75925996Y-122047587D01*
X75919869Y-122046943D01*
X75871882Y-122051310D01*
X75870003Y-122051481D01*
X75858584Y-122052000D01*
X75042752Y-122052000D01*
X75036684Y-122053207D01*
X74996439Y-122061212D01*
X74996438Y-122061212D01*
X74984269Y-122063633D01*
X74917948Y-122107948D01*
X74873633Y-122174269D01*
X74862000Y-122232752D01*
X74862000Y-123036317D01*
X74861215Y-123050362D01*
X74857707Y-123081637D01*
X74857020Y-123087762D01*
X58250000Y-123087762D01*
X58250000Y-119122248D01*
X66712000Y-119122248D01*
X66723633Y-119180731D01*
X66767948Y-119247052D01*
X66834269Y-119291367D01*
X66846438Y-119293788D01*
X66846439Y-119293788D01*
X66886684Y-119301793D01*
X66892752Y-119303000D01*
X70432248Y-119303000D01*
X70438316Y-119301793D01*
X70478561Y-119293788D01*
X70478562Y-119293788D01*
X70490731Y-119291367D01*
X70557052Y-119247052D01*
X70601367Y-119180731D01*
X70613000Y-119122248D01*
X86292000Y-119122248D01*
X86303633Y-119180731D01*
X86347948Y-119247052D01*
X86414269Y-119291367D01*
X86426438Y-119293788D01*
X86426439Y-119293788D01*
X86466684Y-119301793D01*
X86472752Y-119303000D01*
X90012248Y-119303000D01*
X90018316Y-119301793D01*
X90058561Y-119293788D01*
X90058562Y-119293788D01*
X90070731Y-119291367D01*
X90137052Y-119247052D01*
X90181367Y-119180731D01*
X90193000Y-119122248D01*
X90193000Y-117382752D01*
X90181367Y-117324269D01*
X90137052Y-117257948D01*
X90070731Y-117213633D01*
X90058562Y-117211212D01*
X90058561Y-117211212D01*
X90018316Y-117203207D01*
X90012248Y-117202000D01*
X86472752Y-117202000D01*
X86466684Y-117203207D01*
X86426439Y-117211212D01*
X86426438Y-117211212D01*
X86414269Y-117213633D01*
X86347948Y-117257948D01*
X86303633Y-117324269D01*
X86292000Y-117382752D01*
X86292000Y-119122248D01*
X70613000Y-119122248D01*
X70613000Y-117382752D01*
X70601367Y-117324269D01*
X70557052Y-117257948D01*
X70490731Y-117213633D01*
X70478562Y-117211212D01*
X70478561Y-117211212D01*
X70438316Y-117203207D01*
X70432248Y-117202000D01*
X66892752Y-117202000D01*
X66886684Y-117203207D01*
X66846439Y-117211212D01*
X66846438Y-117211212D01*
X66834269Y-117213633D01*
X66767948Y-117257948D01*
X66723633Y-117324269D01*
X66712000Y-117382752D01*
X66712000Y-119122248D01*
X58250000Y-119122248D01*
X58250000Y-107719748D01*
X61599500Y-107719748D01*
X61611133Y-107778231D01*
X61655448Y-107844552D01*
X61674645Y-107857379D01*
X61705551Y-107878030D01*
X61721769Y-107888867D01*
X61733938Y-107891288D01*
X61733939Y-107891288D01*
X61765979Y-107897661D01*
X61780252Y-107900500D01*
X62216241Y-107900500D01*
X62262010Y-107909107D01*
X62324513Y-107933476D01*
X62332046Y-107934468D01*
X62332047Y-107934468D01*
X62403100Y-107943822D01*
X62453826Y-107950500D01*
X67836359Y-107950500D01*
X67844929Y-107950792D01*
X67894354Y-107954162D01*
X67894358Y-107954162D01*
X67901930Y-107954678D01*
X67909406Y-107953373D01*
X67909409Y-107953373D01*
X67964132Y-107943822D01*
X67970658Y-107942859D01*
X68011096Y-107937965D01*
X68033320Y-107935276D01*
X68040427Y-107932591D01*
X68043720Y-107931782D01*
X68058191Y-107927823D01*
X68061467Y-107926834D01*
X68068954Y-107925527D01*
X68075914Y-107922472D01*
X68126760Y-107900153D01*
X68132866Y-107897661D01*
X68184818Y-107878030D01*
X68184820Y-107878029D01*
X68191923Y-107875345D01*
X68198178Y-107871046D01*
X68201203Y-107869465D01*
X68214299Y-107862175D01*
X68217243Y-107860434D01*
X68224202Y-107857379D01*
X68230600Y-107852470D01*
X68274273Y-107818958D01*
X68279609Y-107815081D01*
X68325386Y-107783619D01*
X68325392Y-107783614D01*
X68331651Y-107779312D01*
X68372609Y-107733342D01*
X68377589Y-107728067D01*
X69465752Y-106639905D01*
X69528064Y-106605879D01*
X69554847Y-106603000D01*
X70432248Y-106603000D01*
X70449844Y-106599500D01*
X70478561Y-106593788D01*
X70478562Y-106593788D01*
X70490731Y-106591367D01*
X70557052Y-106547052D01*
X70578363Y-106515158D01*
X70594474Y-106491047D01*
X70601367Y-106480731D01*
X70613000Y-106422248D01*
X86292000Y-106422248D01*
X86303633Y-106480731D01*
X86310526Y-106491047D01*
X86326637Y-106515158D01*
X86347948Y-106547052D01*
X86414269Y-106591367D01*
X86426438Y-106593788D01*
X86426439Y-106593788D01*
X86455156Y-106599500D01*
X86472752Y-106603000D01*
X90012248Y-106603000D01*
X90029844Y-106599500D01*
X90058561Y-106593788D01*
X90058562Y-106593788D01*
X90070731Y-106591367D01*
X90137052Y-106547052D01*
X90158363Y-106515158D01*
X90174474Y-106491047D01*
X90181367Y-106480731D01*
X90193000Y-106422248D01*
X90193000Y-104682752D01*
X90181367Y-104624269D01*
X90137052Y-104557948D01*
X90070731Y-104513633D01*
X90058562Y-104511212D01*
X90058561Y-104511212D01*
X90018316Y-104503207D01*
X90012248Y-104502000D01*
X86472752Y-104502000D01*
X86466684Y-104503207D01*
X86426439Y-104511212D01*
X86426438Y-104511212D01*
X86414269Y-104513633D01*
X86347948Y-104557948D01*
X86303633Y-104624269D01*
X86292000Y-104682752D01*
X86292000Y-106422248D01*
X70613000Y-106422248D01*
X70613000Y-104682752D01*
X70601367Y-104624269D01*
X70557052Y-104557948D01*
X70490731Y-104513633D01*
X70478562Y-104511212D01*
X70478561Y-104511212D01*
X70438316Y-104503207D01*
X70432248Y-104502000D01*
X66892752Y-104502000D01*
X66886684Y-104503207D01*
X66846439Y-104511212D01*
X66846438Y-104511212D01*
X66834269Y-104513633D01*
X66767948Y-104557948D01*
X66723633Y-104624269D01*
X66712000Y-104682752D01*
X66712000Y-106422248D01*
X66709417Y-106422248D01*
X66698273Y-106480931D01*
X66649421Y-106532447D01*
X66586123Y-106549500D01*
X62457484Y-106549500D01*
X62331680Y-106564724D01*
X62324577Y-106567408D01*
X62261174Y-106591366D01*
X62216636Y-106599500D01*
X61780252Y-106599500D01*
X61774184Y-106600707D01*
X61733939Y-106608712D01*
X61733938Y-106608712D01*
X61721769Y-106611133D01*
X61655448Y-106655448D01*
X61611133Y-106721769D01*
X61599500Y-106780252D01*
X61599500Y-107719748D01*
X58250000Y-107719748D01*
X58250000Y-101219748D01*
X61599500Y-101219748D01*
X61600707Y-101225816D01*
X61608222Y-101263595D01*
X61611133Y-101278231D01*
X61655448Y-101344552D01*
X61721769Y-101388867D01*
X61733938Y-101391288D01*
X61733939Y-101391288D01*
X61774184Y-101399293D01*
X61780252Y-101400500D01*
X62216241Y-101400500D01*
X62262010Y-101409107D01*
X62324513Y-101433476D01*
X62332046Y-101434468D01*
X62332047Y-101434468D01*
X62449739Y-101449962D01*
X62453826Y-101450500D01*
X86284953Y-101450500D01*
X86354955Y-101471735D01*
X86403950Y-101504473D01*
X86403954Y-101504475D01*
X86414269Y-101511367D01*
X86426438Y-101513788D01*
X86426439Y-101513788D01*
X86466684Y-101521793D01*
X86472752Y-101523000D01*
X87272223Y-101523000D01*
X87287142Y-101523886D01*
X87320394Y-101527851D01*
X87326529Y-101527379D01*
X87326531Y-101527379D01*
X87378617Y-101523371D01*
X87388284Y-101523000D01*
X90012248Y-101523000D01*
X90018316Y-101521793D01*
X90058561Y-101513788D01*
X90058562Y-101513788D01*
X90070731Y-101511367D01*
X90137052Y-101467052D01*
X90181367Y-101400731D01*
X90187694Y-101368926D01*
X90191793Y-101348316D01*
X90193000Y-101342248D01*
X90193000Y-101099306D01*
X99770588Y-101099306D01*
X99771258Y-101103856D01*
X99771258Y-101103859D01*
X99779304Y-101158514D01*
X99780730Y-101168200D01*
X99832156Y-101272943D01*
X99914738Y-101355381D01*
X99924094Y-101359954D01*
X99924095Y-101359955D01*
X99936601Y-101366068D01*
X100019570Y-101406624D01*
X100049888Y-101411047D01*
X100083344Y-101415928D01*
X100083348Y-101415928D01*
X100087870Y-101416588D01*
X100344588Y-101416588D01*
X100412709Y-101436590D01*
X100459202Y-101490246D01*
X100470588Y-101542588D01*
X100470588Y-101968989D01*
X100450586Y-102037110D01*
X100444551Y-102045693D01*
X100396552Y-102108247D01*
X100336044Y-102254326D01*
X100315406Y-102411088D01*
X100336044Y-102567850D01*
X100396552Y-102713929D01*
X100492806Y-102839370D01*
X100618247Y-102935624D01*
X100764326Y-102996132D01*
X100921088Y-103016770D01*
X100929276Y-103015692D01*
X101069662Y-102997210D01*
X101077850Y-102996132D01*
X101223929Y-102935624D01*
X101349370Y-102839370D01*
X101445624Y-102713929D01*
X101506132Y-102567850D01*
X101526770Y-102411088D01*
X101506132Y-102254326D01*
X101445624Y-102108247D01*
X101397625Y-102045693D01*
X101372025Y-101979472D01*
X101371588Y-101968989D01*
X101371588Y-101542588D01*
X101391590Y-101474467D01*
X101445246Y-101427974D01*
X101497588Y-101416588D01*
X101804306Y-101416588D01*
X101808856Y-101415918D01*
X101808859Y-101415918D01*
X101863514Y-101407872D01*
X101863515Y-101407872D01*
X101873200Y-101406446D01*
X101959877Y-101363890D01*
X101968595Y-101359610D01*
X101968597Y-101359609D01*
X101977943Y-101355020D01*
X102060381Y-101272438D01*
X102111624Y-101167606D01*
X102121588Y-101099306D01*
X102121588Y-100732870D01*
X102112959Y-100674250D01*
X102112872Y-100673662D01*
X102112872Y-100673661D01*
X102111446Y-100663976D01*
X102060020Y-100559233D01*
X101977438Y-100476795D01*
X101872606Y-100425552D01*
X101842115Y-100421104D01*
X101808832Y-100416248D01*
X101808828Y-100416248D01*
X101804306Y-100415588D01*
X100087870Y-100415588D01*
X100083320Y-100416258D01*
X100083317Y-100416258D01*
X100028662Y-100424304D01*
X100028661Y-100424304D01*
X100018976Y-100425730D01*
X99969080Y-100450228D01*
X99923581Y-100472566D01*
X99923579Y-100472567D01*
X99914233Y-100477156D01*
X99831795Y-100559738D01*
X99780552Y-100664570D01*
X99770588Y-100732870D01*
X99770588Y-101099306D01*
X90193000Y-101099306D01*
X90193000Y-99829306D01*
X99770588Y-99829306D01*
X99771258Y-99833856D01*
X99771258Y-99833859D01*
X99779304Y-99888514D01*
X99780730Y-99898200D01*
X99832156Y-100002943D01*
X99914738Y-100085381D01*
X100019570Y-100136624D01*
X100050061Y-100141072D01*
X100083344Y-100145928D01*
X100083348Y-100145928D01*
X100087870Y-100146588D01*
X101804306Y-100146588D01*
X101808856Y-100145918D01*
X101808859Y-100145918D01*
X101863514Y-100137872D01*
X101863515Y-100137872D01*
X101873200Y-100136446D01*
X101929688Y-100108712D01*
X101968595Y-100089610D01*
X101968597Y-100089609D01*
X101977943Y-100085020D01*
X102060381Y-100002438D01*
X102065669Y-99991621D01*
X102107328Y-99906394D01*
X102111624Y-99897606D01*
X102121588Y-99829306D01*
X102121588Y-99462870D01*
X102115572Y-99422000D01*
X102112872Y-99403662D01*
X102112872Y-99403661D01*
X102111446Y-99393976D01*
X102060020Y-99289233D01*
X101977438Y-99206795D01*
X101872606Y-99155552D01*
X101842115Y-99151104D01*
X101808832Y-99146248D01*
X101808828Y-99146248D01*
X101804306Y-99145588D01*
X100087870Y-99145588D01*
X100083320Y-99146258D01*
X100083317Y-99146258D01*
X100028662Y-99154304D01*
X100028661Y-99154304D01*
X100018976Y-99155730D01*
X99969080Y-99180228D01*
X99923581Y-99202566D01*
X99923579Y-99202567D01*
X99914233Y-99207156D01*
X99831795Y-99289738D01*
X99780552Y-99394570D01*
X99770588Y-99462870D01*
X99770588Y-99829306D01*
X90193000Y-99829306D01*
X90193000Y-99602752D01*
X90181367Y-99544269D01*
X90137052Y-99477948D01*
X90070731Y-99433633D01*
X90058562Y-99431212D01*
X90058561Y-99431212D01*
X90018316Y-99423207D01*
X90012248Y-99422000D01*
X87404589Y-99422000D01*
X87391419Y-99421310D01*
X87355998Y-99417587D01*
X87355996Y-99417587D01*
X87349869Y-99416943D01*
X87301882Y-99421310D01*
X87300003Y-99421481D01*
X87288584Y-99422000D01*
X86472752Y-99422000D01*
X86466684Y-99423207D01*
X86426439Y-99431212D01*
X86426438Y-99431212D01*
X86414269Y-99433633D01*
X86347948Y-99477948D01*
X86303633Y-99544269D01*
X86292000Y-99602752D01*
X86292000Y-99923500D01*
X86271998Y-99991621D01*
X86218342Y-100038114D01*
X86166000Y-100049500D01*
X62457484Y-100049500D01*
X62331680Y-100064724D01*
X62324577Y-100067408D01*
X62261174Y-100091366D01*
X62216636Y-100099500D01*
X61780252Y-100099500D01*
X61774184Y-100100707D01*
X61733939Y-100108712D01*
X61733938Y-100108712D01*
X61721769Y-100111133D01*
X61655448Y-100155448D01*
X61611133Y-100221769D01*
X61599500Y-100280252D01*
X61599500Y-101219748D01*
X58250000Y-101219748D01*
X58250000Y-96272248D01*
X61924500Y-96272248D01*
X61925707Y-96278316D01*
X61932931Y-96314631D01*
X61936133Y-96330731D01*
X61980448Y-96397052D01*
X62046769Y-96441367D01*
X62058938Y-96443788D01*
X62058939Y-96443788D01*
X62075701Y-96447122D01*
X62105252Y-96453000D01*
X63844748Y-96453000D01*
X63874299Y-96447122D01*
X63891061Y-96443788D01*
X63891062Y-96443788D01*
X63903231Y-96441367D01*
X63969552Y-96397052D01*
X64013867Y-96330731D01*
X64017070Y-96314631D01*
X64024293Y-96278316D01*
X64025500Y-96272248D01*
X64025500Y-96229000D01*
X64045502Y-96160879D01*
X64099158Y-96114386D01*
X64151500Y-96103000D01*
X79124837Y-96103000D01*
X79133407Y-96103292D01*
X79182832Y-96106662D01*
X79182836Y-96106662D01*
X79190408Y-96107178D01*
X79197884Y-96105873D01*
X79197887Y-96105873D01*
X79252610Y-96096322D01*
X79259136Y-96095359D01*
X79299574Y-96090465D01*
X79321798Y-96087776D01*
X79328905Y-96085091D01*
X79332198Y-96084282D01*
X79346669Y-96080323D01*
X79349945Y-96079334D01*
X79357432Y-96078027D01*
X79368153Y-96073321D01*
X79415238Y-96052653D01*
X79421344Y-96050161D01*
X79473296Y-96030530D01*
X79473298Y-96030529D01*
X79480401Y-96027845D01*
X79486656Y-96023546D01*
X79489681Y-96021965D01*
X79502777Y-96014675D01*
X79505721Y-96012934D01*
X79512680Y-96009879D01*
X79562751Y-95971458D01*
X79568087Y-95967581D01*
X79613864Y-95936119D01*
X79613870Y-95936114D01*
X79620129Y-95931812D01*
X79661087Y-95885842D01*
X79666067Y-95880567D01*
X80168872Y-95377762D01*
X86287020Y-95377762D01*
X86287536Y-95383905D01*
X86291558Y-95431802D01*
X86292000Y-95442346D01*
X86292000Y-96262248D01*
X86303633Y-96320731D01*
X86347948Y-96387052D01*
X86414269Y-96431367D01*
X86426438Y-96433788D01*
X86426439Y-96433788D01*
X86464542Y-96441367D01*
X86472752Y-96443000D01*
X87272223Y-96443000D01*
X87287142Y-96443886D01*
X87320394Y-96447851D01*
X87326529Y-96447379D01*
X87326531Y-96447379D01*
X87378617Y-96443371D01*
X87388284Y-96443000D01*
X90012248Y-96443000D01*
X90020458Y-96441367D01*
X90058561Y-96433788D01*
X90058562Y-96433788D01*
X90070731Y-96431367D01*
X90137052Y-96387052D01*
X90181367Y-96320731D01*
X90193000Y-96262248D01*
X90193000Y-94522752D01*
X90181367Y-94464269D01*
X90137052Y-94397948D01*
X90070731Y-94353633D01*
X90058562Y-94351212D01*
X90058561Y-94351212D01*
X90018316Y-94343207D01*
X90012248Y-94342000D01*
X87404589Y-94342000D01*
X87391419Y-94341310D01*
X87355998Y-94337587D01*
X87355996Y-94337587D01*
X87349869Y-94336943D01*
X87301882Y-94341310D01*
X87300003Y-94341481D01*
X87288584Y-94342000D01*
X86472752Y-94342000D01*
X86466684Y-94343207D01*
X86426439Y-94351212D01*
X86426438Y-94351212D01*
X86414269Y-94353633D01*
X86347948Y-94397948D01*
X86303633Y-94464269D01*
X86292000Y-94522752D01*
X86292000Y-95326317D01*
X86291215Y-95340362D01*
X86287020Y-95377762D01*
X80168872Y-95377762D01*
X81824386Y-93722248D01*
X86292000Y-93722248D01*
X86303633Y-93780731D01*
X86347948Y-93847052D01*
X86414269Y-93891367D01*
X86426438Y-93893788D01*
X86426439Y-93893788D01*
X86466684Y-93901793D01*
X86472752Y-93903000D01*
X90012248Y-93903000D01*
X90018316Y-93901793D01*
X90058561Y-93893788D01*
X90058562Y-93893788D01*
X90070731Y-93891367D01*
X90137052Y-93847052D01*
X90181367Y-93780731D01*
X90193000Y-93722248D01*
X90193000Y-91982752D01*
X90181367Y-91924269D01*
X90137052Y-91857948D01*
X90070731Y-91813633D01*
X90058562Y-91811212D01*
X90058561Y-91811212D01*
X90018316Y-91803207D01*
X90012248Y-91802000D01*
X86472752Y-91802000D01*
X86466684Y-91803207D01*
X86426439Y-91811212D01*
X86426438Y-91811212D01*
X86414269Y-91813633D01*
X86347948Y-91857948D01*
X86303633Y-91924269D01*
X86292000Y-91982752D01*
X86292000Y-93722248D01*
X81824386Y-93722248D01*
X86076905Y-89469729D01*
X86139217Y-89435703D01*
X86210032Y-89440768D01*
X86266868Y-89483315D01*
X86291679Y-89549835D01*
X86292000Y-89558824D01*
X86292000Y-90246317D01*
X86291215Y-90260362D01*
X86287020Y-90297762D01*
X86287536Y-90303905D01*
X86291558Y-90351802D01*
X86292000Y-90362346D01*
X86292000Y-91182248D01*
X86303633Y-91240731D01*
X86347948Y-91307052D01*
X86414269Y-91351367D01*
X86426438Y-91353788D01*
X86426439Y-91353788D01*
X86466684Y-91361793D01*
X86472752Y-91363000D01*
X87272223Y-91363000D01*
X87287142Y-91363886D01*
X87320394Y-91367851D01*
X87326529Y-91367379D01*
X87326531Y-91367379D01*
X87378617Y-91363371D01*
X87388284Y-91363000D01*
X90012248Y-91363000D01*
X90018316Y-91361793D01*
X90058561Y-91353788D01*
X90058562Y-91353788D01*
X90070731Y-91351367D01*
X90137052Y-91307052D01*
X90181367Y-91240731D01*
X90193000Y-91182248D01*
X90193000Y-89442752D01*
X90181367Y-89384269D01*
X90137052Y-89317948D01*
X90070731Y-89273633D01*
X90058562Y-89271212D01*
X90058561Y-89271212D01*
X90018316Y-89263207D01*
X90012248Y-89262000D01*
X87404589Y-89262000D01*
X87391419Y-89261310D01*
X87355998Y-89257587D01*
X87355996Y-89257587D01*
X87349869Y-89256943D01*
X87301882Y-89261310D01*
X87300003Y-89261481D01*
X87288584Y-89262000D01*
X86588824Y-89262000D01*
X86520703Y-89241998D01*
X86474210Y-89188342D01*
X86464106Y-89118068D01*
X86493600Y-89053488D01*
X86499729Y-89046905D01*
X86909229Y-88637405D01*
X86971541Y-88603379D01*
X86998324Y-88600500D01*
X96242516Y-88600500D01*
X96368320Y-88585276D01*
X96526923Y-88525345D01*
X96551895Y-88508182D01*
X96660392Y-88433614D01*
X96660393Y-88433613D01*
X96666651Y-88429312D01*
X96671704Y-88423641D01*
X96774388Y-88308392D01*
X96774390Y-88308388D01*
X96779440Y-88302721D01*
X96795985Y-88271474D01*
X96834027Y-88199624D01*
X96858776Y-88152881D01*
X96900081Y-87988441D01*
X96900969Y-87818895D01*
X96896061Y-87798449D01*
X96863161Y-87661417D01*
X96861388Y-87654032D01*
X96819199Y-87572291D01*
X96787108Y-87510117D01*
X96787108Y-87510116D01*
X96783625Y-87503369D01*
X96776838Y-87495588D01*
X96677163Y-87381329D01*
X96672169Y-87375604D01*
X96585241Y-87314510D01*
X96539670Y-87282482D01*
X96539668Y-87282481D01*
X96533453Y-87278113D01*
X96375487Y-87216524D01*
X96367954Y-87215532D01*
X96367953Y-87215532D01*
X96250261Y-87200038D01*
X96250260Y-87200038D01*
X96246174Y-87199500D01*
X86684615Y-87199500D01*
X86676044Y-87199208D01*
X86619048Y-87195322D01*
X86611572Y-87196627D01*
X86611568Y-87196627D01*
X86556846Y-87206178D01*
X86550320Y-87207141D01*
X86509882Y-87212035D01*
X86487658Y-87214724D01*
X86480551Y-87217409D01*
X86477258Y-87218218D01*
X86462787Y-87222177D01*
X86459511Y-87223166D01*
X86452024Y-87224473D01*
X86445066Y-87227528D01*
X86445064Y-87227528D01*
X86394220Y-87249846D01*
X86388115Y-87252338D01*
X86377104Y-87256499D01*
X86329055Y-87274655D01*
X86322802Y-87278953D01*
X86319771Y-87280537D01*
X86306694Y-87287817D01*
X86303735Y-87289567D01*
X86296775Y-87292622D01*
X86290748Y-87297247D01*
X86290744Y-87297249D01*
X86246678Y-87331062D01*
X86241359Y-87334927D01*
X86189327Y-87370688D01*
X86184270Y-87376364D01*
X86148378Y-87416648D01*
X86143397Y-87421924D01*
X78900226Y-94665095D01*
X78837914Y-94699121D01*
X78811131Y-94702000D01*
X64151500Y-94702000D01*
X64083379Y-94681998D01*
X64036886Y-94628342D01*
X64025500Y-94576000D01*
X64025500Y-94532752D01*
X64013867Y-94474269D01*
X63969552Y-94407948D01*
X63903231Y-94363633D01*
X63891062Y-94361212D01*
X63891061Y-94361212D01*
X63850816Y-94353207D01*
X63844748Y-94352000D01*
X62105252Y-94352000D01*
X62099184Y-94353207D01*
X62058939Y-94361212D01*
X62058938Y-94361212D01*
X62046769Y-94363633D01*
X61980448Y-94407948D01*
X61936133Y-94474269D01*
X61924500Y-94532752D01*
X61924500Y-96272248D01*
X58250000Y-96272248D01*
X58250000Y-92847762D01*
X61919520Y-92847762D01*
X61936759Y-93053053D01*
X61993544Y-93251086D01*
X61996359Y-93256563D01*
X61996360Y-93256566D01*
X62084897Y-93428841D01*
X62087712Y-93434318D01*
X62215677Y-93595770D01*
X62220370Y-93599764D01*
X62220371Y-93599765D01*
X62224618Y-93603379D01*
X62372564Y-93729291D01*
X62552398Y-93829797D01*
X62629626Y-93854890D01*
X62742471Y-93891556D01*
X62742475Y-93891557D01*
X62748329Y-93893459D01*
X62952894Y-93917851D01*
X62959029Y-93917379D01*
X62959031Y-93917379D01*
X63015039Y-93913069D01*
X63158300Y-93902046D01*
X63164230Y-93900390D01*
X63164232Y-93900390D01*
X63288104Y-93865804D01*
X63356725Y-93846645D01*
X63362214Y-93843872D01*
X63362220Y-93843870D01*
X63535116Y-93756533D01*
X63540610Y-93753758D01*
X63573175Y-93728316D01*
X63580942Y-93722248D01*
X66712000Y-93722248D01*
X66723633Y-93780731D01*
X66767948Y-93847052D01*
X66834269Y-93891367D01*
X66846438Y-93893788D01*
X66846439Y-93893788D01*
X66886684Y-93901793D01*
X66892752Y-93903000D01*
X70432248Y-93903000D01*
X70438316Y-93901793D01*
X70478561Y-93893788D01*
X70478562Y-93893788D01*
X70490731Y-93891367D01*
X70557052Y-93847052D01*
X70601367Y-93780731D01*
X70613000Y-93722248D01*
X70613000Y-91982752D01*
X70601367Y-91924269D01*
X70557052Y-91857948D01*
X70490731Y-91813633D01*
X70478562Y-91811212D01*
X70478561Y-91811212D01*
X70438316Y-91803207D01*
X70432248Y-91802000D01*
X66892752Y-91802000D01*
X66886684Y-91803207D01*
X66846439Y-91811212D01*
X66846438Y-91811212D01*
X66834269Y-91813633D01*
X66767948Y-91857948D01*
X66723633Y-91924269D01*
X66712000Y-91982752D01*
X66712000Y-93722248D01*
X63580942Y-93722248D01*
X63698101Y-93630713D01*
X63702951Y-93626924D01*
X63708495Y-93620502D01*
X63833540Y-93475634D01*
X63833540Y-93475633D01*
X63837564Y-93470972D01*
X63858387Y-93434318D01*
X63936276Y-93297207D01*
X63939323Y-93291844D01*
X64004351Y-93096363D01*
X64030171Y-92891974D01*
X64030583Y-92862500D01*
X64010480Y-92657470D01*
X63950935Y-92460249D01*
X63854218Y-92278349D01*
X63780859Y-92188402D01*
X63727906Y-92123475D01*
X63727903Y-92123472D01*
X63724011Y-92118700D01*
X63717173Y-92113043D01*
X63570025Y-91991311D01*
X63570021Y-91991309D01*
X63565275Y-91987382D01*
X63384055Y-91889397D01*
X63187254Y-91828477D01*
X63181129Y-91827833D01*
X63181128Y-91827833D01*
X62988498Y-91807587D01*
X62988496Y-91807587D01*
X62982369Y-91806943D01*
X62908856Y-91813633D01*
X62783342Y-91825055D01*
X62783339Y-91825056D01*
X62777203Y-91825614D01*
X62579572Y-91883780D01*
X62397002Y-91979226D01*
X62392201Y-91983086D01*
X62392198Y-91983088D01*
X62249335Y-92097953D01*
X62236447Y-92108315D01*
X62104024Y-92266130D01*
X62101056Y-92271528D01*
X62101053Y-92271533D01*
X62043129Y-92376898D01*
X62004776Y-92446662D01*
X61942484Y-92643032D01*
X61941798Y-92649149D01*
X61941797Y-92649153D01*
X61925071Y-92798272D01*
X61919520Y-92847762D01*
X58250000Y-92847762D01*
X58250000Y-90307762D01*
X61919520Y-90307762D01*
X61936759Y-90513053D01*
X61993544Y-90711086D01*
X61996359Y-90716563D01*
X61996360Y-90716566D01*
X62035643Y-90793002D01*
X62087712Y-90894318D01*
X62215677Y-91055770D01*
X62372564Y-91189291D01*
X62552398Y-91289797D01*
X62626712Y-91313943D01*
X62742471Y-91351556D01*
X62742475Y-91351557D01*
X62748329Y-91353459D01*
X62952894Y-91377851D01*
X62959029Y-91377379D01*
X62959031Y-91377379D01*
X63015039Y-91373069D01*
X63158300Y-91362046D01*
X63164230Y-91360390D01*
X63164232Y-91360390D01*
X63288104Y-91325804D01*
X63356725Y-91306645D01*
X63362214Y-91303872D01*
X63362220Y-91303870D01*
X63511305Y-91228561D01*
X63540610Y-91213758D01*
X63573175Y-91188316D01*
X63698101Y-91090713D01*
X63702951Y-91086924D01*
X63837564Y-90930972D01*
X63891083Y-90836762D01*
X63942121Y-90787413D01*
X64000638Y-90773000D01*
X66586000Y-90773000D01*
X66654121Y-90793002D01*
X66700614Y-90846658D01*
X66712000Y-90899000D01*
X66712000Y-91182248D01*
X66723633Y-91240731D01*
X66767948Y-91307052D01*
X66834269Y-91351367D01*
X66846438Y-91353788D01*
X66846439Y-91353788D01*
X66886684Y-91361793D01*
X66892752Y-91363000D01*
X69492223Y-91363000D01*
X69507142Y-91363886D01*
X69540394Y-91367851D01*
X69546529Y-91367379D01*
X69546531Y-91367379D01*
X69598617Y-91363371D01*
X69608284Y-91363000D01*
X70432248Y-91363000D01*
X70438316Y-91361793D01*
X70478561Y-91353788D01*
X70478562Y-91353788D01*
X70490731Y-91351367D01*
X70557052Y-91307052D01*
X70601367Y-91240731D01*
X70613000Y-91182248D01*
X70613000Y-90386873D01*
X70613994Y-90371081D01*
X70617228Y-90345478D01*
X70617671Y-90341974D01*
X70618083Y-90312500D01*
X70613601Y-90266788D01*
X70613000Y-90254494D01*
X70613000Y-89442752D01*
X70601367Y-89384269D01*
X70557052Y-89317948D01*
X70490731Y-89273633D01*
X70478562Y-89271212D01*
X70478561Y-89271212D01*
X70438316Y-89263207D01*
X70432248Y-89262000D01*
X69624589Y-89262000D01*
X69611419Y-89261310D01*
X69575998Y-89257587D01*
X69575996Y-89257587D01*
X69569869Y-89256943D01*
X69521882Y-89261310D01*
X69520003Y-89261481D01*
X69508584Y-89262000D01*
X66892752Y-89262000D01*
X66886684Y-89263207D01*
X66846439Y-89271212D01*
X66846438Y-89271212D01*
X66834269Y-89273633D01*
X66767948Y-89317948D01*
X66723633Y-89384269D01*
X66712000Y-89442752D01*
X66712000Y-89746000D01*
X66691998Y-89814121D01*
X66638342Y-89860614D01*
X66586000Y-89872000D01*
X64000990Y-89872000D01*
X63932869Y-89851998D01*
X63889738Y-89805153D01*
X63888120Y-89802109D01*
X63854218Y-89738349D01*
X63736744Y-89594312D01*
X63727906Y-89583475D01*
X63727903Y-89583472D01*
X63724011Y-89578700D01*
X63699985Y-89558824D01*
X63570025Y-89451311D01*
X63570021Y-89451309D01*
X63565275Y-89447382D01*
X63384055Y-89349397D01*
X63187254Y-89288477D01*
X63181129Y-89287833D01*
X63181128Y-89287833D01*
X62988498Y-89267587D01*
X62988496Y-89267587D01*
X62982369Y-89266943D01*
X62908856Y-89273633D01*
X62783342Y-89285055D01*
X62783339Y-89285056D01*
X62777203Y-89285614D01*
X62579572Y-89343780D01*
X62397002Y-89439226D01*
X62392201Y-89443086D01*
X62392198Y-89443088D01*
X62248251Y-89558824D01*
X62236447Y-89568315D01*
X62104024Y-89726130D01*
X62101056Y-89731528D01*
X62101053Y-89731533D01*
X62022509Y-89874406D01*
X62004776Y-89906662D01*
X61942484Y-90103032D01*
X61941798Y-90109149D01*
X61941797Y-90109153D01*
X61926412Y-90246317D01*
X61919520Y-90307762D01*
X58250000Y-90307762D01*
X58250000Y-87767762D01*
X61919520Y-87767762D01*
X61936759Y-87973053D01*
X61938458Y-87978978D01*
X61990084Y-88159018D01*
X61993544Y-88171086D01*
X61996359Y-88176563D01*
X61996360Y-88176566D01*
X62068961Y-88317833D01*
X62087712Y-88354318D01*
X62215677Y-88515770D01*
X62220370Y-88519764D01*
X62220371Y-88519765D01*
X62355152Y-88634472D01*
X62372564Y-88649291D01*
X62377942Y-88652297D01*
X62377944Y-88652298D01*
X62379200Y-88653000D01*
X62552398Y-88749797D01*
X62626712Y-88773943D01*
X62742471Y-88811556D01*
X62742475Y-88811557D01*
X62748329Y-88813459D01*
X62952894Y-88837851D01*
X62959029Y-88837379D01*
X62959031Y-88837379D01*
X63015039Y-88833069D01*
X63158300Y-88822046D01*
X63164230Y-88820390D01*
X63164232Y-88820390D01*
X63350797Y-88768300D01*
X63350796Y-88768300D01*
X63356725Y-88766645D01*
X63362214Y-88763872D01*
X63362220Y-88763870D01*
X63511305Y-88688561D01*
X63540610Y-88673758D01*
X63567812Y-88652506D01*
X63629970Y-88603943D01*
X63702951Y-88546924D01*
X63716929Y-88530731D01*
X63833540Y-88395634D01*
X63833540Y-88395633D01*
X63837564Y-88390972D01*
X63891083Y-88296762D01*
X63942121Y-88247413D01*
X64000638Y-88233000D01*
X66586000Y-88233000D01*
X66654121Y-88253002D01*
X66700614Y-88306658D01*
X66712000Y-88359000D01*
X66712000Y-88642248D01*
X66723633Y-88700731D01*
X66767948Y-88767052D01*
X66834269Y-88811367D01*
X66846438Y-88813788D01*
X66846439Y-88813788D01*
X66886684Y-88821793D01*
X66892752Y-88823000D01*
X69492223Y-88823000D01*
X69507142Y-88823886D01*
X69540394Y-88827851D01*
X69546529Y-88827379D01*
X69546531Y-88827379D01*
X69598617Y-88823371D01*
X69608284Y-88823000D01*
X70432248Y-88823000D01*
X70438316Y-88821793D01*
X70478561Y-88813788D01*
X70478562Y-88813788D01*
X70490731Y-88811367D01*
X70557052Y-88767052D01*
X70601367Y-88700731D01*
X70613000Y-88642248D01*
X70613000Y-87846873D01*
X70613994Y-87831081D01*
X70617228Y-87805478D01*
X70617671Y-87801974D01*
X70618083Y-87772500D01*
X70613601Y-87726788D01*
X70613000Y-87714494D01*
X70613000Y-86902752D01*
X70601367Y-86844269D01*
X70557052Y-86777948D01*
X70490731Y-86733633D01*
X70478562Y-86731212D01*
X70478561Y-86731212D01*
X70438316Y-86723207D01*
X70432248Y-86722000D01*
X69624589Y-86722000D01*
X69611419Y-86721310D01*
X69575998Y-86717587D01*
X69575996Y-86717587D01*
X69569869Y-86716943D01*
X69521882Y-86721310D01*
X69520003Y-86721481D01*
X69508584Y-86722000D01*
X66892752Y-86722000D01*
X66886684Y-86723207D01*
X66846439Y-86731212D01*
X66846438Y-86731212D01*
X66834269Y-86733633D01*
X66767948Y-86777948D01*
X66723633Y-86844269D01*
X66712000Y-86902752D01*
X66712000Y-87206000D01*
X66691998Y-87274121D01*
X66638342Y-87320614D01*
X66586000Y-87332000D01*
X64000990Y-87332000D01*
X63932869Y-87311998D01*
X63889738Y-87265153D01*
X63857111Y-87203790D01*
X63854218Y-87198349D01*
X63754785Y-87076432D01*
X63727906Y-87043475D01*
X63727903Y-87043472D01*
X63724011Y-87038700D01*
X63669797Y-86993850D01*
X63570025Y-86911311D01*
X63570021Y-86911309D01*
X63565275Y-86907382D01*
X63384055Y-86809397D01*
X63187254Y-86748477D01*
X63181129Y-86747833D01*
X63181128Y-86747833D01*
X62988498Y-86727587D01*
X62988496Y-86727587D01*
X62982369Y-86726943D01*
X62908856Y-86733633D01*
X62783342Y-86745055D01*
X62783339Y-86745056D01*
X62777203Y-86745614D01*
X62579572Y-86803780D01*
X62574107Y-86806637D01*
X62529611Y-86829899D01*
X62397002Y-86899226D01*
X62392201Y-86903086D01*
X62392198Y-86903088D01*
X62318895Y-86962025D01*
X62236447Y-87028315D01*
X62104024Y-87186130D01*
X62101056Y-87191528D01*
X62101053Y-87191533D01*
X62023247Y-87333063D01*
X62004776Y-87366662D01*
X61942484Y-87563032D01*
X61941798Y-87569149D01*
X61941797Y-87569153D01*
X61931448Y-87661417D01*
X61919520Y-87767762D01*
X58250000Y-87767762D01*
X58250000Y-85227762D01*
X61919520Y-85227762D01*
X61920036Y-85233906D01*
X61933632Y-85395810D01*
X61936759Y-85433053D01*
X61938458Y-85438978D01*
X61990084Y-85619018D01*
X61993544Y-85631086D01*
X61996359Y-85636563D01*
X61996360Y-85636566D01*
X62084897Y-85808841D01*
X62087712Y-85814318D01*
X62215677Y-85975770D01*
X62220370Y-85979764D01*
X62220371Y-85979765D01*
X62244103Y-85999962D01*
X62372564Y-86109291D01*
X62377942Y-86112297D01*
X62377944Y-86112298D01*
X62398793Y-86123950D01*
X62552398Y-86209797D01*
X62630214Y-86235081D01*
X62742471Y-86271556D01*
X62742475Y-86271557D01*
X62748329Y-86273459D01*
X62952894Y-86297851D01*
X62959029Y-86297379D01*
X62959031Y-86297379D01*
X63015039Y-86293069D01*
X63158300Y-86282046D01*
X63164230Y-86280390D01*
X63164232Y-86280390D01*
X63324358Y-86235682D01*
X63356725Y-86226645D01*
X63362214Y-86223872D01*
X63362220Y-86223870D01*
X63514114Y-86147142D01*
X63540610Y-86133758D01*
X63573175Y-86108316D01*
X63698095Y-86010718D01*
X63698096Y-86010717D01*
X63702951Y-86006924D01*
X63720436Y-85986668D01*
X63780088Y-85948171D01*
X63815816Y-85943000D01*
X74326500Y-85943000D01*
X74394621Y-85963002D01*
X74441114Y-86016658D01*
X74452500Y-86069000D01*
X74452500Y-88202500D01*
X77452500Y-88202500D01*
X77452500Y-86069000D01*
X77472502Y-86000879D01*
X77526158Y-85954386D01*
X77578500Y-85943000D01*
X86166000Y-85943000D01*
X86234121Y-85963002D01*
X86280614Y-86016658D01*
X86292000Y-86069000D01*
X86292000Y-86102248D01*
X86293207Y-86108316D01*
X86300895Y-86146964D01*
X86303633Y-86160731D01*
X86347948Y-86227052D01*
X86414269Y-86271367D01*
X86426438Y-86273788D01*
X86426439Y-86273788D01*
X86466684Y-86281793D01*
X86472752Y-86283000D01*
X87272223Y-86283000D01*
X87287142Y-86283886D01*
X87320394Y-86287851D01*
X87326529Y-86287379D01*
X87326531Y-86287379D01*
X87378617Y-86283371D01*
X87388284Y-86283000D01*
X90012248Y-86283000D01*
X90018316Y-86281793D01*
X90058561Y-86273788D01*
X90058562Y-86273788D01*
X90070731Y-86271367D01*
X90137052Y-86227052D01*
X90181367Y-86160731D01*
X90184106Y-86146964D01*
X90191793Y-86108316D01*
X90193000Y-86102248D01*
X90193000Y-84362752D01*
X90181367Y-84304269D01*
X90137052Y-84237948D01*
X90070731Y-84193633D01*
X90058562Y-84191212D01*
X90058561Y-84191212D01*
X90018316Y-84183207D01*
X90012248Y-84182000D01*
X87404589Y-84182000D01*
X87391419Y-84181310D01*
X87355998Y-84177587D01*
X87355996Y-84177587D01*
X87349869Y-84176943D01*
X87301882Y-84181310D01*
X87300003Y-84181481D01*
X87288584Y-84182000D01*
X86472752Y-84182000D01*
X86466684Y-84183207D01*
X86426439Y-84191212D01*
X86426438Y-84191212D01*
X86414269Y-84193633D01*
X86347948Y-84237948D01*
X86303633Y-84304269D01*
X86292000Y-84362752D01*
X86292000Y-84416000D01*
X86271998Y-84484121D01*
X86218342Y-84530614D01*
X86166000Y-84542000D01*
X77578500Y-84542000D01*
X77510379Y-84521998D01*
X77463886Y-84468342D01*
X77452500Y-84416000D01*
X77452500Y-81022248D01*
X86292000Y-81022248D01*
X86303633Y-81080731D01*
X86347948Y-81147052D01*
X86414269Y-81191367D01*
X86426438Y-81193788D01*
X86426439Y-81193788D01*
X86466684Y-81201793D01*
X86472752Y-81203000D01*
X90012248Y-81203000D01*
X90018316Y-81201793D01*
X90058561Y-81193788D01*
X90058562Y-81193788D01*
X90070731Y-81191367D01*
X90137052Y-81147052D01*
X90181367Y-81080731D01*
X90193000Y-81022248D01*
X90193000Y-79282752D01*
X90181367Y-79224269D01*
X90137052Y-79157948D01*
X90070731Y-79113633D01*
X90058562Y-79111212D01*
X90058561Y-79111212D01*
X90018316Y-79103207D01*
X90012248Y-79102000D01*
X86472752Y-79102000D01*
X86466684Y-79103207D01*
X86426439Y-79111212D01*
X86426438Y-79111212D01*
X86414269Y-79113633D01*
X86347948Y-79157948D01*
X86303633Y-79224269D01*
X86292000Y-79282752D01*
X86292000Y-81022248D01*
X77452500Y-81022248D01*
X77452500Y-80202500D01*
X74452500Y-80202500D01*
X74452500Y-84416000D01*
X74432498Y-84484121D01*
X74378842Y-84530614D01*
X74326500Y-84542000D01*
X63818611Y-84542000D01*
X63750490Y-84521998D01*
X63729205Y-84504784D01*
X63727907Y-84503477D01*
X63724011Y-84498700D01*
X63607253Y-84402109D01*
X63570025Y-84371311D01*
X63570021Y-84371309D01*
X63565275Y-84367382D01*
X63384055Y-84269397D01*
X63187254Y-84208477D01*
X63181129Y-84207833D01*
X63181128Y-84207833D01*
X62988498Y-84187587D01*
X62988496Y-84187587D01*
X62982369Y-84186943D01*
X62908856Y-84193633D01*
X62783342Y-84205055D01*
X62783339Y-84205056D01*
X62777203Y-84205614D01*
X62579572Y-84263780D01*
X62397002Y-84359226D01*
X62392201Y-84363086D01*
X62392198Y-84363088D01*
X62256430Y-84472248D01*
X62236447Y-84488315D01*
X62104024Y-84646130D01*
X62101056Y-84651528D01*
X62101053Y-84651533D01*
X62065320Y-84716532D01*
X62004776Y-84826662D01*
X61942484Y-85023032D01*
X61941798Y-85029149D01*
X61941797Y-85029153D01*
X61925911Y-85170787D01*
X61919520Y-85227762D01*
X58250000Y-85227762D01*
X58250000Y-82687762D01*
X61919520Y-82687762D01*
X61936759Y-82893053D01*
X61938458Y-82898978D01*
X61991542Y-83084103D01*
X61993544Y-83091086D01*
X61996359Y-83096563D01*
X61996360Y-83096566D01*
X62017247Y-83137207D01*
X62087712Y-83274318D01*
X62215677Y-83435770D01*
X62372564Y-83569291D01*
X62552398Y-83669797D01*
X62647238Y-83700613D01*
X62742471Y-83731556D01*
X62742475Y-83731557D01*
X62748329Y-83733459D01*
X62952894Y-83757851D01*
X62959029Y-83757379D01*
X62959031Y-83757379D01*
X63015039Y-83753069D01*
X63158300Y-83742046D01*
X63164230Y-83740390D01*
X63164232Y-83740390D01*
X63350797Y-83688300D01*
X63350796Y-83688300D01*
X63356725Y-83686645D01*
X63362214Y-83683872D01*
X63362220Y-83683870D01*
X63514114Y-83607142D01*
X63540610Y-83593758D01*
X63702951Y-83466924D01*
X63744956Y-83418261D01*
X63833540Y-83315634D01*
X63833540Y-83315633D01*
X63837564Y-83310972D01*
X63858387Y-83274318D01*
X63936276Y-83137207D01*
X63939323Y-83131844D01*
X64004351Y-82936363D01*
X64030171Y-82731974D01*
X64030583Y-82702500D01*
X64010480Y-82497470D01*
X63950935Y-82300249D01*
X63854218Y-82118349D01*
X63728183Y-81963815D01*
X63727906Y-81963475D01*
X63727903Y-81963472D01*
X63724011Y-81958700D01*
X63706786Y-81944450D01*
X63570025Y-81831311D01*
X63570021Y-81831309D01*
X63565275Y-81827382D01*
X63384055Y-81729397D01*
X63187254Y-81668477D01*
X63181129Y-81667833D01*
X63181128Y-81667833D01*
X62988498Y-81647587D01*
X62988496Y-81647587D01*
X62982369Y-81646943D01*
X62895529Y-81654846D01*
X62783342Y-81665055D01*
X62783339Y-81665056D01*
X62777203Y-81665614D01*
X62579572Y-81723780D01*
X62397002Y-81819226D01*
X62392201Y-81823086D01*
X62392198Y-81823088D01*
X62259015Y-81930170D01*
X62236447Y-81948315D01*
X62104024Y-82106130D01*
X62101056Y-82111528D01*
X62101053Y-82111533D01*
X62024054Y-82251595D01*
X62004776Y-82286662D01*
X62002913Y-82292535D01*
X61954488Y-82445192D01*
X61942484Y-82483032D01*
X61941798Y-82489149D01*
X61941797Y-82489153D01*
X61920207Y-82681637D01*
X61919520Y-82687762D01*
X58250000Y-82687762D01*
X58250000Y-81022248D01*
X66712000Y-81022248D01*
X66723633Y-81080731D01*
X66767948Y-81147052D01*
X66834269Y-81191367D01*
X66846438Y-81193788D01*
X66846439Y-81193788D01*
X66886684Y-81201793D01*
X66892752Y-81203000D01*
X70432248Y-81203000D01*
X70438316Y-81201793D01*
X70478561Y-81193788D01*
X70478562Y-81193788D01*
X70490731Y-81191367D01*
X70557052Y-81147052D01*
X70601367Y-81080731D01*
X70613000Y-81022248D01*
X70613000Y-79282752D01*
X70601367Y-79224269D01*
X70585151Y-79200000D01*
X74500000Y-79200000D01*
X75753069Y-79200000D01*
X75778835Y-79202663D01*
X75917644Y-79231662D01*
X75917649Y-79231663D01*
X75922380Y-79232651D01*
X75927262Y-79232907D01*
X75927371Y-79232913D01*
X75927387Y-79232913D01*
X75929039Y-79233000D01*
X76078300Y-79233000D01*
X76164257Y-79224269D01*
X76223368Y-79218265D01*
X76223370Y-79218265D01*
X76229716Y-79217620D01*
X76267547Y-79205764D01*
X76305222Y-79200000D01*
X80603069Y-79200000D01*
X80628835Y-79202663D01*
X80767644Y-79231662D01*
X80767649Y-79231663D01*
X80772380Y-79232651D01*
X80777262Y-79232907D01*
X80777371Y-79232913D01*
X80777387Y-79232913D01*
X80779039Y-79233000D01*
X80928300Y-79233000D01*
X81014257Y-79224269D01*
X81073368Y-79218265D01*
X81073370Y-79218265D01*
X81079716Y-79217620D01*
X81117547Y-79205764D01*
X81155222Y-79200000D01*
X82500000Y-79200000D01*
X82500000Y-74200000D01*
X81774287Y-74200000D01*
X81715621Y-74185509D01*
X81619664Y-74135023D01*
X81417727Y-74072320D01*
X81403301Y-74070613D01*
X81249732Y-74052436D01*
X81249725Y-74052436D01*
X81246045Y-74052000D01*
X81123859Y-74052000D01*
X80966940Y-74066419D01*
X80961378Y-74067988D01*
X80961376Y-74067988D01*
X80905275Y-74083810D01*
X80763431Y-74123814D01*
X80758254Y-74126367D01*
X80758249Y-74126369D01*
X80635291Y-74187006D01*
X80579562Y-74200000D01*
X76324287Y-74200000D01*
X76265621Y-74185509D01*
X76169664Y-74135023D01*
X75967727Y-74072320D01*
X75953301Y-74070613D01*
X75799732Y-74052436D01*
X75799725Y-74052436D01*
X75796045Y-74052000D01*
X75673859Y-74052000D01*
X75516940Y-74066419D01*
X75511378Y-74067988D01*
X75511376Y-74067988D01*
X75455275Y-74083810D01*
X75313431Y-74123814D01*
X75308254Y-74126367D01*
X75308249Y-74126369D01*
X75185291Y-74187006D01*
X75129562Y-74200000D01*
X74500000Y-74200000D01*
X74500000Y-79200000D01*
X70585151Y-79200000D01*
X70557052Y-79157948D01*
X70490731Y-79113633D01*
X70478562Y-79111212D01*
X70478561Y-79111212D01*
X70438316Y-79103207D01*
X70432248Y-79102000D01*
X66892752Y-79102000D01*
X66886684Y-79103207D01*
X66846439Y-79111212D01*
X66846438Y-79111212D01*
X66834269Y-79113633D01*
X66767948Y-79157948D01*
X66723633Y-79224269D01*
X66712000Y-79282752D01*
X66712000Y-81022248D01*
X58250000Y-81022248D01*
X58250000Y-72376000D01*
X58270002Y-72307879D01*
X58323658Y-72261386D01*
X58376000Y-72250000D01*
X106574000Y-72250000D01*
X106642121Y-72270002D01*
G37*
%TD.AperFunction*%
%TD*%
%TA.AperFunction,Conductor*%
%TO.N,Net-(C15-Pad1)*%
G36*
X100042121Y-120120002D02*
G01*
X100088614Y-120173658D01*
X100100000Y-120226000D01*
X100100000Y-124274000D01*
X100079998Y-124342121D01*
X100026342Y-124388614D01*
X99974000Y-124400000D01*
X93726000Y-124400000D01*
X93657879Y-124379998D01*
X93611386Y-124326342D01*
X93600000Y-124274000D01*
X93600000Y-122626000D01*
X93620002Y-122557879D01*
X93673658Y-122511386D01*
X93726000Y-122500000D01*
X97900000Y-122500000D01*
X97900000Y-120226000D01*
X97920002Y-120157879D01*
X97973658Y-120111386D01*
X98026000Y-120100000D01*
X99974000Y-120100000D01*
X100042121Y-120120002D01*
G37*
%TD.AperFunction*%
%TD*%
%TA.AperFunction,Conductor*%
%TO.N,GND*%
G36*
X98191740Y-119012800D02*
G01*
X98248482Y-119040536D01*
X98278973Y-119044984D01*
X98312256Y-119049840D01*
X98312260Y-119049840D01*
X98316782Y-119050500D01*
X99408218Y-119050500D01*
X99412770Y-119049830D01*
X99412782Y-119049829D01*
X99418786Y-119048945D01*
X99489093Y-119058811D01*
X99542906Y-119105123D01*
X99551839Y-119121451D01*
X99557108Y-119133040D01*
X99560920Y-119142405D01*
X99572791Y-119175288D01*
X99572794Y-119175294D01*
X99575841Y-119183734D01*
X99581135Y-119190981D01*
X99585251Y-119198721D01*
X99600000Y-119257875D01*
X99600000Y-119774000D01*
X99579998Y-119842121D01*
X99526342Y-119888614D01*
X99474000Y-119900000D01*
X97700000Y-119900000D01*
X97700000Y-122174000D01*
X97679998Y-122242121D01*
X97626342Y-122288614D01*
X97574000Y-122300000D01*
X95926000Y-122300000D01*
X95857879Y-122279998D01*
X95811386Y-122226342D01*
X95800000Y-122174000D01*
X95800000Y-119126000D01*
X95820002Y-119057879D01*
X95873658Y-119011386D01*
X95926000Y-119000000D01*
X98136407Y-119000000D01*
X98191740Y-119012800D01*
G37*
%TD.AperFunction*%
%TD*%
%TA.AperFunction,Conductor*%
%TO.N,A3V3*%
G36*
X115442121Y-72270002D02*
G01*
X115488614Y-72323658D01*
X115500000Y-72376000D01*
X115500000Y-74173500D01*
X115479998Y-74241621D01*
X115426342Y-74288114D01*
X115374000Y-74299500D01*
X114794615Y-74299500D01*
X114726494Y-74279498D01*
X114693264Y-74248360D01*
X114691241Y-74245620D01*
X114659650Y-74202850D01*
X114573577Y-74139275D01*
X114558257Y-74127959D01*
X114558254Y-74127958D01*
X114550684Y-74122366D01*
X114422869Y-74077481D01*
X114415223Y-74076758D01*
X114415222Y-74076758D01*
X114409252Y-74076194D01*
X114391334Y-74074500D01*
X113608666Y-74074500D01*
X113590748Y-74076194D01*
X113584778Y-74076758D01*
X113584777Y-74076758D01*
X113577131Y-74077481D01*
X113449316Y-74122366D01*
X113441746Y-74127958D01*
X113441743Y-74127959D01*
X113426423Y-74139275D01*
X113340350Y-74202850D01*
X113334758Y-74210421D01*
X113265459Y-74304243D01*
X113265458Y-74304246D01*
X113259866Y-74311816D01*
X113214981Y-74439631D01*
X113212000Y-74471166D01*
X113212000Y-75528834D01*
X113214981Y-75560369D01*
X113259866Y-75688184D01*
X113265458Y-75695754D01*
X113265459Y-75695757D01*
X113308759Y-75754380D01*
X113340350Y-75797150D01*
X113347921Y-75802742D01*
X113441743Y-75872041D01*
X113441746Y-75872042D01*
X113449316Y-75877634D01*
X113577131Y-75922519D01*
X113584777Y-75923242D01*
X113584778Y-75923242D01*
X113590748Y-75923806D01*
X113608666Y-75925500D01*
X114391334Y-75925500D01*
X114409252Y-75923806D01*
X114415222Y-75923242D01*
X114415223Y-75923242D01*
X114422869Y-75922519D01*
X114550684Y-75877634D01*
X114558254Y-75872042D01*
X114558257Y-75872041D01*
X114652074Y-75802746D01*
X114652075Y-75802745D01*
X114659650Y-75797150D01*
X114693265Y-75751639D01*
X114749826Y-75708729D01*
X114794615Y-75700500D01*
X115374000Y-75700500D01*
X115442121Y-75720502D01*
X115488614Y-75774158D01*
X115500000Y-75826500D01*
X115500000Y-77673500D01*
X115479998Y-77741621D01*
X115426342Y-77788114D01*
X115374000Y-77799500D01*
X114832115Y-77799500D01*
X114763994Y-77779498D01*
X114730764Y-77748360D01*
X114728741Y-77745620D01*
X114697150Y-77702850D01*
X114611077Y-77639275D01*
X114595757Y-77627959D01*
X114595754Y-77627958D01*
X114588184Y-77622366D01*
X114460369Y-77577481D01*
X114452723Y-77576758D01*
X114452722Y-77576758D01*
X114446752Y-77576194D01*
X114428834Y-77574500D01*
X113646166Y-77574500D01*
X113628248Y-77576194D01*
X113622278Y-77576758D01*
X113622277Y-77576758D01*
X113614631Y-77577481D01*
X113486816Y-77622366D01*
X113479246Y-77627958D01*
X113479243Y-77627959D01*
X113463923Y-77639275D01*
X113377850Y-77702850D01*
X113372258Y-77710421D01*
X113302959Y-77804243D01*
X113302958Y-77804246D01*
X113297366Y-77811816D01*
X113252481Y-77939631D01*
X113249500Y-77971166D01*
X113249500Y-79028834D01*
X113252481Y-79060369D01*
X113297366Y-79188184D01*
X113302958Y-79195754D01*
X113302959Y-79195757D01*
X113346259Y-79254380D01*
X113377850Y-79297150D01*
X113385421Y-79302742D01*
X113479243Y-79372041D01*
X113479246Y-79372042D01*
X113486816Y-79377634D01*
X113614631Y-79422519D01*
X113622277Y-79423242D01*
X113622278Y-79423242D01*
X113628248Y-79423806D01*
X113646166Y-79425500D01*
X114428834Y-79425500D01*
X114446752Y-79423806D01*
X114452722Y-79423242D01*
X114452723Y-79423242D01*
X114460369Y-79422519D01*
X114588184Y-79377634D01*
X114595754Y-79372042D01*
X114595757Y-79372041D01*
X114689574Y-79302746D01*
X114689575Y-79302745D01*
X114697150Y-79297150D01*
X114730765Y-79251639D01*
X114787326Y-79208729D01*
X114832115Y-79200500D01*
X115374000Y-79200500D01*
X115442121Y-79220502D01*
X115488614Y-79274158D01*
X115500000Y-79326500D01*
X115500000Y-85173500D01*
X115479998Y-85241621D01*
X115426342Y-85288114D01*
X115374000Y-85299500D01*
X114867950Y-85299500D01*
X114799829Y-85279498D01*
X114793091Y-85274851D01*
X114695761Y-85202961D01*
X114695754Y-85202957D01*
X114688184Y-85197366D01*
X114560369Y-85152481D01*
X114552723Y-85151758D01*
X114552722Y-85151758D01*
X114546752Y-85151194D01*
X114528834Y-85149500D01*
X113471166Y-85149500D01*
X113453248Y-85151194D01*
X113447278Y-85151758D01*
X113447277Y-85151758D01*
X113439631Y-85152481D01*
X113311816Y-85197366D01*
X113304246Y-85202958D01*
X113304243Y-85202959D01*
X113251900Y-85241621D01*
X113202850Y-85277850D01*
X113197258Y-85285421D01*
X113127959Y-85379243D01*
X113127958Y-85379246D01*
X113122366Y-85386816D01*
X113077481Y-85514631D01*
X113074500Y-85546166D01*
X113074500Y-86328834D01*
X113077481Y-86360369D01*
X113122366Y-86488184D01*
X113127958Y-86495754D01*
X113127959Y-86495757D01*
X113190335Y-86580206D01*
X113202850Y-86597150D01*
X113210421Y-86602742D01*
X113304243Y-86672041D01*
X113304246Y-86672042D01*
X113311816Y-86677634D01*
X113439631Y-86722519D01*
X113447277Y-86723242D01*
X113447278Y-86723242D01*
X113453248Y-86723806D01*
X113471166Y-86725500D01*
X114528834Y-86725500D01*
X114546752Y-86723806D01*
X114552722Y-86723242D01*
X114552723Y-86723242D01*
X114560369Y-86722519D01*
X114602805Y-86707617D01*
X114644552Y-86700500D01*
X115374000Y-86700500D01*
X115442121Y-86720502D01*
X115488614Y-86774158D01*
X115500000Y-86826500D01*
X115500000Y-87331000D01*
X115479998Y-87399121D01*
X115426342Y-87445614D01*
X115374000Y-87457000D01*
X111390070Y-87457000D01*
X111334737Y-87444200D01*
X111332613Y-87443162D01*
X111279018Y-87416964D01*
X111248527Y-87412516D01*
X111215244Y-87407660D01*
X111215240Y-87407660D01*
X111210718Y-87407000D01*
X109494282Y-87407000D01*
X109489732Y-87407670D01*
X109489729Y-87407670D01*
X109435074Y-87415716D01*
X109435073Y-87415716D01*
X109425388Y-87417142D01*
X109375492Y-87441640D01*
X109329993Y-87463978D01*
X109329991Y-87463979D01*
X109320645Y-87468568D01*
X109238207Y-87551150D01*
X109186964Y-87655982D01*
X109177000Y-87724282D01*
X109177000Y-88090718D01*
X109177670Y-88095268D01*
X109177670Y-88095271D01*
X109185716Y-88149926D01*
X109187142Y-88159612D01*
X109238568Y-88264355D01*
X109321150Y-88346793D01*
X109425982Y-88398036D01*
X109456473Y-88402484D01*
X109489756Y-88407340D01*
X109489760Y-88407340D01*
X109494282Y-88408000D01*
X109701000Y-88408000D01*
X109769121Y-88428002D01*
X109815614Y-88481658D01*
X109827000Y-88534000D01*
X109827000Y-89848280D01*
X109826127Y-89863089D01*
X109822136Y-89896810D01*
X109823828Y-89906074D01*
X109823828Y-89906075D01*
X109832672Y-89954501D01*
X109833322Y-89958404D01*
X109838767Y-89994616D01*
X109842051Y-90016462D01*
X109845179Y-90022975D01*
X109846475Y-90030073D01*
X109873525Y-90082147D01*
X109875268Y-90085637D01*
X109900691Y-90138579D01*
X109905577Y-90143865D01*
X109905610Y-90143913D01*
X109908921Y-90150288D01*
X109913225Y-90155328D01*
X109950452Y-90192555D01*
X109953881Y-90196120D01*
X109992646Y-90238056D01*
X109999005Y-90241749D01*
X110005163Y-90247266D01*
X110834747Y-91076850D01*
X110844601Y-91087939D01*
X110859793Y-91107209D01*
X110865628Y-91114610D01*
X110873375Y-91119965D01*
X110873377Y-91119966D01*
X110913875Y-91147955D01*
X110917087Y-91150250D01*
X110964316Y-91185134D01*
X110971132Y-91187527D01*
X110977069Y-91191631D01*
X110986049Y-91194471D01*
X110986051Y-91194472D01*
X111006217Y-91200850D01*
X111033019Y-91209326D01*
X111036750Y-91210571D01*
X111083237Y-91226896D01*
X111083239Y-91226896D01*
X111092131Y-91230019D01*
X111099319Y-91230301D01*
X111099378Y-91230312D01*
X111106230Y-91232480D01*
X111112837Y-91233000D01*
X111165516Y-91233000D01*
X111170462Y-91233097D01*
X111227494Y-91235338D01*
X111234600Y-91233454D01*
X111242844Y-91233000D01*
X112863589Y-91233000D01*
X112931710Y-91253002D01*
X112969500Y-91290744D01*
X112971860Y-91294406D01*
X112974676Y-91299885D01*
X113090459Y-91445968D01*
X113232412Y-91566779D01*
X113395127Y-91657717D01*
X113572407Y-91715319D01*
X113757498Y-91737390D01*
X113763633Y-91736918D01*
X113763635Y-91736918D01*
X113937210Y-91723562D01*
X113937215Y-91723561D01*
X113943351Y-91723089D01*
X113949281Y-91721433D01*
X113949283Y-91721433D01*
X114116959Y-91674617D01*
X114116958Y-91674617D01*
X114122887Y-91672962D01*
X114289268Y-91588917D01*
X114313755Y-91569786D01*
X114431294Y-91477954D01*
X114431295Y-91477953D01*
X114436155Y-91474156D01*
X114557954Y-91333050D01*
X114650026Y-91170974D01*
X114708864Y-90994101D01*
X114732227Y-90809168D01*
X114732599Y-90782500D01*
X114714409Y-90596987D01*
X114712628Y-90591088D01*
X114712627Y-90591083D01*
X114662314Y-90424439D01*
X114660533Y-90418540D01*
X114594896Y-90295095D01*
X114575916Y-90259398D01*
X114575914Y-90259395D01*
X114573022Y-90253956D01*
X114569132Y-90249186D01*
X114569129Y-90249182D01*
X114459105Y-90114280D01*
X114459102Y-90114277D01*
X114455210Y-90109505D01*
X114449556Y-90104827D01*
X114350614Y-90022975D01*
X114311585Y-89990687D01*
X114147616Y-89902029D01*
X113997991Y-89855713D01*
X113975436Y-89848731D01*
X113975433Y-89848730D01*
X113969549Y-89846909D01*
X113963424Y-89846265D01*
X113963423Y-89846265D01*
X113790296Y-89828068D01*
X113790295Y-89828068D01*
X113784168Y-89827424D01*
X113706049Y-89834533D01*
X113604671Y-89843759D01*
X113604668Y-89843760D01*
X113598532Y-89844318D01*
X113592622Y-89846057D01*
X113592619Y-89846058D01*
X113465796Y-89883385D01*
X113419714Y-89896948D01*
X113254523Y-89983307D01*
X113249723Y-89987167D01*
X113249722Y-89987167D01*
X113220230Y-90010879D01*
X113109252Y-90100108D01*
X112989435Y-90242901D01*
X112976350Y-90266702D01*
X112926007Y-90316759D01*
X112865937Y-90332000D01*
X111416293Y-90332000D01*
X111348172Y-90311998D01*
X111327198Y-90295095D01*
X110764905Y-89732802D01*
X110730879Y-89670490D01*
X110728000Y-89643707D01*
X110728000Y-88534000D01*
X110748002Y-88465879D01*
X110801658Y-88419386D01*
X110854000Y-88408000D01*
X111210718Y-88408000D01*
X111215268Y-88407330D01*
X111215271Y-88407330D01*
X111238925Y-88403848D01*
X111279612Y-88397858D01*
X111288403Y-88393542D01*
X111288406Y-88393541D01*
X111334526Y-88370897D01*
X111390056Y-88358000D01*
X115374000Y-88358000D01*
X115442121Y-88378002D01*
X115488614Y-88431658D01*
X115500000Y-88484000D01*
X115500000Y-94874000D01*
X115479998Y-94942121D01*
X115426342Y-94988614D01*
X115374000Y-95000000D01*
X104626000Y-95000000D01*
X104557879Y-94979998D01*
X104511386Y-94926342D01*
X104500000Y-94874000D01*
X104500000Y-94225031D01*
X104871088Y-94225031D01*
X104871544Y-94232586D01*
X104880969Y-94310476D01*
X104884922Y-94326041D01*
X104934253Y-94450637D01*
X104942610Y-94465468D01*
X105023331Y-94571813D01*
X105035363Y-94583845D01*
X105141708Y-94664566D01*
X105156539Y-94672923D01*
X105281135Y-94722254D01*
X105296700Y-94726207D01*
X105374590Y-94735632D01*
X105382145Y-94736088D01*
X105490473Y-94736088D01*
X105505712Y-94731613D01*
X105506917Y-94730223D01*
X105508588Y-94722540D01*
X105508588Y-94717973D01*
X106008588Y-94717973D01*
X106013063Y-94733212D01*
X106014453Y-94734417D01*
X106022136Y-94736088D01*
X106135031Y-94736088D01*
X106142586Y-94735632D01*
X106220476Y-94726207D01*
X106236041Y-94722254D01*
X106360637Y-94672923D01*
X106375468Y-94664566D01*
X106481813Y-94583845D01*
X106493845Y-94571813D01*
X106574566Y-94465468D01*
X106582923Y-94450637D01*
X106632254Y-94326041D01*
X106636207Y-94310476D01*
X106645632Y-94232586D01*
X106646088Y-94225031D01*
X106646088Y-93979203D01*
X106641613Y-93963964D01*
X106640223Y-93962759D01*
X106632540Y-93961088D01*
X106026703Y-93961088D01*
X106011464Y-93965563D01*
X106010259Y-93966953D01*
X106008588Y-93974636D01*
X106008588Y-94717973D01*
X105508588Y-94717973D01*
X105508588Y-93979203D01*
X105504113Y-93963964D01*
X105502723Y-93962759D01*
X105495040Y-93961088D01*
X104889203Y-93961088D01*
X104873964Y-93965563D01*
X104872759Y-93966953D01*
X104871088Y-93974636D01*
X104871088Y-94225031D01*
X104500000Y-94225031D01*
X104500000Y-93442973D01*
X104871088Y-93442973D01*
X104875563Y-93458212D01*
X104876953Y-93459417D01*
X104884636Y-93461088D01*
X105490473Y-93461088D01*
X105505712Y-93456613D01*
X105506917Y-93455223D01*
X105508588Y-93447540D01*
X105508588Y-93442973D01*
X106008588Y-93442973D01*
X106013063Y-93458212D01*
X106014453Y-93459417D01*
X106022136Y-93461088D01*
X106627973Y-93461088D01*
X106643212Y-93456613D01*
X106644417Y-93455223D01*
X106646088Y-93447540D01*
X106646088Y-93197145D01*
X106645632Y-93189590D01*
X106636207Y-93111700D01*
X106632254Y-93096135D01*
X106582923Y-92971539D01*
X106574566Y-92956708D01*
X106493845Y-92850363D01*
X106481813Y-92838331D01*
X106375468Y-92757610D01*
X106360637Y-92749253D01*
X106236041Y-92699922D01*
X106220476Y-92695969D01*
X106142586Y-92686544D01*
X106135031Y-92686088D01*
X106026703Y-92686088D01*
X106011464Y-92690563D01*
X106010259Y-92691953D01*
X106008588Y-92699636D01*
X106008588Y-93442973D01*
X105508588Y-93442973D01*
X105508588Y-92704203D01*
X105504113Y-92688964D01*
X105502723Y-92687759D01*
X105495040Y-92686088D01*
X105382145Y-92686088D01*
X105374590Y-92686544D01*
X105296700Y-92695969D01*
X105281135Y-92699922D01*
X105156539Y-92749253D01*
X105141708Y-92757610D01*
X105035363Y-92838331D01*
X105023331Y-92850363D01*
X104942610Y-92956708D01*
X104934253Y-92971539D01*
X104884922Y-93096135D01*
X104880969Y-93111700D01*
X104871544Y-93189590D01*
X104871088Y-93197145D01*
X104871088Y-93442973D01*
X104500000Y-93442973D01*
X104500000Y-91126000D01*
X104520002Y-91057879D01*
X104573658Y-91011386D01*
X104626000Y-91000000D01*
X107000000Y-91000000D01*
X107000000Y-90079000D01*
X107020002Y-90010879D01*
X107073658Y-89964386D01*
X107126000Y-89953000D01*
X107143280Y-89953000D01*
X107158089Y-89953873D01*
X107191810Y-89957864D01*
X107201074Y-89956172D01*
X107201075Y-89956172D01*
X107249501Y-89947328D01*
X107253404Y-89946678D01*
X107302145Y-89939350D01*
X107302146Y-89939350D01*
X107311462Y-89937949D01*
X107317975Y-89934821D01*
X107325073Y-89933525D01*
X107377147Y-89906475D01*
X107380637Y-89904732D01*
X107433579Y-89879309D01*
X107438865Y-89874423D01*
X107438913Y-89874390D01*
X107445288Y-89871079D01*
X107450328Y-89866775D01*
X107487555Y-89829548D01*
X107491121Y-89826118D01*
X107526141Y-89793746D01*
X107533056Y-89787354D01*
X107536749Y-89780995D01*
X107542266Y-89774837D01*
X108271850Y-89045253D01*
X108282939Y-89035399D01*
X108302210Y-89020206D01*
X108302211Y-89020205D01*
X108309610Y-89014372D01*
X108314965Y-89006624D01*
X108314967Y-89006622D01*
X108342974Y-88966100D01*
X108345274Y-88962881D01*
X108374538Y-88923260D01*
X108374539Y-88923259D01*
X108380134Y-88915683D01*
X108382527Y-88908869D01*
X108386631Y-88902931D01*
X108404317Y-88847009D01*
X108405570Y-88843253D01*
X108421898Y-88796758D01*
X108425020Y-88787869D01*
X108425303Y-88780683D01*
X108425317Y-88780612D01*
X108427480Y-88773770D01*
X108428000Y-88767163D01*
X108428000Y-88714494D01*
X108428097Y-88709548D01*
X108429968Y-88661915D01*
X108430338Y-88652506D01*
X108428454Y-88645400D01*
X108428000Y-88637153D01*
X108428000Y-87541293D01*
X108448002Y-87473172D01*
X108464905Y-87452198D01*
X108792198Y-87124905D01*
X108854510Y-87090879D01*
X108881293Y-87088000D01*
X109314930Y-87088000D01*
X109370263Y-87100800D01*
X109425982Y-87128036D01*
X109456473Y-87132484D01*
X109489756Y-87137340D01*
X109489760Y-87137340D01*
X109494282Y-87138000D01*
X111210718Y-87138000D01*
X111215268Y-87137330D01*
X111215271Y-87137330D01*
X111269926Y-87129284D01*
X111269927Y-87129284D01*
X111279612Y-87127858D01*
X111356138Y-87090286D01*
X111375007Y-87081022D01*
X111375009Y-87081021D01*
X111384355Y-87076432D01*
X111466793Y-86993850D01*
X111518036Y-86889018D01*
X111522484Y-86858527D01*
X111527340Y-86825244D01*
X111527340Y-86825240D01*
X111528000Y-86820718D01*
X111528000Y-86454282D01*
X111517858Y-86385388D01*
X111488637Y-86325871D01*
X111471022Y-86289993D01*
X111471021Y-86289991D01*
X111466432Y-86280645D01*
X111396482Y-86210817D01*
X111391221Y-86205565D01*
X111391220Y-86205565D01*
X111383850Y-86198207D01*
X111373857Y-86193322D01*
X111334538Y-86174103D01*
X111279018Y-86146964D01*
X111248527Y-86142516D01*
X111215244Y-86137660D01*
X111215240Y-86137660D01*
X111210718Y-86137000D01*
X110929000Y-86137000D01*
X110860879Y-86116998D01*
X110814386Y-86063342D01*
X110803000Y-86011000D01*
X110803000Y-85994000D01*
X110823002Y-85925879D01*
X110876658Y-85879386D01*
X110929000Y-85868000D01*
X111210718Y-85868000D01*
X111215268Y-85867330D01*
X111215271Y-85867330D01*
X111269926Y-85859284D01*
X111269927Y-85859284D01*
X111279612Y-85857858D01*
X111374304Y-85811367D01*
X111375007Y-85811022D01*
X111375009Y-85811021D01*
X111384355Y-85806432D01*
X111436664Y-85754032D01*
X111459435Y-85731221D01*
X111459435Y-85731220D01*
X111466793Y-85723850D01*
X111518036Y-85619018D01*
X111528000Y-85550718D01*
X111528000Y-85184282D01*
X111519371Y-85125662D01*
X111519284Y-85125074D01*
X111519284Y-85125073D01*
X111517858Y-85115388D01*
X111466432Y-85010645D01*
X111383850Y-84928207D01*
X111325644Y-84899756D01*
X111273228Y-84851871D01*
X111255021Y-84783248D01*
X111276805Y-84715676D01*
X111331662Y-84670608D01*
X111339230Y-84667673D01*
X111381564Y-84652806D01*
X111398020Y-84644094D01*
X111491721Y-84574884D01*
X111504884Y-84561721D01*
X111574094Y-84468020D01*
X111582806Y-84451564D01*
X111613349Y-84364592D01*
X111614083Y-84350510D01*
X111608309Y-84347500D01*
X109103764Y-84347500D01*
X109090233Y-84351473D01*
X109089307Y-84357916D01*
X109122194Y-84451564D01*
X109130906Y-84468020D01*
X109200116Y-84561721D01*
X109213279Y-84574884D01*
X109306980Y-84644094D01*
X109323435Y-84652806D01*
X109365754Y-84667667D01*
X109423399Y-84709110D01*
X109449488Y-84775139D01*
X109435738Y-84844791D01*
X109386513Y-84895952D01*
X109379538Y-84899653D01*
X109320645Y-84928568D01*
X109238207Y-85011150D01*
X109186964Y-85115982D01*
X109177000Y-85184282D01*
X109177000Y-85550718D01*
X109177670Y-85555268D01*
X109177670Y-85555271D01*
X109185716Y-85609926D01*
X109187142Y-85619612D01*
X109191458Y-85628402D01*
X109214145Y-85674610D01*
X109238568Y-85724355D01*
X109321150Y-85806793D01*
X109425982Y-85858036D01*
X109456473Y-85862484D01*
X109489756Y-85867340D01*
X109489760Y-85867340D01*
X109494282Y-85868000D01*
X109776000Y-85868000D01*
X109844121Y-85888002D01*
X109890614Y-85941658D01*
X109902000Y-85994000D01*
X109902000Y-86011000D01*
X109881998Y-86079121D01*
X109828342Y-86125614D01*
X109776000Y-86137000D01*
X109494282Y-86137000D01*
X109489732Y-86137670D01*
X109489729Y-86137670D01*
X109466075Y-86141152D01*
X109425388Y-86147142D01*
X109416597Y-86151458D01*
X109416594Y-86151459D01*
X109370474Y-86174103D01*
X109314944Y-86187000D01*
X108676720Y-86187000D01*
X108661911Y-86186127D01*
X108637543Y-86183243D01*
X108628190Y-86182136D01*
X108618926Y-86183828D01*
X108618925Y-86183828D01*
X108570499Y-86192672D01*
X108566596Y-86193322D01*
X108517855Y-86200650D01*
X108517854Y-86200650D01*
X108508538Y-86202051D01*
X108502025Y-86205179D01*
X108494927Y-86206475D01*
X108442853Y-86233525D01*
X108439363Y-86235268D01*
X108386421Y-86260691D01*
X108381135Y-86265577D01*
X108381087Y-86265610D01*
X108374712Y-86268921D01*
X108369672Y-86273225D01*
X108332445Y-86310452D01*
X108328880Y-86313881D01*
X108286944Y-86352646D01*
X108283251Y-86359005D01*
X108277734Y-86365163D01*
X107683150Y-86959747D01*
X107672061Y-86969601D01*
X107652791Y-86984793D01*
X107652789Y-86984795D01*
X107645390Y-86990628D01*
X107640035Y-86998375D01*
X107640034Y-86998377D01*
X107612045Y-87038875D01*
X107609750Y-87042087D01*
X107574866Y-87089316D01*
X107572473Y-87096132D01*
X107568369Y-87102069D01*
X107565529Y-87111049D01*
X107565528Y-87111051D01*
X107550682Y-87157995D01*
X107549429Y-87161750D01*
X107529981Y-87217131D01*
X107529699Y-87224319D01*
X107529688Y-87224378D01*
X107527520Y-87231230D01*
X107527000Y-87237837D01*
X107527000Y-87290516D01*
X107526903Y-87295462D01*
X107524662Y-87352494D01*
X107526546Y-87359600D01*
X107527000Y-87367847D01*
X107527000Y-88463707D01*
X107506998Y-88531828D01*
X107490095Y-88552802D01*
X107215095Y-88827802D01*
X107152783Y-88861828D01*
X107081968Y-88856763D01*
X107025132Y-88814216D01*
X107000321Y-88747696D01*
X107000000Y-88738707D01*
X107000000Y-84238943D01*
X112975000Y-84238943D01*
X112975456Y-84246498D01*
X112984881Y-84324388D01*
X112988834Y-84339953D01*
X113038165Y-84464549D01*
X113046522Y-84479380D01*
X113127243Y-84585725D01*
X113139275Y-84597757D01*
X113245620Y-84678478D01*
X113260451Y-84686835D01*
X113385047Y-84736166D01*
X113400612Y-84740119D01*
X113478502Y-84749544D01*
X113486057Y-84750000D01*
X113731885Y-84750000D01*
X113747124Y-84745525D01*
X113748329Y-84744135D01*
X113750000Y-84736452D01*
X113750000Y-84731885D01*
X114250000Y-84731885D01*
X114254475Y-84747124D01*
X114255865Y-84748329D01*
X114263548Y-84750000D01*
X114513943Y-84750000D01*
X114521498Y-84749544D01*
X114599388Y-84740119D01*
X114614953Y-84736166D01*
X114739549Y-84686835D01*
X114754380Y-84678478D01*
X114860725Y-84597757D01*
X114872757Y-84585725D01*
X114953478Y-84479380D01*
X114961835Y-84464549D01*
X115011166Y-84339953D01*
X115015119Y-84324388D01*
X115024544Y-84246498D01*
X115025000Y-84238943D01*
X115025000Y-84130615D01*
X115020525Y-84115376D01*
X115019135Y-84114171D01*
X115011452Y-84112500D01*
X114268115Y-84112500D01*
X114252876Y-84116975D01*
X114251671Y-84118365D01*
X114250000Y-84126048D01*
X114250000Y-84731885D01*
X113750000Y-84731885D01*
X113750000Y-84130615D01*
X113745525Y-84115376D01*
X113744135Y-84114171D01*
X113736452Y-84112500D01*
X112993115Y-84112500D01*
X112977876Y-84116975D01*
X112976671Y-84118365D01*
X112975000Y-84126048D01*
X112975000Y-84238943D01*
X107000000Y-84238943D01*
X107000000Y-83844490D01*
X109090917Y-83844490D01*
X109096691Y-83847500D01*
X110084385Y-83847500D01*
X110099624Y-83843025D01*
X110100829Y-83841635D01*
X110102500Y-83833952D01*
X110102500Y-83829385D01*
X110602500Y-83829385D01*
X110606975Y-83844624D01*
X110608365Y-83845829D01*
X110616048Y-83847500D01*
X111601236Y-83847500D01*
X111614767Y-83843527D01*
X111615693Y-83837084D01*
X111582806Y-83743436D01*
X111574094Y-83726980D01*
X111504884Y-83633279D01*
X111491721Y-83620116D01*
X111456885Y-83594385D01*
X112975000Y-83594385D01*
X112979475Y-83609624D01*
X112980865Y-83610829D01*
X112988548Y-83612500D01*
X113731885Y-83612500D01*
X113747124Y-83608025D01*
X113748329Y-83606635D01*
X113750000Y-83598952D01*
X113750000Y-83594385D01*
X114250000Y-83594385D01*
X114254475Y-83609624D01*
X114255865Y-83610829D01*
X114263548Y-83612500D01*
X115006885Y-83612500D01*
X115022124Y-83608025D01*
X115023329Y-83606635D01*
X115025000Y-83598952D01*
X115025000Y-83486057D01*
X115024544Y-83478502D01*
X115015119Y-83400612D01*
X115011166Y-83385047D01*
X114961835Y-83260451D01*
X114953478Y-83245620D01*
X114872757Y-83139275D01*
X114860725Y-83127243D01*
X114754380Y-83046522D01*
X114739549Y-83038165D01*
X114614953Y-82988834D01*
X114599388Y-82984881D01*
X114521498Y-82975456D01*
X114513943Y-82975000D01*
X114268115Y-82975000D01*
X114252876Y-82979475D01*
X114251671Y-82980865D01*
X114250000Y-82988548D01*
X114250000Y-83594385D01*
X113750000Y-83594385D01*
X113750000Y-82993115D01*
X113745525Y-82977876D01*
X113744135Y-82976671D01*
X113736452Y-82975000D01*
X113486057Y-82975000D01*
X113478502Y-82975456D01*
X113400612Y-82984881D01*
X113385047Y-82988834D01*
X113260451Y-83038165D01*
X113245620Y-83046522D01*
X113139275Y-83127243D01*
X113127243Y-83139275D01*
X113046522Y-83245620D01*
X113038165Y-83260451D01*
X112988834Y-83385047D01*
X112984881Y-83400612D01*
X112975456Y-83478502D01*
X112975000Y-83486057D01*
X112975000Y-83594385D01*
X111456885Y-83594385D01*
X111398020Y-83550906D01*
X111381564Y-83542194D01*
X111270021Y-83503023D01*
X111255127Y-83499755D01*
X111234219Y-83497779D01*
X111228308Y-83497500D01*
X110620615Y-83497500D01*
X110605376Y-83501975D01*
X110604171Y-83503365D01*
X110602500Y-83511048D01*
X110602500Y-83829385D01*
X110102500Y-83829385D01*
X110102500Y-83515616D01*
X110098025Y-83500377D01*
X110096635Y-83499172D01*
X110088952Y-83497501D01*
X109476696Y-83497501D01*
X109470775Y-83497780D01*
X109449869Y-83499756D01*
X109434984Y-83503021D01*
X109323436Y-83542194D01*
X109306980Y-83550906D01*
X109213279Y-83620116D01*
X109200116Y-83633279D01*
X109130906Y-83726980D01*
X109122194Y-83743436D01*
X109091651Y-83830408D01*
X109090917Y-83844490D01*
X107000000Y-83844490D01*
X107000000Y-81004786D01*
X107020002Y-80936665D01*
X107045483Y-80909472D01*
X107045415Y-80909404D01*
X107047520Y-80907299D01*
X107051140Y-80903436D01*
X107052071Y-80902749D01*
X107052075Y-80902745D01*
X107059650Y-80897150D01*
X107102195Y-80839549D01*
X107134541Y-80795757D01*
X107134542Y-80795754D01*
X107140134Y-80788184D01*
X107185019Y-80660369D01*
X107188000Y-80628834D01*
X107188000Y-80613943D01*
X107587500Y-80613943D01*
X107587956Y-80621498D01*
X107597381Y-80699388D01*
X107601334Y-80714953D01*
X107650665Y-80839549D01*
X107659022Y-80854380D01*
X107739743Y-80960725D01*
X107751775Y-80972757D01*
X107858120Y-81053478D01*
X107872951Y-81061835D01*
X107997547Y-81111166D01*
X108013112Y-81115119D01*
X108091002Y-81124544D01*
X108098557Y-81125000D01*
X108206885Y-81125000D01*
X108222124Y-81120525D01*
X108223329Y-81119135D01*
X108225000Y-81111452D01*
X108225000Y-81106885D01*
X108725000Y-81106885D01*
X108729475Y-81122124D01*
X108730865Y-81123329D01*
X108738548Y-81125000D01*
X108851443Y-81125000D01*
X108858998Y-81124544D01*
X108936888Y-81115119D01*
X108952453Y-81111166D01*
X109077049Y-81061835D01*
X109091880Y-81053478D01*
X109198225Y-80972757D01*
X109210257Y-80960725D01*
X109290978Y-80854380D01*
X109299335Y-80839549D01*
X109348666Y-80714953D01*
X109352619Y-80699388D01*
X109362044Y-80621498D01*
X109362500Y-80613943D01*
X109362500Y-80368115D01*
X109358025Y-80352876D01*
X109356635Y-80351671D01*
X109348952Y-80350000D01*
X108743115Y-80350000D01*
X108727876Y-80354475D01*
X108726671Y-80355865D01*
X108725000Y-80363548D01*
X108725000Y-81106885D01*
X108225000Y-81106885D01*
X108225000Y-80368115D01*
X108220525Y-80352876D01*
X108219135Y-80351671D01*
X108211452Y-80350000D01*
X107605615Y-80350000D01*
X107590376Y-80354475D01*
X107589171Y-80355865D01*
X107587500Y-80363548D01*
X107587500Y-80613943D01*
X107188000Y-80613943D01*
X107188000Y-79831885D01*
X107587500Y-79831885D01*
X107591975Y-79847124D01*
X107593365Y-79848329D01*
X107601048Y-79850000D01*
X108206885Y-79850000D01*
X108222124Y-79845525D01*
X108223329Y-79844135D01*
X108225000Y-79836452D01*
X108225000Y-79831885D01*
X108725000Y-79831885D01*
X108729475Y-79847124D01*
X108730865Y-79848329D01*
X108738548Y-79850000D01*
X109344385Y-79850000D01*
X109359624Y-79845525D01*
X109360829Y-79844135D01*
X109362500Y-79836452D01*
X109362500Y-79586057D01*
X109362044Y-79578502D01*
X109352619Y-79500612D01*
X109348666Y-79485047D01*
X109299335Y-79360451D01*
X109290978Y-79345620D01*
X109210257Y-79239275D01*
X109198225Y-79227243D01*
X109091880Y-79146522D01*
X109077049Y-79138165D01*
X108952453Y-79088834D01*
X108936888Y-79084881D01*
X108858998Y-79075456D01*
X108851443Y-79075000D01*
X108743115Y-79075000D01*
X108727876Y-79079475D01*
X108726671Y-79080865D01*
X108725000Y-79088548D01*
X108725000Y-79831885D01*
X108225000Y-79831885D01*
X108225000Y-79093115D01*
X108220525Y-79077876D01*
X108219135Y-79076671D01*
X108211452Y-79075000D01*
X108098557Y-79075000D01*
X108091002Y-79075456D01*
X108013112Y-79084881D01*
X107997547Y-79088834D01*
X107872951Y-79138165D01*
X107858120Y-79146522D01*
X107751775Y-79227243D01*
X107739743Y-79239275D01*
X107659022Y-79345620D01*
X107650665Y-79360451D01*
X107601334Y-79485047D01*
X107597381Y-79500612D01*
X107587956Y-79578502D01*
X107587500Y-79586057D01*
X107587500Y-79831885D01*
X107188000Y-79831885D01*
X107188000Y-79571166D01*
X107185019Y-79539631D01*
X107140134Y-79411816D01*
X107134542Y-79404246D01*
X107134541Y-79404243D01*
X107065246Y-79310426D01*
X107065245Y-79310425D01*
X107059650Y-79302850D01*
X107052075Y-79297255D01*
X107052071Y-79297251D01*
X107051140Y-79296564D01*
X107050376Y-79295556D01*
X107045415Y-79290596D01*
X107046096Y-79289915D01*
X107008229Y-79240003D01*
X107000000Y-79195214D01*
X107000000Y-79013943D01*
X111075000Y-79013943D01*
X111075456Y-79021498D01*
X111084881Y-79099388D01*
X111088834Y-79114953D01*
X111138165Y-79239549D01*
X111146522Y-79254380D01*
X111227243Y-79360725D01*
X111239275Y-79372757D01*
X111345620Y-79453478D01*
X111360451Y-79461835D01*
X111485047Y-79511166D01*
X111500612Y-79515119D01*
X111578502Y-79524544D01*
X111586057Y-79525000D01*
X111694385Y-79525000D01*
X111709624Y-79520525D01*
X111710829Y-79519135D01*
X111712500Y-79511452D01*
X111712500Y-79506885D01*
X112212500Y-79506885D01*
X112216975Y-79522124D01*
X112218365Y-79523329D01*
X112226048Y-79525000D01*
X112338943Y-79525000D01*
X112346498Y-79524544D01*
X112424388Y-79515119D01*
X112439953Y-79511166D01*
X112564549Y-79461835D01*
X112579380Y-79453478D01*
X112685725Y-79372757D01*
X112697757Y-79360725D01*
X112778478Y-79254380D01*
X112786835Y-79239549D01*
X112836166Y-79114953D01*
X112840119Y-79099388D01*
X112849544Y-79021498D01*
X112850000Y-79013943D01*
X112850000Y-78768115D01*
X112845525Y-78752876D01*
X112844135Y-78751671D01*
X112836452Y-78750000D01*
X112230615Y-78750000D01*
X112215376Y-78754475D01*
X112214171Y-78755865D01*
X112212500Y-78763548D01*
X112212500Y-79506885D01*
X111712500Y-79506885D01*
X111712500Y-78768115D01*
X111708025Y-78752876D01*
X111706635Y-78751671D01*
X111698952Y-78750000D01*
X111093115Y-78750000D01*
X111077876Y-78754475D01*
X111076671Y-78755865D01*
X111075000Y-78763548D01*
X111075000Y-79013943D01*
X107000000Y-79013943D01*
X107000000Y-78231885D01*
X111075000Y-78231885D01*
X111079475Y-78247124D01*
X111080865Y-78248329D01*
X111088548Y-78250000D01*
X111694385Y-78250000D01*
X111709624Y-78245525D01*
X111710829Y-78244135D01*
X111712500Y-78236452D01*
X111712500Y-78231885D01*
X112212500Y-78231885D01*
X112216975Y-78247124D01*
X112218365Y-78248329D01*
X112226048Y-78250000D01*
X112831885Y-78250000D01*
X112847124Y-78245525D01*
X112848329Y-78244135D01*
X112850000Y-78236452D01*
X112850000Y-77986057D01*
X112849544Y-77978502D01*
X112840119Y-77900612D01*
X112836166Y-77885047D01*
X112786835Y-77760451D01*
X112778478Y-77745620D01*
X112697757Y-77639275D01*
X112685725Y-77627243D01*
X112579380Y-77546522D01*
X112564549Y-77538165D01*
X112439953Y-77488834D01*
X112424388Y-77484881D01*
X112346498Y-77475456D01*
X112338943Y-77475000D01*
X112230615Y-77475000D01*
X112215376Y-77479475D01*
X112214171Y-77480865D01*
X112212500Y-77488548D01*
X112212500Y-78231885D01*
X111712500Y-78231885D01*
X111712500Y-77493115D01*
X111708025Y-77477876D01*
X111706635Y-77476671D01*
X111698952Y-77475000D01*
X111586057Y-77475000D01*
X111578502Y-77475456D01*
X111500612Y-77484881D01*
X111485047Y-77488834D01*
X111360451Y-77538165D01*
X111345620Y-77546522D01*
X111239275Y-77627243D01*
X111227243Y-77639275D01*
X111146522Y-77745620D01*
X111138165Y-77760451D01*
X111088834Y-77885047D01*
X111084881Y-77900612D01*
X111075456Y-77978502D01*
X111075000Y-77986057D01*
X111075000Y-78231885D01*
X107000000Y-78231885D01*
X107000000Y-77194748D01*
X107294500Y-77194748D01*
X107306133Y-77253231D01*
X107350448Y-77319552D01*
X107416769Y-77363867D01*
X107428938Y-77366288D01*
X107428939Y-77366288D01*
X107469184Y-77374293D01*
X107475252Y-77375500D01*
X109074748Y-77375500D01*
X109080816Y-77374293D01*
X109121061Y-77366288D01*
X109121062Y-77366288D01*
X109133231Y-77363867D01*
X109199552Y-77319552D01*
X109243867Y-77253231D01*
X109255500Y-77194748D01*
X109255500Y-76505252D01*
X109254293Y-76499184D01*
X109246288Y-76458939D01*
X109246288Y-76458938D01*
X109243867Y-76446769D01*
X109199552Y-76380448D01*
X109133231Y-76336133D01*
X109121062Y-76333712D01*
X109121061Y-76333712D01*
X109080816Y-76325707D01*
X109074748Y-76324500D01*
X107475252Y-76324500D01*
X107469184Y-76325707D01*
X107428939Y-76333712D01*
X107428938Y-76333712D01*
X107416769Y-76336133D01*
X107350448Y-76380448D01*
X107306133Y-76446769D01*
X107303712Y-76458938D01*
X107303712Y-76458939D01*
X107295707Y-76499184D01*
X107294500Y-76505252D01*
X107294500Y-77194748D01*
X107000000Y-77194748D01*
X107000000Y-75493772D01*
X107020002Y-75425651D01*
X107073658Y-75379158D01*
X107143932Y-75369054D01*
X107208512Y-75398548D01*
X107230772Y-75428607D01*
X107232169Y-75427647D01*
X107251713Y-75456085D01*
X107314342Y-75518604D01*
X107333212Y-75531525D01*
X107416125Y-75568180D01*
X107434202Y-75573108D01*
X107446787Y-75574576D01*
X107454088Y-75575000D01*
X108006885Y-75575000D01*
X108022124Y-75570525D01*
X108023329Y-75569135D01*
X108025000Y-75561452D01*
X108025000Y-75556885D01*
X108525000Y-75556885D01*
X108529475Y-75572124D01*
X108530865Y-75573329D01*
X108538548Y-75575000D01*
X109095840Y-75575000D01*
X109103286Y-75574558D01*
X109116336Y-75573006D01*
X109134374Y-75568048D01*
X109217231Y-75531245D01*
X109236085Y-75518287D01*
X109240421Y-75513943D01*
X111037500Y-75513943D01*
X111037956Y-75521498D01*
X111047381Y-75599388D01*
X111051334Y-75614953D01*
X111100665Y-75739549D01*
X111109022Y-75754380D01*
X111189743Y-75860725D01*
X111201775Y-75872757D01*
X111308120Y-75953478D01*
X111322951Y-75961835D01*
X111447547Y-76011166D01*
X111463112Y-76015119D01*
X111541002Y-76024544D01*
X111548557Y-76025000D01*
X111656885Y-76025000D01*
X111672124Y-76020525D01*
X111673329Y-76019135D01*
X111675000Y-76011452D01*
X111675000Y-76006885D01*
X112175000Y-76006885D01*
X112179475Y-76022124D01*
X112180865Y-76023329D01*
X112188548Y-76025000D01*
X112301443Y-76025000D01*
X112308998Y-76024544D01*
X112386888Y-76015119D01*
X112402453Y-76011166D01*
X112527049Y-75961835D01*
X112541880Y-75953478D01*
X112648225Y-75872757D01*
X112660257Y-75860725D01*
X112740978Y-75754380D01*
X112749335Y-75739549D01*
X112798666Y-75614953D01*
X112802619Y-75599388D01*
X112812044Y-75521498D01*
X112812500Y-75513943D01*
X112812500Y-75268115D01*
X112808025Y-75252876D01*
X112806635Y-75251671D01*
X112798952Y-75250000D01*
X112193115Y-75250000D01*
X112177876Y-75254475D01*
X112176671Y-75255865D01*
X112175000Y-75263548D01*
X112175000Y-76006885D01*
X111675000Y-76006885D01*
X111675000Y-75268115D01*
X111670525Y-75252876D01*
X111669135Y-75251671D01*
X111661452Y-75250000D01*
X111055615Y-75250000D01*
X111040376Y-75254475D01*
X111039171Y-75255865D01*
X111037500Y-75263548D01*
X111037500Y-75513943D01*
X109240421Y-75513943D01*
X109298604Y-75455658D01*
X109311525Y-75436788D01*
X109348180Y-75353875D01*
X109353108Y-75335798D01*
X109354576Y-75323213D01*
X109355000Y-75315912D01*
X109355000Y-75218115D01*
X109350525Y-75202876D01*
X109349135Y-75201671D01*
X109341452Y-75200000D01*
X108543115Y-75200000D01*
X108527876Y-75204475D01*
X108526671Y-75205865D01*
X108525000Y-75213548D01*
X108525000Y-75556885D01*
X108025000Y-75556885D01*
X108025000Y-74731885D01*
X111037500Y-74731885D01*
X111041975Y-74747124D01*
X111043365Y-74748329D01*
X111051048Y-74750000D01*
X111656885Y-74750000D01*
X111672124Y-74745525D01*
X111673329Y-74744135D01*
X111675000Y-74736452D01*
X111675000Y-74731885D01*
X112175000Y-74731885D01*
X112179475Y-74747124D01*
X112180865Y-74748329D01*
X112188548Y-74750000D01*
X112794385Y-74750000D01*
X112809624Y-74745525D01*
X112810829Y-74744135D01*
X112812500Y-74736452D01*
X112812500Y-74486057D01*
X112812044Y-74478502D01*
X112802619Y-74400612D01*
X112798666Y-74385047D01*
X112749335Y-74260451D01*
X112740978Y-74245620D01*
X112660257Y-74139275D01*
X112648225Y-74127243D01*
X112541880Y-74046522D01*
X112527049Y-74038165D01*
X112402453Y-73988834D01*
X112386888Y-73984881D01*
X112308998Y-73975456D01*
X112301443Y-73975000D01*
X112193115Y-73975000D01*
X112177876Y-73979475D01*
X112176671Y-73980865D01*
X112175000Y-73988548D01*
X112175000Y-74731885D01*
X111675000Y-74731885D01*
X111675000Y-73993115D01*
X111670525Y-73977876D01*
X111669135Y-73976671D01*
X111661452Y-73975000D01*
X111548557Y-73975000D01*
X111541002Y-73975456D01*
X111463112Y-73984881D01*
X111447547Y-73988834D01*
X111322951Y-74038165D01*
X111308120Y-74046522D01*
X111201775Y-74127243D01*
X111189743Y-74139275D01*
X111109022Y-74245620D01*
X111100665Y-74260451D01*
X111051334Y-74385047D01*
X111047381Y-74400612D01*
X111037956Y-74478502D01*
X111037500Y-74486057D01*
X111037500Y-74731885D01*
X108025000Y-74731885D01*
X108025000Y-74681885D01*
X108525000Y-74681885D01*
X108529475Y-74697124D01*
X108530865Y-74698329D01*
X108538548Y-74700000D01*
X109336885Y-74700000D01*
X109352124Y-74695525D01*
X109353329Y-74694135D01*
X109355000Y-74686452D01*
X109355000Y-74584160D01*
X109354558Y-74576714D01*
X109353006Y-74563664D01*
X109348048Y-74545626D01*
X109311245Y-74462769D01*
X109298287Y-74443915D01*
X109235658Y-74381396D01*
X109216788Y-74368475D01*
X109133875Y-74331820D01*
X109115798Y-74326892D01*
X109103213Y-74325424D01*
X109095912Y-74325000D01*
X108543115Y-74325000D01*
X108527876Y-74329475D01*
X108526671Y-74330865D01*
X108525000Y-74338548D01*
X108525000Y-74681885D01*
X108025000Y-74681885D01*
X108025000Y-74343115D01*
X108020525Y-74327876D01*
X108019135Y-74326671D01*
X108011452Y-74325000D01*
X107454160Y-74325000D01*
X107446714Y-74325442D01*
X107433664Y-74326994D01*
X107415626Y-74331952D01*
X107332769Y-74368755D01*
X107313915Y-74381713D01*
X107251396Y-74444342D01*
X107231901Y-74472813D01*
X107229325Y-74471049D01*
X107195399Y-74511174D01*
X107127525Y-74531999D01*
X107059167Y-74512823D01*
X107012028Y-74459734D01*
X107000000Y-74406008D01*
X107000000Y-72376000D01*
X107020002Y-72307879D01*
X107073658Y-72261386D01*
X107126000Y-72250000D01*
X115374000Y-72250000D01*
X115442121Y-72270002D01*
G37*
%TD.AperFunction*%
%TD*%
%TA.AperFunction,Conductor*%
%TO.N,Net-(R5-Pad1)*%
G36*
X100589497Y-120000167D02*
G01*
X100591782Y-120000500D01*
X101683218Y-120000500D01*
X101685483Y-120000167D01*
X101690046Y-120000000D01*
X102674000Y-120000000D01*
X102742121Y-120020002D01*
X102788614Y-120073658D01*
X102800000Y-120126000D01*
X102800000Y-124274000D01*
X102779998Y-124342121D01*
X102726342Y-124388614D01*
X102674000Y-124400000D01*
X100426000Y-124400000D01*
X100357879Y-124379998D01*
X100311386Y-124326342D01*
X100300000Y-124274000D01*
X100300000Y-123514441D01*
X100300140Y-123508508D01*
X100300221Y-123506781D01*
X100300500Y-123503834D01*
X100300500Y-122496166D01*
X100300221Y-122493219D01*
X100300140Y-122491492D01*
X100300000Y-122485559D01*
X100300000Y-120126000D01*
X100320002Y-120057879D01*
X100373658Y-120011386D01*
X100426000Y-120000000D01*
X100584891Y-120000000D01*
X100589497Y-120000167D01*
G37*
%TD.AperFunction*%
%TD*%
%TA.AperFunction,Conductor*%
%TO.N,Net-(C14-Pad1)*%
G36*
X99542121Y-110320002D02*
G01*
X99588614Y-110373658D01*
X99600000Y-110426000D01*
X99600000Y-114993323D01*
X99579998Y-115061444D01*
X99526342Y-115107937D01*
X99515750Y-115112205D01*
X99486816Y-115122366D01*
X99479246Y-115127958D01*
X99479243Y-115127959D01*
X99394794Y-115190335D01*
X99377850Y-115202850D01*
X99372258Y-115210421D01*
X99302959Y-115304243D01*
X99302958Y-115304246D01*
X99297366Y-115311816D01*
X99252481Y-115439631D01*
X99249500Y-115471166D01*
X99249500Y-116528834D01*
X99252481Y-116560369D01*
X99297366Y-116688184D01*
X99302958Y-116695754D01*
X99302959Y-116695757D01*
X99365335Y-116780206D01*
X99377850Y-116797150D01*
X99385421Y-116802742D01*
X99385424Y-116802745D01*
X99473359Y-116867695D01*
X99516270Y-116924256D01*
X99524500Y-116969046D01*
X99524500Y-118674000D01*
X99504498Y-118742121D01*
X99450842Y-118788614D01*
X99398500Y-118800000D01*
X95926000Y-118800000D01*
X95857879Y-118779998D01*
X95811386Y-118726342D01*
X95800000Y-118674000D01*
X95800000Y-110426000D01*
X95820002Y-110357879D01*
X95873658Y-110311386D01*
X95926000Y-110300000D01*
X99474000Y-110300000D01*
X99542121Y-110320002D01*
G37*
%TD.AperFunction*%
%TD*%
%TA.AperFunction,Conductor*%
%TO.N,GND*%
G36*
X142692121Y-72270002D02*
G01*
X142738614Y-72323658D01*
X142750000Y-72376000D01*
X142750000Y-103774000D01*
X142729998Y-103842121D01*
X142676342Y-103888614D01*
X142624000Y-103900000D01*
X115826000Y-103900000D01*
X115757879Y-103879998D01*
X115711386Y-103826342D01*
X115700000Y-103774000D01*
X115700000Y-100865490D01*
X115720002Y-100797369D01*
X115773658Y-100750876D01*
X115843932Y-100740772D01*
X115867748Y-100746607D01*
X115879905Y-100750876D01*
X115977131Y-100785019D01*
X115984777Y-100785742D01*
X115984778Y-100785742D01*
X115990748Y-100786306D01*
X116008666Y-100788000D01*
X117066334Y-100788000D01*
X117084252Y-100786306D01*
X117090222Y-100785742D01*
X117090223Y-100785742D01*
X117097869Y-100785019D01*
X117118501Y-100777774D01*
X117216795Y-100743256D01*
X117216797Y-100743255D01*
X117225684Y-100740134D01*
X117245972Y-100725149D01*
X117312650Y-100700766D01*
X117320831Y-100700500D01*
X133271359Y-100700500D01*
X133279929Y-100700792D01*
X133329354Y-100704162D01*
X133329358Y-100704162D01*
X133336930Y-100704678D01*
X133344406Y-100703373D01*
X133344409Y-100703373D01*
X133399132Y-100693822D01*
X133405658Y-100692859D01*
X133446096Y-100687965D01*
X133468320Y-100685276D01*
X133475427Y-100682591D01*
X133478720Y-100681782D01*
X133493191Y-100677823D01*
X133496467Y-100676834D01*
X133503954Y-100675527D01*
X133510914Y-100672472D01*
X133561760Y-100650153D01*
X133567866Y-100647661D01*
X133619818Y-100628030D01*
X133619820Y-100628029D01*
X133626923Y-100625345D01*
X133633178Y-100621046D01*
X133636203Y-100619465D01*
X133649299Y-100612175D01*
X133652243Y-100610434D01*
X133659202Y-100607379D01*
X133709273Y-100568958D01*
X133714609Y-100565081D01*
X133760386Y-100533619D01*
X133760392Y-100533614D01*
X133766651Y-100529312D01*
X133807609Y-100483342D01*
X133812589Y-100478067D01*
X140159791Y-94130865D01*
X140166057Y-94125011D01*
X140203395Y-94092439D01*
X140209120Y-94087445D01*
X140213485Y-94081234D01*
X140213488Y-94081231D01*
X140245429Y-94035783D01*
X140249362Y-94030488D01*
X140283617Y-93986800D01*
X140288307Y-93980819D01*
X140291435Y-93973892D01*
X140293210Y-93970961D01*
X140300627Y-93957958D01*
X140302243Y-93954944D01*
X140306611Y-93948729D01*
X140309370Y-93941653D01*
X140309372Y-93941649D01*
X140329543Y-93889912D01*
X140332099Y-93883831D01*
X140354955Y-93833211D01*
X140354955Y-93833210D01*
X140358079Y-93826292D01*
X140359463Y-93818826D01*
X140360481Y-93815577D01*
X140364601Y-93801112D01*
X140365441Y-93797839D01*
X140368200Y-93790763D01*
X140376440Y-93728170D01*
X140377472Y-93721653D01*
X140387592Y-93667051D01*
X140388976Y-93659584D01*
X140385433Y-93598132D01*
X140385224Y-93590880D01*
X140385224Y-87537535D01*
X140398847Y-87481222D01*
X140401207Y-87477670D01*
X140403875Y-87470646D01*
X140462481Y-87316367D01*
X140462482Y-87316362D01*
X140464981Y-87309784D01*
X140479341Y-87207608D01*
X140489424Y-87135864D01*
X140489424Y-87135859D01*
X140489975Y-87131941D01*
X140490289Y-87109448D01*
X140470270Y-86930976D01*
X140464151Y-86913403D01*
X140413527Y-86768032D01*
X140411209Y-86761375D01*
X140400608Y-86744409D01*
X140375683Y-86704522D01*
X140356547Y-86636153D01*
X140377412Y-86568292D01*
X140431653Y-86522483D01*
X140502050Y-86513272D01*
X140551530Y-86532320D01*
X140591513Y-86558484D01*
X140759840Y-86621084D01*
X140766821Y-86622015D01*
X140766823Y-86622016D01*
X140930873Y-86643905D01*
X140930877Y-86643905D01*
X140937854Y-86644836D01*
X140944866Y-86644198D01*
X140944870Y-86644198D01*
X141109684Y-86629199D01*
X141109685Y-86629199D01*
X141116705Y-86628560D01*
X141287506Y-86573063D01*
X141293557Y-86569456D01*
X141435716Y-86484713D01*
X141435718Y-86484712D01*
X141441768Y-86481105D01*
X141571823Y-86357255D01*
X141589294Y-86330960D01*
X141667306Y-86213541D01*
X141671207Y-86207670D01*
X141685892Y-86169012D01*
X141732481Y-86046367D01*
X141732482Y-86046362D01*
X141734981Y-86039784D01*
X141759975Y-85861941D01*
X141760289Y-85839448D01*
X141740270Y-85660976D01*
X141681209Y-85491375D01*
X141586040Y-85339073D01*
X141522235Y-85274821D01*
X141464457Y-85216638D01*
X141464453Y-85216635D01*
X141459494Y-85211641D01*
X141448485Y-85204654D01*
X141401584Y-85174890D01*
X141307860Y-85115411D01*
X141275912Y-85104035D01*
X141145310Y-85057529D01*
X141145305Y-85057528D01*
X141138675Y-85055167D01*
X141131689Y-85054334D01*
X141131685Y-85054333D01*
X141003901Y-85039096D01*
X140960348Y-85033903D01*
X140953345Y-85034639D01*
X140953344Y-85034639D01*
X140788749Y-85051938D01*
X140788745Y-85051939D01*
X140781741Y-85052675D01*
X140775070Y-85054946D01*
X140630871Y-85104035D01*
X140559939Y-85107053D01*
X140498635Y-85071243D01*
X140466423Y-85007974D01*
X140467703Y-84958870D01*
X140467702Y-84958870D01*
X140467704Y-84958858D01*
X140467704Y-84958853D01*
X140469085Y-84947920D01*
X140484728Y-84824093D01*
X140484728Y-84824090D01*
X140485224Y-84820165D01*
X140485224Y-84324293D01*
X140470270Y-84190976D01*
X140411209Y-84021375D01*
X140316040Y-83869073D01*
X140252495Y-83805083D01*
X140194457Y-83746638D01*
X140194453Y-83746635D01*
X140189494Y-83741641D01*
X140178485Y-83734654D01*
X140131584Y-83704890D01*
X140037860Y-83645411D01*
X140008076Y-83634805D01*
X139875310Y-83587529D01*
X139875305Y-83587528D01*
X139868675Y-83585167D01*
X139861689Y-83584334D01*
X139861685Y-83584333D01*
X139733901Y-83569096D01*
X139690348Y-83563903D01*
X139683345Y-83564639D01*
X139683344Y-83564639D01*
X139518749Y-83581938D01*
X139518745Y-83581939D01*
X139511741Y-83582675D01*
X139505070Y-83584946D01*
X139348401Y-83638280D01*
X139348398Y-83638281D01*
X139341731Y-83640551D01*
X139335733Y-83644241D01*
X139335731Y-83644242D01*
X139265250Y-83687603D01*
X139188769Y-83734654D01*
X139183738Y-83739580D01*
X139183735Y-83739583D01*
X139176531Y-83746638D01*
X139060456Y-83860307D01*
X139056637Y-83866232D01*
X139056636Y-83866234D01*
X138966989Y-84005339D01*
X138963170Y-84011265D01*
X138901746Y-84180026D01*
X138884224Y-84318731D01*
X138884224Y-84814603D01*
X138899178Y-84947920D01*
X138958239Y-85117521D01*
X139053408Y-85269823D01*
X139116953Y-85333813D01*
X139174991Y-85392258D01*
X139174995Y-85392261D01*
X139179954Y-85397255D01*
X139185900Y-85401029D01*
X139185902Y-85401030D01*
X139237864Y-85434006D01*
X139331588Y-85493485D01*
X139355060Y-85501843D01*
X139494138Y-85551367D01*
X139494143Y-85551368D01*
X139500773Y-85553729D01*
X139507759Y-85554562D01*
X139507763Y-85554563D01*
X139635547Y-85569800D01*
X139679100Y-85574993D01*
X139686103Y-85574257D01*
X139686104Y-85574257D01*
X139850699Y-85556958D01*
X139850703Y-85556957D01*
X139857707Y-85556221D01*
X139912250Y-85537653D01*
X140008577Y-85504861D01*
X140079509Y-85501843D01*
X140140813Y-85537653D01*
X140173025Y-85600922D01*
X140171746Y-85650026D01*
X140149238Y-85828201D01*
X140149925Y-85835208D01*
X140149925Y-85835211D01*
X140150729Y-85843411D01*
X140166763Y-86006934D01*
X140168986Y-86013616D01*
X140168986Y-86013617D01*
X140177691Y-86039784D01*
X140223450Y-86177344D01*
X140227095Y-86183362D01*
X140227097Y-86183367D01*
X140265697Y-86247103D01*
X140283876Y-86315733D01*
X140262065Y-86383296D01*
X140207189Y-86428342D01*
X140136671Y-86436569D01*
X140090411Y-86418761D01*
X140037860Y-86385411D01*
X140008076Y-86374805D01*
X139875310Y-86327529D01*
X139875305Y-86327528D01*
X139868675Y-86325167D01*
X139861689Y-86324334D01*
X139861685Y-86324333D01*
X139733901Y-86309096D01*
X139690348Y-86303903D01*
X139683345Y-86304639D01*
X139683344Y-86304639D01*
X139518749Y-86321938D01*
X139518745Y-86321939D01*
X139511741Y-86322675D01*
X139505070Y-86324946D01*
X139348401Y-86378280D01*
X139348398Y-86378281D01*
X139341731Y-86380551D01*
X139335733Y-86384241D01*
X139335731Y-86384242D01*
X139279625Y-86418759D01*
X139188769Y-86474654D01*
X139183738Y-86479580D01*
X139183735Y-86479583D01*
X139149333Y-86513272D01*
X139060456Y-86600307D01*
X139056637Y-86606232D01*
X139056636Y-86606234D01*
X139048648Y-86618629D01*
X138963170Y-86751265D01*
X138960761Y-86757885D01*
X138960759Y-86757888D01*
X138932458Y-86835645D01*
X138901746Y-86920026D01*
X138879238Y-87098201D01*
X138879925Y-87105208D01*
X138879925Y-87105211D01*
X138884096Y-87147751D01*
X138896763Y-87276934D01*
X138898986Y-87283616D01*
X138898986Y-87283617D01*
X138907691Y-87309784D01*
X138953450Y-87447344D01*
X138959298Y-87457000D01*
X138966001Y-87468068D01*
X138984224Y-87533338D01*
X138984224Y-93272929D01*
X138964222Y-93341050D01*
X138947319Y-93362024D01*
X133046748Y-99262595D01*
X132984436Y-99296621D01*
X132957653Y-99299500D01*
X117320831Y-99299500D01*
X117252710Y-99279498D01*
X117245972Y-99274851D01*
X117233264Y-99265465D01*
X117225684Y-99259866D01*
X117216797Y-99256745D01*
X117216795Y-99256744D01*
X117105116Y-99217526D01*
X117097869Y-99214981D01*
X117090223Y-99214258D01*
X117090222Y-99214258D01*
X117084252Y-99213694D01*
X117066334Y-99212000D01*
X116008666Y-99212000D01*
X115990748Y-99213694D01*
X115984778Y-99214258D01*
X115984777Y-99214258D01*
X115977131Y-99214981D01*
X115969884Y-99217526D01*
X115867748Y-99253393D01*
X115796848Y-99257091D01*
X115735203Y-99221871D01*
X115702386Y-99158914D01*
X115700000Y-99134510D01*
X115700000Y-98790490D01*
X115720002Y-98722369D01*
X115773658Y-98675876D01*
X115843932Y-98665772D01*
X115867748Y-98671607D01*
X115879905Y-98675876D01*
X115977131Y-98710019D01*
X115984777Y-98710742D01*
X115984778Y-98710742D01*
X115990748Y-98711306D01*
X116008666Y-98713000D01*
X117066334Y-98713000D01*
X117084252Y-98711306D01*
X117090222Y-98710742D01*
X117090223Y-98710742D01*
X117097869Y-98710019D01*
X117225684Y-98665134D01*
X117233254Y-98659542D01*
X117233257Y-98659541D01*
X117327079Y-98590242D01*
X117334650Y-98584650D01*
X117347165Y-98567706D01*
X117409541Y-98483257D01*
X117409542Y-98483254D01*
X117415134Y-98475684D01*
X117460019Y-98347869D01*
X117463000Y-98316334D01*
X117463000Y-97533666D01*
X117460019Y-97502131D01*
X117415134Y-97374316D01*
X117409542Y-97366746D01*
X117409541Y-97366743D01*
X117340242Y-97272921D01*
X117334650Y-97265350D01*
X117317706Y-97252835D01*
X117233257Y-97190459D01*
X117233254Y-97190458D01*
X117225684Y-97184866D01*
X117097869Y-97139981D01*
X117090223Y-97139258D01*
X117090222Y-97139258D01*
X117084252Y-97138694D01*
X117066334Y-97137000D01*
X116008666Y-97137000D01*
X115990748Y-97138694D01*
X115984778Y-97139258D01*
X115984777Y-97139258D01*
X115977131Y-97139981D01*
X115969884Y-97142526D01*
X115867748Y-97178393D01*
X115796848Y-97182091D01*
X115735203Y-97146871D01*
X115702386Y-97083914D01*
X115700000Y-97059510D01*
X115700000Y-88484000D01*
X115720002Y-88415879D01*
X115773658Y-88369386D01*
X115826000Y-88358000D01*
X118758280Y-88358000D01*
X118773089Y-88358873D01*
X118806810Y-88362864D01*
X118816074Y-88361172D01*
X118816075Y-88361172D01*
X118864501Y-88352328D01*
X118868404Y-88351678D01*
X118917145Y-88344350D01*
X118917146Y-88344350D01*
X118926462Y-88342949D01*
X118932975Y-88339821D01*
X118940073Y-88338525D01*
X118992147Y-88311475D01*
X118995637Y-88309732D01*
X119048579Y-88284309D01*
X119053865Y-88279423D01*
X119053913Y-88279390D01*
X119060288Y-88276079D01*
X119065328Y-88271775D01*
X119097520Y-88239583D01*
X119159832Y-88205557D01*
X119179360Y-88202887D01*
X119324959Y-88194493D01*
X119487011Y-88144639D01*
X119632495Y-88057569D01*
X119637888Y-88052232D01*
X119637892Y-88052229D01*
X119693914Y-87996790D01*
X119753010Y-87938310D01*
X119841598Y-87793746D01*
X119893146Y-87632225D01*
X119893799Y-87622646D01*
X119904162Y-87470646D01*
X119904162Y-87470642D01*
X119904678Y-87463070D01*
X119875527Y-87296046D01*
X119864061Y-87269924D01*
X119810431Y-87147751D01*
X119807379Y-87140798D01*
X119727978Y-87037322D01*
X119435065Y-86744409D01*
X119137404Y-86446747D01*
X119103379Y-86384435D01*
X119100500Y-86357652D01*
X119100500Y-84788650D01*
X119120502Y-84720529D01*
X119151640Y-84687299D01*
X119164579Y-84677742D01*
X119172150Y-84672150D01*
X119184665Y-84655206D01*
X119247041Y-84570757D01*
X119247042Y-84570754D01*
X119252634Y-84563184D01*
X119297519Y-84435369D01*
X119300500Y-84403834D01*
X119300500Y-83596166D01*
X119297519Y-83564631D01*
X119252634Y-83436816D01*
X119247042Y-83429246D01*
X119247041Y-83429243D01*
X119177742Y-83335421D01*
X119172150Y-83327850D01*
X119155206Y-83315335D01*
X119070757Y-83252959D01*
X119070754Y-83252958D01*
X119063184Y-83247366D01*
X118935369Y-83202481D01*
X118927723Y-83201758D01*
X118927722Y-83201758D01*
X118921752Y-83201194D01*
X118903834Y-83199500D01*
X117896166Y-83199500D01*
X117878248Y-83201194D01*
X117872278Y-83201758D01*
X117872277Y-83201758D01*
X117864631Y-83202481D01*
X117736816Y-83247366D01*
X117729246Y-83252958D01*
X117729243Y-83252959D01*
X117644794Y-83315335D01*
X117627850Y-83327850D01*
X117622258Y-83335421D01*
X117552959Y-83429243D01*
X117552958Y-83429246D01*
X117547366Y-83436816D01*
X117502481Y-83564631D01*
X117499500Y-83596166D01*
X117499500Y-84403834D01*
X117502481Y-84435369D01*
X117547366Y-84563184D01*
X117552958Y-84570754D01*
X117552959Y-84570757D01*
X117615335Y-84655206D01*
X117627850Y-84672150D01*
X117635421Y-84677742D01*
X117648360Y-84687299D01*
X117691270Y-84743860D01*
X117699500Y-84788650D01*
X117699500Y-86671359D01*
X117699208Y-86679929D01*
X117695322Y-86736930D01*
X117696627Y-86744406D01*
X117696627Y-86744409D01*
X117706178Y-86799132D01*
X117707141Y-86805658D01*
X117714724Y-86868320D01*
X117717409Y-86875427D01*
X117718218Y-86878720D01*
X117722177Y-86893191D01*
X117723166Y-86896467D01*
X117724473Y-86903954D01*
X117727528Y-86910913D01*
X117727528Y-86910914D01*
X117749847Y-86961760D01*
X117752339Y-86967866D01*
X117774655Y-87026923D01*
X117778954Y-87033178D01*
X117780535Y-87036203D01*
X117787825Y-87049299D01*
X117789566Y-87052243D01*
X117792621Y-87059202D01*
X117797246Y-87065230D01*
X117797247Y-87065231D01*
X117831042Y-87109273D01*
X117834919Y-87114609D01*
X117866381Y-87160386D01*
X117866386Y-87160392D01*
X117870688Y-87166651D01*
X117876362Y-87171706D01*
X117916657Y-87207608D01*
X117921933Y-87212589D01*
X117951249Y-87241905D01*
X117985275Y-87304217D01*
X117980210Y-87375032D01*
X117937663Y-87431868D01*
X117871143Y-87456679D01*
X117862154Y-87457000D01*
X115826000Y-87457000D01*
X115757879Y-87436998D01*
X115711386Y-87383342D01*
X115700000Y-87331000D01*
X115700000Y-82000000D01*
X115994318Y-82000000D01*
X116014956Y-82156762D01*
X116075464Y-82302841D01*
X116080491Y-82309392D01*
X116155221Y-82406782D01*
X116171718Y-82428282D01*
X116297159Y-82524536D01*
X116443238Y-82585044D01*
X116600000Y-82605682D01*
X116608188Y-82604604D01*
X116748574Y-82586122D01*
X116756762Y-82585044D01*
X116902841Y-82524536D01*
X116965395Y-82476537D01*
X117031616Y-82450937D01*
X117042099Y-82450500D01*
X117418499Y-82450500D01*
X117486620Y-82470502D01*
X117533113Y-82524158D01*
X117537382Y-82534754D01*
X117544245Y-82554298D01*
X117544247Y-82554301D01*
X117547366Y-82563184D01*
X117552958Y-82570754D01*
X117552959Y-82570757D01*
X117615335Y-82655206D01*
X117627850Y-82672150D01*
X117635421Y-82677742D01*
X117729243Y-82747041D01*
X117729246Y-82747042D01*
X117736816Y-82752634D01*
X117864631Y-82797519D01*
X117872277Y-82798242D01*
X117872278Y-82798242D01*
X117878248Y-82798806D01*
X117896166Y-82800500D01*
X118903834Y-82800500D01*
X118921752Y-82798806D01*
X118927722Y-82798242D01*
X118927723Y-82798242D01*
X118935369Y-82797519D01*
X119063184Y-82752634D01*
X119070754Y-82747042D01*
X119070757Y-82747041D01*
X119164579Y-82677742D01*
X119172150Y-82672150D01*
X119184665Y-82655206D01*
X119247041Y-82570757D01*
X119247042Y-82570754D01*
X119252634Y-82563184D01*
X119297519Y-82435369D01*
X119300500Y-82403834D01*
X119300500Y-81596166D01*
X119297519Y-81564631D01*
X119252634Y-81436816D01*
X119247042Y-81429246D01*
X119247041Y-81429243D01*
X119177742Y-81335421D01*
X119172150Y-81327850D01*
X119155206Y-81315335D01*
X119070757Y-81252959D01*
X119070754Y-81252958D01*
X119063184Y-81247366D01*
X118935369Y-81202481D01*
X118927723Y-81201758D01*
X118927722Y-81201758D01*
X118921752Y-81201194D01*
X118903834Y-81199500D01*
X117896166Y-81199500D01*
X117878248Y-81201194D01*
X117872278Y-81201758D01*
X117872277Y-81201758D01*
X117864631Y-81202481D01*
X117736816Y-81247366D01*
X117729246Y-81252958D01*
X117729243Y-81252959D01*
X117644794Y-81315335D01*
X117627850Y-81327850D01*
X117622258Y-81335421D01*
X117552959Y-81429243D01*
X117552958Y-81429246D01*
X117547366Y-81436816D01*
X117544247Y-81445699D01*
X117544245Y-81445702D01*
X117537382Y-81465246D01*
X117495940Y-81522892D01*
X117429911Y-81548982D01*
X117418499Y-81549500D01*
X117042099Y-81549500D01*
X116973978Y-81529498D01*
X116965395Y-81523463D01*
X116909392Y-81480491D01*
X116902841Y-81475464D01*
X116756762Y-81414956D01*
X116600000Y-81394318D01*
X116443238Y-81414956D01*
X116297159Y-81475464D01*
X116171718Y-81571718D01*
X116166695Y-81578264D01*
X116152958Y-81596166D01*
X116075464Y-81697159D01*
X116014956Y-81843238D01*
X115994318Y-82000000D01*
X115700000Y-82000000D01*
X115700000Y-72376000D01*
X115720002Y-72307879D01*
X115773658Y-72261386D01*
X115826000Y-72250000D01*
X142624000Y-72250000D01*
X142692121Y-72270002D01*
G37*
%TD.AperFunction*%
%TD*%
%TA.AperFunction,Conductor*%
%TO.N,-33V*%
G36*
X119842150Y-105220002D02*
G01*
X119888643Y-105273658D01*
X119900029Y-105325971D01*
X119900212Y-106118116D01*
X119900241Y-106246045D01*
X119880255Y-106314170D01*
X119826610Y-106360676D01*
X119756338Y-106370796D01*
X119691750Y-106341317D01*
X119685224Y-106335248D01*
X119680946Y-106330977D01*
X119680944Y-106330976D01*
X119672713Y-106322759D01*
X119662076Y-106318056D01*
X119662074Y-106318055D01*
X119578992Y-106281325D01*
X119578993Y-106281325D01*
X119570327Y-106277494D01*
X119544646Y-106274500D01*
X117474679Y-106274500D01*
X117406558Y-106254498D01*
X117397975Y-106248462D01*
X117309397Y-106180494D01*
X117309392Y-106180491D01*
X117302841Y-106175464D01*
X117156762Y-106114956D01*
X117000000Y-106094318D01*
X116843238Y-106114956D01*
X116697159Y-106175464D01*
X116571718Y-106271718D01*
X116475464Y-106397159D01*
X116414956Y-106543238D01*
X116413878Y-106551426D01*
X116411057Y-106572851D01*
X116394318Y-106700000D01*
X116414956Y-106856762D01*
X116418116Y-106864391D01*
X116420753Y-106870757D01*
X116475464Y-107002841D01*
X116571718Y-107128282D01*
X116697159Y-107224536D01*
X116843238Y-107285044D01*
X117000000Y-107305682D01*
X117008188Y-107304604D01*
X117148574Y-107286122D01*
X117156762Y-107285044D01*
X117302841Y-107224536D01*
X117428282Y-107128282D01*
X117433305Y-107121736D01*
X117439150Y-107115891D01*
X117440839Y-107117580D01*
X117488298Y-107082928D01*
X117530920Y-107075500D01*
X117798500Y-107075500D01*
X117866621Y-107095502D01*
X117913114Y-107149158D01*
X117924500Y-107201500D01*
X117924500Y-107469646D01*
X117927618Y-107495846D01*
X117931456Y-107504486D01*
X117931456Y-107504487D01*
X117973061Y-107598153D01*
X117969199Y-107599868D01*
X117984353Y-107646146D01*
X117970046Y-107701088D01*
X117972759Y-107702287D01*
X117927494Y-107804673D01*
X117924500Y-107830354D01*
X117924500Y-108119646D01*
X117927618Y-108145846D01*
X117931456Y-108154486D01*
X117931456Y-108154487D01*
X117967199Y-108234955D01*
X117973061Y-108248153D01*
X118052287Y-108327241D01*
X118062924Y-108331944D01*
X118062926Y-108331945D01*
X118122462Y-108358265D01*
X118154673Y-108372506D01*
X118180354Y-108375500D01*
X118224961Y-108375500D01*
X118293082Y-108395502D01*
X118319910Y-108418671D01*
X118332676Y-108433305D01*
X118365705Y-108471166D01*
X118380949Y-108488641D01*
X118410657Y-108553123D01*
X118412000Y-108571470D01*
X118412000Y-109028280D01*
X118411127Y-109043089D01*
X118407136Y-109076810D01*
X118408828Y-109086074D01*
X118408828Y-109086075D01*
X118417672Y-109134501D01*
X118418322Y-109138404D01*
X118419670Y-109147366D01*
X118427051Y-109196462D01*
X118430179Y-109202975D01*
X118431475Y-109210073D01*
X118458525Y-109262147D01*
X118460268Y-109265637D01*
X118485691Y-109318579D01*
X118490577Y-109323865D01*
X118490610Y-109323913D01*
X118493921Y-109330288D01*
X118498225Y-109335328D01*
X118535452Y-109372555D01*
X118538881Y-109376120D01*
X118577646Y-109418056D01*
X118584005Y-109421749D01*
X118590163Y-109427266D01*
X119864383Y-110701486D01*
X119898409Y-110763798D01*
X119901288Y-110790550D01*
X119901756Y-112823145D01*
X119905625Y-129623971D01*
X119885639Y-129692096D01*
X119831994Y-129738602D01*
X119779625Y-129750000D01*
X92526000Y-129750000D01*
X92457879Y-129729998D01*
X92411386Y-129676342D01*
X92400000Y-129624000D01*
X92400000Y-119126000D01*
X92420002Y-119057879D01*
X92473658Y-119011386D01*
X92526000Y-119000000D01*
X95474000Y-119000000D01*
X95542121Y-119020002D01*
X95588614Y-119073658D01*
X95600000Y-119126000D01*
X95600000Y-122174000D01*
X95579998Y-122242121D01*
X95526342Y-122288614D01*
X95474000Y-122300000D01*
X93400000Y-122300000D01*
X93400000Y-124600000D01*
X103000000Y-124600000D01*
X103000000Y-120101500D01*
X103020002Y-120033379D01*
X103073658Y-119986886D01*
X103126000Y-119975500D01*
X103358463Y-119975500D01*
X103426584Y-119995502D01*
X103473077Y-120049158D01*
X103476887Y-120060577D01*
X103477481Y-120060368D01*
X103522366Y-120188183D01*
X103602850Y-120297150D01*
X103711817Y-120377634D01*
X103720704Y-120380755D01*
X103720706Y-120380756D01*
X103819000Y-120415274D01*
X103839632Y-120422519D01*
X103847278Y-120423242D01*
X103847279Y-120423242D01*
X103853249Y-120423806D01*
X103871167Y-120425500D01*
X104999428Y-120425500D01*
X106128832Y-120425499D01*
X106131782Y-120425220D01*
X106131787Y-120425220D01*
X106142406Y-120424216D01*
X106160368Y-120422519D01*
X106167609Y-120419976D01*
X106167610Y-120419976D01*
X106279294Y-120380756D01*
X106279296Y-120380755D01*
X106288183Y-120377634D01*
X106397150Y-120297150D01*
X106477634Y-120188183D01*
X106522519Y-120060368D01*
X106525500Y-120028833D01*
X106525499Y-118996168D01*
X106522519Y-118964632D01*
X106519976Y-118957390D01*
X106480756Y-118845706D01*
X106480755Y-118845704D01*
X106477634Y-118836817D01*
X106397150Y-118727850D01*
X106288183Y-118647366D01*
X106279296Y-118644245D01*
X106279294Y-118644244D01*
X106167615Y-118605026D01*
X106160368Y-118602481D01*
X106152722Y-118601758D01*
X106152721Y-118601758D01*
X106146751Y-118601194D01*
X106128833Y-118599500D01*
X105403365Y-118599500D01*
X105335244Y-118579498D01*
X105288751Y-118525842D01*
X105278647Y-118455568D01*
X105308141Y-118390988D01*
X105347250Y-118363871D01*
X105345968Y-118361388D01*
X105489883Y-118287108D01*
X105489884Y-118287108D01*
X105496631Y-118283625D01*
X105624396Y-118172169D01*
X105721887Y-118033453D01*
X105783476Y-117875487D01*
X105800500Y-117746174D01*
X105800500Y-117026500D01*
X105820502Y-116958379D01*
X105874158Y-116911886D01*
X105926500Y-116900500D01*
X107219748Y-116900500D01*
X107225816Y-116899293D01*
X107266061Y-116891288D01*
X107266062Y-116891288D01*
X107278231Y-116888867D01*
X107344552Y-116844552D01*
X107388867Y-116778231D01*
X107400500Y-116719748D01*
X107400500Y-115280252D01*
X107388867Y-115221769D01*
X107344552Y-115155448D01*
X107278231Y-115111133D01*
X107266062Y-115108712D01*
X107266061Y-115108712D01*
X107225816Y-115100707D01*
X107219748Y-115099500D01*
X103126000Y-115099500D01*
X103057879Y-115079498D01*
X103011386Y-115025842D01*
X103000000Y-114973500D01*
X103000000Y-110697861D01*
X103020002Y-110629740D01*
X103073658Y-110583247D01*
X103143932Y-110573143D01*
X103208512Y-110602637D01*
X103238476Y-110646694D01*
X103239837Y-110645973D01*
X103244247Y-110654302D01*
X103247366Y-110663184D01*
X103252958Y-110670754D01*
X103252959Y-110670757D01*
X103254200Y-110672437D01*
X103327850Y-110772150D01*
X103344794Y-110784665D01*
X103429243Y-110847041D01*
X103429246Y-110847042D01*
X103436816Y-110852634D01*
X103564631Y-110897519D01*
X103572277Y-110898242D01*
X103572278Y-110898242D01*
X103578248Y-110898806D01*
X103596166Y-110900500D01*
X104211207Y-110900500D01*
X104279328Y-110920502D01*
X104300302Y-110937405D01*
X104412595Y-111049698D01*
X104446621Y-111112010D01*
X104449500Y-111138793D01*
X104449500Y-111886608D01*
X104429498Y-111954729D01*
X104386995Y-111993592D01*
X104387640Y-111994578D01*
X104382483Y-111997953D01*
X104377023Y-112000807D01*
X104231752Y-112117608D01*
X104111935Y-112260401D01*
X104108971Y-112265793D01*
X104108968Y-112265797D01*
X104044362Y-112383315D01*
X104022135Y-112423746D01*
X104020274Y-112429613D01*
X104020273Y-112429615D01*
X104016364Y-112441939D01*
X103965772Y-112601424D01*
X103944994Y-112786665D01*
X103945510Y-112792809D01*
X103953220Y-112884619D01*
X103960592Y-112972414D01*
X104011971Y-113151595D01*
X104097176Y-113317385D01*
X104212959Y-113463468D01*
X104354912Y-113584279D01*
X104360290Y-113587285D01*
X104360292Y-113587286D01*
X104434632Y-113628833D01*
X104517627Y-113675217D01*
X104694907Y-113732819D01*
X104879998Y-113754890D01*
X104886133Y-113754418D01*
X104886135Y-113754418D01*
X105059710Y-113741062D01*
X105059715Y-113741061D01*
X105065851Y-113740589D01*
X105071781Y-113738933D01*
X105071783Y-113738933D01*
X105239459Y-113692117D01*
X105239458Y-113692117D01*
X105245387Y-113690462D01*
X105411768Y-113606417D01*
X105436255Y-113587286D01*
X105553794Y-113495454D01*
X105553795Y-113495453D01*
X105558655Y-113491656D01*
X105680454Y-113350550D01*
X105772526Y-113188474D01*
X105831364Y-113011601D01*
X105854727Y-112826668D01*
X105855099Y-112800000D01*
X105836909Y-112614487D01*
X105835128Y-112608588D01*
X105835127Y-112608583D01*
X105784814Y-112441939D01*
X105783033Y-112436040D01*
X105695522Y-112271456D01*
X105691632Y-112266686D01*
X105691629Y-112266682D01*
X105581605Y-112131780D01*
X105581602Y-112131777D01*
X105577710Y-112127005D01*
X105572056Y-112122327D01*
X105438833Y-112012115D01*
X105438834Y-112012115D01*
X105434085Y-112008187D01*
X105420436Y-112000807D01*
X105416573Y-111998718D01*
X105366163Y-111948724D01*
X105350500Y-111887882D01*
X105350500Y-111000114D01*
X105370502Y-110931993D01*
X105424158Y-110885500D01*
X105494432Y-110875396D01*
X105518247Y-110881231D01*
X105557079Y-110894867D01*
X105564631Y-110897519D01*
X105572277Y-110898242D01*
X105572278Y-110898242D01*
X105578248Y-110898806D01*
X105596166Y-110900500D01*
X106403834Y-110900500D01*
X106421752Y-110898806D01*
X106427722Y-110898242D01*
X106427723Y-110898242D01*
X106435369Y-110897519D01*
X106563184Y-110852634D01*
X106570754Y-110847042D01*
X106570757Y-110847041D01*
X106655206Y-110784665D01*
X106672150Y-110772150D01*
X106745800Y-110672437D01*
X106747041Y-110670757D01*
X106747042Y-110670754D01*
X106752634Y-110663184D01*
X106797519Y-110535369D01*
X106800627Y-110536460D01*
X106827549Y-110487297D01*
X106889902Y-110453347D01*
X106916537Y-110450500D01*
X108083463Y-110450500D01*
X108151584Y-110470502D01*
X108198077Y-110524158D01*
X108201886Y-110535578D01*
X108202481Y-110535369D01*
X108247366Y-110663184D01*
X108252958Y-110670754D01*
X108252959Y-110670757D01*
X108254200Y-110672437D01*
X108327850Y-110772150D01*
X108344794Y-110784665D01*
X108429243Y-110847041D01*
X108429246Y-110847042D01*
X108436816Y-110852634D01*
X108564631Y-110897519D01*
X108572277Y-110898242D01*
X108572278Y-110898242D01*
X108578248Y-110898806D01*
X108596166Y-110900500D01*
X109403834Y-110900500D01*
X109421752Y-110898806D01*
X109427722Y-110898242D01*
X109427723Y-110898242D01*
X109435369Y-110897519D01*
X109563184Y-110852634D01*
X109570754Y-110847042D01*
X109570757Y-110847041D01*
X109655206Y-110784665D01*
X109672150Y-110772150D01*
X109745800Y-110672437D01*
X109747041Y-110670757D01*
X109747042Y-110670754D01*
X109752634Y-110663184D01*
X109797519Y-110535369D01*
X109800500Y-110503834D01*
X109800500Y-109496166D01*
X109798579Y-109475842D01*
X109798242Y-109472278D01*
X109798242Y-109472277D01*
X109797519Y-109464631D01*
X109752634Y-109336816D01*
X109747042Y-109329246D01*
X109747041Y-109329243D01*
X109677742Y-109235421D01*
X109672150Y-109227850D01*
X109629802Y-109196571D01*
X109597996Y-109173078D01*
X109555085Y-109116516D01*
X109549566Y-109045734D01*
X109583761Y-108982632D01*
X111453988Y-107112405D01*
X111516300Y-107078379D01*
X111543083Y-107075500D01*
X111722491Y-107075500D01*
X111790612Y-107095502D01*
X111837105Y-107149158D01*
X111847209Y-107219432D01*
X111817715Y-107284012D01*
X111811588Y-107290593D01*
X110694516Y-108407664D01*
X110694513Y-108407668D01*
X110671950Y-108430231D01*
X110667446Y-108439071D01*
X110661965Y-108449828D01*
X110651639Y-108466680D01*
X110638704Y-108484483D01*
X110631907Y-108505403D01*
X110624341Y-108523667D01*
X110618856Y-108534432D01*
X110618855Y-108534436D01*
X110614354Y-108543269D01*
X110612803Y-108553060D01*
X110612803Y-108553061D01*
X110610913Y-108564995D01*
X110606297Y-108584220D01*
X110602565Y-108595705D01*
X110602564Y-108595709D01*
X110599500Y-108605140D01*
X110599500Y-109000940D01*
X110579498Y-109069061D01*
X110525842Y-109115554D01*
X110515250Y-109119822D01*
X110436816Y-109147366D01*
X110429246Y-109152958D01*
X110429243Y-109152959D01*
X110370198Y-109196571D01*
X110327850Y-109227850D01*
X110322258Y-109235421D01*
X110252959Y-109329243D01*
X110252958Y-109329246D01*
X110247366Y-109336816D01*
X110202481Y-109464631D01*
X110201758Y-109472277D01*
X110201758Y-109472278D01*
X110201421Y-109475842D01*
X110199500Y-109496166D01*
X110199500Y-110503834D01*
X110202481Y-110535369D01*
X110247366Y-110663184D01*
X110252958Y-110670754D01*
X110252959Y-110670757D01*
X110254200Y-110672437D01*
X110327850Y-110772150D01*
X110344794Y-110784665D01*
X110429243Y-110847041D01*
X110429246Y-110847042D01*
X110436816Y-110852634D01*
X110564631Y-110897519D01*
X110572277Y-110898242D01*
X110572278Y-110898242D01*
X110578248Y-110898806D01*
X110596166Y-110900500D01*
X111403834Y-110900500D01*
X111421752Y-110898806D01*
X111427722Y-110898242D01*
X111427723Y-110898242D01*
X111435369Y-110897519D01*
X111563184Y-110852634D01*
X111570754Y-110847042D01*
X111570757Y-110847041D01*
X111655206Y-110784665D01*
X111672150Y-110772150D01*
X111745800Y-110672437D01*
X111747041Y-110670757D01*
X111747042Y-110670754D01*
X111752634Y-110663184D01*
X111797519Y-110535369D01*
X111800627Y-110536460D01*
X111827549Y-110487297D01*
X111889902Y-110453347D01*
X111916537Y-110450500D01*
X112761207Y-110450500D01*
X112829328Y-110470502D01*
X112850302Y-110487405D01*
X113035334Y-110672437D01*
X113069360Y-110734749D01*
X113066829Y-110789079D01*
X113068916Y-110789523D01*
X113067634Y-110795553D01*
X113065772Y-110801424D01*
X113044994Y-110986665D01*
X113060592Y-111172414D01*
X113062291Y-111178339D01*
X113108541Y-111339632D01*
X113111971Y-111351595D01*
X113197176Y-111517385D01*
X113312959Y-111663468D01*
X113454912Y-111784279D01*
X113617627Y-111875217D01*
X113794907Y-111932819D01*
X113979998Y-111954890D01*
X113986133Y-111954418D01*
X113986135Y-111954418D01*
X114159710Y-111941062D01*
X114159715Y-111941061D01*
X114165851Y-111940589D01*
X114171781Y-111938933D01*
X114171783Y-111938933D01*
X114339459Y-111892117D01*
X114339458Y-111892117D01*
X114345387Y-111890462D01*
X114511768Y-111806417D01*
X114536255Y-111787286D01*
X114653794Y-111695454D01*
X114653795Y-111695453D01*
X114658655Y-111691656D01*
X114780454Y-111550550D01*
X114872526Y-111388474D01*
X114931364Y-111211601D01*
X114945103Y-111102850D01*
X114954285Y-111030170D01*
X114954286Y-111030163D01*
X114954727Y-111026668D01*
X114955099Y-111000000D01*
X114936909Y-110814487D01*
X114935128Y-110808588D01*
X114935127Y-110808583D01*
X114884814Y-110641939D01*
X114883033Y-110636040D01*
X114839277Y-110553748D01*
X114798416Y-110476898D01*
X114798414Y-110476895D01*
X114795522Y-110471456D01*
X114791632Y-110466686D01*
X114791629Y-110466682D01*
X114681605Y-110331780D01*
X114681602Y-110331777D01*
X114677710Y-110327005D01*
X114534085Y-110208187D01*
X114370116Y-110119529D01*
X114273381Y-110089585D01*
X114197936Y-110066231D01*
X114197933Y-110066230D01*
X114192049Y-110064409D01*
X114185924Y-110063765D01*
X114185923Y-110063765D01*
X114012796Y-110045568D01*
X114012795Y-110045568D01*
X114006668Y-110044924D01*
X113891608Y-110055395D01*
X113827173Y-110061259D01*
X113827172Y-110061259D01*
X113821032Y-110061818D01*
X113798458Y-110068462D01*
X113727464Y-110068508D01*
X113673789Y-110036685D01*
X113342748Y-109705645D01*
X113332893Y-109694555D01*
X113311872Y-109667890D01*
X113304125Y-109662535D01*
X113304123Y-109662534D01*
X113263625Y-109634545D01*
X113260403Y-109632243D01*
X113220758Y-109602960D01*
X113220757Y-109602959D01*
X113213184Y-109597366D01*
X113206368Y-109594973D01*
X113200431Y-109590869D01*
X113191451Y-109588029D01*
X113191449Y-109588028D01*
X113171283Y-109581650D01*
X113144481Y-109573174D01*
X113140750Y-109571929D01*
X113094263Y-109555604D01*
X113094261Y-109555604D01*
X113085369Y-109552481D01*
X113078181Y-109552199D01*
X113078122Y-109552188D01*
X113071270Y-109550020D01*
X113064663Y-109549500D01*
X113011984Y-109549500D01*
X113007037Y-109549403D01*
X112950006Y-109547162D01*
X112942900Y-109549046D01*
X112934653Y-109549500D01*
X111916537Y-109549500D01*
X111848416Y-109529498D01*
X111801923Y-109475842D01*
X111798114Y-109464422D01*
X111797519Y-109464631D01*
X111784397Y-109427266D01*
X111752634Y-109336816D01*
X111747042Y-109329246D01*
X111747041Y-109329243D01*
X111677742Y-109235421D01*
X111672150Y-109227850D01*
X111629802Y-109196571D01*
X111570757Y-109152959D01*
X111570754Y-109152958D01*
X111563184Y-109147366D01*
X111484752Y-109119823D01*
X111427106Y-109078380D01*
X111401018Y-109012350D01*
X111400500Y-109000940D01*
X111400500Y-108886657D01*
X111420502Y-108818536D01*
X111437404Y-108797562D01*
X111735570Y-108499396D01*
X112037953Y-108197012D01*
X112100266Y-108162987D01*
X112171081Y-108168051D01*
X112227917Y-108210598D01*
X112242198Y-108234953D01*
X112248061Y-108248153D01*
X112327287Y-108327241D01*
X112337924Y-108331944D01*
X112337926Y-108331945D01*
X112397462Y-108358265D01*
X112429673Y-108372506D01*
X112455354Y-108375500D01*
X114769080Y-108375500D01*
X114837201Y-108395502D01*
X114860138Y-108416603D01*
X114860850Y-108415891D01*
X114866695Y-108421736D01*
X114871718Y-108428282D01*
X114878264Y-108433305D01*
X114886508Y-108439631D01*
X114997159Y-108524536D01*
X115143238Y-108585044D01*
X115300000Y-108605682D01*
X115308188Y-108604604D01*
X115448574Y-108586122D01*
X115456762Y-108585044D01*
X115602841Y-108524536D01*
X115713492Y-108439631D01*
X115721736Y-108433305D01*
X115728282Y-108428282D01*
X115824536Y-108302841D01*
X115885044Y-108156762D01*
X115905682Y-108000000D01*
X115885044Y-107843238D01*
X115824536Y-107697159D01*
X115748566Y-107598153D01*
X115733305Y-107578264D01*
X115728282Y-107571718D01*
X115717166Y-107563188D01*
X115692082Y-107543941D01*
X115602841Y-107475464D01*
X115456762Y-107414956D01*
X115300000Y-107394318D01*
X115143238Y-107414956D01*
X114997159Y-107475464D01*
X114990608Y-107480491D01*
X114990603Y-107480494D01*
X114902025Y-107548462D01*
X114835805Y-107574063D01*
X114825321Y-107574500D01*
X114201500Y-107574500D01*
X114133379Y-107554498D01*
X114086886Y-107500842D01*
X114075500Y-107448500D01*
X114075500Y-107180354D01*
X114072382Y-107154154D01*
X114062906Y-107132819D01*
X114026939Y-107051847D01*
X114030801Y-107050132D01*
X114015647Y-107003854D01*
X114029954Y-106948912D01*
X114027241Y-106947713D01*
X114061263Y-106870757D01*
X114072506Y-106845327D01*
X114075500Y-106819646D01*
X114075500Y-106530354D01*
X114072382Y-106504154D01*
X114026939Y-106401847D01*
X114030801Y-106400132D01*
X114015647Y-106353854D01*
X114029954Y-106298912D01*
X114027241Y-106297713D01*
X114037316Y-106274925D01*
X114072506Y-106195327D01*
X114075500Y-106169646D01*
X114075500Y-105880354D01*
X114072382Y-105854154D01*
X114026939Y-105751847D01*
X113947713Y-105672759D01*
X113937076Y-105668056D01*
X113937074Y-105668055D01*
X113853992Y-105631325D01*
X113853993Y-105631325D01*
X113845327Y-105627494D01*
X113819646Y-105624500D01*
X109998202Y-105624500D01*
X109930081Y-105604498D01*
X109886126Y-105553771D01*
X109885643Y-105554027D01*
X109884536Y-105551936D01*
X109883588Y-105550842D01*
X109882415Y-105547930D01*
X109881233Y-105545697D01*
X109878114Y-105536816D01*
X109872522Y-105529246D01*
X109872521Y-105529243D01*
X109803222Y-105435421D01*
X109797630Y-105427850D01*
X109790059Y-105422258D01*
X109783395Y-105415594D01*
X109786037Y-105412952D01*
X109754057Y-105370824D01*
X109748516Y-105300044D01*
X109782122Y-105237505D01*
X109844205Y-105203062D01*
X109871814Y-105200000D01*
X119774029Y-105200000D01*
X119842150Y-105220002D01*
G37*
%TD.AperFunction*%
%TD*%
%TA.AperFunction,Conductor*%
%TO.N,SiPM Bias*%
G36*
X142692121Y-109520002D02*
G01*
X142738614Y-109573658D01*
X142750000Y-109626000D01*
X142750000Y-113946330D01*
X142729998Y-114014451D01*
X142676342Y-114060944D01*
X142606068Y-114071048D01*
X142584016Y-114064998D01*
X142578231Y-114061133D01*
X142519748Y-114049500D01*
X137580252Y-114049500D01*
X137574184Y-114050707D01*
X137533939Y-114058712D01*
X137533938Y-114058712D01*
X137521769Y-114061133D01*
X137455448Y-114105448D01*
X137411133Y-114171769D01*
X137399500Y-114230252D01*
X137399500Y-115869748D01*
X137411133Y-115928231D01*
X137455448Y-115994552D01*
X137521769Y-116038867D01*
X137533938Y-116041288D01*
X137533939Y-116041288D01*
X137570484Y-116048557D01*
X137580252Y-116050500D01*
X139223500Y-116050500D01*
X139291621Y-116070502D01*
X139338114Y-116124158D01*
X139349500Y-116176500D01*
X139349500Y-116942516D01*
X139364724Y-117068320D01*
X139424655Y-117226923D01*
X139520688Y-117366651D01*
X139526358Y-117371703D01*
X139526359Y-117371704D01*
X139641608Y-117474388D01*
X139641612Y-117474390D01*
X139647279Y-117479440D01*
X139797119Y-117558776D01*
X139961559Y-117600081D01*
X139969157Y-117600121D01*
X139969159Y-117600121D01*
X140046332Y-117600525D01*
X140131105Y-117600969D01*
X140138492Y-117599195D01*
X140138496Y-117599195D01*
X140288583Y-117563161D01*
X140295968Y-117561388D01*
X140302712Y-117557907D01*
X140302715Y-117557906D01*
X140439883Y-117487108D01*
X140439884Y-117487108D01*
X140446631Y-117483625D01*
X140574396Y-117372169D01*
X140671887Y-117233453D01*
X140733476Y-117075487D01*
X140750500Y-116946174D01*
X140750500Y-116176500D01*
X140770502Y-116108379D01*
X140824158Y-116061886D01*
X140876500Y-116050500D01*
X142519748Y-116050500D01*
X142578231Y-116038867D01*
X142581566Y-116036638D01*
X142646373Y-116029672D01*
X142709860Y-116061453D01*
X142746087Y-116122511D01*
X142750000Y-116153670D01*
X142750000Y-129624000D01*
X142729998Y-129692121D01*
X142676342Y-129738614D01*
X142624000Y-129750000D01*
X124226000Y-129750000D01*
X124157879Y-129729998D01*
X124111386Y-129676342D01*
X124100000Y-129624000D01*
X124100000Y-122126500D01*
X124120002Y-122058379D01*
X124173658Y-122011886D01*
X124226000Y-122000500D01*
X127219748Y-122000500D01*
X127225816Y-121999293D01*
X127266061Y-121991288D01*
X127266062Y-121991288D01*
X127278231Y-121988867D01*
X127344552Y-121944552D01*
X127388867Y-121878231D01*
X127400500Y-121819748D01*
X127400500Y-120380252D01*
X127388867Y-120321769D01*
X127344552Y-120255448D01*
X127278231Y-120211133D01*
X127266062Y-120208712D01*
X127266061Y-120208712D01*
X127225816Y-120200707D01*
X127219748Y-120199500D01*
X125926500Y-120199500D01*
X125858379Y-120179498D01*
X125811886Y-120125842D01*
X125800500Y-120073500D01*
X125800500Y-119557483D01*
X125785276Y-119431679D01*
X125725345Y-119273076D01*
X125629312Y-119133348D01*
X125617514Y-119122836D01*
X125508392Y-119025611D01*
X125508388Y-119025609D01*
X125502721Y-119020559D01*
X125352881Y-118941223D01*
X125188441Y-118899918D01*
X125180843Y-118899878D01*
X125180841Y-118899878D01*
X125103668Y-118899474D01*
X125018895Y-118899030D01*
X125011508Y-118900804D01*
X125011504Y-118900804D01*
X124868162Y-118935219D01*
X124854032Y-118938611D01*
X124847288Y-118942092D01*
X124847285Y-118942093D01*
X124842089Y-118944775D01*
X124703369Y-119016374D01*
X124575604Y-119127830D01*
X124478113Y-119266546D01*
X124416524Y-119424512D01*
X124399500Y-119553825D01*
X124399500Y-120073500D01*
X124379498Y-120141621D01*
X124325842Y-120188114D01*
X124273500Y-120199500D01*
X124226000Y-120199500D01*
X124157879Y-120179498D01*
X124111386Y-120125842D01*
X124100000Y-120073500D01*
X124100000Y-118219748D01*
X132599500Y-118219748D01*
X132611133Y-118278231D01*
X132655448Y-118344552D01*
X132721769Y-118388867D01*
X132733938Y-118391288D01*
X132733939Y-118391288D01*
X132774184Y-118399293D01*
X132780252Y-118400500D01*
X134819748Y-118400500D01*
X134825816Y-118399293D01*
X134866061Y-118391288D01*
X134866062Y-118391288D01*
X134878231Y-118388867D01*
X134944552Y-118344552D01*
X134988867Y-118278231D01*
X135000500Y-118219748D01*
X135000500Y-116180252D01*
X134988867Y-116121769D01*
X134944552Y-116055448D01*
X134878231Y-116011133D01*
X134866062Y-116008712D01*
X134866061Y-116008712D01*
X134825816Y-116000707D01*
X134819748Y-115999500D01*
X132780252Y-115999500D01*
X132774184Y-116000707D01*
X132733939Y-116008712D01*
X132733938Y-116008712D01*
X132721769Y-116011133D01*
X132655448Y-116055448D01*
X132611133Y-116121769D01*
X132599500Y-116180252D01*
X132599500Y-118219748D01*
X124100000Y-118219748D01*
X124100000Y-109626000D01*
X124120002Y-109557879D01*
X124173658Y-109511386D01*
X124226000Y-109500000D01*
X142624000Y-109500000D01*
X142692121Y-109520002D01*
G37*
%TD.AperFunction*%
%TD*%
M02*
