%TF.GenerationSoftware,KiCad,Pcbnew,(6.0.0)*%
%TF.CreationDate,2022-03-16T16:47:09+01:00*%
%TF.ProjectId,driver-board,64726976-6572-42d6-926f-6172642e6b69,rev?*%
%TF.SameCoordinates,Original*%
%TF.FileFunction,Soldermask,Top*%
%TF.FilePolarity,Negative*%
%FSLAX46Y46*%
G04 Gerber Fmt 4.6, Leading zero omitted, Abs format (unit mm)*
G04 Created by KiCad (PCBNEW (6.0.0)) date 2022-03-16 16:47:09*
%MOMM*%
%LPD*%
G01*
G04 APERTURE LIST*
G04 Aperture macros list*
%AMRoundRect*
0 Rectangle with rounded corners*
0 $1 Rounding radius*
0 $2 $3 $4 $5 $6 $7 $8 $9 X,Y pos of 4 corners*
0 Add a 4 corners polygon primitive as box body*
4,1,4,$2,$3,$4,$5,$6,$7,$8,$9,$2,$3,0*
0 Add four circle primitives for the rounded corners*
1,1,$1+$1,$2,$3*
1,1,$1+$1,$4,$5*
1,1,$1+$1,$6,$7*
1,1,$1+$1,$8,$9*
0 Add four rect primitives between the rounded corners*
20,1,$1+$1,$2,$3,$4,$5,0*
20,1,$1+$1,$4,$5,$6,$7,0*
20,1,$1+$1,$6,$7,$8,$9,0*
20,1,$1+$1,$8,$9,$2,$3,0*%
G04 Aperture macros list end*
%ADD10RoundRect,0.250000X-0.337500X-0.475000X0.337500X-0.475000X0.337500X0.475000X-0.337500X0.475000X0*%
%ADD11RoundRect,0.250000X0.475000X-0.337500X0.475000X0.337500X-0.475000X0.337500X-0.475000X-0.337500X0*%
%ADD12R,1.400000X1.500000*%
%ADD13RoundRect,0.250000X0.350000X0.450000X-0.350000X0.450000X-0.350000X-0.450000X0.350000X-0.450000X0*%
%ADD14RoundRect,0.250000X-0.450000X0.350000X-0.450000X-0.350000X0.450000X-0.350000X0.450000X0.350000X0*%
%ADD15RoundRect,0.250000X0.337500X0.475000X-0.337500X0.475000X-0.337500X-0.475000X0.337500X-0.475000X0*%
%ADD16RoundRect,0.250000X-0.475000X0.337500X-0.475000X-0.337500X0.475000X-0.337500X0.475000X0.337500X0*%
%ADD17RoundRect,0.250001X0.462499X1.074999X-0.462499X1.074999X-0.462499X-1.074999X0.462499X-1.074999X0*%
%ADD18RoundRect,0.250000X0.450000X-0.350000X0.450000X0.350000X-0.450000X0.350000X-0.450000X-0.350000X0*%
%ADD19R,2.500000X1.200000*%
%ADD20R,1.560000X0.650000*%
%ADD21R,4.200000X1.400000*%
%ADD22C,1.500000*%
%ADD23RoundRect,0.250001X-1.074999X0.462499X-1.074999X-0.462499X1.074999X-0.462499X1.074999X0.462499X0*%
%ADD24R,1.700000X1.700000*%
%ADD25O,1.700000X1.700000*%
%ADD26R,2.000000X2.000000*%
%ADD27C,2.000000*%
%ADD28R,0.900000X0.900000*%
%ADD29RoundRect,0.150000X-0.825000X-0.150000X0.825000X-0.150000X0.825000X0.150000X-0.825000X0.150000X0*%
%ADD30R,1.500000X1.000000*%
%ADD31O,1.500000X1.500000*%
%ADD32O,1.800000X1.800000*%
%ADD33R,3.500000X1.700000*%
%ADD34R,1.700000X3.500000*%
%ADD35C,3.200000*%
%ADD36RoundRect,0.100000X0.637500X0.100000X-0.637500X0.100000X-0.637500X-0.100000X0.637500X-0.100000X0*%
%ADD37R,5.600000X1.500000*%
%ADD38R,4.900000X1.600000*%
%ADD39RoundRect,0.150000X-0.512500X-0.150000X0.512500X-0.150000X0.512500X0.150000X-0.512500X0.150000X0*%
%ADD40R,1.600000X4.900000*%
%ADD41O,1.200000X1.600000*%
%ADD42O,1.200000X1.200000*%
G04 APERTURE END LIST*
D10*
%TO.C,C14*%
X97962500Y-116000000D03*
X100037500Y-116000000D03*
%TD*%
D11*
%TO.C,C10*%
X123100000Y-105137500D03*
X123100000Y-103062500D03*
%TD*%
D12*
%TO.C,SW1*%
X62500000Y-100750000D03*
X62500000Y-107250000D03*
%TD*%
D13*
%TO.C,R7*%
X109125480Y-106200000D03*
X107125480Y-106200000D03*
%TD*%
D14*
%TO.C,R4*%
X97000000Y-123500000D03*
X97000000Y-125500000D03*
%TD*%
D15*
%TO.C,C16*%
X96537500Y-120000000D03*
X94462500Y-120000000D03*
%TD*%
D16*
%TO.C,C3*%
X114000000Y-83862500D03*
X114000000Y-85937500D03*
%TD*%
D17*
%TO.C,L1*%
X100987500Y-112500000D03*
X98012500Y-112500000D03*
%TD*%
D10*
%TO.C,C13*%
X98962500Y-109000000D03*
X101037500Y-109000000D03*
%TD*%
D18*
%TO.C,R1*%
X118400000Y-84000000D03*
X118400000Y-82000000D03*
%TD*%
D16*
%TO.C,C1*%
X101925000Y-74962500D03*
X101925000Y-77037500D03*
%TD*%
D19*
%TO.C,SW2*%
X133500000Y-107600000D03*
X128000000Y-107600000D03*
X128000000Y-105100000D03*
X133500000Y-105100000D03*
X133500000Y-102600000D03*
X128000000Y-102600000D03*
%TD*%
D11*
%TO.C,C6*%
X116537500Y-100000000D03*
X116537500Y-97925000D03*
%TD*%
D10*
%TO.C,C2*%
X111925000Y-75000000D03*
X114000000Y-75000000D03*
%TD*%
D20*
%TO.C,U2*%
X105575000Y-74950000D03*
X105575000Y-75900000D03*
X105575000Y-76850000D03*
X108275000Y-76850000D03*
X108275000Y-74950000D03*
%TD*%
D10*
%TO.C,C9*%
X111962500Y-78500000D03*
X114037500Y-78500000D03*
%TD*%
D21*
%TO.C,RV2*%
X105100000Y-116000000D03*
X125100000Y-121100000D03*
X105100000Y-126000000D03*
%TD*%
D22*
%TO.C,TP4*%
X98600000Y-92900000D03*
%TD*%
D10*
%TO.C,C11*%
X122962500Y-116000000D03*
X125037500Y-116000000D03*
%TD*%
D23*
%TO.C,L2*%
X105000000Y-119512500D03*
X105000000Y-122487500D03*
%TD*%
D22*
%TO.C,TP7*%
X114000000Y-111000000D03*
%TD*%
D24*
%TO.C,J1*%
X94024999Y-102977500D03*
D25*
X94024999Y-105517500D03*
X94024999Y-108057500D03*
X94024999Y-110597500D03*
X94024999Y-113137500D03*
X94024999Y-115677500D03*
%TD*%
D26*
%TO.C,C12*%
X133800000Y-117200000D03*
D27*
X130300000Y-117200000D03*
%TD*%
D24*
%TO.C,J3*%
X62975000Y-95402500D03*
D25*
X62975000Y-92862500D03*
X62975000Y-90322500D03*
X62975000Y-87782500D03*
X62975000Y-85242500D03*
X62975000Y-82702500D03*
%TD*%
D13*
%TO.C,R6*%
X106000000Y-110000000D03*
X104000000Y-110000000D03*
%TD*%
D22*
%TO.C,TP1*%
X95800000Y-81900000D03*
%TD*%
D28*
%TO.C,RN1*%
X98377500Y-84002500D03*
X98377500Y-85342500D03*
X98377500Y-86662500D03*
X98377500Y-88002500D03*
X101377500Y-88002500D03*
X101377500Y-86662500D03*
X101377500Y-85342500D03*
X101377500Y-84002500D03*
%TD*%
D29*
%TO.C,U4*%
X100946088Y-97106088D03*
X100946088Y-98376088D03*
X100946088Y-99646088D03*
X100946088Y-100916088D03*
X105896088Y-100916088D03*
X105896088Y-99646088D03*
X105896088Y-98376088D03*
X105896088Y-97106088D03*
%TD*%
D13*
%TO.C,R8*%
X111000000Y-110000000D03*
X109000000Y-110000000D03*
%TD*%
D30*
%TO.C,JP1*%
X98100000Y-98350000D03*
X98100000Y-97050000D03*
%TD*%
D18*
%TO.C,R2*%
X109537500Y-99962500D03*
X109537500Y-97962500D03*
%TD*%
D31*
%TO.C,U1*%
X80877500Y-78232500D03*
D32*
X75727500Y-75202500D03*
X81177500Y-75202500D03*
D31*
X76027500Y-78232500D03*
D33*
X68662500Y-80152500D03*
D24*
X69562500Y-80152500D03*
D33*
X68662500Y-87772500D03*
D25*
X69562500Y-87772500D03*
X69562500Y-90312500D03*
D33*
X68662500Y-90312500D03*
D24*
X69562500Y-92852500D03*
D33*
X68662500Y-92852500D03*
X68662500Y-105552500D03*
D24*
X69562500Y-105552500D03*
X69562500Y-118252500D03*
D33*
X68662500Y-118252500D03*
D24*
X87342500Y-118252500D03*
D33*
X88242500Y-118252500D03*
D25*
X87342500Y-110632500D03*
D33*
X88242500Y-110632500D03*
X88242500Y-108092500D03*
D25*
X87342500Y-108092500D03*
D33*
X88242500Y-105552500D03*
D24*
X87342500Y-105552500D03*
D33*
X88242500Y-100472500D03*
D25*
X87342500Y-100472500D03*
D33*
X88242500Y-97932500D03*
D25*
X87342500Y-97932500D03*
D33*
X88242500Y-95392500D03*
D25*
X87342500Y-95392500D03*
D24*
X87342500Y-92852500D03*
D33*
X88242500Y-92852500D03*
X88242500Y-90312500D03*
D25*
X87342500Y-90312500D03*
D33*
X88242500Y-85232500D03*
D25*
X87342500Y-85232500D03*
D24*
X87342500Y-80152500D03*
D33*
X88242500Y-80152500D03*
D25*
X87342500Y-75072500D03*
D33*
X88242500Y-75072500D03*
D34*
X75912500Y-124002500D03*
D25*
X75912500Y-123102500D03*
D24*
X78452500Y-123102500D03*
D34*
X78452500Y-124002500D03*
X80992500Y-124002500D03*
D25*
X80992500Y-123102500D03*
%TD*%
D35*
%TO.C,REF\u002A\u002A*%
X139200000Y-126200000D03*
%TD*%
D11*
%TO.C,C7*%
X112937500Y-100000000D03*
X112937500Y-97925000D03*
%TD*%
D22*
%TO.C,TP6*%
X104125480Y-106200000D03*
%TD*%
D13*
%TO.C,R3*%
X125000000Y-110800000D03*
X123000000Y-110800000D03*
%TD*%
D35*
%TO.C,REF\u002A\u002A*%
X61800000Y-126200000D03*
%TD*%
D15*
%TO.C,C8*%
X108475000Y-80100000D03*
X106400000Y-80100000D03*
%TD*%
%TO.C,C4*%
X105758588Y-93300000D03*
X103683588Y-93300000D03*
%TD*%
D29*
%TO.C,U3*%
X105402500Y-84097500D03*
X105402500Y-85367500D03*
X105402500Y-86637500D03*
X105402500Y-87907500D03*
X110352500Y-87907500D03*
X110352500Y-86637500D03*
X110352500Y-85367500D03*
X110352500Y-84097500D03*
%TD*%
D22*
%TO.C,TP5*%
X104900000Y-112800000D03*
%TD*%
D13*
%TO.C,R5*%
X101500000Y-123000000D03*
X99500000Y-123000000D03*
%TD*%
D36*
%TO.C,U6*%
X118862500Y-107975000D03*
X118862500Y-107325000D03*
X118862500Y-106675000D03*
X118862500Y-106025000D03*
X113137500Y-106025000D03*
X113137500Y-106675000D03*
X113137500Y-107325000D03*
X113137500Y-107975000D03*
%TD*%
D22*
%TO.C,TP3*%
X109000000Y-103000000D03*
%TD*%
D37*
%TO.C,J4*%
X139700000Y-110800000D03*
D38*
X140050000Y-115050000D03*
X140050000Y-106550000D03*
%TD*%
D35*
%TO.C,REF\u002A\u002A*%
X61800000Y-75800000D03*
%TD*%
D22*
%TO.C,TP2*%
X113777500Y-90782500D03*
%TD*%
D39*
%TO.C,U7*%
X98862500Y-118550000D03*
X98862500Y-119500000D03*
X98862500Y-120450000D03*
X101137500Y-120450000D03*
X101137500Y-119500000D03*
X101137500Y-118550000D03*
%TD*%
D16*
%TO.C,C15*%
X94500000Y-123462500D03*
X94500000Y-125537500D03*
%TD*%
D40*
%TO.C,J2*%
X132365276Y-75000000D03*
X123865276Y-75000000D03*
%TD*%
D41*
%TO.C,LD1*%
X139684724Y-84569448D03*
D42*
X140954724Y-85839448D03*
X139684724Y-87109448D03*
%TD*%
M02*
