M48
; DRILL file {KiCad (6.0.0)} date Tue Jun  7 13:13:01 2022
; FORMAT={-:-/ absolute / metric / decimal}
; #@! TF.CreationDate,2022-06-07T13:13:01+02:00
; #@! TF.GenerationSoftware,Kicad,Pcbnew,(6.0.0)
; #@! TF.FileFunction,Plated,1,2,PTH
FMAT,2
METRIC
; #@! TA.AperFunction,Plated,PTH,ViaDrill
T1C0.400
; #@! TA.AperFunction,Plated,PTH,ComponentDrill
T2C1.000
%
G90
G05
T1
X102.5Y-75.0
X102.5Y-90.0
X102.5Y-110.0
X107.5Y-70.0
X107.5Y-110.0
X112.5Y-70.0
X112.5Y-87.5
X112.5Y-112.5
X114.5Y-105.0
X117.2Y-101.25
X117.5Y-70.0
X117.5Y-75.0
X117.5Y-80.0
X117.5Y-112.5
X118.5Y-89.0
X120.8Y-96.55
X120.8Y-99.65
X122.5Y-70.0
X122.5Y-112.5
X123.0Y-74.5
X123.0Y-93.194
X124.55Y-103.994
X124.55Y-108.694
X127.5Y-112.5
X128.5Y-99.5
X129.678Y-94.694
X130.0Y-70.0
X130.0Y-90.0
X130.0Y-108.0
X132.5Y-112.5
X135.0Y-70.0
X135.186Y-94.686
X137.5Y-94.0
X137.5Y-112.5
X139.8Y-106.55
X140.0Y-70.0
X140.0Y-82.5
X141.5Y-97.5
X142.5Y-112.5
X142.7Y-102.65
X145.0Y-70.0
X145.0Y-82.5
X147.5Y-112.5
X150.0Y-70.0
X150.0Y-82.5
X150.0Y-90.0
X150.0Y-105.0
X150.0Y-110.0
X151.1Y-101.35
X155.0Y-70.0
X155.0Y-82.5
X155.0Y-92.5
X160.0Y-82.5
X162.5Y-70.0
X165.0Y-82.5
X165.0Y-105.0
X165.2Y-101.35
X170.0Y-82.5
X170.0Y-105.0
X175.0Y-82.5
X177.5Y-105.0
X180.0Y-82.5
X180.0Y-102.5
X182.5Y-110.0
X185.0Y-70.0
X185.0Y-82.5
X187.5Y-72.5
X187.5Y-77.5
X187.5Y-85.0
X187.5Y-90.0
X187.5Y-105.0
T2
X103.65Y-93.034
X103.65Y-95.574
X103.65Y-98.114
X103.65Y-100.654
X103.65Y-103.194
X109.45Y-90.469
X109.45Y-93.009
X109.45Y-95.549
X109.45Y-98.089
X109.45Y-100.629
X109.45Y-103.169
X145.8Y-76.268
X145.8Y-79.768
T0
M30
