M48
; DRILL file {KiCad (6.0.0)} date Wed May 25 15:18:11 2022
; FORMAT={-:-/ absolute / metric / decimal}
; #@! TF.CreationDate,2022-05-25T15:18:11+02:00
; #@! TF.GenerationSoftware,Kicad,Pcbnew,(6.0.0)
; #@! TF.FileFunction,Plated,1,2,PTH
FMAT,2
METRIC
; #@! TA.AperFunction,Plated,PTH,ViaDrill
T1C0.500
; #@! TA.AperFunction,Plated,PTH,ComponentDrill
T2C1.000
%
G90
G05
T1
X164.8Y-103.4
X168.4Y-98.7
X168.4Y-101.8
X170.656Y-95.344
X171.963Y-74.2
X172.15Y-106.144
X172.15Y-110.844
X177.278Y-96.844
X182.786Y-96.836
X187.4Y-108.7
X190.3Y-104.8
X198.7Y-103.5
X212.8Y-103.5
T2
X151.25Y-95.184
X151.25Y-97.724
X151.25Y-100.264
X151.25Y-102.804
X151.25Y-105.344
X157.05Y-92.619
X157.05Y-95.159
X157.05Y-97.699
X157.05Y-100.239
X157.05Y-102.779
X157.05Y-105.319
X193.4Y-78.418
X193.4Y-81.918
T0
M30
