%TF.GenerationSoftware,KiCad,Pcbnew,(6.0.0)*%
%TF.CreationDate,2022-06-07T13:13:07+02:00*%
%TF.ProjectId,driver-board,64726976-6572-42d6-926f-6172642e6b69,rev?*%
%TF.SameCoordinates,Original*%
%TF.FileFunction,Legend,Bot*%
%TF.FilePolarity,Positive*%
%FSLAX46Y46*%
G04 Gerber Fmt 4.6, Leading zero omitted, Abs format (unit mm)*
G04 Created by KiCad (PCBNEW (6.0.0)) date 2022-06-07 13:13:07*
%MOMM*%
%LPD*%
G01*
G04 APERTURE LIST*
%ADD10C,0.100000*%
%ADD11C,0.150000*%
%ADD12C,0.300000*%
%ADD13C,0.400000*%
%ADD14C,0.120000*%
G04 APERTURE END LIST*
D10*
D11*
X177002200Y-166007200D02*
X177002200Y-198007200D01*
X285002200Y-198007200D01*
X285002200Y-166007200D01*
X177002200Y-166007200D01*
D10*
D11*
X10000000Y-10000000D02*
X10000000Y-200007200D01*
X287002200Y-200007200D01*
X287002200Y-10000000D01*
X10000000Y-10000000D01*
D10*
D11*
X12000000Y-12000000D02*
X12000000Y-198007200D01*
X285002200Y-198007200D01*
X285002200Y-12000000D01*
X12000000Y-12000000D01*
D10*
D11*
X60000000Y-12000000D02*
X60000000Y-10000000D01*
D10*
D11*
X110000000Y-12000000D02*
X110000000Y-10000000D01*
D10*
D11*
X160000000Y-12000000D02*
X160000000Y-10000000D01*
D10*
D11*
X210000000Y-12000000D02*
X210000000Y-10000000D01*
D10*
D11*
X260000000Y-12000000D02*
X260000000Y-10000000D01*
D10*
D11*
X36065476Y-11588095D02*
X35322619Y-11588095D01*
X35694047Y-11588095D02*
X35694047Y-10288095D01*
X35570238Y-10473809D01*
X35446428Y-10597619D01*
X35322619Y-10659523D01*
D10*
D11*
X85322619Y-10411904D02*
X85384523Y-10350000D01*
X85508333Y-10288095D01*
X85817857Y-10288095D01*
X85941666Y-10350000D01*
X86003571Y-10411904D01*
X86065476Y-10535714D01*
X86065476Y-10659523D01*
X86003571Y-10845238D01*
X85260714Y-11588095D01*
X86065476Y-11588095D01*
D10*
D11*
X135260714Y-10288095D02*
X136065476Y-10288095D01*
X135632142Y-10783333D01*
X135817857Y-10783333D01*
X135941666Y-10845238D01*
X136003571Y-10907142D01*
X136065476Y-11030952D01*
X136065476Y-11340476D01*
X136003571Y-11464285D01*
X135941666Y-11526190D01*
X135817857Y-11588095D01*
X135446428Y-11588095D01*
X135322619Y-11526190D01*
X135260714Y-11464285D01*
D10*
D11*
X185941666Y-10721428D02*
X185941666Y-11588095D01*
X185632142Y-10226190D02*
X185322619Y-11154761D01*
X186127380Y-11154761D01*
D10*
D11*
X236003571Y-10288095D02*
X235384523Y-10288095D01*
X235322619Y-10907142D01*
X235384523Y-10845238D01*
X235508333Y-10783333D01*
X235817857Y-10783333D01*
X235941666Y-10845238D01*
X236003571Y-10907142D01*
X236065476Y-11030952D01*
X236065476Y-11340476D01*
X236003571Y-11464285D01*
X235941666Y-11526190D01*
X235817857Y-11588095D01*
X235508333Y-11588095D01*
X235384523Y-11526190D01*
X235322619Y-11464285D01*
D10*
D11*
X285941666Y-10288095D02*
X285694047Y-10288095D01*
X285570238Y-10350000D01*
X285508333Y-10411904D01*
X285384523Y-10597619D01*
X285322619Y-10845238D01*
X285322619Y-11340476D01*
X285384523Y-11464285D01*
X285446428Y-11526190D01*
X285570238Y-11588095D01*
X285817857Y-11588095D01*
X285941666Y-11526190D01*
X286003571Y-11464285D01*
X286065476Y-11340476D01*
X286065476Y-11030952D01*
X286003571Y-10907142D01*
X285941666Y-10845238D01*
X285817857Y-10783333D01*
X285570238Y-10783333D01*
X285446428Y-10845238D01*
X285384523Y-10907142D01*
X285322619Y-11030952D01*
D10*
D11*
X60000000Y-198007200D02*
X60000000Y-200007200D01*
D10*
D11*
X110000000Y-198007200D02*
X110000000Y-200007200D01*
D10*
D11*
X160000000Y-198007200D02*
X160000000Y-200007200D01*
D10*
D11*
X210000000Y-198007200D02*
X210000000Y-200007200D01*
D10*
D11*
X260000000Y-198007200D02*
X260000000Y-200007200D01*
D10*
D11*
X36065476Y-199595295D02*
X35322619Y-199595295D01*
X35694047Y-199595295D02*
X35694047Y-198295295D01*
X35570238Y-198481009D01*
X35446428Y-198604819D01*
X35322619Y-198666723D01*
D10*
D11*
X85322619Y-198419104D02*
X85384523Y-198357200D01*
X85508333Y-198295295D01*
X85817857Y-198295295D01*
X85941666Y-198357200D01*
X86003571Y-198419104D01*
X86065476Y-198542914D01*
X86065476Y-198666723D01*
X86003571Y-198852438D01*
X85260714Y-199595295D01*
X86065476Y-199595295D01*
D10*
D11*
X135260714Y-198295295D02*
X136065476Y-198295295D01*
X135632142Y-198790533D01*
X135817857Y-198790533D01*
X135941666Y-198852438D01*
X136003571Y-198914342D01*
X136065476Y-199038152D01*
X136065476Y-199347676D01*
X136003571Y-199471485D01*
X135941666Y-199533390D01*
X135817857Y-199595295D01*
X135446428Y-199595295D01*
X135322619Y-199533390D01*
X135260714Y-199471485D01*
D10*
D11*
X185941666Y-198728628D02*
X185941666Y-199595295D01*
X185632142Y-198233390D02*
X185322619Y-199161961D01*
X186127380Y-199161961D01*
D10*
D11*
X236003571Y-198295295D02*
X235384523Y-198295295D01*
X235322619Y-198914342D01*
X235384523Y-198852438D01*
X235508333Y-198790533D01*
X235817857Y-198790533D01*
X235941666Y-198852438D01*
X236003571Y-198914342D01*
X236065476Y-199038152D01*
X236065476Y-199347676D01*
X236003571Y-199471485D01*
X235941666Y-199533390D01*
X235817857Y-199595295D01*
X235508333Y-199595295D01*
X235384523Y-199533390D01*
X235322619Y-199471485D01*
D10*
D11*
X285941666Y-198295295D02*
X285694047Y-198295295D01*
X285570238Y-198357200D01*
X285508333Y-198419104D01*
X285384523Y-198604819D01*
X285322619Y-198852438D01*
X285322619Y-199347676D01*
X285384523Y-199471485D01*
X285446428Y-199533390D01*
X285570238Y-199595295D01*
X285817857Y-199595295D01*
X285941666Y-199533390D01*
X286003571Y-199471485D01*
X286065476Y-199347676D01*
X286065476Y-199038152D01*
X286003571Y-198914342D01*
X285941666Y-198852438D01*
X285817857Y-198790533D01*
X285570238Y-198790533D01*
X285446428Y-198852438D01*
X285384523Y-198914342D01*
X285322619Y-199038152D01*
D10*
D11*
X10000000Y-60000000D02*
X12000000Y-60000000D01*
D10*
D11*
X10000000Y-110000000D02*
X12000000Y-110000000D01*
D10*
D11*
X10000000Y-160000000D02*
X12000000Y-160000000D01*
D10*
D11*
X10690476Y-35216666D02*
X11309523Y-35216666D01*
X10566666Y-35588095D02*
X11000000Y-34288095D01*
X11433333Y-35588095D01*
D10*
D11*
X11092857Y-84907142D02*
X11278571Y-84969047D01*
X11340476Y-85030952D01*
X11402380Y-85154761D01*
X11402380Y-85340476D01*
X11340476Y-85464285D01*
X11278571Y-85526190D01*
X11154761Y-85588095D01*
X10659523Y-85588095D01*
X10659523Y-84288095D01*
X11092857Y-84288095D01*
X11216666Y-84350000D01*
X11278571Y-84411904D01*
X11340476Y-84535714D01*
X11340476Y-84659523D01*
X11278571Y-84783333D01*
X11216666Y-84845238D01*
X11092857Y-84907142D01*
X10659523Y-84907142D01*
D10*
D11*
X11402380Y-135464285D02*
X11340476Y-135526190D01*
X11154761Y-135588095D01*
X11030952Y-135588095D01*
X10845238Y-135526190D01*
X10721428Y-135402380D01*
X10659523Y-135278571D01*
X10597619Y-135030952D01*
X10597619Y-134845238D01*
X10659523Y-134597619D01*
X10721428Y-134473809D01*
X10845238Y-134350000D01*
X11030952Y-134288095D01*
X11154761Y-134288095D01*
X11340476Y-134350000D01*
X11402380Y-134411904D01*
D10*
D11*
X10659523Y-185588095D02*
X10659523Y-184288095D01*
X10969047Y-184288095D01*
X11154761Y-184350000D01*
X11278571Y-184473809D01*
X11340476Y-184597619D01*
X11402380Y-184845238D01*
X11402380Y-185030952D01*
X11340476Y-185278571D01*
X11278571Y-185402380D01*
X11154761Y-185526190D01*
X10969047Y-185588095D01*
X10659523Y-185588095D01*
D10*
D11*
X287002200Y-60000000D02*
X285002200Y-60000000D01*
D10*
D11*
X287002200Y-110000000D02*
X285002200Y-110000000D01*
D10*
D11*
X287002200Y-160000000D02*
X285002200Y-160000000D01*
D10*
D11*
X285692676Y-35216666D02*
X286311723Y-35216666D01*
X285568866Y-35588095D02*
X286002200Y-34288095D01*
X286435533Y-35588095D01*
D10*
D11*
X286095057Y-84907142D02*
X286280771Y-84969047D01*
X286342676Y-85030952D01*
X286404580Y-85154761D01*
X286404580Y-85340476D01*
X286342676Y-85464285D01*
X286280771Y-85526190D01*
X286156961Y-85588095D01*
X285661723Y-85588095D01*
X285661723Y-84288095D01*
X286095057Y-84288095D01*
X286218866Y-84350000D01*
X286280771Y-84411904D01*
X286342676Y-84535714D01*
X286342676Y-84659523D01*
X286280771Y-84783333D01*
X286218866Y-84845238D01*
X286095057Y-84907142D01*
X285661723Y-84907142D01*
D10*
D11*
X286404580Y-135464285D02*
X286342676Y-135526190D01*
X286156961Y-135588095D01*
X286033152Y-135588095D01*
X285847438Y-135526190D01*
X285723628Y-135402380D01*
X285661723Y-135278571D01*
X285599819Y-135030952D01*
X285599819Y-134845238D01*
X285661723Y-134597619D01*
X285723628Y-134473809D01*
X285847438Y-134350000D01*
X286033152Y-134288095D01*
X286156961Y-134288095D01*
X286342676Y-134350000D01*
X286404580Y-134411904D01*
D10*
D11*
X285661723Y-185588095D02*
X285661723Y-184288095D01*
X285971247Y-184288095D01*
X286156961Y-184350000D01*
X286280771Y-184473809D01*
X286342676Y-184597619D01*
X286404580Y-184845238D01*
X286404580Y-185030952D01*
X286342676Y-185278571D01*
X286280771Y-185402380D01*
X286156961Y-185526190D01*
X285971247Y-185588095D01*
X285661723Y-185588095D01*
D10*
D11*
X200434342Y-193785771D02*
X200434342Y-192285771D01*
X200791485Y-192285771D01*
X201005771Y-192357200D01*
X201148628Y-192500057D01*
X201220057Y-192642914D01*
X201291485Y-192928628D01*
X201291485Y-193142914D01*
X201220057Y-193428628D01*
X201148628Y-193571485D01*
X201005771Y-193714342D01*
X200791485Y-193785771D01*
X200434342Y-193785771D01*
X202577200Y-193785771D02*
X202577200Y-193000057D01*
X202505771Y-192857200D01*
X202362914Y-192785771D01*
X202077200Y-192785771D01*
X201934342Y-192857200D01*
X202577200Y-193714342D02*
X202434342Y-193785771D01*
X202077200Y-193785771D01*
X201934342Y-193714342D01*
X201862914Y-193571485D01*
X201862914Y-193428628D01*
X201934342Y-193285771D01*
X202077200Y-193214342D01*
X202434342Y-193214342D01*
X202577200Y-193142914D01*
X203077200Y-192785771D02*
X203648628Y-192785771D01*
X203291485Y-192285771D02*
X203291485Y-193571485D01*
X203362914Y-193714342D01*
X203505771Y-193785771D01*
X203648628Y-193785771D01*
X204720057Y-193714342D02*
X204577200Y-193785771D01*
X204291485Y-193785771D01*
X204148628Y-193714342D01*
X204077200Y-193571485D01*
X204077200Y-193000057D01*
X204148628Y-192857200D01*
X204291485Y-192785771D01*
X204577200Y-192785771D01*
X204720057Y-192857200D01*
X204791485Y-193000057D01*
X204791485Y-193142914D01*
X204077200Y-193285771D01*
X205434342Y-193642914D02*
X205505771Y-193714342D01*
X205434342Y-193785771D01*
X205362914Y-193714342D01*
X205434342Y-193642914D01*
X205434342Y-193785771D01*
X205434342Y-192857200D02*
X205505771Y-192928628D01*
X205434342Y-193000057D01*
X205362914Y-192928628D01*
X205434342Y-192857200D01*
X205434342Y-193000057D01*
D10*
D11*
X177002200Y-194507200D02*
X285002200Y-194507200D01*
D10*
D11*
X178434342Y-196585771D02*
X178434342Y-195085771D01*
X179291485Y-196585771D02*
X178648628Y-195728628D01*
X179291485Y-195085771D02*
X178434342Y-195942914D01*
X179934342Y-196585771D02*
X179934342Y-195585771D01*
X179934342Y-195085771D02*
X179862914Y-195157200D01*
X179934342Y-195228628D01*
X180005771Y-195157200D01*
X179934342Y-195085771D01*
X179934342Y-195228628D01*
X181505771Y-196442914D02*
X181434342Y-196514342D01*
X181220057Y-196585771D01*
X181077200Y-196585771D01*
X180862914Y-196514342D01*
X180720057Y-196371485D01*
X180648628Y-196228628D01*
X180577200Y-195942914D01*
X180577200Y-195728628D01*
X180648628Y-195442914D01*
X180720057Y-195300057D01*
X180862914Y-195157200D01*
X181077200Y-195085771D01*
X181220057Y-195085771D01*
X181434342Y-195157200D01*
X181505771Y-195228628D01*
X182791485Y-196585771D02*
X182791485Y-195800057D01*
X182720057Y-195657200D01*
X182577200Y-195585771D01*
X182291485Y-195585771D01*
X182148628Y-195657200D01*
X182791485Y-196514342D02*
X182648628Y-196585771D01*
X182291485Y-196585771D01*
X182148628Y-196514342D01*
X182077200Y-196371485D01*
X182077200Y-196228628D01*
X182148628Y-196085771D01*
X182291485Y-196014342D01*
X182648628Y-196014342D01*
X182791485Y-195942914D01*
X184148628Y-196585771D02*
X184148628Y-195085771D01*
X184148628Y-196514342D02*
X184005771Y-196585771D01*
X183720057Y-196585771D01*
X183577200Y-196514342D01*
X183505771Y-196442914D01*
X183434342Y-196300057D01*
X183434342Y-195871485D01*
X183505771Y-195728628D01*
X183577200Y-195657200D01*
X183720057Y-195585771D01*
X184005771Y-195585771D01*
X184148628Y-195657200D01*
X186005771Y-195800057D02*
X186505771Y-195800057D01*
X186720057Y-196585771D02*
X186005771Y-196585771D01*
X186005771Y-195085771D01*
X186720057Y-195085771D01*
X187362914Y-196442914D02*
X187434342Y-196514342D01*
X187362914Y-196585771D01*
X187291485Y-196514342D01*
X187362914Y-196442914D01*
X187362914Y-196585771D01*
X188077200Y-196585771D02*
X188077200Y-195085771D01*
X188434342Y-195085771D01*
X188648628Y-195157200D01*
X188791485Y-195300057D01*
X188862914Y-195442914D01*
X188934342Y-195728628D01*
X188934342Y-195942914D01*
X188862914Y-196228628D01*
X188791485Y-196371485D01*
X188648628Y-196514342D01*
X188434342Y-196585771D01*
X188077200Y-196585771D01*
X189577200Y-196442914D02*
X189648628Y-196514342D01*
X189577200Y-196585771D01*
X189505771Y-196514342D01*
X189577200Y-196442914D01*
X189577200Y-196585771D01*
X190220057Y-196157200D02*
X190934342Y-196157200D01*
X190077200Y-196585771D02*
X190577200Y-195085771D01*
X191077200Y-196585771D01*
X191577200Y-196442914D02*
X191648628Y-196514342D01*
X191577200Y-196585771D01*
X191505771Y-196514342D01*
X191577200Y-196442914D01*
X191577200Y-196585771D01*
X194577200Y-196585771D02*
X194577200Y-195085771D01*
X194720057Y-196014342D02*
X195148628Y-196585771D01*
X195148628Y-195585771D02*
X194577200Y-196157200D01*
X195791485Y-196585771D02*
X195791485Y-195585771D01*
X195791485Y-195085771D02*
X195720057Y-195157200D01*
X195791485Y-195228628D01*
X195862914Y-195157200D01*
X195791485Y-195085771D01*
X195791485Y-195228628D01*
X197148628Y-196514342D02*
X197005771Y-196585771D01*
X196720057Y-196585771D01*
X196577200Y-196514342D01*
X196505771Y-196442914D01*
X196434342Y-196300057D01*
X196434342Y-195871485D01*
X196505771Y-195728628D01*
X196577200Y-195657200D01*
X196720057Y-195585771D01*
X197005771Y-195585771D01*
X197148628Y-195657200D01*
X198434342Y-196585771D02*
X198434342Y-195800057D01*
X198362914Y-195657200D01*
X198220057Y-195585771D01*
X197934342Y-195585771D01*
X197791485Y-195657200D01*
X198434342Y-196514342D02*
X198291485Y-196585771D01*
X197934342Y-196585771D01*
X197791485Y-196514342D01*
X197720057Y-196371485D01*
X197720057Y-196228628D01*
X197791485Y-196085771D01*
X197934342Y-196014342D01*
X198291485Y-196014342D01*
X198434342Y-195942914D01*
X199791485Y-196585771D02*
X199791485Y-195085771D01*
X199791485Y-196514342D02*
X199648628Y-196585771D01*
X199362914Y-196585771D01*
X199220057Y-196514342D01*
X199148628Y-196442914D01*
X199077200Y-196300057D01*
X199077200Y-195871485D01*
X199148628Y-195728628D01*
X199220057Y-195657200D01*
X199362914Y-195585771D01*
X199648628Y-195585771D01*
X199791485Y-195657200D01*
X202077200Y-197157200D02*
X202005771Y-197085771D01*
X201862914Y-196871485D01*
X201791485Y-196728628D01*
X201720057Y-196514342D01*
X201648628Y-196157200D01*
X201648628Y-195871485D01*
X201720057Y-195514342D01*
X201791485Y-195300057D01*
X201862914Y-195157200D01*
X202005771Y-194942914D01*
X202077200Y-194871485D01*
X203291485Y-195085771D02*
X203005771Y-195085771D01*
X202862914Y-195157200D01*
X202791485Y-195228628D01*
X202648628Y-195442914D01*
X202577200Y-195728628D01*
X202577200Y-196300057D01*
X202648628Y-196442914D01*
X202720057Y-196514342D01*
X202862914Y-196585771D01*
X203148628Y-196585771D01*
X203291485Y-196514342D01*
X203362914Y-196442914D01*
X203434342Y-196300057D01*
X203434342Y-195942914D01*
X203362914Y-195800057D01*
X203291485Y-195728628D01*
X203148628Y-195657200D01*
X202862914Y-195657200D01*
X202720057Y-195728628D01*
X202648628Y-195800057D01*
X202577200Y-195942914D01*
X204077200Y-196442914D02*
X204148628Y-196514342D01*
X204077200Y-196585771D01*
X204005771Y-196514342D01*
X204077200Y-196442914D01*
X204077200Y-196585771D01*
X205077200Y-195085771D02*
X205220057Y-195085771D01*
X205362914Y-195157200D01*
X205434342Y-195228628D01*
X205505771Y-195371485D01*
X205577200Y-195657200D01*
X205577200Y-196014342D01*
X205505771Y-196300057D01*
X205434342Y-196442914D01*
X205362914Y-196514342D01*
X205220057Y-196585771D01*
X205077200Y-196585771D01*
X204934342Y-196514342D01*
X204862914Y-196442914D01*
X204791485Y-196300057D01*
X204720057Y-196014342D01*
X204720057Y-195657200D01*
X204791485Y-195371485D01*
X204862914Y-195228628D01*
X204934342Y-195157200D01*
X205077200Y-195085771D01*
X206220057Y-196442914D02*
X206291485Y-196514342D01*
X206220057Y-196585771D01*
X206148628Y-196514342D01*
X206220057Y-196442914D01*
X206220057Y-196585771D01*
X207220057Y-195085771D02*
X207362914Y-195085771D01*
X207505771Y-195157200D01*
X207577200Y-195228628D01*
X207648628Y-195371485D01*
X207720057Y-195657200D01*
X207720057Y-196014342D01*
X207648628Y-196300057D01*
X207577200Y-196442914D01*
X207505771Y-196514342D01*
X207362914Y-196585771D01*
X207220057Y-196585771D01*
X207077200Y-196514342D01*
X207005771Y-196442914D01*
X206934342Y-196300057D01*
X206862914Y-196014342D01*
X206862914Y-195657200D01*
X206934342Y-195371485D01*
X207005771Y-195228628D01*
X207077200Y-195157200D01*
X207220057Y-195085771D01*
X208220057Y-197157200D02*
X208291485Y-197085771D01*
X208434342Y-196871485D01*
X208505771Y-196728628D01*
X208577200Y-196514342D01*
X208648628Y-196157200D01*
X208648628Y-195871485D01*
X208577200Y-195514342D01*
X208505771Y-195300057D01*
X208434342Y-195157200D01*
X208291485Y-194942914D01*
X208220057Y-194871485D01*
D10*
D11*
X177002200Y-191507200D02*
X285002200Y-191507200D01*
D10*
D12*
X264411485Y-193785771D02*
X263911485Y-193071485D01*
X263554342Y-193785771D02*
X263554342Y-192285771D01*
X264125771Y-192285771D01*
X264268628Y-192357200D01*
X264340057Y-192428628D01*
X264411485Y-192571485D01*
X264411485Y-192785771D01*
X264340057Y-192928628D01*
X264268628Y-193000057D01*
X264125771Y-193071485D01*
X263554342Y-193071485D01*
X265625771Y-193714342D02*
X265482914Y-193785771D01*
X265197200Y-193785771D01*
X265054342Y-193714342D01*
X264982914Y-193571485D01*
X264982914Y-193000057D01*
X265054342Y-192857200D01*
X265197200Y-192785771D01*
X265482914Y-192785771D01*
X265625771Y-192857200D01*
X265697200Y-193000057D01*
X265697200Y-193142914D01*
X264982914Y-193285771D01*
X266197200Y-192785771D02*
X266554342Y-193785771D01*
X266911485Y-192785771D01*
X267482914Y-193642914D02*
X267554342Y-193714342D01*
X267482914Y-193785771D01*
X267411485Y-193714342D01*
X267482914Y-193642914D01*
X267482914Y-193785771D01*
X267482914Y-192857200D02*
X267554342Y-192928628D01*
X267482914Y-193000057D01*
X267411485Y-192928628D01*
X267482914Y-192857200D01*
X267482914Y-193000057D01*
D10*
D11*
X178362914Y-193714342D02*
X178577200Y-193785771D01*
X178934342Y-193785771D01*
X179077200Y-193714342D01*
X179148628Y-193642914D01*
X179220057Y-193500057D01*
X179220057Y-193357200D01*
X179148628Y-193214342D01*
X179077200Y-193142914D01*
X178934342Y-193071485D01*
X178648628Y-193000057D01*
X178505771Y-192928628D01*
X178434342Y-192857200D01*
X178362914Y-192714342D01*
X178362914Y-192571485D01*
X178434342Y-192428628D01*
X178505771Y-192357200D01*
X178648628Y-192285771D01*
X179005771Y-192285771D01*
X179220057Y-192357200D01*
X179862914Y-193785771D02*
X179862914Y-192785771D01*
X179862914Y-192285771D02*
X179791485Y-192357200D01*
X179862914Y-192428628D01*
X179934342Y-192357200D01*
X179862914Y-192285771D01*
X179862914Y-192428628D01*
X180434342Y-192785771D02*
X181220057Y-192785771D01*
X180434342Y-193785771D01*
X181220057Y-193785771D01*
X182362914Y-193714342D02*
X182220057Y-193785771D01*
X181934342Y-193785771D01*
X181791485Y-193714342D01*
X181720057Y-193571485D01*
X181720057Y-193000057D01*
X181791485Y-192857200D01*
X181934342Y-192785771D01*
X182220057Y-192785771D01*
X182362914Y-192857200D01*
X182434342Y-193000057D01*
X182434342Y-193142914D01*
X181720057Y-193285771D01*
X183077200Y-193642914D02*
X183148628Y-193714342D01*
X183077200Y-193785771D01*
X183005771Y-193714342D01*
X183077200Y-193642914D01*
X183077200Y-193785771D01*
X183077200Y-192857200D02*
X183148628Y-192928628D01*
X183077200Y-193000057D01*
X183005771Y-192928628D01*
X183077200Y-192857200D01*
X183077200Y-193000057D01*
X184862914Y-193357200D02*
X185577200Y-193357200D01*
X184720057Y-193785771D02*
X185220057Y-192285771D01*
X185720057Y-193785771D01*
X186862914Y-192785771D02*
X186862914Y-193785771D01*
X186505771Y-192214342D02*
X186148628Y-193285771D01*
X187077200Y-193285771D01*
D10*
D11*
X263434342Y-196585771D02*
X263434342Y-195085771D01*
X264791485Y-196585771D02*
X264791485Y-195085771D01*
X264791485Y-196514342D02*
X264648628Y-196585771D01*
X264362914Y-196585771D01*
X264220057Y-196514342D01*
X264148628Y-196442914D01*
X264077200Y-196300057D01*
X264077200Y-195871485D01*
X264148628Y-195728628D01*
X264220057Y-195657200D01*
X264362914Y-195585771D01*
X264648628Y-195585771D01*
X264791485Y-195657200D01*
X265505771Y-196442914D02*
X265577200Y-196514342D01*
X265505771Y-196585771D01*
X265434342Y-196514342D01*
X265505771Y-196442914D01*
X265505771Y-196585771D01*
X265505771Y-195657200D02*
X265577200Y-195728628D01*
X265505771Y-195800057D01*
X265434342Y-195728628D01*
X265505771Y-195657200D01*
X265505771Y-195800057D01*
X268148628Y-196585771D02*
X267291485Y-196585771D01*
X267720057Y-196585771D02*
X267720057Y-195085771D01*
X267577200Y-195300057D01*
X267434342Y-195442914D01*
X267291485Y-195514342D01*
X269862914Y-195014342D02*
X268577200Y-196942914D01*
X271148628Y-196585771D02*
X270291485Y-196585771D01*
X270720057Y-196585771D02*
X270720057Y-195085771D01*
X270577200Y-195300057D01*
X270434342Y-195442914D01*
X270291485Y-195514342D01*
D10*
D11*
X177002200Y-187507200D02*
X285002200Y-187507200D01*
D10*
D13*
X178714580Y-188211961D02*
X179857438Y-188211961D01*
X179036009Y-190211961D02*
X179286009Y-188211961D01*
X180274104Y-190211961D02*
X180440771Y-188878628D01*
X180524104Y-188211961D02*
X180416961Y-188307200D01*
X180500295Y-188402438D01*
X180607438Y-188307200D01*
X180524104Y-188211961D01*
X180500295Y-188402438D01*
X181107438Y-188878628D02*
X181869342Y-188878628D01*
X181476485Y-188211961D02*
X181262200Y-189926247D01*
X181333628Y-190116723D01*
X181512200Y-190211961D01*
X181702676Y-190211961D01*
X182655057Y-190211961D02*
X182476485Y-190116723D01*
X182405057Y-189926247D01*
X182619342Y-188211961D01*
X184190771Y-190116723D02*
X183988390Y-190211961D01*
X183607438Y-190211961D01*
X183428866Y-190116723D01*
X183357438Y-189926247D01*
X183452676Y-189164342D01*
X183571723Y-188973866D01*
X183774104Y-188878628D01*
X184155057Y-188878628D01*
X184333628Y-188973866D01*
X184405057Y-189164342D01*
X184381247Y-189354819D01*
X183405057Y-189545295D01*
X185155057Y-190021485D02*
X185238390Y-190116723D01*
X185131247Y-190211961D01*
X185047914Y-190116723D01*
X185155057Y-190021485D01*
X185131247Y-190211961D01*
X185286009Y-188973866D02*
X185369342Y-189069104D01*
X185262200Y-189164342D01*
X185178866Y-189069104D01*
X185286009Y-188973866D01*
X185262200Y-189164342D01*
D10*
D11*
X178934342Y-185600057D02*
X178434342Y-185600057D01*
X178434342Y-186385771D02*
X178434342Y-184885771D01*
X179148628Y-184885771D01*
X179720057Y-186385771D02*
X179720057Y-185385771D01*
X179720057Y-184885771D02*
X179648628Y-184957200D01*
X179720057Y-185028628D01*
X179791485Y-184957200D01*
X179720057Y-184885771D01*
X179720057Y-185028628D01*
X180648628Y-186385771D02*
X180505771Y-186314342D01*
X180434342Y-186171485D01*
X180434342Y-184885771D01*
X181791485Y-186314342D02*
X181648628Y-186385771D01*
X181362914Y-186385771D01*
X181220057Y-186314342D01*
X181148628Y-186171485D01*
X181148628Y-185600057D01*
X181220057Y-185457200D01*
X181362914Y-185385771D01*
X181648628Y-185385771D01*
X181791485Y-185457200D01*
X181862914Y-185600057D01*
X181862914Y-185742914D01*
X181148628Y-185885771D01*
X182505771Y-186242914D02*
X182577200Y-186314342D01*
X182505771Y-186385771D01*
X182434342Y-186314342D01*
X182505771Y-186242914D01*
X182505771Y-186385771D01*
X182505771Y-185457200D02*
X182577200Y-185528628D01*
X182505771Y-185600057D01*
X182434342Y-185528628D01*
X182505771Y-185457200D01*
X182505771Y-185600057D01*
X185005771Y-186385771D02*
X185005771Y-184885771D01*
X185005771Y-186314342D02*
X184862914Y-186385771D01*
X184577200Y-186385771D01*
X184434342Y-186314342D01*
X184362914Y-186242914D01*
X184291485Y-186100057D01*
X184291485Y-185671485D01*
X184362914Y-185528628D01*
X184434342Y-185457200D01*
X184577200Y-185385771D01*
X184862914Y-185385771D01*
X185005771Y-185457200D01*
X185720057Y-186385771D02*
X185720057Y-185385771D01*
X185720057Y-185671485D02*
X185791485Y-185528628D01*
X185862914Y-185457200D01*
X186005771Y-185385771D01*
X186148628Y-185385771D01*
X186648628Y-186385771D02*
X186648628Y-185385771D01*
X186648628Y-184885771D02*
X186577200Y-184957200D01*
X186648628Y-185028628D01*
X186720057Y-184957200D01*
X186648628Y-184885771D01*
X186648628Y-185028628D01*
X187220057Y-185385771D02*
X187577200Y-186385771D01*
X187934342Y-185385771D01*
X189077200Y-186314342D02*
X188934342Y-186385771D01*
X188648628Y-186385771D01*
X188505771Y-186314342D01*
X188434342Y-186171485D01*
X188434342Y-185600057D01*
X188505771Y-185457200D01*
X188648628Y-185385771D01*
X188934342Y-185385771D01*
X189077200Y-185457200D01*
X189148628Y-185600057D01*
X189148628Y-185742914D01*
X188434342Y-185885771D01*
X189791485Y-186385771D02*
X189791485Y-185385771D01*
X189791485Y-185671485D02*
X189862914Y-185528628D01*
X189934342Y-185457200D01*
X190077200Y-185385771D01*
X190220057Y-185385771D01*
X190720057Y-185814342D02*
X191862914Y-185814342D01*
X192577200Y-186385771D02*
X192577200Y-184885771D01*
X192577200Y-185457200D02*
X192720057Y-185385771D01*
X193005771Y-185385771D01*
X193148628Y-185457200D01*
X193220057Y-185528628D01*
X193291485Y-185671485D01*
X193291485Y-186100057D01*
X193220057Y-186242914D01*
X193148628Y-186314342D01*
X193005771Y-186385771D01*
X192720057Y-186385771D01*
X192577200Y-186314342D01*
X194148628Y-186385771D02*
X194005771Y-186314342D01*
X193934342Y-186242914D01*
X193862914Y-186100057D01*
X193862914Y-185671485D01*
X193934342Y-185528628D01*
X194005771Y-185457200D01*
X194148628Y-185385771D01*
X194362914Y-185385771D01*
X194505771Y-185457200D01*
X194577200Y-185528628D01*
X194648628Y-185671485D01*
X194648628Y-186100057D01*
X194577200Y-186242914D01*
X194505771Y-186314342D01*
X194362914Y-186385771D01*
X194148628Y-186385771D01*
X195934342Y-186385771D02*
X195934342Y-185600057D01*
X195862914Y-185457200D01*
X195720057Y-185385771D01*
X195434342Y-185385771D01*
X195291485Y-185457200D01*
X195934342Y-186314342D02*
X195791485Y-186385771D01*
X195434342Y-186385771D01*
X195291485Y-186314342D01*
X195220057Y-186171485D01*
X195220057Y-186028628D01*
X195291485Y-185885771D01*
X195434342Y-185814342D01*
X195791485Y-185814342D01*
X195934342Y-185742914D01*
X196648628Y-186385771D02*
X196648628Y-185385771D01*
X196648628Y-185671485D02*
X196720057Y-185528628D01*
X196791485Y-185457200D01*
X196934342Y-185385771D01*
X197077200Y-185385771D01*
X198220057Y-186385771D02*
X198220057Y-184885771D01*
X198220057Y-186314342D02*
X198077200Y-186385771D01*
X197791485Y-186385771D01*
X197648628Y-186314342D01*
X197577200Y-186242914D01*
X197505771Y-186100057D01*
X197505771Y-185671485D01*
X197577200Y-185528628D01*
X197648628Y-185457200D01*
X197791485Y-185385771D01*
X198077200Y-185385771D01*
X198220057Y-185457200D01*
X198934342Y-186242914D02*
X199005771Y-186314342D01*
X198934342Y-186385771D01*
X198862914Y-186314342D01*
X198934342Y-186242914D01*
X198934342Y-186385771D01*
X199648628Y-186385771D02*
X199648628Y-184885771D01*
X199791485Y-185814342D02*
X200220057Y-186385771D01*
X200220057Y-185385771D02*
X199648628Y-185957200D01*
X200862914Y-186385771D02*
X200862914Y-185385771D01*
X200862914Y-184885771D02*
X200791485Y-184957200D01*
X200862914Y-185028628D01*
X200934342Y-184957200D01*
X200862914Y-184885771D01*
X200862914Y-185028628D01*
X202220057Y-186314342D02*
X202077200Y-186385771D01*
X201791485Y-186385771D01*
X201648628Y-186314342D01*
X201577200Y-186242914D01*
X201505771Y-186100057D01*
X201505771Y-185671485D01*
X201577200Y-185528628D01*
X201648628Y-185457200D01*
X201791485Y-185385771D01*
X202077200Y-185385771D01*
X202220057Y-185457200D01*
X203505771Y-186385771D02*
X203505771Y-185600057D01*
X203434342Y-185457200D01*
X203291485Y-185385771D01*
X203005771Y-185385771D01*
X202862914Y-185457200D01*
X203505771Y-186314342D02*
X203362914Y-186385771D01*
X203005771Y-186385771D01*
X202862914Y-186314342D01*
X202791485Y-186171485D01*
X202791485Y-186028628D01*
X202862914Y-185885771D01*
X203005771Y-185814342D01*
X203362914Y-185814342D01*
X203505771Y-185742914D01*
X204862914Y-186385771D02*
X204862914Y-184885771D01*
X204862914Y-186314342D02*
X204720057Y-186385771D01*
X204434342Y-186385771D01*
X204291485Y-186314342D01*
X204220057Y-186242914D01*
X204148628Y-186100057D01*
X204148628Y-185671485D01*
X204220057Y-185528628D01*
X204291485Y-185457200D01*
X204434342Y-185385771D01*
X204720057Y-185385771D01*
X204862914Y-185457200D01*
X205220057Y-186528628D02*
X206362914Y-186528628D01*
X206720057Y-185385771D02*
X206720057Y-186885771D01*
X206720057Y-185457200D02*
X206862914Y-185385771D01*
X207148628Y-185385771D01*
X207291485Y-185457200D01*
X207362914Y-185528628D01*
X207434342Y-185671485D01*
X207434342Y-186100057D01*
X207362914Y-186242914D01*
X207291485Y-186314342D01*
X207148628Y-186385771D01*
X206862914Y-186385771D01*
X206720057Y-186314342D01*
X208720057Y-186314342D02*
X208577200Y-186385771D01*
X208291485Y-186385771D01*
X208148628Y-186314342D01*
X208077200Y-186242914D01*
X208005771Y-186100057D01*
X208005771Y-185671485D01*
X208077200Y-185528628D01*
X208148628Y-185457200D01*
X208291485Y-185385771D01*
X208577200Y-185385771D01*
X208720057Y-185457200D01*
X209362914Y-186385771D02*
X209362914Y-184885771D01*
X209362914Y-185457200D02*
X209505771Y-185385771D01*
X209791485Y-185385771D01*
X209934342Y-185457200D01*
X210005771Y-185528628D01*
X210077200Y-185671485D01*
X210077200Y-186100057D01*
X210005771Y-186242914D01*
X209934342Y-186314342D01*
X209791485Y-186385771D01*
X209505771Y-186385771D01*
X209362914Y-186314342D01*
D10*
D11*
X177002200Y-181507200D02*
X285002200Y-181507200D01*
D10*
D11*
X178362914Y-183614342D02*
X178577200Y-183685771D01*
X178934342Y-183685771D01*
X179077200Y-183614342D01*
X179148628Y-183542914D01*
X179220057Y-183400057D01*
X179220057Y-183257200D01*
X179148628Y-183114342D01*
X179077200Y-183042914D01*
X178934342Y-182971485D01*
X178648628Y-182900057D01*
X178505771Y-182828628D01*
X178434342Y-182757200D01*
X178362914Y-182614342D01*
X178362914Y-182471485D01*
X178434342Y-182328628D01*
X178505771Y-182257200D01*
X178648628Y-182185771D01*
X179005771Y-182185771D01*
X179220057Y-182257200D01*
X179862914Y-183685771D02*
X179862914Y-182185771D01*
X180505771Y-183685771D02*
X180505771Y-182900057D01*
X180434342Y-182757200D01*
X180291485Y-182685771D01*
X180077200Y-182685771D01*
X179934342Y-182757200D01*
X179862914Y-182828628D01*
X181791485Y-183614342D02*
X181648628Y-183685771D01*
X181362914Y-183685771D01*
X181220057Y-183614342D01*
X181148628Y-183471485D01*
X181148628Y-182900057D01*
X181220057Y-182757200D01*
X181362914Y-182685771D01*
X181648628Y-182685771D01*
X181791485Y-182757200D01*
X181862914Y-182900057D01*
X181862914Y-183042914D01*
X181148628Y-183185771D01*
X183077200Y-183614342D02*
X182934342Y-183685771D01*
X182648628Y-183685771D01*
X182505771Y-183614342D01*
X182434342Y-183471485D01*
X182434342Y-182900057D01*
X182505771Y-182757200D01*
X182648628Y-182685771D01*
X182934342Y-182685771D01*
X183077200Y-182757200D01*
X183148628Y-182900057D01*
X183148628Y-183042914D01*
X182434342Y-183185771D01*
X183577200Y-182685771D02*
X184148628Y-182685771D01*
X183791485Y-182185771D02*
X183791485Y-183471485D01*
X183862914Y-183614342D01*
X184005771Y-183685771D01*
X184148628Y-183685771D01*
X184648628Y-183542914D02*
X184720057Y-183614342D01*
X184648628Y-183685771D01*
X184577200Y-183614342D01*
X184648628Y-183542914D01*
X184648628Y-183685771D01*
X184648628Y-182757200D02*
X184720057Y-182828628D01*
X184648628Y-182900057D01*
X184577200Y-182828628D01*
X184648628Y-182757200D01*
X184648628Y-182900057D01*
D10*
D12*
D10*
D11*
D10*
D11*
D10*
D11*
D10*
D11*
D10*
D11*
X197002200Y-191507200D02*
X197002200Y-194507200D01*
D10*
D11*
X261002200Y-191507200D02*
X261002200Y-198007200D01*
X120631071Y-71273571D02*
X120964404Y-71273571D01*
X120964404Y-71797380D02*
X120964404Y-70797380D01*
X120488214Y-70797380D01*
X120107261Y-71797380D02*
X120107261Y-70797380D01*
X119869166Y-70797380D01*
X119726309Y-70845000D01*
X119631071Y-70940238D01*
X119583452Y-71035476D01*
X119535833Y-71225952D01*
X119535833Y-71368809D01*
X119583452Y-71559285D01*
X119631071Y-71654523D01*
X119726309Y-71749761D01*
X119869166Y-71797380D01*
X120107261Y-71797380D01*
X119107261Y-71416428D02*
X118345357Y-71416428D01*
X118012023Y-71130714D02*
X117631071Y-71130714D01*
X117869166Y-71797380D02*
X117869166Y-70940238D01*
X117821547Y-70845000D01*
X117726309Y-70797380D01*
X117631071Y-70797380D01*
X117297738Y-71797380D02*
X117297738Y-70797380D01*
X116726309Y-71797380D01*
X116726309Y-70797380D01*
X116250119Y-71797380D02*
X116250119Y-70797380D01*
X115202500Y-71797380D02*
X115535833Y-71321190D01*
X115773928Y-71797380D02*
X115773928Y-70797380D01*
X115392976Y-70797380D01*
X115297738Y-70845000D01*
X115250119Y-70892619D01*
X115202500Y-70987857D01*
X115202500Y-71130714D01*
X115250119Y-71225952D01*
X115297738Y-71273571D01*
X115392976Y-71321190D01*
X115773928Y-71321190D01*
X114821547Y-71749761D02*
X114678690Y-71797380D01*
X114440595Y-71797380D01*
X114345357Y-71749761D01*
X114297738Y-71702142D01*
X114250119Y-71606904D01*
X114250119Y-71511666D01*
X114297738Y-71416428D01*
X114345357Y-71368809D01*
X114440595Y-71321190D01*
X114631071Y-71273571D01*
X114726309Y-71225952D01*
X114773928Y-71178333D01*
X114821547Y-71083095D01*
X114821547Y-70987857D01*
X114773928Y-70892619D01*
X114726309Y-70845000D01*
X114631071Y-70797380D01*
X114392976Y-70797380D01*
X114250119Y-70845000D01*
X113154880Y-71130714D02*
X112916785Y-71797380D01*
X112678690Y-71130714D01*
X112345357Y-70892619D02*
X112297738Y-70845000D01*
X112202500Y-70797380D01*
X111964404Y-70797380D01*
X111869166Y-70845000D01*
X111821547Y-70892619D01*
X111773928Y-70987857D01*
X111773928Y-71083095D01*
X111821547Y-71225952D01*
X112392976Y-71797380D01*
X111773928Y-71797380D01*
X120964404Y-73407380D02*
X120964404Y-72740714D01*
X120964404Y-72931190D02*
X120916785Y-72835952D01*
X120869166Y-72788333D01*
X120773928Y-72740714D01*
X120678690Y-72740714D01*
X120202500Y-73407380D02*
X120297738Y-73359761D01*
X120345357Y-73312142D01*
X120392976Y-73216904D01*
X120392976Y-72931190D01*
X120345357Y-72835952D01*
X120297738Y-72788333D01*
X120202500Y-72740714D01*
X120059642Y-72740714D01*
X119964404Y-72788333D01*
X119916785Y-72835952D01*
X119869166Y-72931190D01*
X119869166Y-73216904D01*
X119916785Y-73312142D01*
X119964404Y-73359761D01*
X120059642Y-73407380D01*
X120202500Y-73407380D01*
X119440595Y-73407380D02*
X119440595Y-72407380D01*
X119012023Y-73407380D02*
X119012023Y-72883571D01*
X119059642Y-72788333D01*
X119154880Y-72740714D01*
X119297738Y-72740714D01*
X119392976Y-72788333D01*
X119440595Y-72835952D01*
X118535833Y-73407380D02*
X118535833Y-72740714D01*
X118535833Y-72407380D02*
X118583452Y-72455000D01*
X118535833Y-72502619D01*
X118488214Y-72455000D01*
X118535833Y-72407380D01*
X118535833Y-72502619D01*
X118202500Y-72740714D02*
X117821547Y-72740714D01*
X118059642Y-72407380D02*
X118059642Y-73264523D01*
X118012023Y-73359761D01*
X117916785Y-73407380D01*
X117821547Y-73407380D01*
X117488214Y-73407380D02*
X117488214Y-72740714D01*
X117488214Y-72931190D02*
X117440595Y-72835952D01*
X117392976Y-72788333D01*
X117297738Y-72740714D01*
X117202500Y-72740714D01*
X116440595Y-73407380D02*
X116440595Y-72883571D01*
X116488214Y-72788333D01*
X116583452Y-72740714D01*
X116773928Y-72740714D01*
X116869166Y-72788333D01*
X116440595Y-73359761D02*
X116535833Y-73407380D01*
X116773928Y-73407380D01*
X116869166Y-73359761D01*
X116916785Y-73264523D01*
X116916785Y-73169285D01*
X116869166Y-73074047D01*
X116773928Y-73026428D01*
X116535833Y-73026428D01*
X116440595Y-72978809D01*
X116107261Y-72740714D02*
X115726309Y-72740714D01*
X115964404Y-72407380D02*
X115964404Y-73264523D01*
X115916785Y-73359761D01*
X115821547Y-73407380D01*
X115726309Y-73407380D01*
X115392976Y-73407380D02*
X115392976Y-72407380D01*
X114964404Y-73407380D02*
X114964404Y-72883571D01*
X115012023Y-72788333D01*
X115107261Y-72740714D01*
X115250119Y-72740714D01*
X115345357Y-72788333D01*
X115392976Y-72835952D01*
X114488214Y-72740714D02*
X114488214Y-73407380D01*
X114488214Y-72835952D02*
X114440595Y-72788333D01*
X114345357Y-72740714D01*
X114202500Y-72740714D01*
X114107261Y-72788333D01*
X114059642Y-72883571D01*
X114059642Y-73407380D01*
X113154880Y-73407380D02*
X113154880Y-72883571D01*
X113202500Y-72788333D01*
X113297738Y-72740714D01*
X113488214Y-72740714D01*
X113583452Y-72788333D01*
X113154880Y-73359761D02*
X113250119Y-73407380D01*
X113488214Y-73407380D01*
X113583452Y-73359761D01*
X113631071Y-73264523D01*
X113631071Y-73169285D01*
X113583452Y-73074047D01*
X113488214Y-73026428D01*
X113250119Y-73026428D01*
X113154880Y-72978809D01*
X112678690Y-73407380D02*
X112678690Y-72740714D01*
X112678690Y-72835952D02*
X112631071Y-72788333D01*
X112535833Y-72740714D01*
X112392976Y-72740714D01*
X112297738Y-72788333D01*
X112250119Y-72883571D01*
X112250119Y-73407380D01*
X112250119Y-72883571D02*
X112202500Y-72788333D01*
X112107261Y-72740714D01*
X111964404Y-72740714D01*
X111869166Y-72788333D01*
X111821547Y-72883571D01*
X111821547Y-73407380D01*
X111345357Y-73312142D02*
X111297738Y-73359761D01*
X111345357Y-73407380D01*
X111392976Y-73359761D01*
X111345357Y-73312142D01*
X111345357Y-73407380D01*
X110869166Y-72740714D02*
X110869166Y-73407380D01*
X110869166Y-72835952D02*
X110821547Y-72788333D01*
X110726309Y-72740714D01*
X110583452Y-72740714D01*
X110488214Y-72788333D01*
X110440595Y-72883571D01*
X110440595Y-73407380D01*
X109345357Y-72931190D02*
X109392976Y-72883571D01*
X109488214Y-72835952D01*
X109583452Y-72835952D01*
X109678690Y-72883571D01*
X109726309Y-72931190D01*
X109773928Y-73026428D01*
X109773928Y-73121666D01*
X109726309Y-73216904D01*
X109678690Y-73264523D01*
X109583452Y-73312142D01*
X109488214Y-73312142D01*
X109392976Y-73264523D01*
X109345357Y-73216904D01*
X109345357Y-72835952D02*
X109345357Y-73216904D01*
X109297738Y-73264523D01*
X109250119Y-73264523D01*
X109154880Y-73216904D01*
X109107261Y-73121666D01*
X109107261Y-72883571D01*
X109202500Y-72740714D01*
X109345357Y-72645476D01*
X109535833Y-72597857D01*
X109726309Y-72645476D01*
X109869166Y-72740714D01*
X109964404Y-72883571D01*
X110012023Y-73074047D01*
X109964404Y-73264523D01*
X109869166Y-73407380D01*
X109726309Y-73502619D01*
X109535833Y-73550238D01*
X109345357Y-73502619D01*
X109202500Y-73407380D01*
X108250119Y-72740714D02*
X108250119Y-73550238D01*
X108297738Y-73645476D01*
X108345357Y-73693095D01*
X108440595Y-73740714D01*
X108583452Y-73740714D01*
X108678690Y-73693095D01*
X108250119Y-73359761D02*
X108345357Y-73407380D01*
X108535833Y-73407380D01*
X108631071Y-73359761D01*
X108678690Y-73312142D01*
X108726309Y-73216904D01*
X108726309Y-72931190D01*
X108678690Y-72835952D01*
X108631071Y-72788333D01*
X108535833Y-72740714D01*
X108345357Y-72740714D01*
X108250119Y-72788333D01*
X107773928Y-73407380D02*
X107773928Y-72740714D01*
X107773928Y-72835952D02*
X107726309Y-72788333D01*
X107631071Y-72740714D01*
X107488214Y-72740714D01*
X107392976Y-72788333D01*
X107345357Y-72883571D01*
X107345357Y-73407380D01*
X107345357Y-72883571D02*
X107297738Y-72788333D01*
X107202500Y-72740714D01*
X107059642Y-72740714D01*
X106964404Y-72788333D01*
X106916785Y-72883571D01*
X106916785Y-73407380D01*
X106012023Y-73407380D02*
X106012023Y-72883571D01*
X106059642Y-72788333D01*
X106154880Y-72740714D01*
X106345357Y-72740714D01*
X106440595Y-72788333D01*
X106012023Y-73359761D02*
X106107261Y-73407380D01*
X106345357Y-73407380D01*
X106440595Y-73359761D01*
X106488214Y-73264523D01*
X106488214Y-73169285D01*
X106440595Y-73074047D01*
X106345357Y-73026428D01*
X106107261Y-73026428D01*
X106012023Y-72978809D01*
X105535833Y-73407380D02*
X105535833Y-72740714D01*
X105535833Y-72407380D02*
X105583452Y-72455000D01*
X105535833Y-72502619D01*
X105488214Y-72455000D01*
X105535833Y-72407380D01*
X105535833Y-72502619D01*
X104916785Y-73407380D02*
X105012023Y-73359761D01*
X105059642Y-73264523D01*
X105059642Y-72407380D01*
X104535833Y-73312142D02*
X104488214Y-73359761D01*
X104535833Y-73407380D01*
X104583452Y-73359761D01*
X104535833Y-73312142D01*
X104535833Y-73407380D01*
X103631071Y-73359761D02*
X103726309Y-73407380D01*
X103916785Y-73407380D01*
X104012023Y-73359761D01*
X104059642Y-73312142D01*
X104107261Y-73216904D01*
X104107261Y-72931190D01*
X104059642Y-72835952D01*
X104012023Y-72788333D01*
X103916785Y-72740714D01*
X103726309Y-72740714D01*
X103631071Y-72788333D01*
X103059642Y-73407380D02*
X103154880Y-73359761D01*
X103202500Y-73312142D01*
X103250119Y-73216904D01*
X103250119Y-72931190D01*
X103202500Y-72835952D01*
X103154880Y-72788333D01*
X103059642Y-72740714D01*
X102916785Y-72740714D01*
X102821547Y-72788333D01*
X102773928Y-72835952D01*
X102726309Y-72931190D01*
X102726309Y-73216904D01*
X102773928Y-73312142D01*
X102821547Y-73359761D01*
X102916785Y-73407380D01*
X103059642Y-73407380D01*
X102297738Y-73407380D02*
X102297738Y-72740714D01*
X102297738Y-72835952D02*
X102250119Y-72788333D01*
X102154880Y-72740714D01*
X102012023Y-72740714D01*
X101916785Y-72788333D01*
X101869166Y-72883571D01*
X101869166Y-73407380D01*
X101869166Y-72883571D02*
X101821547Y-72788333D01*
X101726309Y-72740714D01*
X101583452Y-72740714D01*
X101488214Y-72788333D01*
X101440595Y-72883571D01*
X101440595Y-73407380D01*
D14*
%TO.C,R6*%
X153465000Y-101122936D02*
X153465000Y-101577064D01*
X154935000Y-101122936D02*
X154935000Y-101577064D01*
%TO.C,R4*%
X158735000Y-101122936D02*
X158735000Y-101577064D01*
X157265000Y-101122936D02*
X157265000Y-101577064D01*
%TO.C,FID1*%
G36*
X124256207Y-69879768D02*
G01*
X124293904Y-69879988D01*
X124323459Y-69880557D01*
X124347141Y-69881670D01*
X124367217Y-69883519D01*
X124385954Y-69886295D01*
X124405619Y-69890192D01*
X124428480Y-69895403D01*
X124507283Y-69917002D01*
X124585519Y-69945957D01*
X124659843Y-69982122D01*
X124733438Y-70026870D01*
X124764676Y-70049210D01*
X124812021Y-70088271D01*
X124858918Y-70132600D01*
X124903486Y-70180149D01*
X124943843Y-70228874D01*
X124978110Y-70276727D01*
X125004405Y-70321664D01*
X125016014Y-70344577D01*
X125047888Y-70334695D01*
X125077896Y-70326577D01*
X125135133Y-70315908D01*
X125197397Y-70309320D01*
X125261331Y-70307002D01*
X125323577Y-70309144D01*
X125380776Y-70315935D01*
X125448458Y-70330949D01*
X125530943Y-70358817D01*
X125609477Y-70396024D01*
X125683093Y-70441870D01*
X125750822Y-70495655D01*
X125811695Y-70556680D01*
X125864744Y-70624244D01*
X125909000Y-70697649D01*
X125936118Y-70754848D01*
X125966923Y-70839918D01*
X125986769Y-70925968D01*
X125995689Y-71013228D01*
X125993716Y-71101930D01*
X125980885Y-71192302D01*
X125977502Y-71208500D01*
X125972611Y-71229559D01*
X125968450Y-71244806D01*
X125965663Y-71251726D01*
X125964536Y-71252158D01*
X125955365Y-71250647D01*
X125939730Y-71245385D01*
X125920253Y-71237210D01*
X125863554Y-71212807D01*
X125746274Y-71171008D01*
X125627030Y-71139669D01*
X125506464Y-71118676D01*
X125385220Y-71107909D01*
X125263942Y-71107251D01*
X125143273Y-71116586D01*
X125023857Y-71135795D01*
X124906337Y-71164762D01*
X124791356Y-71203369D01*
X124679560Y-71251498D01*
X124571590Y-71309033D01*
X124468091Y-71375856D01*
X124369706Y-71451849D01*
X124277079Y-71536895D01*
X124267363Y-71546693D01*
X124196286Y-71624159D01*
X124132397Y-71705096D01*
X124073873Y-71791980D01*
X124018889Y-71887286D01*
X124009727Y-71904209D01*
X123973532Y-71967651D01*
X123938925Y-72022401D01*
X123904867Y-72070032D01*
X123870318Y-72112117D01*
X123817106Y-72167531D01*
X123741435Y-72232631D01*
X123659190Y-72289564D01*
X123571368Y-72337799D01*
X123478962Y-72376806D01*
X123382970Y-72406052D01*
X123284386Y-72425005D01*
X123255603Y-72427586D01*
X123218521Y-72428861D01*
X123176032Y-72428906D01*
X123130872Y-72427820D01*
X123085779Y-72425698D01*
X123043489Y-72422639D01*
X123006738Y-72418740D01*
X122978263Y-72414099D01*
X122967627Y-72411779D01*
X122867937Y-72384081D01*
X122773492Y-72347002D01*
X122684773Y-72301026D01*
X122602260Y-72246636D01*
X122526433Y-72184314D01*
X122457772Y-72114543D01*
X122396759Y-72037805D01*
X122343872Y-71954585D01*
X122299593Y-71865363D01*
X122264402Y-71770623D01*
X122238778Y-71670848D01*
X122234628Y-71648951D01*
X122222829Y-71551333D01*
X122221561Y-71453485D01*
X122230509Y-71356311D01*
X122249357Y-71260715D01*
X122277790Y-71167601D01*
X122315493Y-71077873D01*
X122362151Y-70992436D01*
X122417447Y-70912193D01*
X122481067Y-70838048D01*
X122552695Y-70770906D01*
X122565712Y-70760173D01*
X122649201Y-70699474D01*
X122737800Y-70648543D01*
X122831426Y-70607418D01*
X122929994Y-70576137D01*
X123033420Y-70554739D01*
X123052310Y-70552228D01*
X123102189Y-70548516D01*
X123157757Y-70547655D01*
X123215713Y-70549495D01*
X123272751Y-70553892D01*
X123325570Y-70560697D01*
X123370865Y-70569763D01*
X123372293Y-70570097D01*
X123379654Y-70569876D01*
X123384535Y-70563600D01*
X123389039Y-70548849D01*
X123394532Y-70528788D01*
X123408419Y-70485319D01*
X123425346Y-70438924D01*
X123443683Y-70393957D01*
X123461795Y-70354770D01*
X123466252Y-70345994D01*
X123515539Y-70261961D01*
X123573015Y-70185139D01*
X123638286Y-70115829D01*
X123710957Y-70054331D01*
X123790635Y-70000947D01*
X123876924Y-69955978D01*
X123969431Y-69919724D01*
X124067761Y-69892486D01*
X124084049Y-69888985D01*
X124103505Y-69885431D01*
X124122891Y-69882897D01*
X124144426Y-69881221D01*
X124170330Y-69880244D01*
X124202823Y-69879805D01*
X124244126Y-69879744D01*
X124256207Y-69879768D01*
G37*
G36*
X125380827Y-71631890D02*
G01*
X125433131Y-71636697D01*
X125527523Y-71653610D01*
X125620420Y-71680579D01*
X125710572Y-71716989D01*
X125796725Y-71762226D01*
X125877628Y-71815675D01*
X125952029Y-71876723D01*
X126018676Y-71944756D01*
X126037017Y-71966342D01*
X126097966Y-72048483D01*
X126149155Y-72135024D01*
X126190492Y-72225253D01*
X126221883Y-72318456D01*
X126243236Y-72413921D01*
X126254459Y-72510934D01*
X126255457Y-72608782D01*
X126246139Y-72706753D01*
X126226411Y-72804132D01*
X126196180Y-72900207D01*
X126155355Y-72994264D01*
X126110846Y-73073716D01*
X126053674Y-73154895D01*
X125988538Y-73229078D01*
X125916085Y-73295787D01*
X125836962Y-73354549D01*
X125751814Y-73404887D01*
X125661289Y-73446326D01*
X125566034Y-73478390D01*
X125466694Y-73500605D01*
X125423130Y-73506509D01*
X125357583Y-73511130D01*
X125289439Y-73511693D01*
X125222982Y-73508196D01*
X125162497Y-73500641D01*
X125137458Y-73496382D01*
X125116512Y-73492862D01*
X125102068Y-73490483D01*
X125096310Y-73489609D01*
X125095074Y-73492035D01*
X125091871Y-73502551D01*
X125087808Y-73518567D01*
X125079537Y-73550044D01*
X125054333Y-73623633D01*
X125021467Y-73697472D01*
X124982478Y-73768318D01*
X124938901Y-73832929D01*
X124924297Y-73851836D01*
X124859634Y-73924522D01*
X124787723Y-73989222D01*
X124709250Y-74045540D01*
X124624897Y-74093078D01*
X124535350Y-74131438D01*
X124441293Y-74160222D01*
X124343409Y-74179032D01*
X124337298Y-74179782D01*
X124306412Y-74181909D01*
X124268281Y-74182607D01*
X124225859Y-74181990D01*
X124182096Y-74180172D01*
X124139948Y-74177265D01*
X124102366Y-74173382D01*
X124072304Y-74168637D01*
X124038356Y-74160933D01*
X123968133Y-74140401D01*
X123898010Y-74114261D01*
X123831603Y-74083932D01*
X123772530Y-74050836D01*
X123707761Y-74005233D01*
X123643683Y-73950222D01*
X123584043Y-73889031D01*
X123531034Y-73823913D01*
X123486849Y-73757123D01*
X123483594Y-73751548D01*
X123473581Y-73734419D01*
X123466355Y-73722088D01*
X123463304Y-73716919D01*
X123462962Y-73716813D01*
X123455689Y-73717994D01*
X123441022Y-73721492D01*
X123421606Y-73726689D01*
X123414976Y-73728508D01*
X123326240Y-73746889D01*
X123237365Y-73754306D01*
X123148827Y-73750806D01*
X123061098Y-73736435D01*
X122974652Y-73711237D01*
X122889964Y-73675260D01*
X122845284Y-73651687D01*
X122793674Y-73619304D01*
X122746764Y-73582927D01*
X122700966Y-73539989D01*
X122674020Y-73511649D01*
X122628672Y-73457564D01*
X122590927Y-73402494D01*
X122558823Y-73343727D01*
X122546880Y-73318492D01*
X122521544Y-73257741D01*
X122503188Y-73200026D01*
X122491060Y-73142087D01*
X122484410Y-73080664D01*
X122482485Y-73012497D01*
X122482706Y-72986060D01*
X122483789Y-72951003D01*
X122486019Y-72921578D01*
X122489680Y-72894485D01*
X122495057Y-72866423D01*
X122499198Y-72847399D01*
X122503878Y-72826892D01*
X122507409Y-72812577D01*
X122509242Y-72806758D01*
X122512245Y-72807159D01*
X122522754Y-72811262D01*
X122537834Y-72818401D01*
X122555700Y-72826926D01*
X122591246Y-72842218D01*
X122632532Y-72858465D01*
X122676516Y-72874532D01*
X122720158Y-72889280D01*
X122760416Y-72901576D01*
X122847930Y-72923401D01*
X122942664Y-72940914D01*
X123038014Y-72952731D01*
X123130889Y-72958472D01*
X123218198Y-72957758D01*
X123300086Y-72951680D01*
X123427674Y-72933565D01*
X123551470Y-72905206D01*
X123671170Y-72866737D01*
X123786470Y-72818291D01*
X123897067Y-72760003D01*
X124002656Y-72692004D01*
X124102934Y-72614430D01*
X124197597Y-72527413D01*
X124198569Y-72526441D01*
X124255731Y-72466572D01*
X124307122Y-72406731D01*
X124354298Y-72344743D01*
X124398815Y-72278434D01*
X124442230Y-72205627D01*
X124486097Y-72124149D01*
X124513844Y-72074121D01*
X124553126Y-72014670D01*
X124598500Y-71957986D01*
X124652195Y-71901075D01*
X124705555Y-71851689D01*
X124762405Y-71807031D01*
X124823497Y-71767306D01*
X124892226Y-71730098D01*
X124922153Y-71715698D01*
X125010320Y-71679701D01*
X125098555Y-71653667D01*
X125188575Y-71637250D01*
X125282094Y-71630106D01*
X125380827Y-71631890D01*
G37*
%TO.C,R5*%
X161065000Y-101122936D02*
X161065000Y-101577064D01*
X162535000Y-101122936D02*
X162535000Y-101577064D01*
%TD*%
M02*
